G04 #@! TF.FileFunction,Legend,Top*
%FSLAX46Y46*%
G04 Gerber Fmt 4.6, Leading zero omitted, Abs format (unit mm)*
G04 Created by KiCad (PCBNEW 4.0.2+dfsg1-stable) date Mon Nov  6 16:18:01 2017*
%MOMM*%
G01*
G04 APERTURE LIST*
%ADD10C,0.100000*%
%ADD11C,0.150000*%
%ADD12C,0.075000*%
%ADD13C,0.120000*%
G04 APERTURE END LIST*
D10*
X107041943Y-81241800D02*
X107041943Y-80632276D01*
X106813371Y-80251324D02*
X107041943Y-79641800D01*
X107270514Y-80251324D01*
X114028667Y-106868167D02*
X114462000Y-106868167D01*
X114228667Y-107134833D01*
X114328667Y-107134833D01*
X114395334Y-107168167D01*
X114428667Y-107201500D01*
X114462000Y-107268167D01*
X114462000Y-107434833D01*
X114428667Y-107501500D01*
X114395334Y-107534833D01*
X114328667Y-107568167D01*
X114128667Y-107568167D01*
X114062000Y-107534833D01*
X114028667Y-107501500D01*
X114762001Y-107501500D02*
X114795334Y-107534833D01*
X114762001Y-107568167D01*
X114728667Y-107534833D01*
X114762001Y-107501500D01*
X114762001Y-107568167D01*
X115028667Y-106868167D02*
X115462000Y-106868167D01*
X115228667Y-107134833D01*
X115328667Y-107134833D01*
X115395334Y-107168167D01*
X115428667Y-107201500D01*
X115462000Y-107268167D01*
X115462000Y-107434833D01*
X115428667Y-107501500D01*
X115395334Y-107534833D01*
X115328667Y-107568167D01*
X115128667Y-107568167D01*
X115062000Y-107534833D01*
X115028667Y-107501500D01*
X115662001Y-106868167D02*
X115895334Y-107568167D01*
X116128667Y-106868167D01*
X103834667Y-102327833D02*
X103934667Y-102361167D01*
X104101334Y-102361167D01*
X104168001Y-102327833D01*
X104201334Y-102294500D01*
X104234667Y-102227833D01*
X104234667Y-102161167D01*
X104201334Y-102094500D01*
X104168001Y-102061167D01*
X104101334Y-102027833D01*
X103968001Y-101994500D01*
X103901334Y-101961167D01*
X103868001Y-101927833D01*
X103834667Y-101861167D01*
X103834667Y-101794500D01*
X103868001Y-101727833D01*
X103901334Y-101694500D01*
X103968001Y-101661167D01*
X104134667Y-101661167D01*
X104234667Y-101694500D01*
X104534668Y-102361167D02*
X104534668Y-101661167D01*
X104534668Y-101994500D02*
X104934668Y-101994500D01*
X104934668Y-102361167D02*
X104934668Y-101661167D01*
X105168001Y-101661167D02*
X105568001Y-101661167D01*
X105368001Y-102361167D02*
X105368001Y-101661167D01*
X105634667Y-102427833D02*
X106168000Y-102427833D01*
X106734667Y-102294500D02*
X106701333Y-102327833D01*
X106601333Y-102361167D01*
X106534667Y-102361167D01*
X106434667Y-102327833D01*
X106368000Y-102261167D01*
X106334667Y-102194500D01*
X106301333Y-102061167D01*
X106301333Y-101961167D01*
X106334667Y-101827833D01*
X106368000Y-101761167D01*
X106434667Y-101694500D01*
X106534667Y-101661167D01*
X106601333Y-101661167D01*
X106701333Y-101694500D01*
X106734667Y-101727833D01*
X107368000Y-102361167D02*
X107034667Y-102361167D01*
X107034667Y-101661167D01*
X107601334Y-102361167D02*
X107601334Y-101661167D01*
X108001334Y-102361167D02*
X107701334Y-101961167D01*
X108001334Y-101661167D02*
X107601334Y-102061167D01*
X117115501Y-107949167D02*
X117115501Y-107249167D01*
X117282167Y-107249167D01*
X117382167Y-107282500D01*
X117448834Y-107349167D01*
X117482167Y-107415833D01*
X117515501Y-107549167D01*
X117515501Y-107649167D01*
X117482167Y-107782500D01*
X117448834Y-107849167D01*
X117382167Y-107915833D01*
X117282167Y-107949167D01*
X117115501Y-107949167D01*
X117948834Y-107249167D02*
X118082167Y-107249167D01*
X118148834Y-107282500D01*
X118215501Y-107349167D01*
X118248834Y-107482500D01*
X118248834Y-107715833D01*
X118215501Y-107849167D01*
X118148834Y-107915833D01*
X118082167Y-107949167D01*
X117948834Y-107949167D01*
X117882167Y-107915833D01*
X117815501Y-107849167D01*
X117782167Y-107715833D01*
X117782167Y-107482500D01*
X117815501Y-107349167D01*
X117882167Y-107282500D01*
X117948834Y-107249167D01*
X110648000Y-87528333D02*
X110614667Y-87594999D01*
X110614667Y-87694999D01*
X110648000Y-87794999D01*
X110714667Y-87861666D01*
X110781333Y-87894999D01*
X110914667Y-87928333D01*
X111014667Y-87928333D01*
X111148000Y-87894999D01*
X111214667Y-87861666D01*
X111281333Y-87794999D01*
X111314667Y-87694999D01*
X111314667Y-87628333D01*
X111281333Y-87528333D01*
X111248000Y-87494999D01*
X111014667Y-87494999D01*
X111014667Y-87628333D01*
X111314667Y-87194999D02*
X110614667Y-87194999D01*
X111314667Y-86794999D01*
X110614667Y-86794999D01*
X111314667Y-86461666D02*
X110614667Y-86461666D01*
X110614667Y-86295000D01*
X110648000Y-86195000D01*
X110714667Y-86128333D01*
X110781333Y-86095000D01*
X110914667Y-86061666D01*
X111014667Y-86061666D01*
X111148000Y-86095000D01*
X111214667Y-86128333D01*
X111281333Y-86195000D01*
X111314667Y-86295000D01*
X111314667Y-86461666D01*
X110648000Y-83083333D02*
X110614667Y-83149999D01*
X110614667Y-83249999D01*
X110648000Y-83349999D01*
X110714667Y-83416666D01*
X110781333Y-83449999D01*
X110914667Y-83483333D01*
X111014667Y-83483333D01*
X111148000Y-83449999D01*
X111214667Y-83416666D01*
X111281333Y-83349999D01*
X111314667Y-83249999D01*
X111314667Y-83183333D01*
X111281333Y-83083333D01*
X111248000Y-83049999D01*
X111014667Y-83049999D01*
X111014667Y-83183333D01*
X111314667Y-82749999D02*
X110614667Y-82749999D01*
X111314667Y-82349999D01*
X110614667Y-82349999D01*
X111314667Y-82016666D02*
X110614667Y-82016666D01*
X110614667Y-81850000D01*
X110648000Y-81750000D01*
X110714667Y-81683333D01*
X110781333Y-81650000D01*
X110914667Y-81616666D01*
X111014667Y-81616666D01*
X111148000Y-81650000D01*
X111214667Y-81683333D01*
X111281333Y-81750000D01*
X111314667Y-81850000D01*
X111314667Y-82016666D01*
X110648000Y-78447833D02*
X110614667Y-78514499D01*
X110614667Y-78614499D01*
X110648000Y-78714499D01*
X110714667Y-78781166D01*
X110781333Y-78814499D01*
X110914667Y-78847833D01*
X111014667Y-78847833D01*
X111148000Y-78814499D01*
X111214667Y-78781166D01*
X111281333Y-78714499D01*
X111314667Y-78614499D01*
X111314667Y-78547833D01*
X111281333Y-78447833D01*
X111248000Y-78414499D01*
X111014667Y-78414499D01*
X111014667Y-78547833D01*
X111314667Y-78114499D02*
X110614667Y-78114499D01*
X111314667Y-77714499D01*
X110614667Y-77714499D01*
X111314667Y-77381166D02*
X110614667Y-77381166D01*
X110614667Y-77214500D01*
X110648000Y-77114500D01*
X110714667Y-77047833D01*
X110781333Y-77014500D01*
X110914667Y-76981166D01*
X111014667Y-76981166D01*
X111148000Y-77014500D01*
X111214667Y-77047833D01*
X111281333Y-77114500D01*
X111314667Y-77214500D01*
X111314667Y-77381166D01*
X114370000Y-89270667D02*
X114703334Y-89270667D01*
X114303334Y-89470667D02*
X114536667Y-88770667D01*
X114770000Y-89470667D01*
X115003334Y-89470667D02*
X115003334Y-88770667D01*
X115170000Y-88770667D01*
X115270000Y-88804000D01*
X115336667Y-88870667D01*
X115370000Y-88937333D01*
X115403334Y-89070667D01*
X115403334Y-89170667D01*
X115370000Y-89304000D01*
X115336667Y-89370667D01*
X115270000Y-89437333D01*
X115170000Y-89470667D01*
X115003334Y-89470667D01*
X116103334Y-89404000D02*
X116070000Y-89437333D01*
X115970000Y-89470667D01*
X115903334Y-89470667D01*
X115803334Y-89437333D01*
X115736667Y-89370667D01*
X115703334Y-89304000D01*
X115670000Y-89170667D01*
X115670000Y-89070667D01*
X115703334Y-88937333D01*
X115736667Y-88870667D01*
X115803334Y-88804000D01*
X115903334Y-88770667D01*
X115970000Y-88770667D01*
X116070000Y-88804000D01*
X116103334Y-88837333D01*
X116370000Y-88837333D02*
X116403334Y-88804000D01*
X116470000Y-88770667D01*
X116636667Y-88770667D01*
X116703334Y-88804000D01*
X116736667Y-88837333D01*
X116770000Y-88904000D01*
X116770000Y-88970667D01*
X116736667Y-89070667D01*
X116336667Y-89470667D01*
X116770000Y-89470667D01*
X121024667Y-79880667D02*
X120691334Y-79880667D01*
X120658000Y-80214000D01*
X120691334Y-80180667D01*
X120758000Y-80147333D01*
X120924667Y-80147333D01*
X120991334Y-80180667D01*
X121024667Y-80214000D01*
X121058000Y-80280667D01*
X121058000Y-80447333D01*
X121024667Y-80514000D01*
X120991334Y-80547333D01*
X120924667Y-80580667D01*
X120758000Y-80580667D01*
X120691334Y-80547333D01*
X120658000Y-80514000D01*
X121258001Y-79880667D02*
X121491334Y-80580667D01*
X121724667Y-79880667D01*
X121024667Y-84389167D02*
X120691334Y-84389167D01*
X120658000Y-84722500D01*
X120691334Y-84689167D01*
X120758000Y-84655833D01*
X120924667Y-84655833D01*
X120991334Y-84689167D01*
X121024667Y-84722500D01*
X121058000Y-84789167D01*
X121058000Y-84955833D01*
X121024667Y-85022500D01*
X120991334Y-85055833D01*
X120924667Y-85089167D01*
X120758000Y-85089167D01*
X120691334Y-85055833D01*
X120658000Y-85022500D01*
X121258001Y-84389167D02*
X121491334Y-85089167D01*
X121724667Y-84389167D01*
X120961167Y-88834167D02*
X120627834Y-88834167D01*
X120594500Y-89167500D01*
X120627834Y-89134167D01*
X120694500Y-89100833D01*
X120861167Y-89100833D01*
X120927834Y-89134167D01*
X120961167Y-89167500D01*
X120994500Y-89234167D01*
X120994500Y-89400833D01*
X120961167Y-89467500D01*
X120927834Y-89500833D01*
X120861167Y-89534167D01*
X120694500Y-89534167D01*
X120627834Y-89500833D01*
X120594500Y-89467500D01*
X121194501Y-88834167D02*
X121427834Y-89534167D01*
X121661167Y-88834167D01*
X117457667Y-88834167D02*
X117891000Y-88834167D01*
X117657667Y-89100833D01*
X117757667Y-89100833D01*
X117824334Y-89134167D01*
X117857667Y-89167500D01*
X117891000Y-89234167D01*
X117891000Y-89400833D01*
X117857667Y-89467500D01*
X117824334Y-89500833D01*
X117757667Y-89534167D01*
X117557667Y-89534167D01*
X117491000Y-89500833D01*
X117457667Y-89467500D01*
X118191001Y-89467500D02*
X118224334Y-89500833D01*
X118191001Y-89534167D01*
X118157667Y-89500833D01*
X118191001Y-89467500D01*
X118191001Y-89534167D01*
X118457667Y-88834167D02*
X118891000Y-88834167D01*
X118657667Y-89100833D01*
X118757667Y-89100833D01*
X118824334Y-89134167D01*
X118857667Y-89167500D01*
X118891000Y-89234167D01*
X118891000Y-89400833D01*
X118857667Y-89467500D01*
X118824334Y-89500833D01*
X118757667Y-89534167D01*
X118557667Y-89534167D01*
X118491000Y-89500833D01*
X118457667Y-89467500D01*
X119091001Y-88834167D02*
X119324334Y-89534167D01*
X119557667Y-88834167D01*
X117775167Y-84389167D02*
X118208500Y-84389167D01*
X117975167Y-84655833D01*
X118075167Y-84655833D01*
X118141834Y-84689167D01*
X118175167Y-84722500D01*
X118208500Y-84789167D01*
X118208500Y-84955833D01*
X118175167Y-85022500D01*
X118141834Y-85055833D01*
X118075167Y-85089167D01*
X117875167Y-85089167D01*
X117808500Y-85055833D01*
X117775167Y-85022500D01*
X118508501Y-85022500D02*
X118541834Y-85055833D01*
X118508501Y-85089167D01*
X118475167Y-85055833D01*
X118508501Y-85022500D01*
X118508501Y-85089167D01*
X118775167Y-84389167D02*
X119208500Y-84389167D01*
X118975167Y-84655833D01*
X119075167Y-84655833D01*
X119141834Y-84689167D01*
X119175167Y-84722500D01*
X119208500Y-84789167D01*
X119208500Y-84955833D01*
X119175167Y-85022500D01*
X119141834Y-85055833D01*
X119075167Y-85089167D01*
X118875167Y-85089167D01*
X118808500Y-85055833D01*
X118775167Y-85022500D01*
X119408501Y-84389167D02*
X119641834Y-85089167D01*
X119875167Y-84389167D01*
X117965667Y-79944167D02*
X118399000Y-79944167D01*
X118165667Y-80210833D01*
X118265667Y-80210833D01*
X118332334Y-80244167D01*
X118365667Y-80277500D01*
X118399000Y-80344167D01*
X118399000Y-80510833D01*
X118365667Y-80577500D01*
X118332334Y-80610833D01*
X118265667Y-80644167D01*
X118065667Y-80644167D01*
X117999000Y-80610833D01*
X117965667Y-80577500D01*
X118699001Y-80577500D02*
X118732334Y-80610833D01*
X118699001Y-80644167D01*
X118665667Y-80610833D01*
X118699001Y-80577500D01*
X118699001Y-80644167D01*
X118965667Y-79944167D02*
X119399000Y-79944167D01*
X119165667Y-80210833D01*
X119265667Y-80210833D01*
X119332334Y-80244167D01*
X119365667Y-80277500D01*
X119399000Y-80344167D01*
X119399000Y-80510833D01*
X119365667Y-80577500D01*
X119332334Y-80610833D01*
X119265667Y-80644167D01*
X119065667Y-80644167D01*
X118999000Y-80610833D01*
X118965667Y-80577500D01*
X119599001Y-79944167D02*
X119832334Y-80644167D01*
X120065667Y-79944167D01*
X125124333Y-120230834D02*
X125157667Y-120130834D01*
X125157667Y-119964167D01*
X125124333Y-119897500D01*
X125091000Y-119864167D01*
X125024333Y-119830834D01*
X124957667Y-119830834D01*
X124891000Y-119864167D01*
X124857667Y-119897500D01*
X124824333Y-119964167D01*
X124791000Y-120097500D01*
X124757667Y-120164167D01*
X124724333Y-120197500D01*
X124657667Y-120230834D01*
X124591000Y-120230834D01*
X124524333Y-120197500D01*
X124491000Y-120164167D01*
X124457667Y-120097500D01*
X124457667Y-119930834D01*
X124491000Y-119830834D01*
X125124333Y-119564167D02*
X125157667Y-119464167D01*
X125157667Y-119297500D01*
X125124333Y-119230833D01*
X125091000Y-119197500D01*
X125024333Y-119164167D01*
X124957667Y-119164167D01*
X124891000Y-119197500D01*
X124857667Y-119230833D01*
X124824333Y-119297500D01*
X124791000Y-119430833D01*
X124757667Y-119497500D01*
X124724333Y-119530833D01*
X124657667Y-119564167D01*
X124591000Y-119564167D01*
X124524333Y-119530833D01*
X124491000Y-119497500D01*
X124457667Y-119430833D01*
X124457667Y-119264167D01*
X124491000Y-119164167D01*
X125157667Y-123781999D02*
X124457667Y-123781999D01*
X124957667Y-123548666D01*
X124457667Y-123315333D01*
X125157667Y-123315333D01*
X124457667Y-122848666D02*
X124457667Y-122715333D01*
X124491000Y-122648666D01*
X124557667Y-122581999D01*
X124691000Y-122548666D01*
X124924333Y-122548666D01*
X125057667Y-122581999D01*
X125124333Y-122648666D01*
X125157667Y-122715333D01*
X125157667Y-122848666D01*
X125124333Y-122915333D01*
X125057667Y-122981999D01*
X124924333Y-123015333D01*
X124691000Y-123015333D01*
X124557667Y-122981999D01*
X124491000Y-122915333D01*
X124457667Y-122848666D01*
X125124333Y-122282000D02*
X125157667Y-122182000D01*
X125157667Y-122015333D01*
X125124333Y-121948666D01*
X125091000Y-121915333D01*
X125024333Y-121882000D01*
X124957667Y-121882000D01*
X124891000Y-121915333D01*
X124857667Y-121948666D01*
X124824333Y-122015333D01*
X124791000Y-122148666D01*
X124757667Y-122215333D01*
X124724333Y-122248666D01*
X124657667Y-122282000D01*
X124591000Y-122282000D01*
X124524333Y-122248666D01*
X124491000Y-122215333D01*
X124457667Y-122148666D01*
X124457667Y-121982000D01*
X124491000Y-121882000D01*
X125157667Y-121581999D02*
X124457667Y-121581999D01*
X117885333Y-123391500D02*
X117918667Y-123291500D01*
X117918667Y-123124833D01*
X117885333Y-123058166D01*
X117852000Y-123024833D01*
X117785333Y-122991500D01*
X117718667Y-122991500D01*
X117652000Y-123024833D01*
X117618667Y-123058166D01*
X117585333Y-123124833D01*
X117552000Y-123258166D01*
X117518667Y-123324833D01*
X117485333Y-123358166D01*
X117418667Y-123391500D01*
X117352000Y-123391500D01*
X117285333Y-123358166D01*
X117252000Y-123324833D01*
X117218667Y-123258166D01*
X117218667Y-123091500D01*
X117252000Y-122991500D01*
X117852000Y-122291499D02*
X117885333Y-122324833D01*
X117918667Y-122424833D01*
X117918667Y-122491499D01*
X117885333Y-122591499D01*
X117818667Y-122658166D01*
X117752000Y-122691499D01*
X117618667Y-122724833D01*
X117518667Y-122724833D01*
X117385333Y-122691499D01*
X117318667Y-122658166D01*
X117252000Y-122591499D01*
X117218667Y-122491499D01*
X117218667Y-122424833D01*
X117252000Y-122324833D01*
X117285333Y-122291499D01*
X117918667Y-121991499D02*
X117218667Y-121991499D01*
X117918667Y-121591499D02*
X117518667Y-121891499D01*
X117218667Y-121591499D02*
X117618667Y-121991499D01*
X117252000Y-118008333D02*
X117218667Y-118074999D01*
X117218667Y-118174999D01*
X117252000Y-118274999D01*
X117318667Y-118341666D01*
X117385333Y-118374999D01*
X117518667Y-118408333D01*
X117618667Y-118408333D01*
X117752000Y-118374999D01*
X117818667Y-118341666D01*
X117885333Y-118274999D01*
X117918667Y-118174999D01*
X117918667Y-118108333D01*
X117885333Y-118008333D01*
X117852000Y-117974999D01*
X117618667Y-117974999D01*
X117618667Y-118108333D01*
X117918667Y-117674999D02*
X117218667Y-117674999D01*
X117918667Y-117274999D01*
X117218667Y-117274999D01*
X117918667Y-116941666D02*
X117218667Y-116941666D01*
X117218667Y-116775000D01*
X117252000Y-116675000D01*
X117318667Y-116608333D01*
X117385333Y-116575000D01*
X117518667Y-116541666D01*
X117618667Y-116541666D01*
X117752000Y-116575000D01*
X117818667Y-116608333D01*
X117885333Y-116675000D01*
X117918667Y-116775000D01*
X117918667Y-116941666D01*
X117982167Y-126385499D02*
X117282167Y-126385499D01*
X117782167Y-126152166D01*
X117282167Y-125918833D01*
X117982167Y-125918833D01*
X117982167Y-125585499D02*
X117282167Y-125585499D01*
X117948833Y-125285500D02*
X117982167Y-125185500D01*
X117982167Y-125018833D01*
X117948833Y-124952166D01*
X117915500Y-124918833D01*
X117848833Y-124885500D01*
X117782167Y-124885500D01*
X117715500Y-124918833D01*
X117682167Y-124952166D01*
X117648833Y-125018833D01*
X117615500Y-125152166D01*
X117582167Y-125218833D01*
X117548833Y-125252166D01*
X117482167Y-125285500D01*
X117415500Y-125285500D01*
X117348833Y-125252166D01*
X117315500Y-125218833D01*
X117282167Y-125152166D01*
X117282167Y-124985500D01*
X117315500Y-124885500D01*
X117282167Y-124452166D02*
X117282167Y-124318833D01*
X117315500Y-124252166D01*
X117382167Y-124185499D01*
X117515500Y-124152166D01*
X117748833Y-124152166D01*
X117882167Y-124185499D01*
X117948833Y-124252166D01*
X117982167Y-124318833D01*
X117982167Y-124452166D01*
X117948833Y-124518833D01*
X117882167Y-124585499D01*
X117748833Y-124618833D01*
X117515500Y-124618833D01*
X117382167Y-124585499D01*
X117315500Y-124518833D01*
X117282167Y-124452166D01*
X92716357Y-89623643D02*
X92716357Y-89890310D01*
X93135405Y-89890310D02*
X92335405Y-89890310D01*
X92335405Y-89509357D01*
X92335405Y-89318882D02*
X92335405Y-88861739D01*
X93135405Y-89090310D02*
X92335405Y-89090310D01*
X92411595Y-88633167D02*
X92373500Y-88595072D01*
X92335405Y-88518881D01*
X92335405Y-88328405D01*
X92373500Y-88252215D01*
X92411595Y-88214119D01*
X92487786Y-88176024D01*
X92563976Y-88176024D01*
X92678262Y-88214119D01*
X93135405Y-88671262D01*
X93135405Y-88176024D01*
X92335405Y-87909357D02*
X92335405Y-87414119D01*
X92640167Y-87680786D01*
X92640167Y-87566500D01*
X92678262Y-87490310D01*
X92716357Y-87452214D01*
X92792548Y-87414119D01*
X92983024Y-87414119D01*
X93059214Y-87452214D01*
X93097310Y-87490310D01*
X93135405Y-87566500D01*
X93135405Y-87795072D01*
X93097310Y-87871262D01*
X93059214Y-87909357D01*
X92411595Y-87109357D02*
X92373500Y-87071262D01*
X92335405Y-86995071D01*
X92335405Y-86804595D01*
X92373500Y-86728405D01*
X92411595Y-86690309D01*
X92487786Y-86652214D01*
X92563976Y-86652214D01*
X92678262Y-86690309D01*
X93135405Y-87147452D01*
X93135405Y-86652214D01*
X93135405Y-85852214D02*
X92754452Y-86118881D01*
X93135405Y-86309357D02*
X92335405Y-86309357D01*
X92335405Y-86004595D01*
X92373500Y-85928404D01*
X92411595Y-85890309D01*
X92487786Y-85852214D01*
X92602071Y-85852214D01*
X92678262Y-85890309D01*
X92716357Y-85928404D01*
X92754452Y-86004595D01*
X92754452Y-86309357D01*
X93135405Y-85128404D02*
X93135405Y-85509357D01*
X92335405Y-85509357D01*
X140646167Y-93850667D02*
X140312834Y-93850667D01*
X140279500Y-94184000D01*
X140312834Y-94150667D01*
X140379500Y-94117333D01*
X140546167Y-94117333D01*
X140612834Y-94150667D01*
X140646167Y-94184000D01*
X140679500Y-94250667D01*
X140679500Y-94417333D01*
X140646167Y-94484000D01*
X140612834Y-94517333D01*
X140546167Y-94550667D01*
X140379500Y-94550667D01*
X140312834Y-94517333D01*
X140279500Y-94484000D01*
X140879501Y-93850667D02*
X141112834Y-94550667D01*
X141346167Y-93850667D01*
X140900167Y-98105167D02*
X140566834Y-98105167D01*
X140533500Y-98438500D01*
X140566834Y-98405167D01*
X140633500Y-98371833D01*
X140800167Y-98371833D01*
X140866834Y-98405167D01*
X140900167Y-98438500D01*
X140933500Y-98505167D01*
X140933500Y-98671833D01*
X140900167Y-98738500D01*
X140866834Y-98771833D01*
X140800167Y-98805167D01*
X140633500Y-98805167D01*
X140566834Y-98771833D01*
X140533500Y-98738500D01*
X141133501Y-98105167D02*
X141366834Y-98805167D01*
X141600167Y-98105167D01*
X137182333Y-98105167D02*
X137615666Y-98105167D01*
X137382333Y-98371833D01*
X137482333Y-98371833D01*
X137549000Y-98405167D01*
X137582333Y-98438500D01*
X137615666Y-98505167D01*
X137615666Y-98671833D01*
X137582333Y-98738500D01*
X137549000Y-98771833D01*
X137482333Y-98805167D01*
X137282333Y-98805167D01*
X137215666Y-98771833D01*
X137182333Y-98738500D01*
X137815667Y-98105167D02*
X138049000Y-98805167D01*
X138282333Y-98105167D01*
X138449000Y-98105167D02*
X138882333Y-98105167D01*
X138649000Y-98371833D01*
X138749000Y-98371833D01*
X138815667Y-98405167D01*
X138849000Y-98438500D01*
X138882333Y-98505167D01*
X138882333Y-98671833D01*
X138849000Y-98738500D01*
X138815667Y-98771833D01*
X138749000Y-98805167D01*
X138549000Y-98805167D01*
X138482333Y-98771833D01*
X138449000Y-98738500D01*
X132642834Y-98868667D02*
X132642834Y-98168667D01*
X132809500Y-98168667D01*
X132909500Y-98202000D01*
X132976167Y-98268667D01*
X133009500Y-98335333D01*
X133042834Y-98468667D01*
X133042834Y-98568667D01*
X133009500Y-98702000D01*
X132976167Y-98768667D01*
X132909500Y-98835333D01*
X132809500Y-98868667D01*
X132642834Y-98868667D01*
X133642834Y-98402000D02*
X133642834Y-98868667D01*
X133476167Y-98135333D02*
X133309500Y-98635333D01*
X133742834Y-98635333D01*
X135246334Y-98805167D02*
X135246334Y-98105167D01*
X135413000Y-98105167D01*
X135513000Y-98138500D01*
X135579667Y-98205167D01*
X135613000Y-98271833D01*
X135646334Y-98405167D01*
X135646334Y-98505167D01*
X135613000Y-98638500D01*
X135579667Y-98705167D01*
X135513000Y-98771833D01*
X135413000Y-98805167D01*
X135246334Y-98805167D01*
X135879667Y-98105167D02*
X136313000Y-98105167D01*
X136079667Y-98371833D01*
X136179667Y-98371833D01*
X136246334Y-98405167D01*
X136279667Y-98438500D01*
X136313000Y-98505167D01*
X136313000Y-98671833D01*
X136279667Y-98738500D01*
X136246334Y-98771833D01*
X136179667Y-98805167D01*
X135979667Y-98805167D01*
X135913000Y-98771833D01*
X135879667Y-98738500D01*
X124277500Y-98033667D02*
X124610834Y-98033667D01*
X124210834Y-98233667D02*
X124444167Y-97533667D01*
X124677500Y-98233667D01*
X125044167Y-97533667D02*
X125110834Y-97533667D01*
X125177500Y-97567000D01*
X125210834Y-97600333D01*
X125244167Y-97667000D01*
X125277500Y-97800333D01*
X125277500Y-97967000D01*
X125244167Y-98100333D01*
X125210834Y-98167000D01*
X125177500Y-98200333D01*
X125110834Y-98233667D01*
X125044167Y-98233667D01*
X124977500Y-98200333D01*
X124944167Y-98167000D01*
X124910834Y-98100333D01*
X124877500Y-97967000D01*
X124877500Y-97800333D01*
X124910834Y-97667000D01*
X124944167Y-97600333D01*
X124977500Y-97567000D01*
X125044167Y-97533667D01*
X126453167Y-92899667D02*
X126119834Y-92899667D01*
X126119834Y-92199667D01*
X126686501Y-92899667D02*
X126686501Y-92199667D01*
X126853167Y-92199667D01*
X126953167Y-92233000D01*
X127019834Y-92299667D01*
X127053167Y-92366333D01*
X127086501Y-92499667D01*
X127086501Y-92599667D01*
X127053167Y-92733000D01*
X127019834Y-92799667D01*
X126953167Y-92866333D01*
X126853167Y-92899667D01*
X126686501Y-92899667D01*
X127786501Y-92899667D02*
X127553167Y-92566333D01*
X127386501Y-92899667D02*
X127386501Y-92199667D01*
X127653167Y-92199667D01*
X127719834Y-92233000D01*
X127753167Y-92266333D01*
X127786501Y-92333000D01*
X127786501Y-92433000D01*
X127753167Y-92499667D01*
X127719834Y-92533000D01*
X127653167Y-92566333D01*
X127386501Y-92566333D01*
D11*
X135001215Y-122535071D02*
X134286929Y-122535071D01*
X134286929Y-121035071D01*
X135786929Y-121035071D02*
X136072643Y-121035071D01*
X136215501Y-121106500D01*
X136358358Y-121249357D01*
X136429786Y-121535071D01*
X136429786Y-122035071D01*
X136358358Y-122320786D01*
X136215501Y-122463643D01*
X136072643Y-122535071D01*
X135786929Y-122535071D01*
X135644072Y-122463643D01*
X135501215Y-122320786D01*
X135429786Y-122035071D01*
X135429786Y-121535071D01*
X135501215Y-121249357D01*
X135644072Y-121106500D01*
X135786929Y-121035071D01*
X137929787Y-122535071D02*
X137429787Y-121820786D01*
X137072644Y-122535071D02*
X137072644Y-121035071D01*
X137644072Y-121035071D01*
X137786930Y-121106500D01*
X137858358Y-121177929D01*
X137929787Y-121320786D01*
X137929787Y-121535071D01*
X137858358Y-121677929D01*
X137786930Y-121749357D01*
X137644072Y-121820786D01*
X137072644Y-121820786D01*
X138501215Y-122106500D02*
X139215501Y-122106500D01*
X138358358Y-122535071D02*
X138858358Y-121035071D01*
X139358358Y-122535071D01*
D10*
X137841167Y-110870167D02*
X137841167Y-110170167D01*
X138574500Y-110803500D02*
X138541166Y-110836833D01*
X138441166Y-110870167D01*
X138374500Y-110870167D01*
X138274500Y-110836833D01*
X138207833Y-110770167D01*
X138174500Y-110703500D01*
X138141166Y-110570167D01*
X138141166Y-110470167D01*
X138174500Y-110336833D01*
X138207833Y-110270167D01*
X138274500Y-110203500D01*
X138374500Y-110170167D01*
X138441166Y-110170167D01*
X138541166Y-110203500D01*
X138574500Y-110236833D01*
X138841166Y-110836833D02*
X138941166Y-110870167D01*
X139107833Y-110870167D01*
X139174500Y-110836833D01*
X139207833Y-110803500D01*
X139241166Y-110736833D01*
X139241166Y-110670167D01*
X139207833Y-110603500D01*
X139174500Y-110570167D01*
X139107833Y-110536833D01*
X138974500Y-110503500D01*
X138907833Y-110470167D01*
X138874500Y-110436833D01*
X138841166Y-110370167D01*
X138841166Y-110303500D01*
X138874500Y-110236833D01*
X138907833Y-110203500D01*
X138974500Y-110170167D01*
X139141166Y-110170167D01*
X139241166Y-110203500D01*
X139541167Y-110870167D02*
X139541167Y-110170167D01*
X139807833Y-110170167D01*
X139874500Y-110203500D01*
X139907833Y-110236833D01*
X139941167Y-110303500D01*
X139941167Y-110403500D01*
X139907833Y-110470167D01*
X139874500Y-110503500D01*
X139807833Y-110536833D01*
X139541167Y-110536833D01*
X74854095Y-106660905D02*
X74854095Y-105860905D01*
X75120762Y-106432333D01*
X75387429Y-105860905D01*
X75387429Y-106660905D01*
X76111238Y-106660905D02*
X76111238Y-106241857D01*
X76073143Y-106165667D01*
X75996953Y-106127571D01*
X75844572Y-106127571D01*
X75768381Y-106165667D01*
X76111238Y-106622810D02*
X76035048Y-106660905D01*
X75844572Y-106660905D01*
X75768381Y-106622810D01*
X75730286Y-106546619D01*
X75730286Y-106470429D01*
X75768381Y-106394238D01*
X75844572Y-106356143D01*
X76035048Y-106356143D01*
X76111238Y-106318048D01*
X76416001Y-106660905D02*
X76835048Y-106127571D01*
X76416001Y-106127571D02*
X76835048Y-106660905D01*
X78168382Y-106660905D02*
X77711239Y-106660905D01*
X77939810Y-106660905D02*
X77939810Y-105860905D01*
X77863620Y-105975190D01*
X77787429Y-106051381D01*
X77711239Y-106089476D01*
X78854096Y-106127571D02*
X78854096Y-106660905D01*
X78663620Y-105822810D02*
X78473144Y-106394238D01*
X78968382Y-106394238D01*
X79158858Y-105860905D02*
X79425525Y-106660905D01*
X79692192Y-105860905D01*
X114624000Y-84889167D02*
X114957334Y-84889167D01*
X114557334Y-85089167D02*
X114790667Y-84389167D01*
X115024000Y-85089167D01*
X115257334Y-85089167D02*
X115257334Y-84389167D01*
X115424000Y-84389167D01*
X115524000Y-84422500D01*
X115590667Y-84489167D01*
X115624000Y-84555833D01*
X115657334Y-84689167D01*
X115657334Y-84789167D01*
X115624000Y-84922500D01*
X115590667Y-84989167D01*
X115524000Y-85055833D01*
X115424000Y-85089167D01*
X115257334Y-85089167D01*
X116357334Y-85022500D02*
X116324000Y-85055833D01*
X116224000Y-85089167D01*
X116157334Y-85089167D01*
X116057334Y-85055833D01*
X115990667Y-84989167D01*
X115957334Y-84922500D01*
X115924000Y-84789167D01*
X115924000Y-84689167D01*
X115957334Y-84555833D01*
X115990667Y-84489167D01*
X116057334Y-84422500D01*
X116157334Y-84389167D01*
X116224000Y-84389167D01*
X116324000Y-84422500D01*
X116357334Y-84455833D01*
X116590667Y-84389167D02*
X117024000Y-84389167D01*
X116790667Y-84655833D01*
X116890667Y-84655833D01*
X116957334Y-84689167D01*
X116990667Y-84722500D01*
X117024000Y-84789167D01*
X117024000Y-84955833D01*
X116990667Y-85022500D01*
X116957334Y-85055833D01*
X116890667Y-85089167D01*
X116690667Y-85089167D01*
X116624000Y-85055833D01*
X116590667Y-85022500D01*
X115005000Y-80444167D02*
X115338334Y-80444167D01*
X114938334Y-80644167D02*
X115171667Y-79944167D01*
X115405000Y-80644167D01*
X115638334Y-80644167D02*
X115638334Y-79944167D01*
X115805000Y-79944167D01*
X115905000Y-79977500D01*
X115971667Y-80044167D01*
X116005000Y-80110833D01*
X116038334Y-80244167D01*
X116038334Y-80344167D01*
X116005000Y-80477500D01*
X115971667Y-80544167D01*
X115905000Y-80610833D01*
X115805000Y-80644167D01*
X115638334Y-80644167D01*
X116738334Y-80577500D02*
X116705000Y-80610833D01*
X116605000Y-80644167D01*
X116538334Y-80644167D01*
X116438334Y-80610833D01*
X116371667Y-80544167D01*
X116338334Y-80477500D01*
X116305000Y-80344167D01*
X116305000Y-80244167D01*
X116338334Y-80110833D01*
X116371667Y-80044167D01*
X116438334Y-79977500D01*
X116538334Y-79944167D01*
X116605000Y-79944167D01*
X116705000Y-79977500D01*
X116738334Y-80010833D01*
X117338334Y-79944167D02*
X117205000Y-79944167D01*
X117138334Y-79977500D01*
X117105000Y-80010833D01*
X117038334Y-80110833D01*
X117005000Y-80244167D01*
X117005000Y-80510833D01*
X117038334Y-80577500D01*
X117071667Y-80610833D01*
X117138334Y-80644167D01*
X117271667Y-80644167D01*
X117338334Y-80610833D01*
X117371667Y-80577500D01*
X117405000Y-80510833D01*
X117405000Y-80344167D01*
X117371667Y-80277500D01*
X117338334Y-80244167D01*
X117271667Y-80210833D01*
X117138334Y-80210833D01*
X117071667Y-80244167D01*
X117038334Y-80277500D01*
X117005000Y-80344167D01*
X131253667Y-82314999D02*
X130920333Y-82548333D01*
X131253667Y-82714999D02*
X130553667Y-82714999D01*
X130553667Y-82448333D01*
X130587000Y-82381666D01*
X130620333Y-82348333D01*
X130687000Y-82314999D01*
X130787000Y-82314999D01*
X130853667Y-82348333D01*
X130887000Y-82381666D01*
X130920333Y-82448333D01*
X130920333Y-82714999D01*
X130553667Y-82114999D02*
X130553667Y-81714999D01*
X131253667Y-81914999D02*
X130553667Y-81914999D01*
X131187000Y-81081666D02*
X131220333Y-81115000D01*
X131253667Y-81215000D01*
X131253667Y-81281666D01*
X131220333Y-81381666D01*
X131153667Y-81448333D01*
X131087000Y-81481666D01*
X130953667Y-81515000D01*
X130853667Y-81515000D01*
X130720333Y-81481666D01*
X130653667Y-81448333D01*
X130587000Y-81381666D01*
X130553667Y-81281666D01*
X130553667Y-81215000D01*
X130587000Y-81115000D01*
X130620333Y-81081666D01*
X137769667Y-93757000D02*
X137703001Y-93723667D01*
X137603001Y-93723667D01*
X137503001Y-93757000D01*
X137436334Y-93823667D01*
X137403001Y-93890333D01*
X137369667Y-94023667D01*
X137369667Y-94123667D01*
X137403001Y-94257000D01*
X137436334Y-94323667D01*
X137503001Y-94390333D01*
X137603001Y-94423667D01*
X137669667Y-94423667D01*
X137769667Y-94390333D01*
X137803001Y-94357000D01*
X137803001Y-94123667D01*
X137669667Y-94123667D01*
X138103001Y-94423667D02*
X138103001Y-93723667D01*
X138503001Y-94423667D01*
X138503001Y-93723667D01*
X138836334Y-94423667D02*
X138836334Y-93723667D01*
X139003000Y-93723667D01*
X139103000Y-93757000D01*
X139169667Y-93823667D01*
X139203000Y-93890333D01*
X139236334Y-94023667D01*
X139236334Y-94123667D01*
X139203000Y-94257000D01*
X139169667Y-94323667D01*
X139103000Y-94390333D01*
X139003000Y-94423667D01*
X138836334Y-94423667D01*
X135773334Y-94423667D02*
X135540000Y-94090333D01*
X135373334Y-94423667D02*
X135373334Y-93723667D01*
X135640000Y-93723667D01*
X135706667Y-93757000D01*
X135740000Y-93790333D01*
X135773334Y-93857000D01*
X135773334Y-93957000D01*
X135740000Y-94023667D01*
X135706667Y-94057000D01*
X135640000Y-94090333D01*
X135373334Y-94090333D01*
X136006667Y-93723667D02*
X136473334Y-94423667D01*
X136473334Y-93723667D02*
X136006667Y-94423667D01*
X132562667Y-93723667D02*
X132962667Y-93723667D01*
X132762667Y-94423667D02*
X132762667Y-93723667D01*
X133129333Y-93723667D02*
X133596000Y-94423667D01*
X133596000Y-93723667D02*
X133129333Y-94423667D01*
X131190167Y-94452000D02*
X130490167Y-94452000D01*
X130490167Y-94185334D01*
X130523500Y-94118667D01*
X130556833Y-94085334D01*
X130623500Y-94052000D01*
X130723500Y-94052000D01*
X130790167Y-94085334D01*
X130823500Y-94118667D01*
X130856833Y-94185334D01*
X130856833Y-94452000D01*
X131190167Y-93752000D02*
X130490167Y-93752000D01*
X130990167Y-93518667D01*
X130490167Y-93285334D01*
X131190167Y-93285334D01*
X131156833Y-92985334D02*
X131190167Y-92885334D01*
X131190167Y-92718667D01*
X131156833Y-92652000D01*
X131123500Y-92618667D01*
X131056833Y-92585334D01*
X130990167Y-92585334D01*
X130923500Y-92618667D01*
X130890167Y-92652000D01*
X130856833Y-92718667D01*
X130823500Y-92852000D01*
X130790167Y-92918667D01*
X130756833Y-92952000D01*
X130690167Y-92985334D01*
X130623500Y-92985334D01*
X130556833Y-92952000D01*
X130523500Y-92918667D01*
X130490167Y-92852000D01*
X130490167Y-92685334D01*
X130523500Y-92585334D01*
X130490167Y-91952000D02*
X130490167Y-92285333D01*
X130823500Y-92318667D01*
X130790167Y-92285333D01*
X130756833Y-92218667D01*
X130756833Y-92052000D01*
X130790167Y-91985333D01*
X130823500Y-91952000D01*
X130890167Y-91918667D01*
X131056833Y-91918667D01*
X131123500Y-91952000D01*
X131156833Y-91985333D01*
X131190167Y-92052000D01*
X131190167Y-92218667D01*
X131156833Y-92285333D01*
X131123500Y-92318667D01*
X130490167Y-91485333D02*
X130490167Y-91418666D01*
X130523500Y-91352000D01*
X130556833Y-91318666D01*
X130623500Y-91285333D01*
X130756833Y-91252000D01*
X130923500Y-91252000D01*
X131056833Y-91285333D01*
X131123500Y-91318666D01*
X131156833Y-91352000D01*
X131190167Y-91418666D01*
X131190167Y-91485333D01*
X131156833Y-91552000D01*
X131123500Y-91585333D01*
X131056833Y-91618666D01*
X130923500Y-91652000D01*
X130756833Y-91652000D01*
X130623500Y-91618666D01*
X130556833Y-91585333D01*
X130523500Y-91552000D01*
X130490167Y-91485333D01*
X130490167Y-90818666D02*
X130490167Y-90751999D01*
X130523500Y-90685333D01*
X130556833Y-90651999D01*
X130623500Y-90618666D01*
X130756833Y-90585333D01*
X130923500Y-90585333D01*
X131056833Y-90618666D01*
X131123500Y-90651999D01*
X131156833Y-90685333D01*
X131190167Y-90751999D01*
X131190167Y-90818666D01*
X131156833Y-90885333D01*
X131123500Y-90918666D01*
X131056833Y-90951999D01*
X130923500Y-90985333D01*
X130756833Y-90985333D01*
X130623500Y-90951999D01*
X130556833Y-90918666D01*
X130523500Y-90885333D01*
X130490167Y-90818666D01*
X130490167Y-90351999D02*
X130490167Y-89918666D01*
X130756833Y-90151999D01*
X130756833Y-90051999D01*
X130790167Y-89985332D01*
X130823500Y-89951999D01*
X130890167Y-89918666D01*
X131056833Y-89918666D01*
X131123500Y-89951999D01*
X131156833Y-89985332D01*
X131190167Y-90051999D01*
X131190167Y-90251999D01*
X131156833Y-90318666D01*
X131123500Y-90351999D01*
X124068667Y-86671000D02*
X124068667Y-86337666D01*
X124268667Y-86737666D02*
X123568667Y-86504333D01*
X124268667Y-86271000D01*
X124268667Y-86037666D02*
X123568667Y-86037666D01*
X123568667Y-85871000D01*
X123602000Y-85771000D01*
X123668667Y-85704333D01*
X123735333Y-85671000D01*
X123868667Y-85637666D01*
X123968667Y-85637666D01*
X124102000Y-85671000D01*
X124168667Y-85704333D01*
X124235333Y-85771000D01*
X124268667Y-85871000D01*
X124268667Y-86037666D01*
X124202000Y-84937666D02*
X124235333Y-84971000D01*
X124268667Y-85071000D01*
X124268667Y-85137666D01*
X124235333Y-85237666D01*
X124168667Y-85304333D01*
X124102000Y-85337666D01*
X123968667Y-85371000D01*
X123868667Y-85371000D01*
X123735333Y-85337666D01*
X123668667Y-85304333D01*
X123602000Y-85237666D01*
X123568667Y-85137666D01*
X123568667Y-85071000D01*
X123602000Y-84971000D01*
X123635333Y-84937666D01*
X124268667Y-84271000D02*
X124268667Y-84671000D01*
X124268667Y-84471000D02*
X123568667Y-84471000D01*
X123668667Y-84537666D01*
X123735333Y-84604333D01*
X123768667Y-84671000D01*
X123148167Y-76578667D02*
X123281500Y-76578667D01*
X123348167Y-76612000D01*
X123414834Y-76678667D01*
X123448167Y-76812000D01*
X123448167Y-77045333D01*
X123414834Y-77178667D01*
X123348167Y-77245333D01*
X123281500Y-77278667D01*
X123148167Y-77278667D01*
X123081500Y-77245333D01*
X123014834Y-77178667D01*
X122981500Y-77045333D01*
X122981500Y-76812000D01*
X123014834Y-76678667D01*
X123081500Y-76612000D01*
X123148167Y-76578667D01*
X124081500Y-77278667D02*
X123748167Y-77278667D01*
X123748167Y-76578667D01*
X124314834Y-76912000D02*
X124548167Y-76912000D01*
X124648167Y-77278667D02*
X124314834Y-77278667D01*
X124314834Y-76578667D01*
X124648167Y-76578667D01*
X124948167Y-77278667D02*
X124948167Y-76578667D01*
X125114833Y-76578667D01*
X125214833Y-76612000D01*
X125281500Y-76678667D01*
X125314833Y-76745333D01*
X125348167Y-76878667D01*
X125348167Y-76978667D01*
X125314833Y-77112000D01*
X125281500Y-77178667D01*
X125214833Y-77245333D01*
X125114833Y-77278667D01*
X124948167Y-77278667D01*
X125648167Y-77012000D02*
X126181500Y-77012000D01*
X126514834Y-76812000D02*
X127048167Y-77012000D01*
X126514834Y-77212000D01*
D12*
X103223190Y-77168333D02*
X102985095Y-77335000D01*
X103223190Y-77454047D02*
X102723190Y-77454047D01*
X102723190Y-77263571D01*
X102747000Y-77215952D01*
X102770810Y-77192143D01*
X102818429Y-77168333D01*
X102889857Y-77168333D01*
X102937476Y-77192143D01*
X102961286Y-77215952D01*
X102985095Y-77263571D01*
X102985095Y-77454047D01*
X103223190Y-76954047D02*
X102723190Y-76954047D01*
X102723190Y-76835000D01*
X102747000Y-76763571D01*
X102794619Y-76715952D01*
X102842238Y-76692143D01*
X102937476Y-76668333D01*
X103008905Y-76668333D01*
X103104143Y-76692143D01*
X103151762Y-76715952D01*
X103199381Y-76763571D01*
X103223190Y-76835000D01*
X103223190Y-76954047D01*
X102723190Y-76358809D02*
X102723190Y-76311190D01*
X102747000Y-76263571D01*
X102770810Y-76239762D01*
X102818429Y-76215952D01*
X102913667Y-76192143D01*
X103032714Y-76192143D01*
X103127952Y-76215952D01*
X103175571Y-76239762D01*
X103199381Y-76263571D01*
X103223190Y-76311190D01*
X103223190Y-76358809D01*
X103199381Y-76406428D01*
X103175571Y-76430238D01*
X103127952Y-76454047D01*
X103032714Y-76477857D01*
X102913667Y-76477857D01*
X102818429Y-76454047D01*
X102770810Y-76430238D01*
X102747000Y-76406428D01*
X102723190Y-76358809D01*
D10*
X107829439Y-82251505D02*
X107562772Y-81870552D01*
X107372296Y-82251505D02*
X107372296Y-81451505D01*
X107677058Y-81451505D01*
X107753249Y-81489600D01*
X107791344Y-81527695D01*
X107829439Y-81603886D01*
X107829439Y-81718171D01*
X107791344Y-81794362D01*
X107753249Y-81832457D01*
X107677058Y-81870552D01*
X107372296Y-81870552D01*
X108134201Y-82022933D02*
X108515153Y-82022933D01*
X108058010Y-82251505D02*
X108324677Y-81451505D01*
X108591344Y-82251505D01*
X108858010Y-82251505D02*
X108858010Y-81451505D01*
X109238962Y-82251505D02*
X109238962Y-81451505D01*
X109696105Y-82251505D01*
X109696105Y-81451505D01*
X99225214Y-80562405D02*
X99225214Y-79762405D01*
X99415690Y-79762405D01*
X99529976Y-79800500D01*
X99606167Y-79876690D01*
X99644262Y-79952881D01*
X99682357Y-80105262D01*
X99682357Y-80219548D01*
X99644262Y-80371929D01*
X99606167Y-80448119D01*
X99529976Y-80524310D01*
X99415690Y-80562405D01*
X99225214Y-80562405D01*
X99910928Y-79762405D02*
X100368071Y-79762405D01*
X100139500Y-80562405D02*
X100139500Y-79762405D01*
X101091881Y-80562405D02*
X100825214Y-80181452D01*
X100634738Y-80562405D02*
X100634738Y-79762405D01*
X100939500Y-79762405D01*
X101015691Y-79800500D01*
X101053786Y-79838595D01*
X101091881Y-79914786D01*
X101091881Y-80029071D01*
X101053786Y-80105262D01*
X101015691Y-80143357D01*
X100939500Y-80181452D01*
X100634738Y-80181452D01*
X91656024Y-79762405D02*
X92151262Y-79762405D01*
X91884595Y-80067167D01*
X91998881Y-80067167D01*
X92075071Y-80105262D01*
X92113167Y-80143357D01*
X92151262Y-80219548D01*
X92151262Y-80410024D01*
X92113167Y-80486214D01*
X92075071Y-80524310D01*
X91998881Y-80562405D01*
X91770309Y-80562405D01*
X91694119Y-80524310D01*
X91656024Y-80486214D01*
X92379833Y-79762405D02*
X92646500Y-80562405D01*
X92913167Y-79762405D01*
X93103643Y-79762405D02*
X93598881Y-79762405D01*
X93332214Y-80067167D01*
X93446500Y-80067167D01*
X93522690Y-80105262D01*
X93560786Y-80143357D01*
X93598881Y-80219548D01*
X93598881Y-80410024D01*
X93560786Y-80486214D01*
X93522690Y-80524310D01*
X93446500Y-80562405D01*
X93217928Y-80562405D01*
X93141738Y-80524310D01*
X93103643Y-80486214D01*
X96926476Y-79762405D02*
X97383619Y-79762405D01*
X97155048Y-80562405D02*
X97155048Y-79762405D01*
X97574096Y-79762405D02*
X98107429Y-80562405D01*
X98107429Y-79762405D02*
X97574096Y-80562405D01*
X94799167Y-80562405D02*
X94532500Y-80181452D01*
X94342024Y-80562405D02*
X94342024Y-79762405D01*
X94646786Y-79762405D01*
X94722977Y-79800500D01*
X94761072Y-79838595D01*
X94799167Y-79914786D01*
X94799167Y-80029071D01*
X94761072Y-80105262D01*
X94722977Y-80143357D01*
X94646786Y-80181452D01*
X94342024Y-80181452D01*
X95065834Y-79762405D02*
X95599167Y-80562405D01*
X95599167Y-79762405D02*
X95065834Y-80562405D01*
X135183666Y-89564333D02*
X135283666Y-89597667D01*
X135450333Y-89597667D01*
X135517000Y-89564333D01*
X135550333Y-89531000D01*
X135583666Y-89464333D01*
X135583666Y-89397667D01*
X135550333Y-89331000D01*
X135517000Y-89297667D01*
X135450333Y-89264333D01*
X135317000Y-89231000D01*
X135250333Y-89197667D01*
X135217000Y-89164333D01*
X135183666Y-89097667D01*
X135183666Y-89031000D01*
X135217000Y-88964333D01*
X135250333Y-88931000D01*
X135317000Y-88897667D01*
X135483666Y-88897667D01*
X135583666Y-88931000D01*
X136283667Y-89531000D02*
X136250333Y-89564333D01*
X136150333Y-89597667D01*
X136083667Y-89597667D01*
X135983667Y-89564333D01*
X135917000Y-89497667D01*
X135883667Y-89431000D01*
X135850333Y-89297667D01*
X135850333Y-89197667D01*
X135883667Y-89064333D01*
X135917000Y-88997667D01*
X135983667Y-88931000D01*
X136083667Y-88897667D01*
X136150333Y-88897667D01*
X136250333Y-88931000D01*
X136283667Y-88964333D01*
X136917000Y-89597667D02*
X136583667Y-89597667D01*
X136583667Y-88897667D01*
X132500000Y-89564333D02*
X132600000Y-89597667D01*
X132766667Y-89597667D01*
X132833334Y-89564333D01*
X132866667Y-89531000D01*
X132900000Y-89464333D01*
X132900000Y-89397667D01*
X132866667Y-89331000D01*
X132833334Y-89297667D01*
X132766667Y-89264333D01*
X132633334Y-89231000D01*
X132566667Y-89197667D01*
X132533334Y-89164333D01*
X132500000Y-89097667D01*
X132500000Y-89031000D01*
X132533334Y-88964333D01*
X132566667Y-88931000D01*
X132633334Y-88897667D01*
X132800000Y-88897667D01*
X132900000Y-88931000D01*
X133200001Y-89597667D02*
X133200001Y-88897667D01*
X133366667Y-88897667D01*
X133466667Y-88931000D01*
X133533334Y-88997667D01*
X133566667Y-89064333D01*
X133600001Y-89197667D01*
X133600001Y-89297667D01*
X133566667Y-89431000D01*
X133533334Y-89497667D01*
X133466667Y-89564333D01*
X133366667Y-89597667D01*
X133200001Y-89597667D01*
X133866667Y-89397667D02*
X134200001Y-89397667D01*
X133800001Y-89597667D02*
X134033334Y-88897667D01*
X134266667Y-89597667D01*
X132389666Y-84611333D02*
X132489666Y-84644667D01*
X132656333Y-84644667D01*
X132723000Y-84611333D01*
X132756333Y-84578000D01*
X132789666Y-84511333D01*
X132789666Y-84444667D01*
X132756333Y-84378000D01*
X132723000Y-84344667D01*
X132656333Y-84311333D01*
X132523000Y-84278000D01*
X132456333Y-84244667D01*
X132423000Y-84211333D01*
X132389666Y-84144667D01*
X132389666Y-84078000D01*
X132423000Y-84011333D01*
X132456333Y-83978000D01*
X132523000Y-83944667D01*
X132689666Y-83944667D01*
X132789666Y-83978000D01*
X133489667Y-84578000D02*
X133456333Y-84611333D01*
X133356333Y-84644667D01*
X133289667Y-84644667D01*
X133189667Y-84611333D01*
X133123000Y-84544667D01*
X133089667Y-84478000D01*
X133056333Y-84344667D01*
X133056333Y-84244667D01*
X133089667Y-84111333D01*
X133123000Y-84044667D01*
X133189667Y-83978000D01*
X133289667Y-83944667D01*
X133356333Y-83944667D01*
X133456333Y-83978000D01*
X133489667Y-84011333D01*
X134123000Y-84644667D02*
X133789667Y-84644667D01*
X133789667Y-83944667D01*
X135167000Y-84611333D02*
X135267000Y-84644667D01*
X135433667Y-84644667D01*
X135500334Y-84611333D01*
X135533667Y-84578000D01*
X135567000Y-84511333D01*
X135567000Y-84444667D01*
X135533667Y-84378000D01*
X135500334Y-84344667D01*
X135433667Y-84311333D01*
X135300334Y-84278000D01*
X135233667Y-84244667D01*
X135200334Y-84211333D01*
X135167000Y-84144667D01*
X135167000Y-84078000D01*
X135200334Y-84011333D01*
X135233667Y-83978000D01*
X135300334Y-83944667D01*
X135467000Y-83944667D01*
X135567000Y-83978000D01*
X135867001Y-84644667D02*
X135867001Y-83944667D01*
X136033667Y-83944667D01*
X136133667Y-83978000D01*
X136200334Y-84044667D01*
X136233667Y-84111333D01*
X136267001Y-84244667D01*
X136267001Y-84344667D01*
X136233667Y-84478000D01*
X136200334Y-84544667D01*
X136133667Y-84611333D01*
X136033667Y-84644667D01*
X135867001Y-84644667D01*
X136533667Y-84444667D02*
X136867001Y-84444667D01*
X136467001Y-84644667D02*
X136700334Y-83944667D01*
X136933667Y-84644667D01*
X140817667Y-79152000D02*
X140751001Y-79118667D01*
X140651001Y-79118667D01*
X140551001Y-79152000D01*
X140484334Y-79218667D01*
X140451001Y-79285333D01*
X140417667Y-79418667D01*
X140417667Y-79518667D01*
X140451001Y-79652000D01*
X140484334Y-79718667D01*
X140551001Y-79785333D01*
X140651001Y-79818667D01*
X140717667Y-79818667D01*
X140817667Y-79785333D01*
X140851001Y-79752000D01*
X140851001Y-79518667D01*
X140717667Y-79518667D01*
X141151001Y-79818667D02*
X141151001Y-79118667D01*
X141551001Y-79818667D01*
X141551001Y-79118667D01*
X141884334Y-79818667D02*
X141884334Y-79118667D01*
X142051000Y-79118667D01*
X142151000Y-79152000D01*
X142217667Y-79218667D01*
X142251000Y-79285333D01*
X142284334Y-79418667D01*
X142284334Y-79518667D01*
X142251000Y-79652000D01*
X142217667Y-79718667D01*
X142151000Y-79785333D01*
X142051000Y-79818667D01*
X141884334Y-79818667D01*
X137961000Y-79785333D02*
X138061000Y-79818667D01*
X138227667Y-79818667D01*
X138294334Y-79785333D01*
X138327667Y-79752000D01*
X138361000Y-79685333D01*
X138361000Y-79618667D01*
X138327667Y-79552000D01*
X138294334Y-79518667D01*
X138227667Y-79485333D01*
X138094334Y-79452000D01*
X138027667Y-79418667D01*
X137994334Y-79385333D01*
X137961000Y-79318667D01*
X137961000Y-79252000D01*
X137994334Y-79185333D01*
X138027667Y-79152000D01*
X138094334Y-79118667D01*
X138261000Y-79118667D01*
X138361000Y-79152000D01*
X138661001Y-79818667D02*
X138661001Y-79118667D01*
X138827667Y-79118667D01*
X138927667Y-79152000D01*
X138994334Y-79218667D01*
X139027667Y-79285333D01*
X139061001Y-79418667D01*
X139061001Y-79518667D01*
X139027667Y-79652000D01*
X138994334Y-79718667D01*
X138927667Y-79785333D01*
X138827667Y-79818667D01*
X138661001Y-79818667D01*
X139327667Y-79618667D02*
X139661001Y-79618667D01*
X139261001Y-79818667D02*
X139494334Y-79118667D01*
X139727667Y-79818667D01*
X135564666Y-79785333D02*
X135664666Y-79818667D01*
X135831333Y-79818667D01*
X135898000Y-79785333D01*
X135931333Y-79752000D01*
X135964666Y-79685333D01*
X135964666Y-79618667D01*
X135931333Y-79552000D01*
X135898000Y-79518667D01*
X135831333Y-79485333D01*
X135698000Y-79452000D01*
X135631333Y-79418667D01*
X135598000Y-79385333D01*
X135564666Y-79318667D01*
X135564666Y-79252000D01*
X135598000Y-79185333D01*
X135631333Y-79152000D01*
X135698000Y-79118667D01*
X135864666Y-79118667D01*
X135964666Y-79152000D01*
X136664667Y-79752000D02*
X136631333Y-79785333D01*
X136531333Y-79818667D01*
X136464667Y-79818667D01*
X136364667Y-79785333D01*
X136298000Y-79718667D01*
X136264667Y-79652000D01*
X136231333Y-79518667D01*
X136231333Y-79418667D01*
X136264667Y-79285333D01*
X136298000Y-79218667D01*
X136364667Y-79152000D01*
X136464667Y-79118667D01*
X136531333Y-79118667D01*
X136631333Y-79152000D01*
X136664667Y-79185333D01*
X137298000Y-79818667D02*
X136964667Y-79818667D01*
X136964667Y-79118667D01*
X140190667Y-88897667D02*
X140624000Y-88897667D01*
X140390667Y-89164333D01*
X140490667Y-89164333D01*
X140557334Y-89197667D01*
X140590667Y-89231000D01*
X140624000Y-89297667D01*
X140624000Y-89464333D01*
X140590667Y-89531000D01*
X140557334Y-89564333D01*
X140490667Y-89597667D01*
X140290667Y-89597667D01*
X140224000Y-89564333D01*
X140190667Y-89531000D01*
X140924001Y-89531000D02*
X140957334Y-89564333D01*
X140924001Y-89597667D01*
X140890667Y-89564333D01*
X140924001Y-89531000D01*
X140924001Y-89597667D01*
X141190667Y-88897667D02*
X141624000Y-88897667D01*
X141390667Y-89164333D01*
X141490667Y-89164333D01*
X141557334Y-89197667D01*
X141590667Y-89231000D01*
X141624000Y-89297667D01*
X141624000Y-89464333D01*
X141590667Y-89531000D01*
X141557334Y-89564333D01*
X141490667Y-89597667D01*
X141290667Y-89597667D01*
X141224000Y-89564333D01*
X141190667Y-89531000D01*
X141824001Y-88897667D02*
X142057334Y-89597667D01*
X142290667Y-88897667D01*
X137523667Y-83944667D02*
X137957000Y-83944667D01*
X137723667Y-84211333D01*
X137823667Y-84211333D01*
X137890334Y-84244667D01*
X137923667Y-84278000D01*
X137957000Y-84344667D01*
X137957000Y-84511333D01*
X137923667Y-84578000D01*
X137890334Y-84611333D01*
X137823667Y-84644667D01*
X137623667Y-84644667D01*
X137557000Y-84611333D01*
X137523667Y-84578000D01*
X138257001Y-84578000D02*
X138290334Y-84611333D01*
X138257001Y-84644667D01*
X138223667Y-84611333D01*
X138257001Y-84578000D01*
X138257001Y-84644667D01*
X138523667Y-83944667D02*
X138957000Y-83944667D01*
X138723667Y-84211333D01*
X138823667Y-84211333D01*
X138890334Y-84244667D01*
X138923667Y-84278000D01*
X138957000Y-84344667D01*
X138957000Y-84511333D01*
X138923667Y-84578000D01*
X138890334Y-84611333D01*
X138823667Y-84644667D01*
X138623667Y-84644667D01*
X138557000Y-84611333D01*
X138523667Y-84578000D01*
X139157001Y-83944667D02*
X139390334Y-84644667D01*
X139623667Y-83944667D01*
X132697667Y-79118667D02*
X133131000Y-79118667D01*
X132897667Y-79385333D01*
X132997667Y-79385333D01*
X133064334Y-79418667D01*
X133097667Y-79452000D01*
X133131000Y-79518667D01*
X133131000Y-79685333D01*
X133097667Y-79752000D01*
X133064334Y-79785333D01*
X132997667Y-79818667D01*
X132797667Y-79818667D01*
X132731000Y-79785333D01*
X132697667Y-79752000D01*
X133431001Y-79752000D02*
X133464334Y-79785333D01*
X133431001Y-79818667D01*
X133397667Y-79785333D01*
X133431001Y-79752000D01*
X133431001Y-79818667D01*
X133697667Y-79118667D02*
X134131000Y-79118667D01*
X133897667Y-79385333D01*
X133997667Y-79385333D01*
X134064334Y-79418667D01*
X134097667Y-79452000D01*
X134131000Y-79518667D01*
X134131000Y-79685333D01*
X134097667Y-79752000D01*
X134064334Y-79785333D01*
X133997667Y-79818667D01*
X133797667Y-79818667D01*
X133731000Y-79785333D01*
X133697667Y-79752000D01*
X134331001Y-79118667D02*
X134564334Y-79818667D01*
X134797667Y-79118667D01*
X138023667Y-88931000D02*
X137957001Y-88897667D01*
X137857001Y-88897667D01*
X137757001Y-88931000D01*
X137690334Y-88997667D01*
X137657001Y-89064333D01*
X137623667Y-89197667D01*
X137623667Y-89297667D01*
X137657001Y-89431000D01*
X137690334Y-89497667D01*
X137757001Y-89564333D01*
X137857001Y-89597667D01*
X137923667Y-89597667D01*
X138023667Y-89564333D01*
X138057001Y-89531000D01*
X138057001Y-89297667D01*
X137923667Y-89297667D01*
X138357001Y-89597667D02*
X138357001Y-88897667D01*
X138757001Y-89597667D01*
X138757001Y-88897667D01*
X139090334Y-89597667D02*
X139090334Y-88897667D01*
X139257000Y-88897667D01*
X139357000Y-88931000D01*
X139423667Y-88997667D01*
X139457000Y-89064333D01*
X139490334Y-89197667D01*
X139490334Y-89297667D01*
X139457000Y-89431000D01*
X139423667Y-89497667D01*
X139357000Y-89564333D01*
X139257000Y-89597667D01*
X139090334Y-89597667D01*
X140563667Y-83978000D02*
X140497001Y-83944667D01*
X140397001Y-83944667D01*
X140297001Y-83978000D01*
X140230334Y-84044667D01*
X140197001Y-84111333D01*
X140163667Y-84244667D01*
X140163667Y-84344667D01*
X140197001Y-84478000D01*
X140230334Y-84544667D01*
X140297001Y-84611333D01*
X140397001Y-84644667D01*
X140463667Y-84644667D01*
X140563667Y-84611333D01*
X140597001Y-84578000D01*
X140597001Y-84344667D01*
X140463667Y-84344667D01*
X140897001Y-84644667D02*
X140897001Y-83944667D01*
X141297001Y-84644667D01*
X141297001Y-83944667D01*
X141630334Y-84644667D02*
X141630334Y-83944667D01*
X141797000Y-83944667D01*
X141897000Y-83978000D01*
X141963667Y-84044667D01*
X141997000Y-84111333D01*
X142030334Y-84244667D01*
X142030334Y-84344667D01*
X141997000Y-84478000D01*
X141963667Y-84544667D01*
X141897000Y-84611333D01*
X141797000Y-84644667D01*
X141630334Y-84644667D01*
X130530667Y-79152000D02*
X130464001Y-79118667D01*
X130364001Y-79118667D01*
X130264001Y-79152000D01*
X130197334Y-79218667D01*
X130164001Y-79285333D01*
X130130667Y-79418667D01*
X130130667Y-79518667D01*
X130164001Y-79652000D01*
X130197334Y-79718667D01*
X130264001Y-79785333D01*
X130364001Y-79818667D01*
X130430667Y-79818667D01*
X130530667Y-79785333D01*
X130564001Y-79752000D01*
X130564001Y-79518667D01*
X130430667Y-79518667D01*
X130864001Y-79818667D02*
X130864001Y-79118667D01*
X131264001Y-79818667D01*
X131264001Y-79118667D01*
X131597334Y-79818667D02*
X131597334Y-79118667D01*
X131764000Y-79118667D01*
X131864000Y-79152000D01*
X131930667Y-79218667D01*
X131964000Y-79285333D01*
X131997334Y-79418667D01*
X131997334Y-79518667D01*
X131964000Y-79652000D01*
X131930667Y-79718667D01*
X131864000Y-79785333D01*
X131764000Y-79818667D01*
X131597334Y-79818667D01*
D11*
X75057000Y-107823000D02*
X116713000Y-107823000D01*
X116713000Y-107823000D02*
X116713000Y-127127000D01*
X116713000Y-127127000D02*
X75057000Y-127127000D01*
X75057000Y-127127000D02*
X75057000Y-107823000D01*
D13*
X125797000Y-98866000D02*
X128457000Y-98866000D01*
X125797000Y-96266000D02*
X125797000Y-98866000D01*
X128457000Y-96266000D02*
X128457000Y-98866000D01*
X125797000Y-96266000D02*
X128457000Y-96266000D01*
X125797000Y-94996000D02*
X125797000Y-93666000D01*
X125797000Y-93666000D02*
X127127000Y-93666000D01*
D11*
X90124000Y-94860000D02*
X90124000Y-94285000D01*
X84374000Y-94860000D02*
X84374000Y-94210000D01*
X84374000Y-84210000D02*
X84374000Y-84860000D01*
X90124000Y-84210000D02*
X90124000Y-84860000D01*
X90124000Y-94860000D02*
X84374000Y-94860000D01*
X90124000Y-84210000D02*
X84374000Y-84210000D01*
X90124000Y-94285000D02*
X91724000Y-94285000D01*
D13*
X87368000Y-81065000D02*
X86368000Y-81065000D01*
X86368000Y-82765000D02*
X87368000Y-82765000D01*
X89447000Y-81542000D02*
X89447000Y-82542000D01*
X91147000Y-82542000D02*
X91147000Y-81542000D01*
X102274000Y-88781000D02*
X102274000Y-89781000D01*
X103974000Y-89781000D02*
X103974000Y-88781000D01*
X120277000Y-96481000D02*
X121277000Y-96481000D01*
X121277000Y-94781000D02*
X120277000Y-94781000D01*
X121404000Y-97067000D02*
X120404000Y-97067000D01*
X120404000Y-98767000D02*
X121404000Y-98767000D01*
X104386000Y-95670000D02*
X103386000Y-95670000D01*
X103386000Y-97370000D02*
X104386000Y-97370000D01*
X104513000Y-98972000D02*
X103513000Y-98972000D01*
X103513000Y-100672000D02*
X104513000Y-100672000D01*
X121904000Y-100227000D02*
X142764000Y-100227000D01*
X142764000Y-100227000D02*
X142764000Y-109577000D01*
X142764000Y-109577000D02*
X121904000Y-109577000D01*
X121904000Y-109577000D02*
X121904000Y-100227000D01*
X121654000Y-109827000D02*
X124194000Y-109827000D01*
X121654000Y-109827000D02*
X121654000Y-107287000D01*
X101406000Y-79054000D02*
X101406000Y-76394000D01*
X88646000Y-79054000D02*
X101406000Y-79054000D01*
X88646000Y-76394000D02*
X101406000Y-76394000D01*
X88646000Y-79054000D02*
X88646000Y-76394000D01*
X87376000Y-79054000D02*
X86046000Y-79054000D01*
X86046000Y-79054000D02*
X86046000Y-77724000D01*
X108398000Y-104080000D02*
X108398000Y-106740000D01*
X116078000Y-104080000D02*
X108398000Y-104080000D01*
X116078000Y-106740000D02*
X108398000Y-106740000D01*
X116078000Y-104080000D02*
X116078000Y-106740000D01*
X117348000Y-104080000D02*
X118678000Y-104080000D01*
X118678000Y-104080000D02*
X118678000Y-105410000D01*
D11*
X125603000Y-111125000D02*
X125603000Y-127127000D01*
X125603000Y-127127000D02*
X142621000Y-127127000D01*
X142621000Y-127127000D02*
X142621000Y-111125000D01*
X125612000Y-111166000D02*
X142612000Y-111166000D01*
D13*
X124781000Y-89468000D02*
X127441000Y-89468000D01*
X124781000Y-81788000D02*
X124781000Y-89468000D01*
X127441000Y-81788000D02*
X127441000Y-89468000D01*
X124781000Y-81788000D02*
X127441000Y-81788000D01*
X124781000Y-80518000D02*
X124781000Y-79188000D01*
X124781000Y-79188000D02*
X126111000Y-79188000D01*
X112081000Y-76394000D02*
X112081000Y-79054000D01*
X119761000Y-76394000D02*
X112081000Y-76394000D01*
X119761000Y-79054000D02*
X112081000Y-79054000D01*
X119761000Y-76394000D02*
X119761000Y-79054000D01*
X121031000Y-76394000D02*
X122361000Y-76394000D01*
X122361000Y-76394000D02*
X122361000Y-77724000D01*
X109026000Y-79054000D02*
X109026000Y-76394000D01*
X106426000Y-79054000D02*
X109026000Y-79054000D01*
X106426000Y-76394000D02*
X109026000Y-76394000D01*
X106426000Y-79054000D02*
X106426000Y-76394000D01*
X105156000Y-79054000D02*
X103826000Y-79054000D01*
X103826000Y-79054000D02*
X103826000Y-77724000D01*
X112081000Y-85665000D02*
X112081000Y-88325000D01*
X119761000Y-85665000D02*
X112081000Y-85665000D01*
X119761000Y-88325000D02*
X112081000Y-88325000D01*
X119761000Y-85665000D02*
X119761000Y-88325000D01*
X121031000Y-85665000D02*
X122361000Y-85665000D01*
X122361000Y-85665000D02*
X122361000Y-86995000D01*
X118558000Y-126425000D02*
X123758000Y-126425000D01*
X118558000Y-118745000D02*
X118558000Y-126425000D01*
X123758000Y-116145000D02*
X123758000Y-126425000D01*
X118558000Y-118745000D02*
X121158000Y-118745000D01*
X121158000Y-118745000D02*
X121158000Y-116145000D01*
X121158000Y-116145000D02*
X123758000Y-116145000D01*
X118558000Y-117475000D02*
X118558000Y-116145000D01*
X118558000Y-116145000D02*
X119888000Y-116145000D01*
X112081000Y-81220000D02*
X112081000Y-83880000D01*
X119761000Y-81220000D02*
X112081000Y-81220000D01*
X119761000Y-83880000D02*
X112081000Y-83880000D01*
X119761000Y-81220000D02*
X119761000Y-83880000D01*
X121031000Y-81220000D02*
X122361000Y-81220000D01*
X122361000Y-81220000D02*
X122361000Y-82550000D01*
X131893000Y-90872000D02*
X131893000Y-93532000D01*
X139573000Y-90872000D02*
X131893000Y-90872000D01*
X139573000Y-93532000D02*
X131893000Y-93532000D01*
X139573000Y-90872000D02*
X139573000Y-93532000D01*
X140843000Y-90872000D02*
X142173000Y-90872000D01*
X142173000Y-90872000D02*
X142173000Y-92202000D01*
X91449000Y-103724000D02*
X91449000Y-102524000D01*
X93209000Y-102524000D02*
X93209000Y-103724000D01*
X104004000Y-92364000D02*
X104004000Y-93564000D01*
X102244000Y-93564000D02*
X102244000Y-92364000D01*
X106645000Y-104512000D02*
X105445000Y-104512000D01*
X105445000Y-102752000D02*
X106645000Y-102752000D01*
X106645000Y-107052000D02*
X105445000Y-107052000D01*
X105445000Y-105292000D02*
X106645000Y-105292000D01*
X105756000Y-82922000D02*
X104556000Y-82922000D01*
X104556000Y-81162000D02*
X105756000Y-81162000D01*
X122945000Y-94834000D02*
X122945000Y-93634000D01*
X124705000Y-93634000D02*
X124705000Y-94834000D01*
X89627000Y-102734000D02*
X88427000Y-102734000D01*
X88427000Y-100974000D02*
X89627000Y-100974000D01*
X88427000Y-98688000D02*
X89627000Y-98688000D01*
X89627000Y-100448000D02*
X88427000Y-100448000D01*
X101708000Y-98928000D02*
X100448000Y-98928000D01*
X94888000Y-98928000D02*
X96148000Y-98928000D01*
X101708000Y-102688000D02*
X101708000Y-98928000D01*
X94888000Y-104938000D02*
X94888000Y-98928000D01*
D11*
X108135000Y-92768000D02*
X108135000Y-92993000D01*
X115385000Y-92768000D02*
X115385000Y-93093000D01*
X115385000Y-100018000D02*
X115385000Y-99693000D01*
X108135000Y-100018000D02*
X108135000Y-99693000D01*
X108135000Y-92768000D02*
X108460000Y-92768000D01*
X108135000Y-100018000D02*
X108460000Y-100018000D01*
X115385000Y-100018000D02*
X115060000Y-100018000D01*
X115385000Y-92768000D02*
X115060000Y-92768000D01*
X108135000Y-92993000D02*
X106710000Y-92993000D01*
D13*
X101458000Y-86818000D02*
X101458000Y-93068000D01*
X96408000Y-86818000D02*
X96408000Y-93068000D01*
X96408000Y-86818000D02*
G75*
G02X101458000Y-86818000I2525000J0D01*
G01*
X96408000Y-93068000D02*
G75*
G03X101458000Y-93068000I2525000J0D01*
G01*
X93029000Y-96879000D02*
X91629000Y-96879000D01*
X91629000Y-96879000D02*
X91629000Y-99679000D01*
X93029000Y-96879000D02*
X93029000Y-99679000D01*
X119999000Y-110703000D02*
X117999000Y-110703000D01*
X117999000Y-110703000D02*
X117999000Y-114553000D01*
X119999000Y-110703000D02*
X119999000Y-114553000D01*
X79836000Y-105057000D02*
X71036000Y-105057000D01*
X71036000Y-105057000D02*
X71036000Y-95857000D01*
X85736000Y-102357000D02*
X85736000Y-105057000D01*
X85736000Y-105057000D02*
X83836000Y-105057000D01*
X71036000Y-95857000D02*
X85736000Y-95857000D01*
X85736000Y-95857000D02*
X85736000Y-98457000D01*
X73567000Y-85185000D02*
X73567000Y-93885000D01*
X79977000Y-85185000D02*
X79977000Y-93885000D01*
X79977000Y-93885000D02*
X73567000Y-93885000D01*
X74797000Y-93885000D02*
X74797000Y-85185000D01*
X73567000Y-85185000D02*
X79977000Y-85185000D01*
X142300000Y-83245000D02*
X142300000Y-80585000D01*
X134620000Y-83245000D02*
X142300000Y-83245000D01*
X134620000Y-80585000D02*
X142300000Y-80585000D01*
X134620000Y-83245000D02*
X134620000Y-80585000D01*
X133350000Y-83245000D02*
X132020000Y-83245000D01*
X132020000Y-83245000D02*
X132020000Y-81915000D01*
X132020000Y-85538000D02*
X132020000Y-88198000D01*
X139700000Y-85538000D02*
X132020000Y-85538000D01*
X139700000Y-88198000D02*
X132020000Y-88198000D01*
X139700000Y-85538000D02*
X139700000Y-88198000D01*
X140970000Y-85538000D02*
X142300000Y-85538000D01*
X142300000Y-85538000D02*
X142300000Y-86868000D01*
X77327000Y-82462000D02*
X81827000Y-82462000D01*
X76077000Y-78462000D02*
X76077000Y-79962000D01*
X81827000Y-75962000D02*
X77327000Y-75962000D01*
X83077000Y-79962000D02*
X83077000Y-78462000D01*
X90973000Y-106156000D02*
X90973000Y-104156000D01*
X90973000Y-104156000D02*
X87123000Y-104156000D01*
X90973000Y-106156000D02*
X87123000Y-106156000D01*
X127194000Y-75886000D02*
X127194000Y-78546000D01*
X139954000Y-75886000D02*
X127194000Y-75886000D01*
X139954000Y-78546000D02*
X127194000Y-78546000D01*
X139954000Y-75886000D02*
X139954000Y-78546000D01*
X141224000Y-75886000D02*
X142554000Y-75886000D01*
X142554000Y-75886000D02*
X142554000Y-77216000D01*
X129480000Y-95063000D02*
X129480000Y-97723000D01*
X139700000Y-95063000D02*
X129480000Y-95063000D01*
X139700000Y-97723000D02*
X129480000Y-97723000D01*
X139700000Y-95063000D02*
X139700000Y-97723000D01*
X140970000Y-95063000D02*
X142300000Y-95063000D01*
X142300000Y-95063000D02*
X142300000Y-96393000D01*
D11*
X94384905Y-120213381D02*
X94384905Y-119213381D01*
X94765858Y-119213381D01*
X94861096Y-119261000D01*
X94908715Y-119308619D01*
X94956334Y-119403857D01*
X94956334Y-119546714D01*
X94908715Y-119641952D01*
X94861096Y-119689571D01*
X94765858Y-119737190D01*
X94384905Y-119737190D01*
X95908715Y-120213381D02*
X95337286Y-120213381D01*
X95623000Y-120213381D02*
X95623000Y-119213381D01*
X95527762Y-119356238D01*
X95432524Y-119451476D01*
X95337286Y-119499095D01*
D10*
X86814834Y-83625500D02*
X86781500Y-83658833D01*
X86681500Y-83692167D01*
X86614834Y-83692167D01*
X86514834Y-83658833D01*
X86448167Y-83592167D01*
X86414834Y-83525500D01*
X86381500Y-83392167D01*
X86381500Y-83292167D01*
X86414834Y-83158833D01*
X86448167Y-83092167D01*
X86514834Y-83025500D01*
X86614834Y-82992167D01*
X86681500Y-82992167D01*
X86781500Y-83025500D01*
X86814834Y-83058833D01*
X87081500Y-83058833D02*
X87114834Y-83025500D01*
X87181500Y-82992167D01*
X87348167Y-82992167D01*
X87414834Y-83025500D01*
X87448167Y-83058833D01*
X87481500Y-83125500D01*
X87481500Y-83192167D01*
X87448167Y-83292167D01*
X87048167Y-83692167D01*
X87481500Y-83692167D01*
X92134500Y-82476166D02*
X92167833Y-82509500D01*
X92201167Y-82609500D01*
X92201167Y-82676166D01*
X92167833Y-82776166D01*
X92101167Y-82842833D01*
X92034500Y-82876166D01*
X91901167Y-82909500D01*
X91801167Y-82909500D01*
X91667833Y-82876166D01*
X91601167Y-82842833D01*
X91534500Y-82776166D01*
X91501167Y-82676166D01*
X91501167Y-82609500D01*
X91534500Y-82509500D01*
X91567833Y-82476166D01*
X91501167Y-82242833D02*
X91501167Y-81809500D01*
X91767833Y-82042833D01*
X91767833Y-81942833D01*
X91801167Y-81876166D01*
X91834500Y-81842833D01*
X91901167Y-81809500D01*
X92067833Y-81809500D01*
X92134500Y-81842833D01*
X92167833Y-81876166D01*
X92201167Y-81942833D01*
X92201167Y-82142833D01*
X92167833Y-82209500D01*
X92134500Y-82242833D01*
X103374000Y-86857666D02*
X103407333Y-86891000D01*
X103440667Y-86991000D01*
X103440667Y-87057666D01*
X103407333Y-87157666D01*
X103340667Y-87224333D01*
X103274000Y-87257666D01*
X103140667Y-87291000D01*
X103040667Y-87291000D01*
X102907333Y-87257666D01*
X102840667Y-87224333D01*
X102774000Y-87157666D01*
X102740667Y-87057666D01*
X102740667Y-86991000D01*
X102774000Y-86891000D01*
X102807333Y-86857666D01*
X102740667Y-86224333D02*
X102740667Y-86557666D01*
X103074000Y-86591000D01*
X103040667Y-86557666D01*
X103007333Y-86491000D01*
X103007333Y-86324333D01*
X103040667Y-86257666D01*
X103074000Y-86224333D01*
X103140667Y-86191000D01*
X103307333Y-86191000D01*
X103374000Y-86224333D01*
X103407333Y-86257666D01*
X103440667Y-86324333D01*
X103440667Y-86491000D01*
X103407333Y-86557666D01*
X103374000Y-86591000D01*
X119390334Y-99691000D02*
X119357000Y-99724333D01*
X119257000Y-99757667D01*
X119190334Y-99757667D01*
X119090334Y-99724333D01*
X119023667Y-99657667D01*
X118990334Y-99591000D01*
X118957000Y-99457667D01*
X118957000Y-99357667D01*
X118990334Y-99224333D01*
X119023667Y-99157667D01*
X119090334Y-99091000D01*
X119190334Y-99057667D01*
X119257000Y-99057667D01*
X119357000Y-99091000D01*
X119390334Y-99124333D01*
X119990334Y-99057667D02*
X119857000Y-99057667D01*
X119790334Y-99091000D01*
X119757000Y-99124333D01*
X119690334Y-99224333D01*
X119657000Y-99357667D01*
X119657000Y-99624333D01*
X119690334Y-99691000D01*
X119723667Y-99724333D01*
X119790334Y-99757667D01*
X119923667Y-99757667D01*
X119990334Y-99724333D01*
X120023667Y-99691000D01*
X120057000Y-99624333D01*
X120057000Y-99457667D01*
X120023667Y-99391000D01*
X119990334Y-99357667D01*
X119923667Y-99324333D01*
X119790334Y-99324333D01*
X119723667Y-99357667D01*
X119690334Y-99391000D01*
X119657000Y-99457667D01*
X119453834Y-94166500D02*
X119420500Y-94199833D01*
X119320500Y-94233167D01*
X119253834Y-94233167D01*
X119153834Y-94199833D01*
X119087167Y-94133167D01*
X119053834Y-94066500D01*
X119020500Y-93933167D01*
X119020500Y-93833167D01*
X119053834Y-93699833D01*
X119087167Y-93633167D01*
X119153834Y-93566500D01*
X119253834Y-93533167D01*
X119320500Y-93533167D01*
X119420500Y-93566500D01*
X119453834Y-93599833D01*
X119687167Y-93533167D02*
X120153834Y-93533167D01*
X119853834Y-94233167D01*
X102562834Y-95500000D02*
X102529500Y-95533333D01*
X102429500Y-95566667D01*
X102362834Y-95566667D01*
X102262834Y-95533333D01*
X102196167Y-95466667D01*
X102162834Y-95400000D01*
X102129500Y-95266667D01*
X102129500Y-95166667D01*
X102162834Y-95033333D01*
X102196167Y-94966667D01*
X102262834Y-94900000D01*
X102362834Y-94866667D01*
X102429500Y-94866667D01*
X102529500Y-94900000D01*
X102562834Y-94933333D01*
X102962834Y-95166667D02*
X102896167Y-95133333D01*
X102862834Y-95100000D01*
X102829500Y-95033333D01*
X102829500Y-95000000D01*
X102862834Y-94933333D01*
X102896167Y-94900000D01*
X102962834Y-94866667D01*
X103096167Y-94866667D01*
X103162834Y-94900000D01*
X103196167Y-94933333D01*
X103229500Y-95000000D01*
X103229500Y-95033333D01*
X103196167Y-95100000D01*
X103162834Y-95133333D01*
X103096167Y-95166667D01*
X102962834Y-95166667D01*
X102896167Y-95200000D01*
X102862834Y-95233333D01*
X102829500Y-95300000D01*
X102829500Y-95433333D01*
X102862834Y-95500000D01*
X102896167Y-95533333D01*
X102962834Y-95566667D01*
X103096167Y-95566667D01*
X103162834Y-95533333D01*
X103196167Y-95500000D01*
X103229500Y-95433333D01*
X103229500Y-95300000D01*
X103196167Y-95233333D01*
X103162834Y-95200000D01*
X103096167Y-95166667D01*
X103896334Y-98484500D02*
X103863000Y-98517833D01*
X103763000Y-98551167D01*
X103696334Y-98551167D01*
X103596334Y-98517833D01*
X103529667Y-98451167D01*
X103496334Y-98384500D01*
X103463000Y-98251167D01*
X103463000Y-98151167D01*
X103496334Y-98017833D01*
X103529667Y-97951167D01*
X103596334Y-97884500D01*
X103696334Y-97851167D01*
X103763000Y-97851167D01*
X103863000Y-97884500D01*
X103896334Y-97917833D01*
X104229667Y-98551167D02*
X104363000Y-98551167D01*
X104429667Y-98517833D01*
X104463000Y-98484500D01*
X104529667Y-98384500D01*
X104563000Y-98251167D01*
X104563000Y-97984500D01*
X104529667Y-97917833D01*
X104496334Y-97884500D01*
X104429667Y-97851167D01*
X104296334Y-97851167D01*
X104229667Y-97884500D01*
X104196334Y-97917833D01*
X104163000Y-97984500D01*
X104163000Y-98151167D01*
X104196334Y-98217833D01*
X104229667Y-98251167D01*
X104296334Y-98284500D01*
X104429667Y-98284500D01*
X104496334Y-98251167D01*
X104529667Y-98217833D01*
X104563000Y-98151167D01*
D11*
X119130381Y-105743333D02*
X119844667Y-105743333D01*
X119987524Y-105790953D01*
X120082762Y-105886191D01*
X120130381Y-106029048D01*
X120130381Y-106124286D01*
X119130381Y-105362381D02*
X119130381Y-104743333D01*
X119511333Y-105076667D01*
X119511333Y-104933809D01*
X119558952Y-104838571D01*
X119606571Y-104790952D01*
X119701810Y-104743333D01*
X119939905Y-104743333D01*
X120035143Y-104790952D01*
X120082762Y-104838571D01*
X120130381Y-104933809D01*
X120130381Y-105219524D01*
X120082762Y-105314762D01*
X120035143Y-105362381D01*
D10*
X94295667Y-103240666D02*
X93962333Y-103474000D01*
X94295667Y-103640666D02*
X93595667Y-103640666D01*
X93595667Y-103374000D01*
X93629000Y-103307333D01*
X93662333Y-103274000D01*
X93729000Y-103240666D01*
X93829000Y-103240666D01*
X93895667Y-103274000D01*
X93929000Y-103307333D01*
X93962333Y-103374000D01*
X93962333Y-103640666D01*
X94295667Y-102574000D02*
X94295667Y-102974000D01*
X94295667Y-102774000D02*
X93595667Y-102774000D01*
X93695667Y-102840666D01*
X93762333Y-102907333D01*
X93795667Y-102974000D01*
X104837667Y-92953666D02*
X104504333Y-93187000D01*
X104837667Y-93353666D02*
X104137667Y-93353666D01*
X104137667Y-93087000D01*
X104171000Y-93020333D01*
X104204333Y-92987000D01*
X104271000Y-92953666D01*
X104371000Y-92953666D01*
X104437667Y-92987000D01*
X104471000Y-93020333D01*
X104504333Y-93087000D01*
X104504333Y-93353666D01*
X104204333Y-92687000D02*
X104171000Y-92653666D01*
X104137667Y-92587000D01*
X104137667Y-92420333D01*
X104171000Y-92353666D01*
X104204333Y-92320333D01*
X104271000Y-92287000D01*
X104337667Y-92287000D01*
X104437667Y-92320333D01*
X104837667Y-92720333D01*
X104837667Y-92287000D01*
X103451834Y-103948667D02*
X103218500Y-103615333D01*
X103051834Y-103948667D02*
X103051834Y-103248667D01*
X103318500Y-103248667D01*
X103385167Y-103282000D01*
X103418500Y-103315333D01*
X103451834Y-103382000D01*
X103451834Y-103482000D01*
X103418500Y-103548667D01*
X103385167Y-103582000D01*
X103318500Y-103615333D01*
X103051834Y-103615333D01*
X103685167Y-103248667D02*
X104118500Y-103248667D01*
X103885167Y-103515333D01*
X103985167Y-103515333D01*
X104051834Y-103548667D01*
X104085167Y-103582000D01*
X104118500Y-103648667D01*
X104118500Y-103815333D01*
X104085167Y-103882000D01*
X104051834Y-103915333D01*
X103985167Y-103948667D01*
X103785167Y-103948667D01*
X103718500Y-103915333D01*
X103685167Y-103882000D01*
X103642334Y-106488667D02*
X103409000Y-106155333D01*
X103242334Y-106488667D02*
X103242334Y-105788667D01*
X103509000Y-105788667D01*
X103575667Y-105822000D01*
X103609000Y-105855333D01*
X103642334Y-105922000D01*
X103642334Y-106022000D01*
X103609000Y-106088667D01*
X103575667Y-106122000D01*
X103509000Y-106155333D01*
X103242334Y-106155333D01*
X104242334Y-106022000D02*
X104242334Y-106488667D01*
X104075667Y-105755333D02*
X103909000Y-106255333D01*
X104342334Y-106255333D01*
D12*
X105136167Y-80934690D02*
X104969500Y-80696595D01*
X104850453Y-80934690D02*
X104850453Y-80434690D01*
X105040929Y-80434690D01*
X105088548Y-80458500D01*
X105112357Y-80482310D01*
X105136167Y-80529929D01*
X105136167Y-80601357D01*
X105112357Y-80648976D01*
X105088548Y-80672786D01*
X105040929Y-80696595D01*
X104850453Y-80696595D01*
X105588548Y-80434690D02*
X105350453Y-80434690D01*
X105326643Y-80672786D01*
X105350453Y-80648976D01*
X105398072Y-80625167D01*
X105517119Y-80625167D01*
X105564738Y-80648976D01*
X105588548Y-80672786D01*
X105612357Y-80720405D01*
X105612357Y-80839452D01*
X105588548Y-80887071D01*
X105564738Y-80910881D01*
X105517119Y-80934690D01*
X105398072Y-80934690D01*
X105350453Y-80910881D01*
X105326643Y-80887071D01*
D10*
X124078167Y-92191666D02*
X123744833Y-92425000D01*
X124078167Y-92591666D02*
X123378167Y-92591666D01*
X123378167Y-92325000D01*
X123411500Y-92258333D01*
X123444833Y-92225000D01*
X123511500Y-92191666D01*
X123611500Y-92191666D01*
X123678167Y-92225000D01*
X123711500Y-92258333D01*
X123744833Y-92325000D01*
X123744833Y-92591666D01*
X123378167Y-91591666D02*
X123378167Y-91725000D01*
X123411500Y-91791666D01*
X123444833Y-91825000D01*
X123544833Y-91891666D01*
X123678167Y-91925000D01*
X123944833Y-91925000D01*
X124011500Y-91891666D01*
X124044833Y-91858333D01*
X124078167Y-91791666D01*
X124078167Y-91658333D01*
X124044833Y-91591666D01*
X124011500Y-91558333D01*
X123944833Y-91525000D01*
X123778167Y-91525000D01*
X123711500Y-91558333D01*
X123678167Y-91591666D01*
X123644833Y-91658333D01*
X123644833Y-91791666D01*
X123678167Y-91858333D01*
X123711500Y-91891666D01*
X123778167Y-91925000D01*
X88910334Y-103694667D02*
X88677000Y-103361333D01*
X88510334Y-103694667D02*
X88510334Y-102994667D01*
X88777000Y-102994667D01*
X88843667Y-103028000D01*
X88877000Y-103061333D01*
X88910334Y-103128000D01*
X88910334Y-103228000D01*
X88877000Y-103294667D01*
X88843667Y-103328000D01*
X88777000Y-103361333D01*
X88510334Y-103361333D01*
X89143667Y-102994667D02*
X89610334Y-102994667D01*
X89310334Y-103694667D01*
X88910334Y-98360667D02*
X88677000Y-98027333D01*
X88510334Y-98360667D02*
X88510334Y-97660667D01*
X88777000Y-97660667D01*
X88843667Y-97694000D01*
X88877000Y-97727333D01*
X88910334Y-97794000D01*
X88910334Y-97894000D01*
X88877000Y-97960667D01*
X88843667Y-97994000D01*
X88777000Y-98027333D01*
X88510334Y-98027333D01*
X89310334Y-97960667D02*
X89243667Y-97927333D01*
X89210334Y-97894000D01*
X89177000Y-97827333D01*
X89177000Y-97794000D01*
X89210334Y-97727333D01*
X89243667Y-97694000D01*
X89310334Y-97660667D01*
X89443667Y-97660667D01*
X89510334Y-97694000D01*
X89543667Y-97727333D01*
X89577000Y-97794000D01*
X89577000Y-97827333D01*
X89543667Y-97894000D01*
X89510334Y-97927333D01*
X89443667Y-97960667D01*
X89310334Y-97960667D01*
X89243667Y-97994000D01*
X89210334Y-98027333D01*
X89177000Y-98094000D01*
X89177000Y-98227333D01*
X89210334Y-98294000D01*
X89243667Y-98327333D01*
X89310334Y-98360667D01*
X89443667Y-98360667D01*
X89510334Y-98327333D01*
X89543667Y-98294000D01*
X89577000Y-98227333D01*
X89577000Y-98094000D01*
X89543667Y-98027333D01*
X89510334Y-97994000D01*
X89443667Y-97960667D01*
D11*
X95226190Y-85058191D02*
X95702381Y-85058191D01*
X94702381Y-85391524D02*
X95226190Y-85058191D01*
X94702381Y-84724857D01*
X95702381Y-83867714D02*
X95702381Y-84439143D01*
X95702381Y-84153429D02*
X94702381Y-84153429D01*
X94845238Y-84248667D01*
X94940476Y-84343905D01*
X94988095Y-84439143D01*
D10*
X94095667Y-99195666D02*
X93395667Y-99195666D01*
X93395667Y-99029000D01*
X93429000Y-98929000D01*
X93495667Y-98862333D01*
X93562333Y-98829000D01*
X93695667Y-98795666D01*
X93795667Y-98795666D01*
X93929000Y-98829000D01*
X93995667Y-98862333D01*
X94062333Y-98929000D01*
X94095667Y-99029000D01*
X94095667Y-99195666D01*
X94095667Y-98129000D02*
X94095667Y-98529000D01*
X94095667Y-98329000D02*
X93395667Y-98329000D01*
X93495667Y-98395666D01*
X93562333Y-98462333D01*
X93595667Y-98529000D01*
X120839667Y-113229166D02*
X120139667Y-113229166D01*
X120139667Y-113062500D01*
X120173000Y-112962500D01*
X120239667Y-112895833D01*
X120306333Y-112862500D01*
X120439667Y-112829166D01*
X120539667Y-112829166D01*
X120673000Y-112862500D01*
X120739667Y-112895833D01*
X120806333Y-112962500D01*
X120839667Y-113062500D01*
X120839667Y-113229166D01*
X120206333Y-112562500D02*
X120173000Y-112529166D01*
X120139667Y-112462500D01*
X120139667Y-112295833D01*
X120173000Y-112229166D01*
X120206333Y-112195833D01*
X120273000Y-112162500D01*
X120339667Y-112162500D01*
X120439667Y-112195833D01*
X120839667Y-112595833D01*
X120839667Y-112162500D01*
D11*
X77605119Y-84462881D02*
X77271785Y-83986690D01*
X77033690Y-84462881D02*
X77033690Y-83462881D01*
X77414643Y-83462881D01*
X77509881Y-83510500D01*
X77557500Y-83558119D01*
X77605119Y-83653357D01*
X77605119Y-83796214D01*
X77557500Y-83891452D01*
X77509881Y-83939071D01*
X77414643Y-83986690D01*
X77033690Y-83986690D01*
X78033690Y-83939071D02*
X78367024Y-83939071D01*
X78509881Y-84462881D02*
X78033690Y-84462881D01*
X78033690Y-83462881D01*
X78509881Y-83462881D01*
X78890833Y-84415262D02*
X79033690Y-84462881D01*
X79271786Y-84462881D01*
X79367024Y-84415262D01*
X79414643Y-84367643D01*
X79462262Y-84272405D01*
X79462262Y-84177167D01*
X79414643Y-84081929D01*
X79367024Y-84034310D01*
X79271786Y-83986690D01*
X79081309Y-83939071D01*
X78986071Y-83891452D01*
X78938452Y-83843833D01*
X78890833Y-83748595D01*
X78890833Y-83653357D01*
X78938452Y-83558119D01*
X78986071Y-83510500D01*
X79081309Y-83462881D01*
X79319405Y-83462881D01*
X79462262Y-83510500D01*
X79890833Y-83939071D02*
X80224167Y-83939071D01*
X80367024Y-84462881D02*
X79890833Y-84462881D01*
X79890833Y-83462881D01*
X80367024Y-83462881D01*
X80652738Y-83462881D02*
X81224167Y-83462881D01*
X80938452Y-84462881D02*
X80938452Y-83462881D01*
D10*
X88383334Y-107377667D02*
X88383334Y-106677667D01*
X88550000Y-106677667D01*
X88650000Y-106711000D01*
X88716667Y-106777667D01*
X88750000Y-106844333D01*
X88783334Y-106977667D01*
X88783334Y-107077667D01*
X88750000Y-107211000D01*
X88716667Y-107277667D01*
X88650000Y-107344333D01*
X88550000Y-107377667D01*
X88383334Y-107377667D01*
X89016667Y-106677667D02*
X89450000Y-106677667D01*
X89216667Y-106944333D01*
X89316667Y-106944333D01*
X89383334Y-106977667D01*
X89416667Y-107011000D01*
X89450000Y-107077667D01*
X89450000Y-107244333D01*
X89416667Y-107311000D01*
X89383334Y-107344333D01*
X89316667Y-107377667D01*
X89116667Y-107377667D01*
X89050000Y-107344333D01*
X89016667Y-107311000D01*
M02*
