G04 #@! TF.FileFunction,Soldermask,Top*
%FSLAX46Y46*%
G04 Gerber Fmt 4.6, Leading zero omitted, Abs format (unit mm)*
G04 Created by KiCad (PCBNEW 4.0.2+dfsg1-stable) date Mon Nov  6 16:18:01 2017*
%MOMM*%
G01*
G04 APERTURE LIST*
%ADD10C,0.100000*%
%ADD11R,2.398980X2.398980*%
%ADD12R,2.100000X2.100000*%
%ADD13O,2.100000X2.100000*%
%ADD14R,2.150000X0.850000*%
%ADD15R,1.400000X1.650000*%
%ADD16R,1.650000X1.400000*%
%ADD17R,2.127200X2.127200*%
%ADD18O,2.127200X2.127200*%
%ADD19R,1.200000X3.400000*%
%ADD20R,1.700000X1.100000*%
%ADD21R,1.100000X1.700000*%
%ADD22R,4.200000X2.400000*%
%ADD23R,1.900000X2.400000*%
%ADD24R,2.000000X0.950000*%
%ADD25R,0.950000X2.000000*%
%ADD26C,1.900000*%
%ADD27R,1.600000X1.600000*%
%ADD28R,1.500000X1.500000*%
%ADD29R,3.900000X3.900000*%
%ADD30R,1.750000X0.800000*%
%ADD31O,1.350000X1.650000*%
%ADD32O,1.950000X1.400000*%
%ADD33C,2.400000*%
G04 APERTURE END LIST*
D10*
D11*
X76136500Y-108950000D03*
X76136500Y-126000000D03*
X115633500Y-108902500D03*
X115633500Y-126047500D03*
D12*
X127127000Y-94996000D03*
D13*
X127127000Y-97536000D03*
D14*
X90849000Y-93760000D03*
X90849000Y-93110000D03*
X90849000Y-92460000D03*
X90849000Y-91810000D03*
X90849000Y-91160000D03*
X90849000Y-90510000D03*
X90849000Y-89860000D03*
X90849000Y-89210000D03*
X90849000Y-88560000D03*
X90849000Y-87910000D03*
X90849000Y-87260000D03*
X90849000Y-86610000D03*
X90849000Y-85960000D03*
X90849000Y-85310000D03*
X83649000Y-85310000D03*
X83649000Y-85960000D03*
X83649000Y-86610000D03*
X83649000Y-87260000D03*
X83649000Y-87910000D03*
X83649000Y-88560000D03*
X83649000Y-89210000D03*
X83649000Y-89860000D03*
X83649000Y-90510000D03*
X83649000Y-91160000D03*
X83649000Y-91810000D03*
X83649000Y-92460000D03*
X83649000Y-93110000D03*
X83649000Y-93760000D03*
D15*
X85868000Y-81915000D03*
X87868000Y-81915000D03*
D16*
X90297000Y-83042000D03*
X90297000Y-81042000D03*
X103124000Y-90281000D03*
X103124000Y-88281000D03*
D15*
X121777000Y-95631000D03*
X119777000Y-95631000D03*
X119904000Y-97917000D03*
X121904000Y-97917000D03*
X102886000Y-96520000D03*
X104886000Y-96520000D03*
X103013000Y-99822000D03*
X105013000Y-99822000D03*
D17*
X127254000Y-106172000D03*
D18*
X127254000Y-103632000D03*
X129794000Y-106172000D03*
X129794000Y-103632000D03*
X132334000Y-106172000D03*
X132334000Y-103632000D03*
X134874000Y-106172000D03*
X134874000Y-103632000D03*
X137414000Y-106172000D03*
X137414000Y-103632000D03*
D12*
X87376000Y-77724000D03*
D13*
X89916000Y-77724000D03*
X92456000Y-77724000D03*
X94996000Y-77724000D03*
X97536000Y-77724000D03*
X100076000Y-77724000D03*
D12*
X117348000Y-105410000D03*
D13*
X114808000Y-105410000D03*
X112268000Y-105410000D03*
X109728000Y-105410000D03*
D19*
X141097000Y-113157000D03*
X139827000Y-113157000D03*
X138557000Y-113157000D03*
X137287000Y-113157000D03*
X136017000Y-113157000D03*
X134747000Y-113157000D03*
X133477000Y-113157000D03*
X132207000Y-113157000D03*
X130937000Y-113157000D03*
X129667000Y-113157000D03*
X128397000Y-113157000D03*
X127127000Y-113157000D03*
D12*
X126111000Y-80518000D03*
D13*
X126111000Y-83058000D03*
X126111000Y-85598000D03*
X126111000Y-88138000D03*
D12*
X121031000Y-77724000D03*
D13*
X118491000Y-77724000D03*
X115951000Y-77724000D03*
X113411000Y-77724000D03*
D12*
X105156000Y-77724000D03*
D13*
X107696000Y-77724000D03*
D12*
X121031000Y-86995000D03*
D13*
X118491000Y-86995000D03*
X115951000Y-86995000D03*
X113411000Y-86995000D03*
D12*
X119888000Y-117475000D03*
D13*
X122428000Y-117475000D03*
X119888000Y-120015000D03*
X122428000Y-120015000D03*
X119888000Y-122555000D03*
X122428000Y-122555000D03*
X119888000Y-125095000D03*
X122428000Y-125095000D03*
D12*
X121031000Y-82550000D03*
D13*
X118491000Y-82550000D03*
X115951000Y-82550000D03*
X113411000Y-82550000D03*
D12*
X140843000Y-92202000D03*
D13*
X138303000Y-92202000D03*
X135763000Y-92202000D03*
X133223000Y-92202000D03*
D20*
X92329000Y-102174000D03*
X92329000Y-104074000D03*
X103124000Y-93914000D03*
X103124000Y-92014000D03*
D21*
X105095000Y-103632000D03*
X106995000Y-103632000D03*
X105095000Y-106172000D03*
X106995000Y-106172000D03*
X104206000Y-82042000D03*
X106106000Y-82042000D03*
D20*
X123825000Y-93284000D03*
X123825000Y-95184000D03*
D21*
X88077000Y-101854000D03*
X89977000Y-101854000D03*
X89977000Y-99568000D03*
X88077000Y-99568000D03*
D22*
X98298000Y-97688000D03*
D23*
X98298000Y-103988000D03*
X100598000Y-103988000D03*
X95998000Y-103988000D03*
D24*
X107510000Y-93593000D03*
X107510000Y-94393000D03*
X107510000Y-95193000D03*
X107510000Y-95993000D03*
X107510000Y-96793000D03*
X107510000Y-97593000D03*
X107510000Y-98393000D03*
X107510000Y-99193000D03*
D25*
X108960000Y-100643000D03*
X109760000Y-100643000D03*
X110560000Y-100643000D03*
X111360000Y-100643000D03*
X112160000Y-100643000D03*
X112960000Y-100643000D03*
X113760000Y-100643000D03*
X114560000Y-100643000D03*
D24*
X116010000Y-99193000D03*
X116010000Y-98393000D03*
X116010000Y-97593000D03*
X116010000Y-96793000D03*
X116010000Y-95993000D03*
X116010000Y-95193000D03*
X116010000Y-94393000D03*
X116010000Y-93593000D03*
D25*
X114560000Y-92143000D03*
X113760000Y-92143000D03*
X112960000Y-92143000D03*
X112160000Y-92143000D03*
X111360000Y-92143000D03*
X110560000Y-92143000D03*
X109760000Y-92143000D03*
X108960000Y-92143000D03*
D26*
X98933000Y-87503000D03*
X98933000Y-92383000D03*
D27*
X92329000Y-99779000D03*
X92329000Y-97579000D03*
D28*
X118999000Y-111503000D03*
X118999000Y-114303000D03*
D29*
X84836000Y-100457000D03*
X78836000Y-100457000D03*
X81836000Y-105157000D03*
D30*
X78947000Y-88235000D03*
X78947000Y-88885000D03*
X78947000Y-89535000D03*
X78947000Y-90185000D03*
X78947000Y-90835000D03*
D31*
X78947000Y-87035000D03*
X78947000Y-92035000D03*
D32*
X76247000Y-86035000D03*
X76247000Y-93035000D03*
D12*
X133350000Y-81915000D03*
D13*
X135890000Y-81915000D03*
X138430000Y-81915000D03*
X140970000Y-81915000D03*
D12*
X140970000Y-86868000D03*
D13*
X138430000Y-86868000D03*
X135890000Y-86868000D03*
X133350000Y-86868000D03*
D33*
X76327000Y-81462000D03*
X76327000Y-76962000D03*
X82827000Y-81462000D03*
X82827000Y-76962000D03*
D28*
X90173000Y-105156000D03*
X87373000Y-105156000D03*
D12*
X141224000Y-77216000D03*
D13*
X138684000Y-77216000D03*
X136144000Y-77216000D03*
X133604000Y-77216000D03*
X131064000Y-77216000D03*
X128524000Y-77216000D03*
D12*
X140970000Y-96393000D03*
D13*
X138430000Y-96393000D03*
X135890000Y-96393000D03*
X133350000Y-96393000D03*
X130810000Y-96393000D03*
M02*
