G04 #@! TF.FileFunction,Copper,L2,Bot,Signal*
%FSLAX46Y46*%
G04 Gerber Fmt 4.6, Leading zero omitted, Abs format (unit mm)*
G04 Created by KiCad (PCBNEW 4.0.2+dfsg1-stable) date Mon Nov  6 16:18:01 2017*
%MOMM*%
G01*
G04 APERTURE LIST*
%ADD10C,0.100000*%
%ADD11R,1.998980X1.998980*%
%ADD12R,1.700000X1.700000*%
%ADD13O,1.700000X1.700000*%
%ADD14R,2.500000X3.200000*%
%ADD15R,1.727200X1.727200*%
%ADD16O,1.727200X1.727200*%
%ADD17R,5.600000X2.300000*%
%ADD18C,1.500000*%
%ADD19R,3.500000X3.500000*%
%ADD20O,0.950000X1.250000*%
%ADD21O,1.550000X1.000000*%
%ADD22C,2.000000*%
%ADD23C,0.508000*%
%ADD24C,0.889000*%
%ADD25C,0.914400*%
%ADD26C,0.812800*%
%ADD27C,0.406400*%
%ADD28C,0.762000*%
%ADD29C,1.016000*%
%ADD30C,0.609600*%
%ADD31C,0.304800*%
%ADD32C,0.600000*%
%ADD33C,0.508000*%
%ADD34C,0.254000*%
G04 APERTURE END LIST*
D10*
D11*
X76136500Y-108950000D03*
X76136500Y-126000000D03*
X115633500Y-108902500D03*
X115633500Y-126047500D03*
D12*
X127127000Y-94996000D03*
D13*
X127127000Y-97536000D03*
D14*
X99060000Y-110245000D03*
X99060000Y-114545000D03*
X93980000Y-110245000D03*
X93980000Y-114545000D03*
D15*
X127254000Y-106172000D03*
D16*
X127254000Y-103632000D03*
X129794000Y-106172000D03*
X129794000Y-103632000D03*
X132334000Y-106172000D03*
X132334000Y-103632000D03*
X134874000Y-106172000D03*
X134874000Y-103632000D03*
X137414000Y-106172000D03*
X137414000Y-103632000D03*
D17*
X81280000Y-121175000D03*
X81280000Y-113775000D03*
D12*
X87376000Y-77724000D03*
D13*
X89916000Y-77724000D03*
X92456000Y-77724000D03*
X94996000Y-77724000D03*
X97536000Y-77724000D03*
X100076000Y-77724000D03*
D12*
X117348000Y-105410000D03*
D13*
X114808000Y-105410000D03*
X112268000Y-105410000D03*
X109728000Y-105410000D03*
D12*
X126111000Y-80518000D03*
D13*
X126111000Y-83058000D03*
X126111000Y-85598000D03*
X126111000Y-88138000D03*
D12*
X121031000Y-77724000D03*
D13*
X118491000Y-77724000D03*
X115951000Y-77724000D03*
X113411000Y-77724000D03*
D12*
X105156000Y-77724000D03*
D13*
X107696000Y-77724000D03*
D12*
X121031000Y-86995000D03*
D13*
X118491000Y-86995000D03*
X115951000Y-86995000D03*
X113411000Y-86995000D03*
D12*
X119888000Y-117475000D03*
D13*
X122428000Y-117475000D03*
X119888000Y-120015000D03*
X122428000Y-120015000D03*
X119888000Y-122555000D03*
X122428000Y-122555000D03*
X119888000Y-125095000D03*
X122428000Y-125095000D03*
D12*
X121031000Y-82550000D03*
D13*
X118491000Y-82550000D03*
X115951000Y-82550000D03*
X113411000Y-82550000D03*
D12*
X140843000Y-92202000D03*
D13*
X138303000Y-92202000D03*
X135763000Y-92202000D03*
X133223000Y-92202000D03*
D18*
X98933000Y-87503000D03*
X98933000Y-92383000D03*
D19*
X84836000Y-100457000D03*
X78836000Y-100457000D03*
X81836000Y-105157000D03*
D20*
X78947000Y-87035000D03*
X78947000Y-92035000D03*
D21*
X76247000Y-86035000D03*
X76247000Y-93035000D03*
D12*
X133350000Y-81915000D03*
D13*
X135890000Y-81915000D03*
X138430000Y-81915000D03*
X140970000Y-81915000D03*
D12*
X140970000Y-86868000D03*
D13*
X138430000Y-86868000D03*
X135890000Y-86868000D03*
X133350000Y-86868000D03*
D22*
X76327000Y-81462000D03*
X76327000Y-76962000D03*
X82827000Y-81462000D03*
X82827000Y-76962000D03*
D12*
X141224000Y-77216000D03*
D13*
X138684000Y-77216000D03*
X136144000Y-77216000D03*
X133604000Y-77216000D03*
X131064000Y-77216000D03*
X128524000Y-77216000D03*
D12*
X140970000Y-96393000D03*
D13*
X138430000Y-96393000D03*
X135890000Y-96393000D03*
X133350000Y-96393000D03*
X130810000Y-96393000D03*
D23*
X88646000Y-95123000D03*
D24*
X85852000Y-87884000D03*
X85852000Y-85471000D03*
X93091000Y-105791000D03*
D25*
X101854000Y-108585000D03*
D24*
X95186500Y-81661000D03*
D23*
X114490500Y-96012000D03*
X112966500Y-96710500D03*
D24*
X138112500Y-99314000D03*
D23*
X103886000Y-96520000D03*
X105664000Y-93980000D03*
D26*
X137033000Y-126238000D03*
X140970000Y-110236000D03*
D24*
X112395000Y-108712000D03*
X96901000Y-101727000D03*
X100203000Y-101727000D03*
D23*
X87884000Y-86614000D03*
X89408000Y-91821000D03*
D24*
X123317000Y-102489000D03*
X122491500Y-99631500D03*
X96393000Y-109601000D03*
D23*
X110490000Y-99314000D03*
X108966000Y-98679000D03*
X109601000Y-96266000D03*
X103886000Y-95123000D03*
X104267000Y-98171000D03*
D26*
X133477000Y-110236000D03*
D23*
X131191000Y-101600000D03*
X135001000Y-101473000D03*
D26*
X113665000Y-107950000D03*
D24*
X104140000Y-80391000D03*
D25*
X136017000Y-117094000D03*
D23*
X110490000Y-90551000D03*
X92583000Y-93726000D03*
X109728000Y-89662000D03*
X93345000Y-90424000D03*
X80772000Y-86614000D03*
X80264000Y-88900000D03*
X82042000Y-85217000D03*
X81153000Y-89789000D03*
X112776000Y-89154000D03*
X113030000Y-90424000D03*
X124333000Y-116332000D03*
X122301000Y-113030000D03*
X129879288Y-91652288D03*
X109474000Y-93599000D03*
X129603500Y-110426500D03*
X125730000Y-106997500D03*
X125095000Y-104013000D03*
X109029500Y-94361000D03*
X129540000Y-92329000D03*
X123888500Y-104076500D03*
X124777500Y-107124500D03*
X127825500Y-110299500D03*
X112014000Y-80137000D03*
X111887000Y-93599000D03*
X108839000Y-88900000D03*
X108712000Y-87503000D03*
X120142000Y-110109000D03*
X112395000Y-98171000D03*
X111379000Y-98488500D03*
X114681000Y-95250000D03*
X91313000Y-105156000D03*
D27*
X85852000Y-87884000D02*
X85852000Y-92329000D01*
X85852000Y-92329000D02*
X88646000Y-95123000D01*
X85852000Y-85471000D02*
X85852000Y-87122000D01*
X85852000Y-87122000D02*
X85852000Y-87884000D01*
D28*
X93091000Y-105791000D02*
X93853000Y-106553000D01*
X93853000Y-106553000D02*
X97663000Y-106553000D01*
X97663000Y-106553000D02*
X99060000Y-107950000D01*
X99060000Y-107950000D02*
X99060000Y-110245000D01*
X101854000Y-108585000D02*
X101854000Y-110245000D01*
X101854000Y-110245000D02*
X101854000Y-110109000D01*
X101854000Y-110109000D02*
X101854000Y-110245000D01*
D29*
X114291000Y-110245000D02*
X115633500Y-108902500D01*
X99060000Y-110245000D02*
X101854000Y-110245000D01*
X101854000Y-110245000D02*
X114291000Y-110245000D01*
D28*
X137414000Y-103632000D02*
X138239500Y-103632000D01*
X138239500Y-103632000D02*
X138112500Y-103505000D01*
X138112500Y-103505000D02*
X138112500Y-99314000D01*
X107696000Y-83439000D02*
X107696000Y-77724000D01*
X106616500Y-84518500D02*
X107696000Y-83439000D01*
X103822500Y-84518500D02*
X106616500Y-84518500D01*
X101917500Y-82613500D02*
X103822500Y-84518500D01*
X96139000Y-82613500D02*
X101917500Y-82613500D01*
X95186500Y-81661000D02*
X96139000Y-82613500D01*
D27*
X114427000Y-96075500D02*
X114490500Y-96012000D01*
X113601500Y-96075500D02*
X114427000Y-96075500D01*
X112966500Y-96710500D02*
X113601500Y-96075500D01*
D30*
X138303000Y-90995500D02*
X138303000Y-92202000D01*
X139763500Y-89535000D02*
X138303000Y-90995500D01*
X141351000Y-89535000D02*
X139763500Y-89535000D01*
X142367000Y-90551000D02*
X141351000Y-89535000D01*
X142367000Y-98171000D02*
X142367000Y-90551000D01*
X141287500Y-99250500D02*
X142367000Y-98171000D01*
X138176000Y-99250500D02*
X141287500Y-99250500D01*
X138112500Y-99314000D02*
X138176000Y-99250500D01*
D27*
X104775000Y-95631000D02*
X103886000Y-96520000D01*
X104775000Y-94869000D02*
X104775000Y-95631000D01*
X105664000Y-93980000D02*
X104775000Y-94869000D01*
D30*
X126111000Y-88138000D02*
X127000000Y-88138000D01*
X128524000Y-86614000D02*
X128524000Y-77216000D01*
X127000000Y-88138000D02*
X128524000Y-86614000D01*
X136652000Y-126619000D02*
X116205000Y-126619000D01*
X137033000Y-126238000D02*
X136652000Y-126619000D01*
X116205000Y-126619000D02*
X115633500Y-126047500D01*
X137414000Y-103632000D02*
X139065000Y-103632000D01*
X140970000Y-105537000D02*
X140970000Y-110236000D01*
X139065000Y-103632000D02*
X140970000Y-105537000D01*
X134874000Y-103632000D02*
X137414000Y-103632000D01*
X132334000Y-103632000D02*
X134874000Y-103632000D01*
X129794000Y-103632000D02*
X132334000Y-103632000D01*
D28*
X112268000Y-105410000D02*
X112268000Y-108585000D01*
X112268000Y-108585000D02*
X112395000Y-108712000D01*
D30*
X138303000Y-92202000D02*
X138303000Y-86995000D01*
X138303000Y-86995000D02*
X138430000Y-86868000D01*
X100203000Y-101727000D02*
X96901000Y-101727000D01*
D28*
X141224000Y-77216000D02*
X141224000Y-81661000D01*
X141224000Y-81661000D02*
X140970000Y-81915000D01*
X113411000Y-82550000D02*
X113411000Y-86995000D01*
X113411000Y-77724000D02*
X113411000Y-82550000D01*
D29*
X107696000Y-77724000D02*
X113411000Y-77724000D01*
X76136500Y-126000000D02*
X85201000Y-126000000D01*
X93980000Y-117221000D02*
X93980000Y-114545000D01*
X85201000Y-126000000D02*
X93980000Y-117221000D01*
X82827000Y-81462000D02*
X83257000Y-81462000D01*
X76327000Y-81462000D02*
X82827000Y-81462000D01*
X76247000Y-86035000D02*
X76247000Y-81542000D01*
X76247000Y-81542000D02*
X76327000Y-81462000D01*
D28*
X76247000Y-86035000D02*
X77947000Y-86035000D01*
X77947000Y-86035000D02*
X78947000Y-87035000D01*
X76247000Y-86035000D02*
X76247000Y-93035000D01*
X76247000Y-93035000D02*
X77947000Y-93035000D01*
X77947000Y-93035000D02*
X78947000Y-92035000D01*
X78836000Y-100457000D02*
X78836000Y-97632000D01*
X76247000Y-95043000D02*
X76247000Y-93035000D01*
X78836000Y-97632000D02*
X76247000Y-95043000D01*
X81836000Y-105157000D02*
X80265000Y-105157000D01*
X80265000Y-105157000D02*
X78836000Y-103728000D01*
X78836000Y-103728000D02*
X78836000Y-100457000D01*
D29*
X93980000Y-114545000D02*
X99060000Y-114545000D01*
D31*
X87884000Y-90297000D02*
X87884000Y-86614000D01*
X89408000Y-91821000D02*
X87884000Y-90297000D01*
D30*
X123317000Y-100457000D02*
X123317000Y-102489000D01*
X122491500Y-99631500D02*
X123317000Y-100457000D01*
D29*
X95749000Y-110245000D02*
X93980000Y-110245000D01*
X96393000Y-109601000D02*
X95749000Y-110245000D01*
D31*
X131064000Y-104902000D02*
X132334000Y-106172000D01*
X120142000Y-104902000D02*
X131064000Y-104902000D01*
X114554000Y-99314000D02*
X120142000Y-104902000D01*
X110490000Y-99314000D02*
X114554000Y-99314000D01*
X108966000Y-96901000D02*
X108966000Y-98679000D01*
X109601000Y-96266000D02*
X108966000Y-96901000D01*
D29*
X76327000Y-76962000D02*
X82827000Y-76962000D01*
D31*
X98933000Y-87503000D02*
X98933000Y-90424000D01*
X101981000Y-95123000D02*
X103886000Y-95123000D01*
X101473000Y-94615000D02*
X101981000Y-95123000D01*
X101473000Y-92964000D02*
X101473000Y-94615000D01*
X98933000Y-90424000D02*
X101473000Y-92964000D01*
X100584000Y-94034000D02*
X98933000Y-92383000D01*
X100584000Y-96266000D02*
X100584000Y-94034000D01*
X102108000Y-97790000D02*
X100584000Y-96266000D01*
X103886000Y-97790000D02*
X102108000Y-97790000D01*
X104267000Y-98171000D02*
X103886000Y-97790000D01*
D29*
X81280000Y-113775000D02*
X82059000Y-113775000D01*
X82059000Y-113775000D02*
X84836000Y-110998000D01*
X84836000Y-110998000D02*
X84836000Y-100457000D01*
D30*
X128778000Y-107696000D02*
X127254000Y-106172000D01*
X130937000Y-107696000D02*
X128778000Y-107696000D01*
X133477000Y-110236000D02*
X130937000Y-107696000D01*
D27*
X134874000Y-101600000D02*
X131191000Y-101600000D01*
X135001000Y-101473000D02*
X134874000Y-101600000D01*
D32*
X81280000Y-121175000D02*
X81280000Y-120015000D01*
X76136500Y-114871500D02*
X76136500Y-108950000D01*
X81280000Y-120015000D02*
X76136500Y-114871500D01*
D30*
X126365000Y-117475000D02*
X126365000Y-114681000D01*
X116459000Y-107315000D02*
X114808000Y-105664000D01*
X118999000Y-107315000D02*
X116459000Y-107315000D01*
X126365000Y-114681000D02*
X118999000Y-107315000D01*
X114808000Y-105664000D02*
X114808000Y-105410000D01*
X114808000Y-105410000D02*
X114808000Y-106807000D01*
X114808000Y-106807000D02*
X113665000Y-107950000D01*
D33*
X138430000Y-81915000D02*
X138430000Y-82804000D01*
X138430000Y-82804000D02*
X140970000Y-85344000D01*
X140970000Y-85344000D02*
X140970000Y-86868000D01*
X138684000Y-77216000D02*
X138684000Y-81661000D01*
X138684000Y-81661000D02*
X138430000Y-81915000D01*
D30*
X118491000Y-77724000D02*
X118491000Y-76962000D01*
D33*
X118491000Y-76962000D02*
X119634000Y-75819000D01*
X137287000Y-75819000D02*
X138684000Y-77216000D01*
X119634000Y-75819000D02*
X137287000Y-75819000D01*
X118491000Y-82550000D02*
X118491000Y-86995000D01*
X118491000Y-77724000D02*
X118491000Y-82550000D01*
X92456000Y-77724000D02*
X92456000Y-77343000D01*
X92456000Y-77343000D02*
X93599000Y-76200000D01*
X93599000Y-76200000D02*
X116967000Y-76200000D01*
X116967000Y-76200000D02*
X118491000Y-77724000D01*
X92456000Y-77343000D02*
X93599000Y-76200000D01*
X104140000Y-79883000D02*
X104140000Y-80391000D01*
X100457000Y-76200000D02*
X104140000Y-79883000D01*
X93599000Y-76200000D02*
X100457000Y-76200000D01*
X92456000Y-77343000D02*
X93599000Y-76200000D01*
D28*
X122428000Y-117475000D02*
X126365000Y-117475000D01*
X126365000Y-117475000D02*
X135636000Y-117475000D01*
X135636000Y-117475000D02*
X136017000Y-117094000D01*
D31*
X94361000Y-91948000D02*
X92583000Y-93726000D01*
X94361000Y-90043000D02*
X94361000Y-91948000D01*
X98425000Y-85979000D02*
X94361000Y-90043000D01*
X99187000Y-85979000D02*
X98425000Y-85979000D01*
X100203000Y-86995000D02*
X99187000Y-85979000D01*
X100203000Y-87757000D02*
X100203000Y-86995000D01*
X102997000Y-90551000D02*
X100203000Y-87757000D01*
X110490000Y-90551000D02*
X102997000Y-90551000D01*
X92710000Y-80010000D02*
X94996000Y-77724000D01*
X92710000Y-93599000D02*
X92710000Y-80010000D01*
X92583000Y-93726000D02*
X92710000Y-93599000D01*
X93345000Y-89408000D02*
X93345000Y-90424000D01*
X98171000Y-84582000D02*
X93345000Y-89408000D01*
X99441000Y-84582000D02*
X98171000Y-84582000D01*
X104394000Y-89535000D02*
X99441000Y-84582000D01*
X109601000Y-89535000D02*
X104394000Y-89535000D01*
X109728000Y-89662000D02*
X109601000Y-89535000D01*
X97536000Y-77724000D02*
X97536000Y-77851000D01*
X97536000Y-77851000D02*
X95885000Y-79502000D01*
X95885000Y-79502000D02*
X93980000Y-81407000D01*
X93980000Y-81407000D02*
X93980000Y-81407002D01*
X93980000Y-81407002D02*
X93345000Y-82042002D01*
X93345000Y-82042002D02*
X93345000Y-90424000D01*
D27*
X80772000Y-88392000D02*
X80772000Y-86614000D01*
X80264000Y-88900000D02*
X80772000Y-88392000D01*
X81534000Y-85725000D02*
X82042000Y-85217000D01*
X81534000Y-89408000D02*
X81534000Y-85725000D01*
X81153000Y-89789000D02*
X81534000Y-89408000D01*
X131953000Y-82042000D02*
X133223000Y-82042000D01*
X130683000Y-83312000D02*
X131953000Y-82042000D01*
X130683000Y-87884000D02*
X130683000Y-83312000D01*
X128270000Y-90297000D02*
X130683000Y-87884000D01*
X124714000Y-90297000D02*
X128270000Y-90297000D01*
X123571000Y-89154000D02*
X124714000Y-90297000D01*
X112776000Y-89154000D02*
X123571000Y-89154000D01*
X133223000Y-82042000D02*
X133350000Y-81915000D01*
D30*
X133350000Y-81915000D02*
X133350000Y-81026000D01*
X136144000Y-78232000D02*
X136144000Y-77216000D01*
X133350000Y-81026000D02*
X136144000Y-78232000D01*
X135890000Y-86868000D02*
X135890000Y-85725000D01*
X133350000Y-83185000D02*
X133350000Y-81915000D01*
X135890000Y-85725000D02*
X133350000Y-83185000D01*
D27*
X129159000Y-91059000D02*
X133350000Y-86868000D01*
X124333000Y-91059000D02*
X129159000Y-91059000D01*
X123190000Y-89916000D02*
X124333000Y-91059000D01*
X113538000Y-89916000D02*
X123190000Y-89916000D01*
X113030000Y-90424000D02*
X113538000Y-89916000D01*
X124333000Y-115062000D02*
X124333000Y-116332000D01*
X122301000Y-113030000D02*
X124333000Y-115062000D01*
D31*
X129889250Y-91662250D02*
X129879288Y-91652288D01*
X129889250Y-91662250D02*
X129921000Y-91694000D01*
X123846788Y-91652288D02*
X129879288Y-91652288D01*
X122936000Y-90741500D02*
X123846788Y-91652288D01*
X115760500Y-90741500D02*
X122936000Y-90741500D01*
X112268000Y-94234000D02*
X115760500Y-90741500D01*
X111379000Y-94234000D02*
X112268000Y-94234000D01*
X110807500Y-93662500D02*
X111379000Y-94234000D01*
X109537500Y-93662500D02*
X110807500Y-93662500D01*
X109474000Y-93599000D02*
X109537500Y-93662500D01*
D27*
X135890000Y-96393000D02*
X135890000Y-98806000D01*
X129159000Y-110426500D02*
X129603500Y-110426500D01*
X125730000Y-106997500D02*
X129159000Y-110426500D01*
X125095000Y-103187500D02*
X125095000Y-104013000D01*
X127698500Y-100584000D02*
X125095000Y-103187500D01*
X134112000Y-100584000D02*
X127698500Y-100584000D01*
X135890000Y-98806000D02*
X134112000Y-100584000D01*
D31*
X127889000Y-92329000D02*
X129540000Y-92329000D01*
X109029500Y-94361000D02*
X109474000Y-94805500D01*
X109474000Y-94805500D02*
X112776000Y-94805500D01*
X112776000Y-94805500D02*
X116078000Y-91503500D01*
X116078000Y-91503500D02*
X122428000Y-91503500D01*
X122428000Y-91503500D02*
X123253500Y-92329000D01*
X123253500Y-92329000D02*
X127889000Y-92329000D01*
D27*
X133350000Y-97726500D02*
X133350000Y-96393000D01*
X131635500Y-99441000D02*
X133350000Y-97726500D01*
X127698500Y-99441000D02*
X131635500Y-99441000D01*
X123825000Y-103314500D02*
X127698500Y-99441000D01*
X123825000Y-104013000D02*
X123825000Y-103314500D01*
X123888500Y-104076500D02*
X123825000Y-104013000D01*
X124777500Y-107251500D02*
X124777500Y-107124500D01*
X127825500Y-110299500D02*
X124777500Y-107251500D01*
D30*
X140843000Y-92202000D02*
X140843000Y-96266000D01*
X140843000Y-96266000D02*
X140970000Y-96393000D01*
D28*
X121031000Y-82550000D02*
X121031000Y-86995000D01*
X121031000Y-77724000D02*
X121031000Y-82550000D01*
D27*
X111379000Y-80772000D02*
X112014000Y-80137000D01*
X111379000Y-93091000D02*
X111379000Y-80772000D01*
X111887000Y-93599000D02*
X111379000Y-93091000D01*
D31*
X108839000Y-87630000D02*
X108839000Y-88900000D01*
X108712000Y-87503000D02*
X108839000Y-87630000D01*
D27*
X121158000Y-118745000D02*
X119888000Y-120015000D01*
X121158000Y-111125000D02*
X121158000Y-118745000D01*
X120142000Y-110109000D02*
X121158000Y-111125000D01*
D31*
X135763000Y-91313000D02*
X135763000Y-92202000D01*
X135255000Y-90805000D02*
X135763000Y-91313000D01*
X132588000Y-90805000D02*
X135255000Y-90805000D01*
X130810000Y-92964000D02*
X132588000Y-90805000D01*
X120332500Y-92964000D02*
X130810000Y-92964000D01*
X115252500Y-97663000D02*
X120332500Y-92964000D01*
X112903000Y-97663000D02*
X115252500Y-97663000D01*
X112395000Y-98171000D02*
X112903000Y-97663000D01*
X132270500Y-93535500D02*
X133223000Y-92202000D01*
X120586496Y-93535500D02*
X132270500Y-93535500D01*
X114934998Y-98805998D02*
X120586496Y-93535500D01*
X111696498Y-98805998D02*
X114934998Y-98805998D01*
X111379000Y-98488500D02*
X111696498Y-98805998D01*
X113411000Y-95250000D02*
X114681000Y-95250000D01*
X108458000Y-100203000D02*
X113411000Y-95250000D01*
X96266000Y-100203000D02*
X108458000Y-100203000D01*
X91313000Y-105156000D02*
X96266000Y-100203000D01*
D34*
G36*
X92301032Y-76240732D02*
X91887715Y-76322946D01*
X91405946Y-76644853D01*
X91178298Y-76985553D01*
X91111183Y-76842642D01*
X90682924Y-76452355D01*
X90272890Y-76282524D01*
X90043000Y-76403845D01*
X90043000Y-77597000D01*
X90063000Y-77597000D01*
X90063000Y-77851000D01*
X90043000Y-77851000D01*
X90043000Y-79044155D01*
X90272890Y-79165476D01*
X90682924Y-78995645D01*
X91111183Y-78605358D01*
X91178298Y-78462447D01*
X91405946Y-78803147D01*
X91887715Y-79125054D01*
X92382896Y-79223552D01*
X92153224Y-79453224D01*
X91982537Y-79708675D01*
X91922600Y-80010000D01*
X91922600Y-93129108D01*
X91829782Y-93221764D01*
X91694154Y-93548391D01*
X91693846Y-93902057D01*
X91828903Y-94228920D01*
X92078764Y-94479218D01*
X92405391Y-94614846D01*
X92759057Y-94615154D01*
X93085920Y-94480097D01*
X93336218Y-94230236D01*
X93438403Y-93984149D01*
X94917776Y-92504776D01*
X95088463Y-92249325D01*
X95148400Y-91948000D01*
X95148400Y-90369152D01*
X97604045Y-87913507D01*
X97758169Y-88286515D01*
X98145600Y-88674622D01*
X98145600Y-90424000D01*
X98205537Y-90725325D01*
X98376224Y-90980776D01*
X98470837Y-91075389D01*
X98149485Y-91208169D01*
X97759539Y-91597436D01*
X97548241Y-92106298D01*
X97547760Y-92657285D01*
X97758169Y-93166515D01*
X98147436Y-93556461D01*
X98656298Y-93767759D01*
X99204686Y-93768238D01*
X99796600Y-94360152D01*
X99796600Y-96266000D01*
X99856537Y-96567325D01*
X100027224Y-96822776D01*
X101551224Y-98346776D01*
X101806675Y-98517463D01*
X102108000Y-98577400D01*
X103473022Y-98577400D01*
X103512903Y-98673920D01*
X103762764Y-98924218D01*
X104089391Y-99059846D01*
X104443057Y-99060154D01*
X104769920Y-98925097D01*
X105020218Y-98675236D01*
X105155846Y-98348609D01*
X105156154Y-97994943D01*
X105021097Y-97668080D01*
X104771236Y-97417782D01*
X104525149Y-97315597D01*
X104442776Y-97233224D01*
X104187325Y-97062537D01*
X103886000Y-97002600D01*
X102434152Y-97002600D01*
X101371400Y-95939848D01*
X101371400Y-95626952D01*
X101424224Y-95679776D01*
X101679675Y-95850463D01*
X101981000Y-95910400D01*
X103464083Y-95910400D01*
X103708391Y-96011846D01*
X104062057Y-96012154D01*
X104388920Y-95877097D01*
X104639218Y-95627236D01*
X104774846Y-95300609D01*
X104775154Y-94946943D01*
X104640097Y-94620080D01*
X104390236Y-94369782D01*
X104063609Y-94234154D01*
X103709943Y-94233846D01*
X103463679Y-94335600D01*
X102307152Y-94335600D01*
X102260400Y-94288848D01*
X102260400Y-92964000D01*
X102200463Y-92662675D01*
X102029776Y-92407224D01*
X99720400Y-90097848D01*
X99720400Y-88673953D01*
X99863525Y-88531077D01*
X102440224Y-91107776D01*
X102695675Y-91278463D01*
X102997000Y-91338400D01*
X110068083Y-91338400D01*
X110312391Y-91439846D01*
X110540800Y-91440045D01*
X110540800Y-92875100D01*
X110007503Y-92875100D01*
X109978236Y-92845782D01*
X109651609Y-92710154D01*
X109297943Y-92709846D01*
X108971080Y-92844903D01*
X108720782Y-93094764D01*
X108585154Y-93421391D01*
X108585013Y-93582759D01*
X108526580Y-93606903D01*
X108276282Y-93856764D01*
X108140654Y-94183391D01*
X108140346Y-94537057D01*
X108275403Y-94863920D01*
X108525264Y-95114218D01*
X108771351Y-95216403D01*
X108917224Y-95362276D01*
X109124697Y-95500905D01*
X109098080Y-95511903D01*
X108847782Y-95761764D01*
X108745597Y-96007851D01*
X108409224Y-96344224D01*
X108238537Y-96599675D01*
X108178600Y-96901000D01*
X108178600Y-98257083D01*
X108077154Y-98501391D01*
X108076846Y-98855057D01*
X108211903Y-99181920D01*
X108288648Y-99258800D01*
X108131848Y-99415600D01*
X96266000Y-99415600D01*
X95964675Y-99475537D01*
X95709224Y-99646224D01*
X91054563Y-104300885D01*
X90810080Y-104401903D01*
X90559782Y-104651764D01*
X90424154Y-104978391D01*
X90423846Y-105332057D01*
X90558903Y-105658920D01*
X90808764Y-105909218D01*
X91135391Y-106044846D01*
X91489057Y-106045154D01*
X91815920Y-105910097D01*
X92011566Y-105714793D01*
X92011313Y-106004784D01*
X92175311Y-106401689D01*
X92478714Y-106705622D01*
X92632739Y-106769579D01*
X93134580Y-107271421D01*
X93464193Y-107491662D01*
X93528700Y-107504493D01*
X93853000Y-107569000D01*
X97242160Y-107569000D01*
X97692777Y-108019617D01*
X97574683Y-108041838D01*
X97358559Y-108180910D01*
X97213569Y-108393110D01*
X97162560Y-108645000D01*
X97162560Y-108766943D01*
X96830407Y-108545006D01*
X96393000Y-108458000D01*
X95955593Y-108545006D01*
X95869455Y-108602562D01*
X95833162Y-108409683D01*
X95694090Y-108193559D01*
X95481890Y-108048569D01*
X95230000Y-107997560D01*
X92730000Y-107997560D01*
X92494683Y-108041838D01*
X92278559Y-108180910D01*
X92133569Y-108393110D01*
X92082560Y-108645000D01*
X92082560Y-111845000D01*
X92126838Y-112080317D01*
X92265910Y-112296441D01*
X92405750Y-112391990D01*
X92370301Y-112406673D01*
X92191673Y-112585302D01*
X92095000Y-112818691D01*
X92095000Y-114259250D01*
X92253750Y-114418000D01*
X93853000Y-114418000D01*
X93853000Y-114398000D01*
X94107000Y-114398000D01*
X94107000Y-114418000D01*
X95706250Y-114418000D01*
X95865000Y-114259250D01*
X95865000Y-112818691D01*
X95768327Y-112585302D01*
X95589699Y-112406673D01*
X95553253Y-112391577D01*
X95681441Y-112309090D01*
X95826431Y-112096890D01*
X95877440Y-111845000D01*
X95877440Y-111362452D01*
X96186407Y-111300994D01*
X96557223Y-111053223D01*
X97162560Y-110447886D01*
X97162560Y-111845000D01*
X97206838Y-112080317D01*
X97345910Y-112296441D01*
X97485750Y-112391990D01*
X97450301Y-112406673D01*
X97271673Y-112585302D01*
X97175000Y-112818691D01*
X97175000Y-114259250D01*
X97333750Y-114418000D01*
X98933000Y-114418000D01*
X98933000Y-114398000D01*
X99187000Y-114398000D01*
X99187000Y-114418000D01*
X100786250Y-114418000D01*
X100945000Y-114259250D01*
X100945000Y-112818691D01*
X100848327Y-112585302D01*
X100669699Y-112406673D01*
X100633253Y-112391577D01*
X100761441Y-112309090D01*
X100906431Y-112096890D01*
X100957440Y-111845000D01*
X100957440Y-111388000D01*
X114291000Y-111388000D01*
X114728407Y-111300994D01*
X115099223Y-111053223D01*
X115603016Y-110549430D01*
X116632990Y-110549430D01*
X116868307Y-110505152D01*
X117084431Y-110366080D01*
X117229421Y-110153880D01*
X117280430Y-109901990D01*
X117280430Y-108254800D01*
X118609722Y-108254800D01*
X119689140Y-109334218D01*
X119639080Y-109354903D01*
X119388782Y-109604764D01*
X119253154Y-109931391D01*
X119252846Y-110285057D01*
X119387903Y-110611920D01*
X119637764Y-110862218D01*
X119760994Y-110913388D01*
X120319800Y-111472194D01*
X120319800Y-115990000D01*
X120173750Y-115990000D01*
X120015000Y-116148750D01*
X120015000Y-117348000D01*
X120035000Y-117348000D01*
X120035000Y-117602000D01*
X120015000Y-117602000D01*
X120015000Y-117622000D01*
X119761000Y-117622000D01*
X119761000Y-117602000D01*
X118561750Y-117602000D01*
X118403000Y-117760750D01*
X118403000Y-118451310D01*
X118499673Y-118684699D01*
X118678302Y-118863327D01*
X118852777Y-118935597D01*
X118808853Y-118964946D01*
X118486946Y-119446715D01*
X118373907Y-120015000D01*
X118486946Y-120583285D01*
X118808853Y-121065054D01*
X119138026Y-121285000D01*
X118808853Y-121504946D01*
X118486946Y-121986715D01*
X118373907Y-122555000D01*
X118486946Y-123123285D01*
X118808853Y-123605054D01*
X119138026Y-123825000D01*
X118808853Y-124044946D01*
X118486946Y-124526715D01*
X118373907Y-125095000D01*
X118486946Y-125663285D01*
X118808853Y-126145054D01*
X119290622Y-126466961D01*
X119858907Y-126580000D01*
X119917093Y-126580000D01*
X120485378Y-126466961D01*
X120967147Y-126145054D01*
X121158000Y-125859422D01*
X121348853Y-126145054D01*
X121830622Y-126466961D01*
X122398907Y-126580000D01*
X122457093Y-126580000D01*
X123025378Y-126466961D01*
X123507147Y-126145054D01*
X123829054Y-125663285D01*
X123942093Y-125095000D01*
X123829054Y-124526715D01*
X123507147Y-124044946D01*
X123177974Y-123825000D01*
X123507147Y-123605054D01*
X123829054Y-123123285D01*
X123942093Y-122555000D01*
X123829054Y-121986715D01*
X123507147Y-121504946D01*
X123177974Y-121285000D01*
X123507147Y-121065054D01*
X123829054Y-120583285D01*
X123942093Y-120015000D01*
X123829054Y-119446715D01*
X123507147Y-118964946D01*
X123177974Y-118745000D01*
X123507147Y-118525054D01*
X123529901Y-118491000D01*
X135636000Y-118491000D01*
X135971652Y-118424235D01*
X136024807Y-118413662D01*
X136354420Y-118193420D01*
X136451688Y-118096153D01*
X136634873Y-118020462D01*
X136942382Y-117713489D01*
X137109010Y-117312205D01*
X137109389Y-116877701D01*
X136943462Y-116476127D01*
X136636489Y-116168618D01*
X136235205Y-116001990D01*
X135800701Y-116001611D01*
X135399127Y-116167538D01*
X135107156Y-116459000D01*
X127304800Y-116459000D01*
X127304800Y-114681000D01*
X127233262Y-114321354D01*
X127029539Y-114016461D01*
X119663539Y-106650461D01*
X119358646Y-106446738D01*
X118999000Y-106375200D01*
X118822111Y-106375200D01*
X118845440Y-106260000D01*
X118845440Y-104718992D01*
X119585224Y-105458776D01*
X119840675Y-105629463D01*
X120142000Y-105689400D01*
X125742960Y-105689400D01*
X125742960Y-106108511D01*
X125553943Y-106108346D01*
X125227080Y-106243403D01*
X125152666Y-106317687D01*
X124955109Y-106235654D01*
X124601443Y-106235346D01*
X124274580Y-106370403D01*
X124024282Y-106620264D01*
X123888654Y-106946891D01*
X123888346Y-107300557D01*
X124023403Y-107627420D01*
X124073467Y-107677572D01*
X124184803Y-107844197D01*
X127020971Y-110680365D01*
X127071403Y-110802420D01*
X127321264Y-111052718D01*
X127647891Y-111188346D01*
X128001557Y-111188654D01*
X128328420Y-111053597D01*
X128464680Y-110917574D01*
X128566303Y-111019197D01*
X128838234Y-111200896D01*
X129159000Y-111264700D01*
X129303922Y-111264700D01*
X129425891Y-111315346D01*
X129779557Y-111315654D01*
X130106420Y-111180597D01*
X130356718Y-110930736D01*
X130492346Y-110604109D01*
X130492654Y-110250443D01*
X130357597Y-109923580D01*
X130107736Y-109673282D01*
X129781109Y-109537654D01*
X129455264Y-109537370D01*
X128497998Y-108580104D01*
X128778000Y-108635800D01*
X130547722Y-108635800D01*
X132492637Y-110580715D01*
X132593629Y-110825135D01*
X132886324Y-111118341D01*
X133268944Y-111277219D01*
X133683238Y-111277580D01*
X134066135Y-111119371D01*
X134359341Y-110826676D01*
X134518219Y-110444056D01*
X134518580Y-110029762D01*
X134360371Y-109646865D01*
X134067676Y-109353659D01*
X133821527Y-109251449D01*
X132254155Y-107684077D01*
X132334000Y-107699959D01*
X132907489Y-107585885D01*
X133393670Y-107261029D01*
X133604000Y-106946248D01*
X133814330Y-107261029D01*
X134300511Y-107585885D01*
X134874000Y-107699959D01*
X135447489Y-107585885D01*
X135933670Y-107261029D01*
X136144000Y-106946248D01*
X136354330Y-107261029D01*
X136840511Y-107585885D01*
X137414000Y-107699959D01*
X137987489Y-107585885D01*
X138473670Y-107261029D01*
X138798526Y-106774848D01*
X138912600Y-106201359D01*
X138912600Y-106142641D01*
X138798526Y-105569152D01*
X138473670Y-105082971D01*
X138202839Y-104902008D01*
X138620821Y-104520490D01*
X138868968Y-103991027D01*
X138748469Y-103759000D01*
X137541000Y-103759000D01*
X137541000Y-103779000D01*
X137287000Y-103779000D01*
X137287000Y-103759000D01*
X135001000Y-103759000D01*
X135001000Y-103779000D01*
X134747000Y-103779000D01*
X134747000Y-103759000D01*
X132461000Y-103759000D01*
X132461000Y-103779000D01*
X132207000Y-103779000D01*
X132207000Y-103759000D01*
X129921000Y-103759000D01*
X129921000Y-103779000D01*
X129667000Y-103779000D01*
X129667000Y-103759000D01*
X129647000Y-103759000D01*
X129647000Y-103505000D01*
X129667000Y-103505000D01*
X129667000Y-102298183D01*
X129434974Y-102177042D01*
X129019053Y-102349312D01*
X128587179Y-102743510D01*
X128529664Y-102866228D01*
X128313670Y-102542971D01*
X127827489Y-102218115D01*
X127345627Y-102122267D01*
X128045694Y-101422200D01*
X130302233Y-101422200D01*
X130302154Y-101422391D01*
X130301846Y-101776057D01*
X130436903Y-102102920D01*
X130686764Y-102353218D01*
X131013391Y-102488846D01*
X131367057Y-102489154D01*
X131437927Y-102459871D01*
X131127179Y-102743510D01*
X131064000Y-102878313D01*
X131000821Y-102743510D01*
X130568947Y-102349312D01*
X130153026Y-102177042D01*
X129921000Y-102298183D01*
X129921000Y-103505000D01*
X132207000Y-103505000D01*
X132207000Y-103485000D01*
X132461000Y-103485000D01*
X132461000Y-103505000D01*
X134747000Y-103505000D01*
X134747000Y-103485000D01*
X135001000Y-103485000D01*
X135001000Y-103505000D01*
X137287000Y-103505000D01*
X137287000Y-102298183D01*
X137541000Y-102298183D01*
X137541000Y-103505000D01*
X138748469Y-103505000D01*
X138868968Y-103272973D01*
X138620821Y-102743510D01*
X138188947Y-102349312D01*
X137773026Y-102177042D01*
X137541000Y-102298183D01*
X137287000Y-102298183D01*
X137054974Y-102177042D01*
X136639053Y-102349312D01*
X136207179Y-102743510D01*
X136144000Y-102878313D01*
X136080821Y-102743510D01*
X135648947Y-102349312D01*
X135428808Y-102258133D01*
X135503920Y-102227097D01*
X135754218Y-101977236D01*
X135889846Y-101650609D01*
X135890154Y-101296943D01*
X135755097Y-100970080D01*
X135505236Y-100719782D01*
X135262433Y-100618961D01*
X136482697Y-99398697D01*
X136664396Y-99126765D01*
X136728200Y-98806000D01*
X136728200Y-97613703D01*
X136940054Y-97472147D01*
X137160000Y-97142974D01*
X137379946Y-97472147D01*
X137861715Y-97794054D01*
X138430000Y-97907093D01*
X138998285Y-97794054D01*
X139480054Y-97472147D01*
X139507850Y-97430548D01*
X139516838Y-97478317D01*
X139655910Y-97694441D01*
X139868110Y-97839431D01*
X140120000Y-97890440D01*
X141820000Y-97890440D01*
X142055317Y-97846162D01*
X142271441Y-97707090D01*
X142292000Y-97677001D01*
X142292000Y-126798000D01*
X117267990Y-126798000D01*
X117267990Y-126333250D01*
X117109240Y-126174500D01*
X115760500Y-126174500D01*
X115760500Y-126194500D01*
X115506500Y-126194500D01*
X115506500Y-126174500D01*
X114157760Y-126174500D01*
X113999010Y-126333250D01*
X113999010Y-126798000D01*
X77770990Y-126798000D01*
X77770990Y-126285750D01*
X77612240Y-126127000D01*
X76263500Y-126127000D01*
X76263500Y-126147000D01*
X76009500Y-126147000D01*
X76009500Y-126127000D01*
X75989500Y-126127000D01*
X75989500Y-125873000D01*
X76009500Y-125873000D01*
X76009500Y-124524260D01*
X76263500Y-124524260D01*
X76263500Y-125873000D01*
X77612240Y-125873000D01*
X77770990Y-125714250D01*
X77770990Y-124921700D01*
X113999010Y-124921700D01*
X113999010Y-125761750D01*
X114157760Y-125920500D01*
X115506500Y-125920500D01*
X115506500Y-124571760D01*
X115760500Y-124571760D01*
X115760500Y-125920500D01*
X117109240Y-125920500D01*
X117267990Y-125761750D01*
X117267990Y-124921700D01*
X117171317Y-124688311D01*
X116992688Y-124509683D01*
X116759299Y-124413010D01*
X115919250Y-124413010D01*
X115760500Y-124571760D01*
X115506500Y-124571760D01*
X115347750Y-124413010D01*
X114507701Y-124413010D01*
X114274312Y-124509683D01*
X114095683Y-124688311D01*
X113999010Y-124921700D01*
X77770990Y-124921700D01*
X77770990Y-124874200D01*
X77674317Y-124640811D01*
X77495688Y-124462183D01*
X77262299Y-124365510D01*
X76422250Y-124365510D01*
X76263500Y-124524260D01*
X76009500Y-124524260D01*
X75850750Y-124365510D01*
X75386000Y-124365510D01*
X75386000Y-115398915D01*
X75475355Y-115532645D01*
X79320270Y-119377560D01*
X78480000Y-119377560D01*
X78244683Y-119421838D01*
X78028559Y-119560910D01*
X77883569Y-119773110D01*
X77832560Y-120025000D01*
X77832560Y-122325000D01*
X77876838Y-122560317D01*
X78015910Y-122776441D01*
X78228110Y-122921431D01*
X78480000Y-122972440D01*
X84080000Y-122972440D01*
X84315317Y-122928162D01*
X84531441Y-122789090D01*
X84676431Y-122576890D01*
X84727440Y-122325000D01*
X84727440Y-120025000D01*
X84683162Y-119789683D01*
X84544090Y-119573559D01*
X84331890Y-119428569D01*
X84080000Y-119377560D01*
X81956984Y-119377560D01*
X81941145Y-119353855D01*
X77071500Y-114484210D01*
X77071500Y-112625000D01*
X77832560Y-112625000D01*
X77832560Y-114925000D01*
X77876838Y-115160317D01*
X78015910Y-115376441D01*
X78228110Y-115521431D01*
X78480000Y-115572440D01*
X84080000Y-115572440D01*
X84315317Y-115528162D01*
X84531441Y-115389090D01*
X84676431Y-115176890D01*
X84727440Y-114925000D01*
X84727440Y-114830750D01*
X92095000Y-114830750D01*
X92095000Y-116271309D01*
X92191673Y-116504698D01*
X92370301Y-116683327D01*
X92603690Y-116780000D01*
X93694250Y-116780000D01*
X93853000Y-116621250D01*
X93853000Y-114672000D01*
X94107000Y-114672000D01*
X94107000Y-116621250D01*
X94265750Y-116780000D01*
X95356310Y-116780000D01*
X95589699Y-116683327D01*
X95768327Y-116504698D01*
X95865000Y-116271309D01*
X95865000Y-114830750D01*
X97175000Y-114830750D01*
X97175000Y-116271309D01*
X97271673Y-116504698D01*
X97450301Y-116683327D01*
X97683690Y-116780000D01*
X98774250Y-116780000D01*
X98933000Y-116621250D01*
X98933000Y-114672000D01*
X99187000Y-114672000D01*
X99187000Y-116621250D01*
X99345750Y-116780000D01*
X100436310Y-116780000D01*
X100669699Y-116683327D01*
X100848327Y-116504698D01*
X100850815Y-116498690D01*
X118403000Y-116498690D01*
X118403000Y-117189250D01*
X118561750Y-117348000D01*
X119761000Y-117348000D01*
X119761000Y-116148750D01*
X119602250Y-115990000D01*
X118911691Y-115990000D01*
X118678302Y-116086673D01*
X118499673Y-116265301D01*
X118403000Y-116498690D01*
X100850815Y-116498690D01*
X100945000Y-116271309D01*
X100945000Y-114830750D01*
X100786250Y-114672000D01*
X99187000Y-114672000D01*
X98933000Y-114672000D01*
X97333750Y-114672000D01*
X97175000Y-114830750D01*
X95865000Y-114830750D01*
X95706250Y-114672000D01*
X94107000Y-114672000D01*
X93853000Y-114672000D01*
X92253750Y-114672000D01*
X92095000Y-114830750D01*
X84727440Y-114830750D01*
X84727440Y-112723006D01*
X85644223Y-111806223D01*
X85891994Y-111435407D01*
X85979000Y-110998000D01*
X85979000Y-102854440D01*
X86586000Y-102854440D01*
X86821317Y-102810162D01*
X87037441Y-102671090D01*
X87182431Y-102458890D01*
X87233440Y-102207000D01*
X87233440Y-98707000D01*
X87189162Y-98471683D01*
X87050090Y-98255559D01*
X86837890Y-98110569D01*
X86586000Y-98059560D01*
X83086000Y-98059560D01*
X82850683Y-98103838D01*
X82634559Y-98242910D01*
X82489569Y-98455110D01*
X82438560Y-98707000D01*
X82438560Y-102207000D01*
X82482838Y-102442317D01*
X82621910Y-102658441D01*
X82788109Y-102772000D01*
X82121750Y-102772000D01*
X81963000Y-102930750D01*
X81963000Y-105030000D01*
X81983000Y-105030000D01*
X81983000Y-105284000D01*
X81963000Y-105284000D01*
X81963000Y-107383250D01*
X82121750Y-107542000D01*
X83693000Y-107542000D01*
X83693000Y-110524554D01*
X82239994Y-111977560D01*
X78480000Y-111977560D01*
X78244683Y-112021838D01*
X78028559Y-112160910D01*
X77883569Y-112373110D01*
X77832560Y-112625000D01*
X77071500Y-112625000D01*
X77071500Y-110596930D01*
X77135990Y-110596930D01*
X77371307Y-110552652D01*
X77587431Y-110413580D01*
X77732421Y-110201380D01*
X77783430Y-109949490D01*
X77783430Y-107950510D01*
X77739152Y-107715193D01*
X77600080Y-107499069D01*
X77387880Y-107354079D01*
X77135990Y-107303070D01*
X75386000Y-107303070D01*
X75386000Y-105442750D01*
X79451000Y-105442750D01*
X79451000Y-107033310D01*
X79547673Y-107266699D01*
X79726302Y-107445327D01*
X79959691Y-107542000D01*
X81550250Y-107542000D01*
X81709000Y-107383250D01*
X81709000Y-105284000D01*
X79609750Y-105284000D01*
X79451000Y-105442750D01*
X75386000Y-105442750D01*
X75386000Y-100742750D01*
X76451000Y-100742750D01*
X76451000Y-102333310D01*
X76547673Y-102566699D01*
X76726302Y-102745327D01*
X76959691Y-102842000D01*
X78550250Y-102842000D01*
X78709000Y-102683250D01*
X78709000Y-100584000D01*
X78963000Y-100584000D01*
X78963000Y-102683250D01*
X79121750Y-102842000D01*
X79790696Y-102842000D01*
X79726302Y-102868673D01*
X79547673Y-103047301D01*
X79451000Y-103280690D01*
X79451000Y-104871250D01*
X79609750Y-105030000D01*
X81709000Y-105030000D01*
X81709000Y-102930750D01*
X81550250Y-102772000D01*
X80881304Y-102772000D01*
X80945698Y-102745327D01*
X81124327Y-102566699D01*
X81221000Y-102333310D01*
X81221000Y-100742750D01*
X81062250Y-100584000D01*
X78963000Y-100584000D01*
X78709000Y-100584000D01*
X76609750Y-100584000D01*
X76451000Y-100742750D01*
X75386000Y-100742750D01*
X75386000Y-98580690D01*
X76451000Y-98580690D01*
X76451000Y-100171250D01*
X76609750Y-100330000D01*
X78709000Y-100330000D01*
X78709000Y-98230750D01*
X78963000Y-98230750D01*
X78963000Y-100330000D01*
X81062250Y-100330000D01*
X81221000Y-100171250D01*
X81221000Y-98580690D01*
X81124327Y-98347301D01*
X80945698Y-98168673D01*
X80712309Y-98072000D01*
X79121750Y-98072000D01*
X78963000Y-98230750D01*
X78709000Y-98230750D01*
X78550250Y-98072000D01*
X76959691Y-98072000D01*
X76726302Y-98168673D01*
X76547673Y-98347301D01*
X76451000Y-98580690D01*
X75386000Y-98580690D01*
X75386000Y-94006065D01*
X75420322Y-94035002D01*
X75845000Y-94170000D01*
X76120000Y-94170000D01*
X76120000Y-93162000D01*
X76374000Y-93162000D01*
X76374000Y-94170000D01*
X76649000Y-94170000D01*
X77073678Y-94035002D01*
X77414368Y-93747763D01*
X77616119Y-93336874D01*
X77489954Y-93162000D01*
X76374000Y-93162000D01*
X76120000Y-93162000D01*
X76100000Y-93162000D01*
X76100000Y-92908000D01*
X76120000Y-92908000D01*
X76120000Y-91900000D01*
X76374000Y-91900000D01*
X76374000Y-92908000D01*
X77489954Y-92908000D01*
X77616119Y-92733126D01*
X77421191Y-92336131D01*
X77845771Y-92336131D01*
X77987432Y-92746049D01*
X78275179Y-93070552D01*
X78649062Y-93254268D01*
X78820000Y-93127734D01*
X78820000Y-92162000D01*
X79074000Y-92162000D01*
X79074000Y-93127734D01*
X79244938Y-93254268D01*
X79618821Y-93070552D01*
X79906568Y-92746049D01*
X80048229Y-92336131D01*
X79899563Y-92162000D01*
X79074000Y-92162000D01*
X78820000Y-92162000D01*
X77994437Y-92162000D01*
X77845771Y-92336131D01*
X77421191Y-92336131D01*
X77414368Y-92322237D01*
X77073678Y-92034998D01*
X76649000Y-91900000D01*
X76374000Y-91900000D01*
X76120000Y-91900000D01*
X75845000Y-91900000D01*
X75420322Y-92034998D01*
X75386000Y-92063935D01*
X75386000Y-91733869D01*
X77845771Y-91733869D01*
X77994437Y-91908000D01*
X78820000Y-91908000D01*
X78820000Y-90942266D01*
X79074000Y-90942266D01*
X79074000Y-91908000D01*
X79899563Y-91908000D01*
X80048229Y-91733869D01*
X79906568Y-91323951D01*
X79618821Y-90999448D01*
X79244938Y-90815732D01*
X79074000Y-90942266D01*
X78820000Y-90942266D01*
X78649062Y-90815732D01*
X78275179Y-90999448D01*
X77987432Y-91323951D01*
X77845771Y-91733869D01*
X75386000Y-91733869D01*
X75386000Y-87336131D01*
X77845771Y-87336131D01*
X77987432Y-87746049D01*
X78275179Y-88070552D01*
X78649062Y-88254268D01*
X78820000Y-88127734D01*
X78820000Y-87162000D01*
X77994437Y-87162000D01*
X77845771Y-87336131D01*
X75386000Y-87336131D01*
X75386000Y-87006065D01*
X75420322Y-87035002D01*
X75845000Y-87170000D01*
X76120000Y-87170000D01*
X76120000Y-86162000D01*
X76374000Y-86162000D01*
X76374000Y-87170000D01*
X76649000Y-87170000D01*
X77073678Y-87035002D01*
X77414368Y-86747763D01*
X77421190Y-86733869D01*
X77845771Y-86733869D01*
X77994437Y-86908000D01*
X78820000Y-86908000D01*
X78820000Y-85942266D01*
X79074000Y-85942266D01*
X79074000Y-86908000D01*
X79094000Y-86908000D01*
X79094000Y-87162000D01*
X79074000Y-87162000D01*
X79074000Y-88127734D01*
X79244938Y-88254268D01*
X79618821Y-88070552D01*
X79906568Y-87746049D01*
X79933800Y-87667249D01*
X79933800Y-88044806D01*
X79883135Y-88095471D01*
X79761080Y-88145903D01*
X79510782Y-88395764D01*
X79375154Y-88722391D01*
X79374846Y-89076057D01*
X79509903Y-89402920D01*
X79759764Y-89653218D01*
X80086391Y-89788846D01*
X80263999Y-89789001D01*
X80263846Y-89965057D01*
X80398903Y-90291920D01*
X80648764Y-90542218D01*
X80975391Y-90677846D01*
X81329057Y-90678154D01*
X81655920Y-90543097D01*
X81906218Y-90293236D01*
X81957388Y-90170006D01*
X82126697Y-90000697D01*
X82308396Y-89728766D01*
X82372200Y-89408000D01*
X82372200Y-86072194D01*
X82422865Y-86021529D01*
X82544920Y-85971097D01*
X82795218Y-85721236D01*
X82810354Y-85684784D01*
X84772313Y-85684784D01*
X84936311Y-86081689D01*
X85013800Y-86159313D01*
X85013800Y-87195425D01*
X84937378Y-87271714D01*
X84772687Y-87668332D01*
X84772313Y-88097784D01*
X84936311Y-88494689D01*
X85013800Y-88572313D01*
X85013800Y-92329000D01*
X85077604Y-92649766D01*
X85259303Y-92921697D01*
X87841471Y-95503865D01*
X87891903Y-95625920D01*
X88141764Y-95876218D01*
X88468391Y-96011846D01*
X88822057Y-96012154D01*
X89148920Y-95877097D01*
X89399218Y-95627236D01*
X89534846Y-95300609D01*
X89535154Y-94946943D01*
X89400097Y-94620080D01*
X89150236Y-94369782D01*
X89027006Y-94318612D01*
X86690200Y-91981806D01*
X86690200Y-88572575D01*
X86766622Y-88496286D01*
X86931313Y-88099668D01*
X86931687Y-87670216D01*
X86767689Y-87273311D01*
X86690200Y-87195687D01*
X86690200Y-86790057D01*
X86994846Y-86790057D01*
X87096600Y-87036321D01*
X87096600Y-90297000D01*
X87156537Y-90598325D01*
X87327224Y-90853776D01*
X88552885Y-92079437D01*
X88653903Y-92323920D01*
X88903764Y-92574218D01*
X89230391Y-92709846D01*
X89584057Y-92710154D01*
X89910920Y-92575097D01*
X90161218Y-92325236D01*
X90296846Y-91998609D01*
X90297154Y-91644943D01*
X90162097Y-91318080D01*
X89912236Y-91067782D01*
X89666149Y-90965597D01*
X88671400Y-89970848D01*
X88671400Y-87035917D01*
X88772846Y-86791609D01*
X88773154Y-86437943D01*
X88638097Y-86111080D01*
X88388236Y-85860782D01*
X88061609Y-85725154D01*
X87707943Y-85724846D01*
X87381080Y-85859903D01*
X87130782Y-86109764D01*
X86995154Y-86436391D01*
X86994846Y-86790057D01*
X86690200Y-86790057D01*
X86690200Y-86159575D01*
X86766622Y-86083286D01*
X86931313Y-85686668D01*
X86931687Y-85257216D01*
X86767689Y-84860311D01*
X86464286Y-84556378D01*
X86067668Y-84391687D01*
X85638216Y-84391313D01*
X85241311Y-84555311D01*
X84937378Y-84858714D01*
X84772687Y-85255332D01*
X84772313Y-85684784D01*
X82810354Y-85684784D01*
X82930846Y-85394609D01*
X82931154Y-85040943D01*
X82796097Y-84714080D01*
X82546236Y-84463782D01*
X82219609Y-84328154D01*
X81865943Y-84327846D01*
X81539080Y-84462903D01*
X81288782Y-84712764D01*
X81237612Y-84835994D01*
X80941303Y-85132303D01*
X80759604Y-85404234D01*
X80704570Y-85680910D01*
X80695813Y-85724933D01*
X80595943Y-85724846D01*
X80269080Y-85859903D01*
X80018782Y-86109764D01*
X79917140Y-86354543D01*
X79906568Y-86323951D01*
X79618821Y-85999448D01*
X79244938Y-85815732D01*
X79074000Y-85942266D01*
X78820000Y-85942266D01*
X78649062Y-85815732D01*
X78275179Y-85999448D01*
X77987432Y-86323951D01*
X77845771Y-86733869D01*
X77421190Y-86733869D01*
X77616119Y-86336874D01*
X77489954Y-86162000D01*
X76374000Y-86162000D01*
X76120000Y-86162000D01*
X76100000Y-86162000D01*
X76100000Y-85908000D01*
X76120000Y-85908000D01*
X76120000Y-84900000D01*
X76374000Y-84900000D01*
X76374000Y-85908000D01*
X77489954Y-85908000D01*
X77616119Y-85733126D01*
X77414368Y-85322237D01*
X77073678Y-85034998D01*
X76649000Y-84900000D01*
X76374000Y-84900000D01*
X76120000Y-84900000D01*
X75845000Y-84900000D01*
X75420322Y-85034998D01*
X75386000Y-85063935D01*
X75386000Y-82700885D01*
X75452736Y-82881387D01*
X76062461Y-83107908D01*
X76712460Y-83083856D01*
X77201264Y-82881387D01*
X77299927Y-82614532D01*
X81854073Y-82614532D01*
X81952736Y-82881387D01*
X82562461Y-83107908D01*
X83212460Y-83083856D01*
X83701264Y-82881387D01*
X83799927Y-82614532D01*
X82827000Y-81641605D01*
X81854073Y-82614532D01*
X77299927Y-82614532D01*
X76327000Y-81641605D01*
X76312858Y-81655748D01*
X76133253Y-81476143D01*
X76147395Y-81462000D01*
X76506605Y-81462000D01*
X77479532Y-82434927D01*
X77746387Y-82336264D01*
X77972908Y-81726539D01*
X77953331Y-81197461D01*
X81181092Y-81197461D01*
X81205144Y-81847460D01*
X81407613Y-82336264D01*
X81674468Y-82434927D01*
X82647395Y-81462000D01*
X83006605Y-81462000D01*
X83979532Y-82434927D01*
X84246387Y-82336264D01*
X84472908Y-81726539D01*
X84448856Y-81076540D01*
X84246387Y-80587736D01*
X83979532Y-80489073D01*
X83006605Y-81462000D01*
X82647395Y-81462000D01*
X81674468Y-80489073D01*
X81407613Y-80587736D01*
X81181092Y-81197461D01*
X77953331Y-81197461D01*
X77948856Y-81076540D01*
X77746387Y-80587736D01*
X77479532Y-80489073D01*
X76506605Y-81462000D01*
X76147395Y-81462000D01*
X76133253Y-81447858D01*
X76312858Y-81268253D01*
X76327000Y-81282395D01*
X77299927Y-80309468D01*
X81854073Y-80309468D01*
X82827000Y-81282395D01*
X83799927Y-80309468D01*
X83701264Y-80042613D01*
X83091539Y-79816092D01*
X82441540Y-79840144D01*
X81952736Y-80042613D01*
X81854073Y-80309468D01*
X77299927Y-80309468D01*
X77201264Y-80042613D01*
X76591539Y-79816092D01*
X75941540Y-79840144D01*
X75452736Y-80042613D01*
X75386000Y-80223115D01*
X75386000Y-78333617D01*
X75399637Y-78347278D01*
X76000352Y-78596716D01*
X76650795Y-78597284D01*
X77251943Y-78348894D01*
X77496264Y-78105000D01*
X81657782Y-78105000D01*
X81899637Y-78347278D01*
X82500352Y-78596716D01*
X83150795Y-78597284D01*
X83751943Y-78348894D01*
X84091680Y-78009750D01*
X85891000Y-78009750D01*
X85891000Y-78700309D01*
X85987673Y-78933698D01*
X86166301Y-79112327D01*
X86399690Y-79209000D01*
X87090250Y-79209000D01*
X87249000Y-79050250D01*
X87249000Y-77851000D01*
X87503000Y-77851000D01*
X87503000Y-79050250D01*
X87661750Y-79209000D01*
X88352310Y-79209000D01*
X88585699Y-79112327D01*
X88764327Y-78933698D01*
X88851136Y-78724122D01*
X89149076Y-78995645D01*
X89559110Y-79165476D01*
X89789000Y-79044155D01*
X89789000Y-77851000D01*
X87503000Y-77851000D01*
X87249000Y-77851000D01*
X86049750Y-77851000D01*
X85891000Y-78009750D01*
X84091680Y-78009750D01*
X84212278Y-77889363D01*
X84461716Y-77288648D01*
X84462188Y-76747691D01*
X85891000Y-76747691D01*
X85891000Y-77438250D01*
X86049750Y-77597000D01*
X87249000Y-77597000D01*
X87249000Y-76397750D01*
X87503000Y-76397750D01*
X87503000Y-77597000D01*
X89789000Y-77597000D01*
X89789000Y-76403845D01*
X89559110Y-76282524D01*
X89149076Y-76452355D01*
X88851136Y-76723878D01*
X88764327Y-76514302D01*
X88585699Y-76335673D01*
X88352310Y-76239000D01*
X87661750Y-76239000D01*
X87503000Y-76397750D01*
X87249000Y-76397750D01*
X87090250Y-76239000D01*
X86399690Y-76239000D01*
X86166301Y-76335673D01*
X85987673Y-76514302D01*
X85891000Y-76747691D01*
X84462188Y-76747691D01*
X84462284Y-76638205D01*
X84213894Y-76037057D01*
X84071087Y-75894000D01*
X92647764Y-75894000D01*
X92301032Y-76240732D01*
X92301032Y-76240732D01*
G37*
X92301032Y-76240732D02*
X91887715Y-76322946D01*
X91405946Y-76644853D01*
X91178298Y-76985553D01*
X91111183Y-76842642D01*
X90682924Y-76452355D01*
X90272890Y-76282524D01*
X90043000Y-76403845D01*
X90043000Y-77597000D01*
X90063000Y-77597000D01*
X90063000Y-77851000D01*
X90043000Y-77851000D01*
X90043000Y-79044155D01*
X90272890Y-79165476D01*
X90682924Y-78995645D01*
X91111183Y-78605358D01*
X91178298Y-78462447D01*
X91405946Y-78803147D01*
X91887715Y-79125054D01*
X92382896Y-79223552D01*
X92153224Y-79453224D01*
X91982537Y-79708675D01*
X91922600Y-80010000D01*
X91922600Y-93129108D01*
X91829782Y-93221764D01*
X91694154Y-93548391D01*
X91693846Y-93902057D01*
X91828903Y-94228920D01*
X92078764Y-94479218D01*
X92405391Y-94614846D01*
X92759057Y-94615154D01*
X93085920Y-94480097D01*
X93336218Y-94230236D01*
X93438403Y-93984149D01*
X94917776Y-92504776D01*
X95088463Y-92249325D01*
X95148400Y-91948000D01*
X95148400Y-90369152D01*
X97604045Y-87913507D01*
X97758169Y-88286515D01*
X98145600Y-88674622D01*
X98145600Y-90424000D01*
X98205537Y-90725325D01*
X98376224Y-90980776D01*
X98470837Y-91075389D01*
X98149485Y-91208169D01*
X97759539Y-91597436D01*
X97548241Y-92106298D01*
X97547760Y-92657285D01*
X97758169Y-93166515D01*
X98147436Y-93556461D01*
X98656298Y-93767759D01*
X99204686Y-93768238D01*
X99796600Y-94360152D01*
X99796600Y-96266000D01*
X99856537Y-96567325D01*
X100027224Y-96822776D01*
X101551224Y-98346776D01*
X101806675Y-98517463D01*
X102108000Y-98577400D01*
X103473022Y-98577400D01*
X103512903Y-98673920D01*
X103762764Y-98924218D01*
X104089391Y-99059846D01*
X104443057Y-99060154D01*
X104769920Y-98925097D01*
X105020218Y-98675236D01*
X105155846Y-98348609D01*
X105156154Y-97994943D01*
X105021097Y-97668080D01*
X104771236Y-97417782D01*
X104525149Y-97315597D01*
X104442776Y-97233224D01*
X104187325Y-97062537D01*
X103886000Y-97002600D01*
X102434152Y-97002600D01*
X101371400Y-95939848D01*
X101371400Y-95626952D01*
X101424224Y-95679776D01*
X101679675Y-95850463D01*
X101981000Y-95910400D01*
X103464083Y-95910400D01*
X103708391Y-96011846D01*
X104062057Y-96012154D01*
X104388920Y-95877097D01*
X104639218Y-95627236D01*
X104774846Y-95300609D01*
X104775154Y-94946943D01*
X104640097Y-94620080D01*
X104390236Y-94369782D01*
X104063609Y-94234154D01*
X103709943Y-94233846D01*
X103463679Y-94335600D01*
X102307152Y-94335600D01*
X102260400Y-94288848D01*
X102260400Y-92964000D01*
X102200463Y-92662675D01*
X102029776Y-92407224D01*
X99720400Y-90097848D01*
X99720400Y-88673953D01*
X99863525Y-88531077D01*
X102440224Y-91107776D01*
X102695675Y-91278463D01*
X102997000Y-91338400D01*
X110068083Y-91338400D01*
X110312391Y-91439846D01*
X110540800Y-91440045D01*
X110540800Y-92875100D01*
X110007503Y-92875100D01*
X109978236Y-92845782D01*
X109651609Y-92710154D01*
X109297943Y-92709846D01*
X108971080Y-92844903D01*
X108720782Y-93094764D01*
X108585154Y-93421391D01*
X108585013Y-93582759D01*
X108526580Y-93606903D01*
X108276282Y-93856764D01*
X108140654Y-94183391D01*
X108140346Y-94537057D01*
X108275403Y-94863920D01*
X108525264Y-95114218D01*
X108771351Y-95216403D01*
X108917224Y-95362276D01*
X109124697Y-95500905D01*
X109098080Y-95511903D01*
X108847782Y-95761764D01*
X108745597Y-96007851D01*
X108409224Y-96344224D01*
X108238537Y-96599675D01*
X108178600Y-96901000D01*
X108178600Y-98257083D01*
X108077154Y-98501391D01*
X108076846Y-98855057D01*
X108211903Y-99181920D01*
X108288648Y-99258800D01*
X108131848Y-99415600D01*
X96266000Y-99415600D01*
X95964675Y-99475537D01*
X95709224Y-99646224D01*
X91054563Y-104300885D01*
X90810080Y-104401903D01*
X90559782Y-104651764D01*
X90424154Y-104978391D01*
X90423846Y-105332057D01*
X90558903Y-105658920D01*
X90808764Y-105909218D01*
X91135391Y-106044846D01*
X91489057Y-106045154D01*
X91815920Y-105910097D01*
X92011566Y-105714793D01*
X92011313Y-106004784D01*
X92175311Y-106401689D01*
X92478714Y-106705622D01*
X92632739Y-106769579D01*
X93134580Y-107271421D01*
X93464193Y-107491662D01*
X93528700Y-107504493D01*
X93853000Y-107569000D01*
X97242160Y-107569000D01*
X97692777Y-108019617D01*
X97574683Y-108041838D01*
X97358559Y-108180910D01*
X97213569Y-108393110D01*
X97162560Y-108645000D01*
X97162560Y-108766943D01*
X96830407Y-108545006D01*
X96393000Y-108458000D01*
X95955593Y-108545006D01*
X95869455Y-108602562D01*
X95833162Y-108409683D01*
X95694090Y-108193559D01*
X95481890Y-108048569D01*
X95230000Y-107997560D01*
X92730000Y-107997560D01*
X92494683Y-108041838D01*
X92278559Y-108180910D01*
X92133569Y-108393110D01*
X92082560Y-108645000D01*
X92082560Y-111845000D01*
X92126838Y-112080317D01*
X92265910Y-112296441D01*
X92405750Y-112391990D01*
X92370301Y-112406673D01*
X92191673Y-112585302D01*
X92095000Y-112818691D01*
X92095000Y-114259250D01*
X92253750Y-114418000D01*
X93853000Y-114418000D01*
X93853000Y-114398000D01*
X94107000Y-114398000D01*
X94107000Y-114418000D01*
X95706250Y-114418000D01*
X95865000Y-114259250D01*
X95865000Y-112818691D01*
X95768327Y-112585302D01*
X95589699Y-112406673D01*
X95553253Y-112391577D01*
X95681441Y-112309090D01*
X95826431Y-112096890D01*
X95877440Y-111845000D01*
X95877440Y-111362452D01*
X96186407Y-111300994D01*
X96557223Y-111053223D01*
X97162560Y-110447886D01*
X97162560Y-111845000D01*
X97206838Y-112080317D01*
X97345910Y-112296441D01*
X97485750Y-112391990D01*
X97450301Y-112406673D01*
X97271673Y-112585302D01*
X97175000Y-112818691D01*
X97175000Y-114259250D01*
X97333750Y-114418000D01*
X98933000Y-114418000D01*
X98933000Y-114398000D01*
X99187000Y-114398000D01*
X99187000Y-114418000D01*
X100786250Y-114418000D01*
X100945000Y-114259250D01*
X100945000Y-112818691D01*
X100848327Y-112585302D01*
X100669699Y-112406673D01*
X100633253Y-112391577D01*
X100761441Y-112309090D01*
X100906431Y-112096890D01*
X100957440Y-111845000D01*
X100957440Y-111388000D01*
X114291000Y-111388000D01*
X114728407Y-111300994D01*
X115099223Y-111053223D01*
X115603016Y-110549430D01*
X116632990Y-110549430D01*
X116868307Y-110505152D01*
X117084431Y-110366080D01*
X117229421Y-110153880D01*
X117280430Y-109901990D01*
X117280430Y-108254800D01*
X118609722Y-108254800D01*
X119689140Y-109334218D01*
X119639080Y-109354903D01*
X119388782Y-109604764D01*
X119253154Y-109931391D01*
X119252846Y-110285057D01*
X119387903Y-110611920D01*
X119637764Y-110862218D01*
X119760994Y-110913388D01*
X120319800Y-111472194D01*
X120319800Y-115990000D01*
X120173750Y-115990000D01*
X120015000Y-116148750D01*
X120015000Y-117348000D01*
X120035000Y-117348000D01*
X120035000Y-117602000D01*
X120015000Y-117602000D01*
X120015000Y-117622000D01*
X119761000Y-117622000D01*
X119761000Y-117602000D01*
X118561750Y-117602000D01*
X118403000Y-117760750D01*
X118403000Y-118451310D01*
X118499673Y-118684699D01*
X118678302Y-118863327D01*
X118852777Y-118935597D01*
X118808853Y-118964946D01*
X118486946Y-119446715D01*
X118373907Y-120015000D01*
X118486946Y-120583285D01*
X118808853Y-121065054D01*
X119138026Y-121285000D01*
X118808853Y-121504946D01*
X118486946Y-121986715D01*
X118373907Y-122555000D01*
X118486946Y-123123285D01*
X118808853Y-123605054D01*
X119138026Y-123825000D01*
X118808853Y-124044946D01*
X118486946Y-124526715D01*
X118373907Y-125095000D01*
X118486946Y-125663285D01*
X118808853Y-126145054D01*
X119290622Y-126466961D01*
X119858907Y-126580000D01*
X119917093Y-126580000D01*
X120485378Y-126466961D01*
X120967147Y-126145054D01*
X121158000Y-125859422D01*
X121348853Y-126145054D01*
X121830622Y-126466961D01*
X122398907Y-126580000D01*
X122457093Y-126580000D01*
X123025378Y-126466961D01*
X123507147Y-126145054D01*
X123829054Y-125663285D01*
X123942093Y-125095000D01*
X123829054Y-124526715D01*
X123507147Y-124044946D01*
X123177974Y-123825000D01*
X123507147Y-123605054D01*
X123829054Y-123123285D01*
X123942093Y-122555000D01*
X123829054Y-121986715D01*
X123507147Y-121504946D01*
X123177974Y-121285000D01*
X123507147Y-121065054D01*
X123829054Y-120583285D01*
X123942093Y-120015000D01*
X123829054Y-119446715D01*
X123507147Y-118964946D01*
X123177974Y-118745000D01*
X123507147Y-118525054D01*
X123529901Y-118491000D01*
X135636000Y-118491000D01*
X135971652Y-118424235D01*
X136024807Y-118413662D01*
X136354420Y-118193420D01*
X136451688Y-118096153D01*
X136634873Y-118020462D01*
X136942382Y-117713489D01*
X137109010Y-117312205D01*
X137109389Y-116877701D01*
X136943462Y-116476127D01*
X136636489Y-116168618D01*
X136235205Y-116001990D01*
X135800701Y-116001611D01*
X135399127Y-116167538D01*
X135107156Y-116459000D01*
X127304800Y-116459000D01*
X127304800Y-114681000D01*
X127233262Y-114321354D01*
X127029539Y-114016461D01*
X119663539Y-106650461D01*
X119358646Y-106446738D01*
X118999000Y-106375200D01*
X118822111Y-106375200D01*
X118845440Y-106260000D01*
X118845440Y-104718992D01*
X119585224Y-105458776D01*
X119840675Y-105629463D01*
X120142000Y-105689400D01*
X125742960Y-105689400D01*
X125742960Y-106108511D01*
X125553943Y-106108346D01*
X125227080Y-106243403D01*
X125152666Y-106317687D01*
X124955109Y-106235654D01*
X124601443Y-106235346D01*
X124274580Y-106370403D01*
X124024282Y-106620264D01*
X123888654Y-106946891D01*
X123888346Y-107300557D01*
X124023403Y-107627420D01*
X124073467Y-107677572D01*
X124184803Y-107844197D01*
X127020971Y-110680365D01*
X127071403Y-110802420D01*
X127321264Y-111052718D01*
X127647891Y-111188346D01*
X128001557Y-111188654D01*
X128328420Y-111053597D01*
X128464680Y-110917574D01*
X128566303Y-111019197D01*
X128838234Y-111200896D01*
X129159000Y-111264700D01*
X129303922Y-111264700D01*
X129425891Y-111315346D01*
X129779557Y-111315654D01*
X130106420Y-111180597D01*
X130356718Y-110930736D01*
X130492346Y-110604109D01*
X130492654Y-110250443D01*
X130357597Y-109923580D01*
X130107736Y-109673282D01*
X129781109Y-109537654D01*
X129455264Y-109537370D01*
X128497998Y-108580104D01*
X128778000Y-108635800D01*
X130547722Y-108635800D01*
X132492637Y-110580715D01*
X132593629Y-110825135D01*
X132886324Y-111118341D01*
X133268944Y-111277219D01*
X133683238Y-111277580D01*
X134066135Y-111119371D01*
X134359341Y-110826676D01*
X134518219Y-110444056D01*
X134518580Y-110029762D01*
X134360371Y-109646865D01*
X134067676Y-109353659D01*
X133821527Y-109251449D01*
X132254155Y-107684077D01*
X132334000Y-107699959D01*
X132907489Y-107585885D01*
X133393670Y-107261029D01*
X133604000Y-106946248D01*
X133814330Y-107261029D01*
X134300511Y-107585885D01*
X134874000Y-107699959D01*
X135447489Y-107585885D01*
X135933670Y-107261029D01*
X136144000Y-106946248D01*
X136354330Y-107261029D01*
X136840511Y-107585885D01*
X137414000Y-107699959D01*
X137987489Y-107585885D01*
X138473670Y-107261029D01*
X138798526Y-106774848D01*
X138912600Y-106201359D01*
X138912600Y-106142641D01*
X138798526Y-105569152D01*
X138473670Y-105082971D01*
X138202839Y-104902008D01*
X138620821Y-104520490D01*
X138868968Y-103991027D01*
X138748469Y-103759000D01*
X137541000Y-103759000D01*
X137541000Y-103779000D01*
X137287000Y-103779000D01*
X137287000Y-103759000D01*
X135001000Y-103759000D01*
X135001000Y-103779000D01*
X134747000Y-103779000D01*
X134747000Y-103759000D01*
X132461000Y-103759000D01*
X132461000Y-103779000D01*
X132207000Y-103779000D01*
X132207000Y-103759000D01*
X129921000Y-103759000D01*
X129921000Y-103779000D01*
X129667000Y-103779000D01*
X129667000Y-103759000D01*
X129647000Y-103759000D01*
X129647000Y-103505000D01*
X129667000Y-103505000D01*
X129667000Y-102298183D01*
X129434974Y-102177042D01*
X129019053Y-102349312D01*
X128587179Y-102743510D01*
X128529664Y-102866228D01*
X128313670Y-102542971D01*
X127827489Y-102218115D01*
X127345627Y-102122267D01*
X128045694Y-101422200D01*
X130302233Y-101422200D01*
X130302154Y-101422391D01*
X130301846Y-101776057D01*
X130436903Y-102102920D01*
X130686764Y-102353218D01*
X131013391Y-102488846D01*
X131367057Y-102489154D01*
X131437927Y-102459871D01*
X131127179Y-102743510D01*
X131064000Y-102878313D01*
X131000821Y-102743510D01*
X130568947Y-102349312D01*
X130153026Y-102177042D01*
X129921000Y-102298183D01*
X129921000Y-103505000D01*
X132207000Y-103505000D01*
X132207000Y-103485000D01*
X132461000Y-103485000D01*
X132461000Y-103505000D01*
X134747000Y-103505000D01*
X134747000Y-103485000D01*
X135001000Y-103485000D01*
X135001000Y-103505000D01*
X137287000Y-103505000D01*
X137287000Y-102298183D01*
X137541000Y-102298183D01*
X137541000Y-103505000D01*
X138748469Y-103505000D01*
X138868968Y-103272973D01*
X138620821Y-102743510D01*
X138188947Y-102349312D01*
X137773026Y-102177042D01*
X137541000Y-102298183D01*
X137287000Y-102298183D01*
X137054974Y-102177042D01*
X136639053Y-102349312D01*
X136207179Y-102743510D01*
X136144000Y-102878313D01*
X136080821Y-102743510D01*
X135648947Y-102349312D01*
X135428808Y-102258133D01*
X135503920Y-102227097D01*
X135754218Y-101977236D01*
X135889846Y-101650609D01*
X135890154Y-101296943D01*
X135755097Y-100970080D01*
X135505236Y-100719782D01*
X135262433Y-100618961D01*
X136482697Y-99398697D01*
X136664396Y-99126765D01*
X136728200Y-98806000D01*
X136728200Y-97613703D01*
X136940054Y-97472147D01*
X137160000Y-97142974D01*
X137379946Y-97472147D01*
X137861715Y-97794054D01*
X138430000Y-97907093D01*
X138998285Y-97794054D01*
X139480054Y-97472147D01*
X139507850Y-97430548D01*
X139516838Y-97478317D01*
X139655910Y-97694441D01*
X139868110Y-97839431D01*
X140120000Y-97890440D01*
X141820000Y-97890440D01*
X142055317Y-97846162D01*
X142271441Y-97707090D01*
X142292000Y-97677001D01*
X142292000Y-126798000D01*
X117267990Y-126798000D01*
X117267990Y-126333250D01*
X117109240Y-126174500D01*
X115760500Y-126174500D01*
X115760500Y-126194500D01*
X115506500Y-126194500D01*
X115506500Y-126174500D01*
X114157760Y-126174500D01*
X113999010Y-126333250D01*
X113999010Y-126798000D01*
X77770990Y-126798000D01*
X77770990Y-126285750D01*
X77612240Y-126127000D01*
X76263500Y-126127000D01*
X76263500Y-126147000D01*
X76009500Y-126147000D01*
X76009500Y-126127000D01*
X75989500Y-126127000D01*
X75989500Y-125873000D01*
X76009500Y-125873000D01*
X76009500Y-124524260D01*
X76263500Y-124524260D01*
X76263500Y-125873000D01*
X77612240Y-125873000D01*
X77770990Y-125714250D01*
X77770990Y-124921700D01*
X113999010Y-124921700D01*
X113999010Y-125761750D01*
X114157760Y-125920500D01*
X115506500Y-125920500D01*
X115506500Y-124571760D01*
X115760500Y-124571760D01*
X115760500Y-125920500D01*
X117109240Y-125920500D01*
X117267990Y-125761750D01*
X117267990Y-124921700D01*
X117171317Y-124688311D01*
X116992688Y-124509683D01*
X116759299Y-124413010D01*
X115919250Y-124413010D01*
X115760500Y-124571760D01*
X115506500Y-124571760D01*
X115347750Y-124413010D01*
X114507701Y-124413010D01*
X114274312Y-124509683D01*
X114095683Y-124688311D01*
X113999010Y-124921700D01*
X77770990Y-124921700D01*
X77770990Y-124874200D01*
X77674317Y-124640811D01*
X77495688Y-124462183D01*
X77262299Y-124365510D01*
X76422250Y-124365510D01*
X76263500Y-124524260D01*
X76009500Y-124524260D01*
X75850750Y-124365510D01*
X75386000Y-124365510D01*
X75386000Y-115398915D01*
X75475355Y-115532645D01*
X79320270Y-119377560D01*
X78480000Y-119377560D01*
X78244683Y-119421838D01*
X78028559Y-119560910D01*
X77883569Y-119773110D01*
X77832560Y-120025000D01*
X77832560Y-122325000D01*
X77876838Y-122560317D01*
X78015910Y-122776441D01*
X78228110Y-122921431D01*
X78480000Y-122972440D01*
X84080000Y-122972440D01*
X84315317Y-122928162D01*
X84531441Y-122789090D01*
X84676431Y-122576890D01*
X84727440Y-122325000D01*
X84727440Y-120025000D01*
X84683162Y-119789683D01*
X84544090Y-119573559D01*
X84331890Y-119428569D01*
X84080000Y-119377560D01*
X81956984Y-119377560D01*
X81941145Y-119353855D01*
X77071500Y-114484210D01*
X77071500Y-112625000D01*
X77832560Y-112625000D01*
X77832560Y-114925000D01*
X77876838Y-115160317D01*
X78015910Y-115376441D01*
X78228110Y-115521431D01*
X78480000Y-115572440D01*
X84080000Y-115572440D01*
X84315317Y-115528162D01*
X84531441Y-115389090D01*
X84676431Y-115176890D01*
X84727440Y-114925000D01*
X84727440Y-114830750D01*
X92095000Y-114830750D01*
X92095000Y-116271309D01*
X92191673Y-116504698D01*
X92370301Y-116683327D01*
X92603690Y-116780000D01*
X93694250Y-116780000D01*
X93853000Y-116621250D01*
X93853000Y-114672000D01*
X94107000Y-114672000D01*
X94107000Y-116621250D01*
X94265750Y-116780000D01*
X95356310Y-116780000D01*
X95589699Y-116683327D01*
X95768327Y-116504698D01*
X95865000Y-116271309D01*
X95865000Y-114830750D01*
X97175000Y-114830750D01*
X97175000Y-116271309D01*
X97271673Y-116504698D01*
X97450301Y-116683327D01*
X97683690Y-116780000D01*
X98774250Y-116780000D01*
X98933000Y-116621250D01*
X98933000Y-114672000D01*
X99187000Y-114672000D01*
X99187000Y-116621250D01*
X99345750Y-116780000D01*
X100436310Y-116780000D01*
X100669699Y-116683327D01*
X100848327Y-116504698D01*
X100850815Y-116498690D01*
X118403000Y-116498690D01*
X118403000Y-117189250D01*
X118561750Y-117348000D01*
X119761000Y-117348000D01*
X119761000Y-116148750D01*
X119602250Y-115990000D01*
X118911691Y-115990000D01*
X118678302Y-116086673D01*
X118499673Y-116265301D01*
X118403000Y-116498690D01*
X100850815Y-116498690D01*
X100945000Y-116271309D01*
X100945000Y-114830750D01*
X100786250Y-114672000D01*
X99187000Y-114672000D01*
X98933000Y-114672000D01*
X97333750Y-114672000D01*
X97175000Y-114830750D01*
X95865000Y-114830750D01*
X95706250Y-114672000D01*
X94107000Y-114672000D01*
X93853000Y-114672000D01*
X92253750Y-114672000D01*
X92095000Y-114830750D01*
X84727440Y-114830750D01*
X84727440Y-112723006D01*
X85644223Y-111806223D01*
X85891994Y-111435407D01*
X85979000Y-110998000D01*
X85979000Y-102854440D01*
X86586000Y-102854440D01*
X86821317Y-102810162D01*
X87037441Y-102671090D01*
X87182431Y-102458890D01*
X87233440Y-102207000D01*
X87233440Y-98707000D01*
X87189162Y-98471683D01*
X87050090Y-98255559D01*
X86837890Y-98110569D01*
X86586000Y-98059560D01*
X83086000Y-98059560D01*
X82850683Y-98103838D01*
X82634559Y-98242910D01*
X82489569Y-98455110D01*
X82438560Y-98707000D01*
X82438560Y-102207000D01*
X82482838Y-102442317D01*
X82621910Y-102658441D01*
X82788109Y-102772000D01*
X82121750Y-102772000D01*
X81963000Y-102930750D01*
X81963000Y-105030000D01*
X81983000Y-105030000D01*
X81983000Y-105284000D01*
X81963000Y-105284000D01*
X81963000Y-107383250D01*
X82121750Y-107542000D01*
X83693000Y-107542000D01*
X83693000Y-110524554D01*
X82239994Y-111977560D01*
X78480000Y-111977560D01*
X78244683Y-112021838D01*
X78028559Y-112160910D01*
X77883569Y-112373110D01*
X77832560Y-112625000D01*
X77071500Y-112625000D01*
X77071500Y-110596930D01*
X77135990Y-110596930D01*
X77371307Y-110552652D01*
X77587431Y-110413580D01*
X77732421Y-110201380D01*
X77783430Y-109949490D01*
X77783430Y-107950510D01*
X77739152Y-107715193D01*
X77600080Y-107499069D01*
X77387880Y-107354079D01*
X77135990Y-107303070D01*
X75386000Y-107303070D01*
X75386000Y-105442750D01*
X79451000Y-105442750D01*
X79451000Y-107033310D01*
X79547673Y-107266699D01*
X79726302Y-107445327D01*
X79959691Y-107542000D01*
X81550250Y-107542000D01*
X81709000Y-107383250D01*
X81709000Y-105284000D01*
X79609750Y-105284000D01*
X79451000Y-105442750D01*
X75386000Y-105442750D01*
X75386000Y-100742750D01*
X76451000Y-100742750D01*
X76451000Y-102333310D01*
X76547673Y-102566699D01*
X76726302Y-102745327D01*
X76959691Y-102842000D01*
X78550250Y-102842000D01*
X78709000Y-102683250D01*
X78709000Y-100584000D01*
X78963000Y-100584000D01*
X78963000Y-102683250D01*
X79121750Y-102842000D01*
X79790696Y-102842000D01*
X79726302Y-102868673D01*
X79547673Y-103047301D01*
X79451000Y-103280690D01*
X79451000Y-104871250D01*
X79609750Y-105030000D01*
X81709000Y-105030000D01*
X81709000Y-102930750D01*
X81550250Y-102772000D01*
X80881304Y-102772000D01*
X80945698Y-102745327D01*
X81124327Y-102566699D01*
X81221000Y-102333310D01*
X81221000Y-100742750D01*
X81062250Y-100584000D01*
X78963000Y-100584000D01*
X78709000Y-100584000D01*
X76609750Y-100584000D01*
X76451000Y-100742750D01*
X75386000Y-100742750D01*
X75386000Y-98580690D01*
X76451000Y-98580690D01*
X76451000Y-100171250D01*
X76609750Y-100330000D01*
X78709000Y-100330000D01*
X78709000Y-98230750D01*
X78963000Y-98230750D01*
X78963000Y-100330000D01*
X81062250Y-100330000D01*
X81221000Y-100171250D01*
X81221000Y-98580690D01*
X81124327Y-98347301D01*
X80945698Y-98168673D01*
X80712309Y-98072000D01*
X79121750Y-98072000D01*
X78963000Y-98230750D01*
X78709000Y-98230750D01*
X78550250Y-98072000D01*
X76959691Y-98072000D01*
X76726302Y-98168673D01*
X76547673Y-98347301D01*
X76451000Y-98580690D01*
X75386000Y-98580690D01*
X75386000Y-94006065D01*
X75420322Y-94035002D01*
X75845000Y-94170000D01*
X76120000Y-94170000D01*
X76120000Y-93162000D01*
X76374000Y-93162000D01*
X76374000Y-94170000D01*
X76649000Y-94170000D01*
X77073678Y-94035002D01*
X77414368Y-93747763D01*
X77616119Y-93336874D01*
X77489954Y-93162000D01*
X76374000Y-93162000D01*
X76120000Y-93162000D01*
X76100000Y-93162000D01*
X76100000Y-92908000D01*
X76120000Y-92908000D01*
X76120000Y-91900000D01*
X76374000Y-91900000D01*
X76374000Y-92908000D01*
X77489954Y-92908000D01*
X77616119Y-92733126D01*
X77421191Y-92336131D01*
X77845771Y-92336131D01*
X77987432Y-92746049D01*
X78275179Y-93070552D01*
X78649062Y-93254268D01*
X78820000Y-93127734D01*
X78820000Y-92162000D01*
X79074000Y-92162000D01*
X79074000Y-93127734D01*
X79244938Y-93254268D01*
X79618821Y-93070552D01*
X79906568Y-92746049D01*
X80048229Y-92336131D01*
X79899563Y-92162000D01*
X79074000Y-92162000D01*
X78820000Y-92162000D01*
X77994437Y-92162000D01*
X77845771Y-92336131D01*
X77421191Y-92336131D01*
X77414368Y-92322237D01*
X77073678Y-92034998D01*
X76649000Y-91900000D01*
X76374000Y-91900000D01*
X76120000Y-91900000D01*
X75845000Y-91900000D01*
X75420322Y-92034998D01*
X75386000Y-92063935D01*
X75386000Y-91733869D01*
X77845771Y-91733869D01*
X77994437Y-91908000D01*
X78820000Y-91908000D01*
X78820000Y-90942266D01*
X79074000Y-90942266D01*
X79074000Y-91908000D01*
X79899563Y-91908000D01*
X80048229Y-91733869D01*
X79906568Y-91323951D01*
X79618821Y-90999448D01*
X79244938Y-90815732D01*
X79074000Y-90942266D01*
X78820000Y-90942266D01*
X78649062Y-90815732D01*
X78275179Y-90999448D01*
X77987432Y-91323951D01*
X77845771Y-91733869D01*
X75386000Y-91733869D01*
X75386000Y-87336131D01*
X77845771Y-87336131D01*
X77987432Y-87746049D01*
X78275179Y-88070552D01*
X78649062Y-88254268D01*
X78820000Y-88127734D01*
X78820000Y-87162000D01*
X77994437Y-87162000D01*
X77845771Y-87336131D01*
X75386000Y-87336131D01*
X75386000Y-87006065D01*
X75420322Y-87035002D01*
X75845000Y-87170000D01*
X76120000Y-87170000D01*
X76120000Y-86162000D01*
X76374000Y-86162000D01*
X76374000Y-87170000D01*
X76649000Y-87170000D01*
X77073678Y-87035002D01*
X77414368Y-86747763D01*
X77421190Y-86733869D01*
X77845771Y-86733869D01*
X77994437Y-86908000D01*
X78820000Y-86908000D01*
X78820000Y-85942266D01*
X79074000Y-85942266D01*
X79074000Y-86908000D01*
X79094000Y-86908000D01*
X79094000Y-87162000D01*
X79074000Y-87162000D01*
X79074000Y-88127734D01*
X79244938Y-88254268D01*
X79618821Y-88070552D01*
X79906568Y-87746049D01*
X79933800Y-87667249D01*
X79933800Y-88044806D01*
X79883135Y-88095471D01*
X79761080Y-88145903D01*
X79510782Y-88395764D01*
X79375154Y-88722391D01*
X79374846Y-89076057D01*
X79509903Y-89402920D01*
X79759764Y-89653218D01*
X80086391Y-89788846D01*
X80263999Y-89789001D01*
X80263846Y-89965057D01*
X80398903Y-90291920D01*
X80648764Y-90542218D01*
X80975391Y-90677846D01*
X81329057Y-90678154D01*
X81655920Y-90543097D01*
X81906218Y-90293236D01*
X81957388Y-90170006D01*
X82126697Y-90000697D01*
X82308396Y-89728766D01*
X82372200Y-89408000D01*
X82372200Y-86072194D01*
X82422865Y-86021529D01*
X82544920Y-85971097D01*
X82795218Y-85721236D01*
X82810354Y-85684784D01*
X84772313Y-85684784D01*
X84936311Y-86081689D01*
X85013800Y-86159313D01*
X85013800Y-87195425D01*
X84937378Y-87271714D01*
X84772687Y-87668332D01*
X84772313Y-88097784D01*
X84936311Y-88494689D01*
X85013800Y-88572313D01*
X85013800Y-92329000D01*
X85077604Y-92649766D01*
X85259303Y-92921697D01*
X87841471Y-95503865D01*
X87891903Y-95625920D01*
X88141764Y-95876218D01*
X88468391Y-96011846D01*
X88822057Y-96012154D01*
X89148920Y-95877097D01*
X89399218Y-95627236D01*
X89534846Y-95300609D01*
X89535154Y-94946943D01*
X89400097Y-94620080D01*
X89150236Y-94369782D01*
X89027006Y-94318612D01*
X86690200Y-91981806D01*
X86690200Y-88572575D01*
X86766622Y-88496286D01*
X86931313Y-88099668D01*
X86931687Y-87670216D01*
X86767689Y-87273311D01*
X86690200Y-87195687D01*
X86690200Y-86790057D01*
X86994846Y-86790057D01*
X87096600Y-87036321D01*
X87096600Y-90297000D01*
X87156537Y-90598325D01*
X87327224Y-90853776D01*
X88552885Y-92079437D01*
X88653903Y-92323920D01*
X88903764Y-92574218D01*
X89230391Y-92709846D01*
X89584057Y-92710154D01*
X89910920Y-92575097D01*
X90161218Y-92325236D01*
X90296846Y-91998609D01*
X90297154Y-91644943D01*
X90162097Y-91318080D01*
X89912236Y-91067782D01*
X89666149Y-90965597D01*
X88671400Y-89970848D01*
X88671400Y-87035917D01*
X88772846Y-86791609D01*
X88773154Y-86437943D01*
X88638097Y-86111080D01*
X88388236Y-85860782D01*
X88061609Y-85725154D01*
X87707943Y-85724846D01*
X87381080Y-85859903D01*
X87130782Y-86109764D01*
X86995154Y-86436391D01*
X86994846Y-86790057D01*
X86690200Y-86790057D01*
X86690200Y-86159575D01*
X86766622Y-86083286D01*
X86931313Y-85686668D01*
X86931687Y-85257216D01*
X86767689Y-84860311D01*
X86464286Y-84556378D01*
X86067668Y-84391687D01*
X85638216Y-84391313D01*
X85241311Y-84555311D01*
X84937378Y-84858714D01*
X84772687Y-85255332D01*
X84772313Y-85684784D01*
X82810354Y-85684784D01*
X82930846Y-85394609D01*
X82931154Y-85040943D01*
X82796097Y-84714080D01*
X82546236Y-84463782D01*
X82219609Y-84328154D01*
X81865943Y-84327846D01*
X81539080Y-84462903D01*
X81288782Y-84712764D01*
X81237612Y-84835994D01*
X80941303Y-85132303D01*
X80759604Y-85404234D01*
X80704570Y-85680910D01*
X80695813Y-85724933D01*
X80595943Y-85724846D01*
X80269080Y-85859903D01*
X80018782Y-86109764D01*
X79917140Y-86354543D01*
X79906568Y-86323951D01*
X79618821Y-85999448D01*
X79244938Y-85815732D01*
X79074000Y-85942266D01*
X78820000Y-85942266D01*
X78649062Y-85815732D01*
X78275179Y-85999448D01*
X77987432Y-86323951D01*
X77845771Y-86733869D01*
X77421190Y-86733869D01*
X77616119Y-86336874D01*
X77489954Y-86162000D01*
X76374000Y-86162000D01*
X76120000Y-86162000D01*
X76100000Y-86162000D01*
X76100000Y-85908000D01*
X76120000Y-85908000D01*
X76120000Y-84900000D01*
X76374000Y-84900000D01*
X76374000Y-85908000D01*
X77489954Y-85908000D01*
X77616119Y-85733126D01*
X77414368Y-85322237D01*
X77073678Y-85034998D01*
X76649000Y-84900000D01*
X76374000Y-84900000D01*
X76120000Y-84900000D01*
X75845000Y-84900000D01*
X75420322Y-85034998D01*
X75386000Y-85063935D01*
X75386000Y-82700885D01*
X75452736Y-82881387D01*
X76062461Y-83107908D01*
X76712460Y-83083856D01*
X77201264Y-82881387D01*
X77299927Y-82614532D01*
X81854073Y-82614532D01*
X81952736Y-82881387D01*
X82562461Y-83107908D01*
X83212460Y-83083856D01*
X83701264Y-82881387D01*
X83799927Y-82614532D01*
X82827000Y-81641605D01*
X81854073Y-82614532D01*
X77299927Y-82614532D01*
X76327000Y-81641605D01*
X76312858Y-81655748D01*
X76133253Y-81476143D01*
X76147395Y-81462000D01*
X76506605Y-81462000D01*
X77479532Y-82434927D01*
X77746387Y-82336264D01*
X77972908Y-81726539D01*
X77953331Y-81197461D01*
X81181092Y-81197461D01*
X81205144Y-81847460D01*
X81407613Y-82336264D01*
X81674468Y-82434927D01*
X82647395Y-81462000D01*
X83006605Y-81462000D01*
X83979532Y-82434927D01*
X84246387Y-82336264D01*
X84472908Y-81726539D01*
X84448856Y-81076540D01*
X84246387Y-80587736D01*
X83979532Y-80489073D01*
X83006605Y-81462000D01*
X82647395Y-81462000D01*
X81674468Y-80489073D01*
X81407613Y-80587736D01*
X81181092Y-81197461D01*
X77953331Y-81197461D01*
X77948856Y-81076540D01*
X77746387Y-80587736D01*
X77479532Y-80489073D01*
X76506605Y-81462000D01*
X76147395Y-81462000D01*
X76133253Y-81447858D01*
X76312858Y-81268253D01*
X76327000Y-81282395D01*
X77299927Y-80309468D01*
X81854073Y-80309468D01*
X82827000Y-81282395D01*
X83799927Y-80309468D01*
X83701264Y-80042613D01*
X83091539Y-79816092D01*
X82441540Y-79840144D01*
X81952736Y-80042613D01*
X81854073Y-80309468D01*
X77299927Y-80309468D01*
X77201264Y-80042613D01*
X76591539Y-79816092D01*
X75941540Y-79840144D01*
X75452736Y-80042613D01*
X75386000Y-80223115D01*
X75386000Y-78333617D01*
X75399637Y-78347278D01*
X76000352Y-78596716D01*
X76650795Y-78597284D01*
X77251943Y-78348894D01*
X77496264Y-78105000D01*
X81657782Y-78105000D01*
X81899637Y-78347278D01*
X82500352Y-78596716D01*
X83150795Y-78597284D01*
X83751943Y-78348894D01*
X84091680Y-78009750D01*
X85891000Y-78009750D01*
X85891000Y-78700309D01*
X85987673Y-78933698D01*
X86166301Y-79112327D01*
X86399690Y-79209000D01*
X87090250Y-79209000D01*
X87249000Y-79050250D01*
X87249000Y-77851000D01*
X87503000Y-77851000D01*
X87503000Y-79050250D01*
X87661750Y-79209000D01*
X88352310Y-79209000D01*
X88585699Y-79112327D01*
X88764327Y-78933698D01*
X88851136Y-78724122D01*
X89149076Y-78995645D01*
X89559110Y-79165476D01*
X89789000Y-79044155D01*
X89789000Y-77851000D01*
X87503000Y-77851000D01*
X87249000Y-77851000D01*
X86049750Y-77851000D01*
X85891000Y-78009750D01*
X84091680Y-78009750D01*
X84212278Y-77889363D01*
X84461716Y-77288648D01*
X84462188Y-76747691D01*
X85891000Y-76747691D01*
X85891000Y-77438250D01*
X86049750Y-77597000D01*
X87249000Y-77597000D01*
X87249000Y-76397750D01*
X87503000Y-76397750D01*
X87503000Y-77597000D01*
X89789000Y-77597000D01*
X89789000Y-76403845D01*
X89559110Y-76282524D01*
X89149076Y-76452355D01*
X88851136Y-76723878D01*
X88764327Y-76514302D01*
X88585699Y-76335673D01*
X88352310Y-76239000D01*
X87661750Y-76239000D01*
X87503000Y-76397750D01*
X87249000Y-76397750D01*
X87090250Y-76239000D01*
X86399690Y-76239000D01*
X86166301Y-76335673D01*
X85987673Y-76514302D01*
X85891000Y-76747691D01*
X84462188Y-76747691D01*
X84462284Y-76638205D01*
X84213894Y-76037057D01*
X84071087Y-75894000D01*
X92647764Y-75894000D01*
X92301032Y-76240732D01*
G36*
X109985764Y-100067218D02*
X110312391Y-100202846D01*
X110666057Y-100203154D01*
X110912321Y-100101400D01*
X114227848Y-100101400D01*
X118039008Y-103912560D01*
X116498000Y-103912560D01*
X116262683Y-103956838D01*
X116046559Y-104095910D01*
X115901569Y-104308110D01*
X115887914Y-104375541D01*
X115858054Y-104330853D01*
X115376285Y-104008946D01*
X114808000Y-103895907D01*
X114239715Y-104008946D01*
X113757946Y-104330853D01*
X113530298Y-104671553D01*
X113463183Y-104528642D01*
X113034924Y-104138355D01*
X112624890Y-103968524D01*
X112395000Y-104089845D01*
X112395000Y-105283000D01*
X112415000Y-105283000D01*
X112415000Y-105537000D01*
X112395000Y-105537000D01*
X112395000Y-106730155D01*
X112624890Y-106851476D01*
X113034924Y-106681645D01*
X113463183Y-106291358D01*
X113530298Y-106148447D01*
X113757946Y-106489147D01*
X113781222Y-106504700D01*
X113320285Y-106965637D01*
X113075865Y-107066629D01*
X112782659Y-107359324D01*
X112623781Y-107741944D01*
X112623420Y-108156238D01*
X112781629Y-108539135D01*
X113074324Y-108832341D01*
X113456944Y-108991219D01*
X113871238Y-108991580D01*
X113967923Y-108951631D01*
X113817554Y-109102000D01*
X102870000Y-109102000D01*
X102870000Y-108986257D01*
X102946010Y-108803205D01*
X102946389Y-108368701D01*
X102780462Y-107967127D01*
X102473489Y-107659618D01*
X102072205Y-107492990D01*
X101637701Y-107492611D01*
X101236127Y-107658538D01*
X100928618Y-107965511D01*
X100810457Y-108250074D01*
X100774090Y-108193559D01*
X100561890Y-108048569D01*
X100310000Y-107997560D01*
X100076000Y-107997560D01*
X100076000Y-107950000D01*
X99998662Y-107561194D01*
X99828533Y-107306579D01*
X99778420Y-107231579D01*
X98381420Y-105834580D01*
X98051807Y-105614338D01*
X97987300Y-105601507D01*
X97663000Y-105537000D01*
X94273841Y-105537000D01*
X94117748Y-105380907D01*
X108243000Y-105380907D01*
X108243000Y-105439093D01*
X108356039Y-106007378D01*
X108677946Y-106489147D01*
X109159715Y-106811054D01*
X109728000Y-106924093D01*
X110296285Y-106811054D01*
X110778054Y-106489147D01*
X111005702Y-106148447D01*
X111072817Y-106291358D01*
X111501076Y-106681645D01*
X111911110Y-106851476D01*
X112141000Y-106730155D01*
X112141000Y-105537000D01*
X112121000Y-105537000D01*
X112121000Y-105283000D01*
X112141000Y-105283000D01*
X112141000Y-104089845D01*
X111911110Y-103968524D01*
X111501076Y-104138355D01*
X111072817Y-104528642D01*
X111005702Y-104671553D01*
X110778054Y-104330853D01*
X110296285Y-104008946D01*
X109728000Y-103895907D01*
X109159715Y-104008946D01*
X108677946Y-104330853D01*
X108356039Y-104812622D01*
X108243000Y-105380907D01*
X94117748Y-105380907D01*
X94069736Y-105332895D01*
X94006689Y-105180311D01*
X93703286Y-104876378D01*
X93306668Y-104711687D01*
X92877216Y-104711313D01*
X92867030Y-104715522D01*
X96592152Y-100990400D01*
X108458000Y-100990400D01*
X108759325Y-100930463D01*
X109014776Y-100759776D01*
X109846671Y-99927881D01*
X109985764Y-100067218D01*
X109985764Y-100067218D01*
G37*
X109985764Y-100067218D02*
X110312391Y-100202846D01*
X110666057Y-100203154D01*
X110912321Y-100101400D01*
X114227848Y-100101400D01*
X118039008Y-103912560D01*
X116498000Y-103912560D01*
X116262683Y-103956838D01*
X116046559Y-104095910D01*
X115901569Y-104308110D01*
X115887914Y-104375541D01*
X115858054Y-104330853D01*
X115376285Y-104008946D01*
X114808000Y-103895907D01*
X114239715Y-104008946D01*
X113757946Y-104330853D01*
X113530298Y-104671553D01*
X113463183Y-104528642D01*
X113034924Y-104138355D01*
X112624890Y-103968524D01*
X112395000Y-104089845D01*
X112395000Y-105283000D01*
X112415000Y-105283000D01*
X112415000Y-105537000D01*
X112395000Y-105537000D01*
X112395000Y-106730155D01*
X112624890Y-106851476D01*
X113034924Y-106681645D01*
X113463183Y-106291358D01*
X113530298Y-106148447D01*
X113757946Y-106489147D01*
X113781222Y-106504700D01*
X113320285Y-106965637D01*
X113075865Y-107066629D01*
X112782659Y-107359324D01*
X112623781Y-107741944D01*
X112623420Y-108156238D01*
X112781629Y-108539135D01*
X113074324Y-108832341D01*
X113456944Y-108991219D01*
X113871238Y-108991580D01*
X113967923Y-108951631D01*
X113817554Y-109102000D01*
X102870000Y-109102000D01*
X102870000Y-108986257D01*
X102946010Y-108803205D01*
X102946389Y-108368701D01*
X102780462Y-107967127D01*
X102473489Y-107659618D01*
X102072205Y-107492990D01*
X101637701Y-107492611D01*
X101236127Y-107658538D01*
X100928618Y-107965511D01*
X100810457Y-108250074D01*
X100774090Y-108193559D01*
X100561890Y-108048569D01*
X100310000Y-107997560D01*
X100076000Y-107997560D01*
X100076000Y-107950000D01*
X99998662Y-107561194D01*
X99828533Y-107306579D01*
X99778420Y-107231579D01*
X98381420Y-105834580D01*
X98051807Y-105614338D01*
X97987300Y-105601507D01*
X97663000Y-105537000D01*
X94273841Y-105537000D01*
X94117748Y-105380907D01*
X108243000Y-105380907D01*
X108243000Y-105439093D01*
X108356039Y-106007378D01*
X108677946Y-106489147D01*
X109159715Y-106811054D01*
X109728000Y-106924093D01*
X110296285Y-106811054D01*
X110778054Y-106489147D01*
X111005702Y-106148447D01*
X111072817Y-106291358D01*
X111501076Y-106681645D01*
X111911110Y-106851476D01*
X112141000Y-106730155D01*
X112141000Y-105537000D01*
X112121000Y-105537000D01*
X112121000Y-105283000D01*
X112141000Y-105283000D01*
X112141000Y-104089845D01*
X111911110Y-103968524D01*
X111501076Y-104138355D01*
X111072817Y-104528642D01*
X111005702Y-104671553D01*
X110778054Y-104330853D01*
X110296285Y-104008946D01*
X109728000Y-103895907D01*
X109159715Y-104008946D01*
X108677946Y-104330853D01*
X108356039Y-104812622D01*
X108243000Y-105380907D01*
X94117748Y-105380907D01*
X94069736Y-105332895D01*
X94006689Y-105180311D01*
X93703286Y-104876378D01*
X93306668Y-104711687D01*
X92877216Y-104711313D01*
X92867030Y-104715522D01*
X96592152Y-100990400D01*
X108458000Y-100990400D01*
X108759325Y-100930463D01*
X109014776Y-100759776D01*
X109846671Y-99927881D01*
X109985764Y-100067218D01*
G36*
X137379946Y-82994147D02*
X137612014Y-83149210D01*
X137799027Y-83429093D01*
X137801382Y-83432618D01*
X139823179Y-85454415D01*
X139668559Y-85553910D01*
X139523569Y-85766110D01*
X139501699Y-85874107D01*
X139196924Y-85596355D01*
X138786890Y-85426524D01*
X138557000Y-85547845D01*
X138557000Y-86741000D01*
X138577000Y-86741000D01*
X138577000Y-86995000D01*
X138557000Y-86995000D01*
X138557000Y-88188155D01*
X138786890Y-88309476D01*
X139196924Y-88139645D01*
X139499937Y-87863499D01*
X139516838Y-87953317D01*
X139655910Y-88169441D01*
X139868110Y-88314431D01*
X140120000Y-88365440D01*
X141820000Y-88365440D01*
X142055317Y-88321162D01*
X142271441Y-88182090D01*
X142292000Y-88152001D01*
X142292000Y-91110215D01*
X142157090Y-90900559D01*
X141944890Y-90755569D01*
X141693000Y-90704560D01*
X139993000Y-90704560D01*
X139757683Y-90748838D01*
X139541559Y-90887910D01*
X139396569Y-91100110D01*
X139374699Y-91208107D01*
X139069924Y-90930355D01*
X138659890Y-90760524D01*
X138430000Y-90881845D01*
X138430000Y-92075000D01*
X138450000Y-92075000D01*
X138450000Y-92329000D01*
X138430000Y-92329000D01*
X138430000Y-93522155D01*
X138659890Y-93643476D01*
X139069924Y-93473645D01*
X139372937Y-93197499D01*
X139389838Y-93287317D01*
X139528910Y-93503441D01*
X139741110Y-93648431D01*
X139903200Y-93681255D01*
X139903200Y-94936354D01*
X139884683Y-94939838D01*
X139668559Y-95078910D01*
X139523569Y-95291110D01*
X139509914Y-95358541D01*
X139480054Y-95313853D01*
X138998285Y-94991946D01*
X138430000Y-94878907D01*
X137861715Y-94991946D01*
X137379946Y-95313853D01*
X137160000Y-95643026D01*
X136940054Y-95313853D01*
X136458285Y-94991946D01*
X135890000Y-94878907D01*
X135321715Y-94991946D01*
X134839946Y-95313853D01*
X134620000Y-95643026D01*
X134400054Y-95313853D01*
X133918285Y-94991946D01*
X133350000Y-94878907D01*
X132781715Y-94991946D01*
X132299946Y-95313853D01*
X132072298Y-95654553D01*
X132005183Y-95511642D01*
X131576924Y-95121355D01*
X131166890Y-94951524D01*
X130937000Y-95072845D01*
X130937000Y-96266000D01*
X130957000Y-96266000D01*
X130957000Y-96520000D01*
X130937000Y-96520000D01*
X130937000Y-97713155D01*
X131166890Y-97834476D01*
X131576924Y-97664645D01*
X132005183Y-97274358D01*
X132072298Y-97131447D01*
X132299946Y-97472147D01*
X132371289Y-97519817D01*
X131288306Y-98602800D01*
X128181085Y-98602800D01*
X128206147Y-98586054D01*
X128528054Y-98104285D01*
X128641093Y-97536000D01*
X128528054Y-96967715D01*
X128382510Y-96749892D01*
X129368514Y-96749892D01*
X129614817Y-97274358D01*
X130043076Y-97664645D01*
X130453110Y-97834476D01*
X130683000Y-97713155D01*
X130683000Y-96520000D01*
X129489181Y-96520000D01*
X129368514Y-96749892D01*
X128382510Y-96749892D01*
X128206147Y-96485946D01*
X128164548Y-96458150D01*
X128212317Y-96449162D01*
X128428441Y-96310090D01*
X128573431Y-96097890D01*
X128585942Y-96036108D01*
X129368514Y-96036108D01*
X129489181Y-96266000D01*
X130683000Y-96266000D01*
X130683000Y-95072845D01*
X130453110Y-94951524D01*
X130043076Y-95121355D01*
X129614817Y-95511642D01*
X129368514Y-96036108D01*
X128585942Y-96036108D01*
X128624440Y-95846000D01*
X128624440Y-94322900D01*
X132270500Y-94322900D01*
X132334610Y-94310148D01*
X132399948Y-94312187D01*
X132483851Y-94280462D01*
X132571825Y-94262963D01*
X132626175Y-94226647D01*
X132687319Y-94203528D01*
X132752695Y-94142110D01*
X132827276Y-94092276D01*
X132863592Y-94037925D01*
X132911234Y-93993167D01*
X133123308Y-93696263D01*
X133223000Y-93716093D01*
X133791285Y-93603054D01*
X134273054Y-93281147D01*
X134493000Y-92951974D01*
X134712946Y-93281147D01*
X135194715Y-93603054D01*
X135763000Y-93716093D01*
X136331285Y-93603054D01*
X136813054Y-93281147D01*
X137040702Y-92940447D01*
X137107817Y-93083358D01*
X137536076Y-93473645D01*
X137946110Y-93643476D01*
X138176000Y-93522155D01*
X138176000Y-92329000D01*
X138156000Y-92329000D01*
X138156000Y-92075000D01*
X138176000Y-92075000D01*
X138176000Y-90881845D01*
X137946110Y-90760524D01*
X137536076Y-90930355D01*
X137107817Y-91320642D01*
X137040702Y-91463553D01*
X136813054Y-91122853D01*
X136364477Y-90823124D01*
X136319776Y-90756224D01*
X135811776Y-90248224D01*
X135556325Y-90077537D01*
X135255000Y-90017600D01*
X132588000Y-90017600D01*
X132550351Y-90025089D01*
X132512154Y-90021261D01*
X132400772Y-90054842D01*
X132286675Y-90077537D01*
X132254756Y-90098865D01*
X132218004Y-90109945D01*
X132127954Y-90183591D01*
X132031224Y-90248224D01*
X132009897Y-90280142D01*
X131980182Y-90304444D01*
X130768181Y-91776160D01*
X130768442Y-91476231D01*
X130633385Y-91149368D01*
X130443871Y-90959523D01*
X133075836Y-88327558D01*
X133350000Y-88382093D01*
X133918285Y-88269054D01*
X134400054Y-87947147D01*
X134620000Y-87617974D01*
X134839946Y-87947147D01*
X135321715Y-88269054D01*
X135890000Y-88382093D01*
X136458285Y-88269054D01*
X136940054Y-87947147D01*
X137167702Y-87606447D01*
X137234817Y-87749358D01*
X137663076Y-88139645D01*
X138073110Y-88309476D01*
X138303000Y-88188155D01*
X138303000Y-86995000D01*
X138283000Y-86995000D01*
X138283000Y-86741000D01*
X138303000Y-86741000D01*
X138303000Y-85547845D01*
X138073110Y-85426524D01*
X137663076Y-85596355D01*
X137234817Y-85986642D01*
X137167702Y-86129553D01*
X136940054Y-85788853D01*
X136827548Y-85713679D01*
X136758262Y-85365354D01*
X136554539Y-85060461D01*
X134680556Y-83186478D01*
X134796431Y-83016890D01*
X134810086Y-82949459D01*
X134839946Y-82994147D01*
X135321715Y-83316054D01*
X135890000Y-83429093D01*
X136458285Y-83316054D01*
X136940054Y-82994147D01*
X137160000Y-82664974D01*
X137379946Y-82994147D01*
X137379946Y-82994147D01*
G37*
X137379946Y-82994147D02*
X137612014Y-83149210D01*
X137799027Y-83429093D01*
X137801382Y-83432618D01*
X139823179Y-85454415D01*
X139668559Y-85553910D01*
X139523569Y-85766110D01*
X139501699Y-85874107D01*
X139196924Y-85596355D01*
X138786890Y-85426524D01*
X138557000Y-85547845D01*
X138557000Y-86741000D01*
X138577000Y-86741000D01*
X138577000Y-86995000D01*
X138557000Y-86995000D01*
X138557000Y-88188155D01*
X138786890Y-88309476D01*
X139196924Y-88139645D01*
X139499937Y-87863499D01*
X139516838Y-87953317D01*
X139655910Y-88169441D01*
X139868110Y-88314431D01*
X140120000Y-88365440D01*
X141820000Y-88365440D01*
X142055317Y-88321162D01*
X142271441Y-88182090D01*
X142292000Y-88152001D01*
X142292000Y-91110215D01*
X142157090Y-90900559D01*
X141944890Y-90755569D01*
X141693000Y-90704560D01*
X139993000Y-90704560D01*
X139757683Y-90748838D01*
X139541559Y-90887910D01*
X139396569Y-91100110D01*
X139374699Y-91208107D01*
X139069924Y-90930355D01*
X138659890Y-90760524D01*
X138430000Y-90881845D01*
X138430000Y-92075000D01*
X138450000Y-92075000D01*
X138450000Y-92329000D01*
X138430000Y-92329000D01*
X138430000Y-93522155D01*
X138659890Y-93643476D01*
X139069924Y-93473645D01*
X139372937Y-93197499D01*
X139389838Y-93287317D01*
X139528910Y-93503441D01*
X139741110Y-93648431D01*
X139903200Y-93681255D01*
X139903200Y-94936354D01*
X139884683Y-94939838D01*
X139668559Y-95078910D01*
X139523569Y-95291110D01*
X139509914Y-95358541D01*
X139480054Y-95313853D01*
X138998285Y-94991946D01*
X138430000Y-94878907D01*
X137861715Y-94991946D01*
X137379946Y-95313853D01*
X137160000Y-95643026D01*
X136940054Y-95313853D01*
X136458285Y-94991946D01*
X135890000Y-94878907D01*
X135321715Y-94991946D01*
X134839946Y-95313853D01*
X134620000Y-95643026D01*
X134400054Y-95313853D01*
X133918285Y-94991946D01*
X133350000Y-94878907D01*
X132781715Y-94991946D01*
X132299946Y-95313853D01*
X132072298Y-95654553D01*
X132005183Y-95511642D01*
X131576924Y-95121355D01*
X131166890Y-94951524D01*
X130937000Y-95072845D01*
X130937000Y-96266000D01*
X130957000Y-96266000D01*
X130957000Y-96520000D01*
X130937000Y-96520000D01*
X130937000Y-97713155D01*
X131166890Y-97834476D01*
X131576924Y-97664645D01*
X132005183Y-97274358D01*
X132072298Y-97131447D01*
X132299946Y-97472147D01*
X132371289Y-97519817D01*
X131288306Y-98602800D01*
X128181085Y-98602800D01*
X128206147Y-98586054D01*
X128528054Y-98104285D01*
X128641093Y-97536000D01*
X128528054Y-96967715D01*
X128382510Y-96749892D01*
X129368514Y-96749892D01*
X129614817Y-97274358D01*
X130043076Y-97664645D01*
X130453110Y-97834476D01*
X130683000Y-97713155D01*
X130683000Y-96520000D01*
X129489181Y-96520000D01*
X129368514Y-96749892D01*
X128382510Y-96749892D01*
X128206147Y-96485946D01*
X128164548Y-96458150D01*
X128212317Y-96449162D01*
X128428441Y-96310090D01*
X128573431Y-96097890D01*
X128585942Y-96036108D01*
X129368514Y-96036108D01*
X129489181Y-96266000D01*
X130683000Y-96266000D01*
X130683000Y-95072845D01*
X130453110Y-94951524D01*
X130043076Y-95121355D01*
X129614817Y-95511642D01*
X129368514Y-96036108D01*
X128585942Y-96036108D01*
X128624440Y-95846000D01*
X128624440Y-94322900D01*
X132270500Y-94322900D01*
X132334610Y-94310148D01*
X132399948Y-94312187D01*
X132483851Y-94280462D01*
X132571825Y-94262963D01*
X132626175Y-94226647D01*
X132687319Y-94203528D01*
X132752695Y-94142110D01*
X132827276Y-94092276D01*
X132863592Y-94037925D01*
X132911234Y-93993167D01*
X133123308Y-93696263D01*
X133223000Y-93716093D01*
X133791285Y-93603054D01*
X134273054Y-93281147D01*
X134493000Y-92951974D01*
X134712946Y-93281147D01*
X135194715Y-93603054D01*
X135763000Y-93716093D01*
X136331285Y-93603054D01*
X136813054Y-93281147D01*
X137040702Y-92940447D01*
X137107817Y-93083358D01*
X137536076Y-93473645D01*
X137946110Y-93643476D01*
X138176000Y-93522155D01*
X138176000Y-92329000D01*
X138156000Y-92329000D01*
X138156000Y-92075000D01*
X138176000Y-92075000D01*
X138176000Y-90881845D01*
X137946110Y-90760524D01*
X137536076Y-90930355D01*
X137107817Y-91320642D01*
X137040702Y-91463553D01*
X136813054Y-91122853D01*
X136364477Y-90823124D01*
X136319776Y-90756224D01*
X135811776Y-90248224D01*
X135556325Y-90077537D01*
X135255000Y-90017600D01*
X132588000Y-90017600D01*
X132550351Y-90025089D01*
X132512154Y-90021261D01*
X132400772Y-90054842D01*
X132286675Y-90077537D01*
X132254756Y-90098865D01*
X132218004Y-90109945D01*
X132127954Y-90183591D01*
X132031224Y-90248224D01*
X132009897Y-90280142D01*
X131980182Y-90304444D01*
X130768181Y-91776160D01*
X130768442Y-91476231D01*
X130633385Y-91149368D01*
X130443871Y-90959523D01*
X133075836Y-88327558D01*
X133350000Y-88382093D01*
X133918285Y-88269054D01*
X134400054Y-87947147D01*
X134620000Y-87617974D01*
X134839946Y-87947147D01*
X135321715Y-88269054D01*
X135890000Y-88382093D01*
X136458285Y-88269054D01*
X136940054Y-87947147D01*
X137167702Y-87606447D01*
X137234817Y-87749358D01*
X137663076Y-88139645D01*
X138073110Y-88309476D01*
X138303000Y-88188155D01*
X138303000Y-86995000D01*
X138283000Y-86995000D01*
X138283000Y-86741000D01*
X138303000Y-86741000D01*
X138303000Y-85547845D01*
X138073110Y-85426524D01*
X137663076Y-85596355D01*
X137234817Y-85986642D01*
X137167702Y-86129553D01*
X136940054Y-85788853D01*
X136827548Y-85713679D01*
X136758262Y-85365354D01*
X136554539Y-85060461D01*
X134680556Y-83186478D01*
X134796431Y-83016890D01*
X134810086Y-82949459D01*
X134839946Y-82994147D01*
X135321715Y-83316054D01*
X135890000Y-83429093D01*
X136458285Y-83316054D01*
X136940054Y-82994147D01*
X137160000Y-82664974D01*
X137379946Y-82994147D01*
G36*
X127082514Y-76859108D02*
X127203181Y-77089000D01*
X128397000Y-77089000D01*
X128397000Y-77069000D01*
X128651000Y-77069000D01*
X128651000Y-77089000D01*
X128671000Y-77089000D01*
X128671000Y-77343000D01*
X128651000Y-77343000D01*
X128651000Y-78536155D01*
X128880890Y-78657476D01*
X129290924Y-78487645D01*
X129719183Y-78097358D01*
X129786298Y-77954447D01*
X130013946Y-78295147D01*
X130495715Y-78617054D01*
X131064000Y-78730093D01*
X131632285Y-78617054D01*
X132114054Y-78295147D01*
X132334000Y-77965974D01*
X132553946Y-78295147D01*
X133035715Y-78617054D01*
X133604000Y-78730093D01*
X134172285Y-78617054D01*
X134654054Y-78295147D01*
X134874000Y-77965974D01*
X134956892Y-78090030D01*
X132685461Y-80361461D01*
X132647977Y-80417560D01*
X132500000Y-80417560D01*
X132264683Y-80461838D01*
X132048559Y-80600910D01*
X131903569Y-80813110D01*
X131852560Y-81065000D01*
X131852560Y-81223779D01*
X131632234Y-81267604D01*
X131360303Y-81449303D01*
X130090303Y-82719303D01*
X129908604Y-82991234D01*
X129885396Y-83107908D01*
X129844800Y-83312000D01*
X129844800Y-87536806D01*
X127922806Y-89458800D01*
X126724875Y-89458800D01*
X126992358Y-89333183D01*
X127382645Y-88904924D01*
X127552476Y-88494890D01*
X127431155Y-88265000D01*
X126238000Y-88265000D01*
X126238000Y-88285000D01*
X125984000Y-88285000D01*
X125984000Y-88265000D01*
X124790845Y-88265000D01*
X124669524Y-88494890D01*
X124839355Y-88904924D01*
X125229642Y-89333183D01*
X125497125Y-89458800D01*
X125061194Y-89458800D01*
X124163697Y-88561303D01*
X123891766Y-88379604D01*
X123571000Y-88315800D01*
X122322013Y-88315800D01*
X122332441Y-88309090D01*
X122477431Y-88096890D01*
X122528440Y-87845000D01*
X122528440Y-86145000D01*
X122484162Y-85909683D01*
X122345090Y-85693559D01*
X122132890Y-85548569D01*
X122047000Y-85531176D01*
X122047000Y-84016205D01*
X122116317Y-84003162D01*
X122332441Y-83864090D01*
X122477431Y-83651890D01*
X122528440Y-83400000D01*
X122528440Y-83058000D01*
X124596907Y-83058000D01*
X124709946Y-83626285D01*
X125031853Y-84108054D01*
X125361026Y-84328000D01*
X125031853Y-84547946D01*
X124709946Y-85029715D01*
X124596907Y-85598000D01*
X124709946Y-86166285D01*
X125031853Y-86648054D01*
X125372553Y-86875702D01*
X125229642Y-86942817D01*
X124839355Y-87371076D01*
X124669524Y-87781110D01*
X124790845Y-88011000D01*
X125984000Y-88011000D01*
X125984000Y-87991000D01*
X126238000Y-87991000D01*
X126238000Y-88011000D01*
X127431155Y-88011000D01*
X127552476Y-87781110D01*
X127382645Y-87371076D01*
X126992358Y-86942817D01*
X126849447Y-86875702D01*
X127190147Y-86648054D01*
X127512054Y-86166285D01*
X127625093Y-85598000D01*
X127512054Y-85029715D01*
X127190147Y-84547946D01*
X126860974Y-84328000D01*
X127190147Y-84108054D01*
X127512054Y-83626285D01*
X127625093Y-83058000D01*
X127512054Y-82489715D01*
X127190147Y-82007946D01*
X127148548Y-81980150D01*
X127196317Y-81971162D01*
X127412441Y-81832090D01*
X127557431Y-81619890D01*
X127608440Y-81368000D01*
X127608440Y-79668000D01*
X127564162Y-79432683D01*
X127425090Y-79216559D01*
X127212890Y-79071569D01*
X126961000Y-79020560D01*
X125261000Y-79020560D01*
X125025683Y-79064838D01*
X124809559Y-79203910D01*
X124664569Y-79416110D01*
X124613560Y-79668000D01*
X124613560Y-81368000D01*
X124657838Y-81603317D01*
X124796910Y-81819441D01*
X125009110Y-81964431D01*
X125076541Y-81978086D01*
X125031853Y-82007946D01*
X124709946Y-82489715D01*
X124596907Y-83058000D01*
X122528440Y-83058000D01*
X122528440Y-81700000D01*
X122484162Y-81464683D01*
X122345090Y-81248559D01*
X122132890Y-81103569D01*
X122047000Y-81086176D01*
X122047000Y-79190205D01*
X122116317Y-79177162D01*
X122332441Y-79038090D01*
X122477431Y-78825890D01*
X122528440Y-78574000D01*
X122528440Y-77572892D01*
X127082514Y-77572892D01*
X127328817Y-78097358D01*
X127757076Y-78487645D01*
X128167110Y-78657476D01*
X128397000Y-78536155D01*
X128397000Y-77343000D01*
X127203181Y-77343000D01*
X127082514Y-77572892D01*
X122528440Y-77572892D01*
X122528440Y-76874000D01*
X122497205Y-76708000D01*
X127153478Y-76708000D01*
X127082514Y-76859108D01*
X127082514Y-76859108D01*
G37*
X127082514Y-76859108D02*
X127203181Y-77089000D01*
X128397000Y-77089000D01*
X128397000Y-77069000D01*
X128651000Y-77069000D01*
X128651000Y-77089000D01*
X128671000Y-77089000D01*
X128671000Y-77343000D01*
X128651000Y-77343000D01*
X128651000Y-78536155D01*
X128880890Y-78657476D01*
X129290924Y-78487645D01*
X129719183Y-78097358D01*
X129786298Y-77954447D01*
X130013946Y-78295147D01*
X130495715Y-78617054D01*
X131064000Y-78730093D01*
X131632285Y-78617054D01*
X132114054Y-78295147D01*
X132334000Y-77965974D01*
X132553946Y-78295147D01*
X133035715Y-78617054D01*
X133604000Y-78730093D01*
X134172285Y-78617054D01*
X134654054Y-78295147D01*
X134874000Y-77965974D01*
X134956892Y-78090030D01*
X132685461Y-80361461D01*
X132647977Y-80417560D01*
X132500000Y-80417560D01*
X132264683Y-80461838D01*
X132048559Y-80600910D01*
X131903569Y-80813110D01*
X131852560Y-81065000D01*
X131852560Y-81223779D01*
X131632234Y-81267604D01*
X131360303Y-81449303D01*
X130090303Y-82719303D01*
X129908604Y-82991234D01*
X129885396Y-83107908D01*
X129844800Y-83312000D01*
X129844800Y-87536806D01*
X127922806Y-89458800D01*
X126724875Y-89458800D01*
X126992358Y-89333183D01*
X127382645Y-88904924D01*
X127552476Y-88494890D01*
X127431155Y-88265000D01*
X126238000Y-88265000D01*
X126238000Y-88285000D01*
X125984000Y-88285000D01*
X125984000Y-88265000D01*
X124790845Y-88265000D01*
X124669524Y-88494890D01*
X124839355Y-88904924D01*
X125229642Y-89333183D01*
X125497125Y-89458800D01*
X125061194Y-89458800D01*
X124163697Y-88561303D01*
X123891766Y-88379604D01*
X123571000Y-88315800D01*
X122322013Y-88315800D01*
X122332441Y-88309090D01*
X122477431Y-88096890D01*
X122528440Y-87845000D01*
X122528440Y-86145000D01*
X122484162Y-85909683D01*
X122345090Y-85693559D01*
X122132890Y-85548569D01*
X122047000Y-85531176D01*
X122047000Y-84016205D01*
X122116317Y-84003162D01*
X122332441Y-83864090D01*
X122477431Y-83651890D01*
X122528440Y-83400000D01*
X122528440Y-83058000D01*
X124596907Y-83058000D01*
X124709946Y-83626285D01*
X125031853Y-84108054D01*
X125361026Y-84328000D01*
X125031853Y-84547946D01*
X124709946Y-85029715D01*
X124596907Y-85598000D01*
X124709946Y-86166285D01*
X125031853Y-86648054D01*
X125372553Y-86875702D01*
X125229642Y-86942817D01*
X124839355Y-87371076D01*
X124669524Y-87781110D01*
X124790845Y-88011000D01*
X125984000Y-88011000D01*
X125984000Y-87991000D01*
X126238000Y-87991000D01*
X126238000Y-88011000D01*
X127431155Y-88011000D01*
X127552476Y-87781110D01*
X127382645Y-87371076D01*
X126992358Y-86942817D01*
X126849447Y-86875702D01*
X127190147Y-86648054D01*
X127512054Y-86166285D01*
X127625093Y-85598000D01*
X127512054Y-85029715D01*
X127190147Y-84547946D01*
X126860974Y-84328000D01*
X127190147Y-84108054D01*
X127512054Y-83626285D01*
X127625093Y-83058000D01*
X127512054Y-82489715D01*
X127190147Y-82007946D01*
X127148548Y-81980150D01*
X127196317Y-81971162D01*
X127412441Y-81832090D01*
X127557431Y-81619890D01*
X127608440Y-81368000D01*
X127608440Y-79668000D01*
X127564162Y-79432683D01*
X127425090Y-79216559D01*
X127212890Y-79071569D01*
X126961000Y-79020560D01*
X125261000Y-79020560D01*
X125025683Y-79064838D01*
X124809559Y-79203910D01*
X124664569Y-79416110D01*
X124613560Y-79668000D01*
X124613560Y-81368000D01*
X124657838Y-81603317D01*
X124796910Y-81819441D01*
X125009110Y-81964431D01*
X125076541Y-81978086D01*
X125031853Y-82007946D01*
X124709946Y-82489715D01*
X124596907Y-83058000D01*
X122528440Y-83058000D01*
X122528440Y-81700000D01*
X122484162Y-81464683D01*
X122345090Y-81248559D01*
X122132890Y-81103569D01*
X122047000Y-81086176D01*
X122047000Y-79190205D01*
X122116317Y-79177162D01*
X122332441Y-79038090D01*
X122477431Y-78825890D01*
X122528440Y-78574000D01*
X122528440Y-77572892D01*
X127082514Y-77572892D01*
X127328817Y-78097358D01*
X127757076Y-78487645D01*
X128167110Y-78657476D01*
X128397000Y-78536155D01*
X128397000Y-77343000D01*
X127203181Y-77343000D01*
X127082514Y-77572892D01*
X122528440Y-77572892D01*
X122528440Y-76874000D01*
X122497205Y-76708000D01*
X127153478Y-76708000D01*
X127082514Y-76859108D01*
G36*
X111969514Y-77367108D02*
X112090181Y-77597000D01*
X113284000Y-77597000D01*
X113284000Y-77577000D01*
X113538000Y-77577000D01*
X113538000Y-77597000D01*
X113558000Y-77597000D01*
X113558000Y-77851000D01*
X113538000Y-77851000D01*
X113538000Y-79044155D01*
X113767890Y-79165476D01*
X114177924Y-78995645D01*
X114606183Y-78605358D01*
X114673298Y-78462447D01*
X114900946Y-78803147D01*
X115382715Y-79125054D01*
X115951000Y-79238093D01*
X116519285Y-79125054D01*
X117001054Y-78803147D01*
X117221000Y-78473974D01*
X117440946Y-78803147D01*
X117602000Y-78910760D01*
X117602000Y-81363240D01*
X117440946Y-81470853D01*
X117221000Y-81800026D01*
X117001054Y-81470853D01*
X116519285Y-81148946D01*
X115951000Y-81035907D01*
X115382715Y-81148946D01*
X114900946Y-81470853D01*
X114673298Y-81811553D01*
X114606183Y-81668642D01*
X114177924Y-81278355D01*
X113767890Y-81108524D01*
X113538000Y-81229845D01*
X113538000Y-82423000D01*
X113558000Y-82423000D01*
X113558000Y-82677000D01*
X113538000Y-82677000D01*
X113538000Y-83870155D01*
X113767890Y-83991476D01*
X114177924Y-83821645D01*
X114606183Y-83431358D01*
X114673298Y-83288447D01*
X114900946Y-83629147D01*
X115382715Y-83951054D01*
X115951000Y-84064093D01*
X116519285Y-83951054D01*
X117001054Y-83629147D01*
X117221000Y-83299974D01*
X117440946Y-83629147D01*
X117602000Y-83736760D01*
X117602000Y-85808240D01*
X117440946Y-85915853D01*
X117221000Y-86245026D01*
X117001054Y-85915853D01*
X116519285Y-85593946D01*
X115951000Y-85480907D01*
X115382715Y-85593946D01*
X114900946Y-85915853D01*
X114673298Y-86256553D01*
X114606183Y-86113642D01*
X114177924Y-85723355D01*
X113767890Y-85553524D01*
X113538000Y-85674845D01*
X113538000Y-86868000D01*
X113558000Y-86868000D01*
X113558000Y-87122000D01*
X113538000Y-87122000D01*
X113538000Y-87142000D01*
X113284000Y-87142000D01*
X113284000Y-87122000D01*
X113264000Y-87122000D01*
X113264000Y-86868000D01*
X113284000Y-86868000D01*
X113284000Y-85674845D01*
X113054110Y-85553524D01*
X112644076Y-85723355D01*
X112217200Y-86112382D01*
X112217200Y-83432618D01*
X112644076Y-83821645D01*
X113054110Y-83991476D01*
X113284000Y-83870155D01*
X113284000Y-82677000D01*
X113264000Y-82677000D01*
X113264000Y-82423000D01*
X113284000Y-82423000D01*
X113284000Y-81229845D01*
X113054110Y-81108524D01*
X112644076Y-81278355D01*
X112217200Y-81667382D01*
X112217200Y-81119194D01*
X112394865Y-80941529D01*
X112516920Y-80891097D01*
X112767218Y-80641236D01*
X112902846Y-80314609D01*
X112903154Y-79960943D01*
X112768097Y-79634080D01*
X112518236Y-79383782D01*
X112191609Y-79248154D01*
X111837943Y-79247846D01*
X111511080Y-79382903D01*
X111260782Y-79632764D01*
X111209612Y-79755994D01*
X110786303Y-80179303D01*
X110604604Y-80451234D01*
X110566389Y-80643355D01*
X110540800Y-80772000D01*
X110540800Y-89301152D01*
X110482097Y-89159080D01*
X110232236Y-88908782D01*
X109905609Y-88773154D01*
X109728695Y-88773000D01*
X109728111Y-88772884D01*
X109728154Y-88723943D01*
X109626400Y-88477679D01*
X109626400Y-87630000D01*
X109601001Y-87502311D01*
X109601154Y-87326943D01*
X109466097Y-87000080D01*
X109216236Y-86749782D01*
X108889609Y-86614154D01*
X108535943Y-86613846D01*
X108209080Y-86748903D01*
X107958782Y-86998764D01*
X107823154Y-87325391D01*
X107822846Y-87679057D01*
X107957903Y-88005920D01*
X108051600Y-88099781D01*
X108051600Y-88478083D01*
X107950154Y-88722391D01*
X107950132Y-88747600D01*
X104720152Y-88747600D01*
X99997776Y-84025224D01*
X99742325Y-83854537D01*
X99441000Y-83794600D01*
X98171000Y-83794600D01*
X97869675Y-83854537D01*
X97614224Y-84025224D01*
X94132400Y-87507048D01*
X94132400Y-82368154D01*
X94536776Y-81963778D01*
X94536780Y-81963772D01*
X97307842Y-79192710D01*
X97536000Y-79238093D01*
X98104285Y-79125054D01*
X98586054Y-78803147D01*
X98806000Y-78473974D01*
X99025946Y-78803147D01*
X99507715Y-79125054D01*
X100076000Y-79238093D01*
X100644285Y-79125054D01*
X101126054Y-78803147D01*
X101397165Y-78397401D01*
X103094255Y-80094491D01*
X103060687Y-80175332D01*
X103060313Y-80604784D01*
X103224311Y-81001689D01*
X103527714Y-81305622D01*
X103924332Y-81470313D01*
X104353784Y-81470687D01*
X104750689Y-81306689D01*
X105054622Y-81003286D01*
X105219313Y-80606668D01*
X105219687Y-80177216D01*
X105055689Y-79780311D01*
X104996850Y-79721369D01*
X104961330Y-79542795D01*
X104768618Y-79254382D01*
X104735676Y-79221440D01*
X106006000Y-79221440D01*
X106241317Y-79177162D01*
X106457441Y-79038090D01*
X106602431Y-78825890D01*
X106624301Y-78717893D01*
X106929076Y-78995645D01*
X107339110Y-79165476D01*
X107569000Y-79044155D01*
X107569000Y-77851000D01*
X107823000Y-77851000D01*
X107823000Y-79044155D01*
X108052890Y-79165476D01*
X108462924Y-78995645D01*
X108891183Y-78605358D01*
X109137486Y-78080892D01*
X111969514Y-78080892D01*
X112215817Y-78605358D01*
X112644076Y-78995645D01*
X113054110Y-79165476D01*
X113284000Y-79044155D01*
X113284000Y-77851000D01*
X112090181Y-77851000D01*
X111969514Y-78080892D01*
X109137486Y-78080892D01*
X109016819Y-77851000D01*
X107823000Y-77851000D01*
X107569000Y-77851000D01*
X107549000Y-77851000D01*
X107549000Y-77597000D01*
X107569000Y-77597000D01*
X107569000Y-77577000D01*
X107823000Y-77577000D01*
X107823000Y-77597000D01*
X109016819Y-77597000D01*
X109137486Y-77367108D01*
X109006879Y-77089000D01*
X112100121Y-77089000D01*
X111969514Y-77367108D01*
X111969514Y-77367108D01*
G37*
X111969514Y-77367108D02*
X112090181Y-77597000D01*
X113284000Y-77597000D01*
X113284000Y-77577000D01*
X113538000Y-77577000D01*
X113538000Y-77597000D01*
X113558000Y-77597000D01*
X113558000Y-77851000D01*
X113538000Y-77851000D01*
X113538000Y-79044155D01*
X113767890Y-79165476D01*
X114177924Y-78995645D01*
X114606183Y-78605358D01*
X114673298Y-78462447D01*
X114900946Y-78803147D01*
X115382715Y-79125054D01*
X115951000Y-79238093D01*
X116519285Y-79125054D01*
X117001054Y-78803147D01*
X117221000Y-78473974D01*
X117440946Y-78803147D01*
X117602000Y-78910760D01*
X117602000Y-81363240D01*
X117440946Y-81470853D01*
X117221000Y-81800026D01*
X117001054Y-81470853D01*
X116519285Y-81148946D01*
X115951000Y-81035907D01*
X115382715Y-81148946D01*
X114900946Y-81470853D01*
X114673298Y-81811553D01*
X114606183Y-81668642D01*
X114177924Y-81278355D01*
X113767890Y-81108524D01*
X113538000Y-81229845D01*
X113538000Y-82423000D01*
X113558000Y-82423000D01*
X113558000Y-82677000D01*
X113538000Y-82677000D01*
X113538000Y-83870155D01*
X113767890Y-83991476D01*
X114177924Y-83821645D01*
X114606183Y-83431358D01*
X114673298Y-83288447D01*
X114900946Y-83629147D01*
X115382715Y-83951054D01*
X115951000Y-84064093D01*
X116519285Y-83951054D01*
X117001054Y-83629147D01*
X117221000Y-83299974D01*
X117440946Y-83629147D01*
X117602000Y-83736760D01*
X117602000Y-85808240D01*
X117440946Y-85915853D01*
X117221000Y-86245026D01*
X117001054Y-85915853D01*
X116519285Y-85593946D01*
X115951000Y-85480907D01*
X115382715Y-85593946D01*
X114900946Y-85915853D01*
X114673298Y-86256553D01*
X114606183Y-86113642D01*
X114177924Y-85723355D01*
X113767890Y-85553524D01*
X113538000Y-85674845D01*
X113538000Y-86868000D01*
X113558000Y-86868000D01*
X113558000Y-87122000D01*
X113538000Y-87122000D01*
X113538000Y-87142000D01*
X113284000Y-87142000D01*
X113284000Y-87122000D01*
X113264000Y-87122000D01*
X113264000Y-86868000D01*
X113284000Y-86868000D01*
X113284000Y-85674845D01*
X113054110Y-85553524D01*
X112644076Y-85723355D01*
X112217200Y-86112382D01*
X112217200Y-83432618D01*
X112644076Y-83821645D01*
X113054110Y-83991476D01*
X113284000Y-83870155D01*
X113284000Y-82677000D01*
X113264000Y-82677000D01*
X113264000Y-82423000D01*
X113284000Y-82423000D01*
X113284000Y-81229845D01*
X113054110Y-81108524D01*
X112644076Y-81278355D01*
X112217200Y-81667382D01*
X112217200Y-81119194D01*
X112394865Y-80941529D01*
X112516920Y-80891097D01*
X112767218Y-80641236D01*
X112902846Y-80314609D01*
X112903154Y-79960943D01*
X112768097Y-79634080D01*
X112518236Y-79383782D01*
X112191609Y-79248154D01*
X111837943Y-79247846D01*
X111511080Y-79382903D01*
X111260782Y-79632764D01*
X111209612Y-79755994D01*
X110786303Y-80179303D01*
X110604604Y-80451234D01*
X110566389Y-80643355D01*
X110540800Y-80772000D01*
X110540800Y-89301152D01*
X110482097Y-89159080D01*
X110232236Y-88908782D01*
X109905609Y-88773154D01*
X109728695Y-88773000D01*
X109728111Y-88772884D01*
X109728154Y-88723943D01*
X109626400Y-88477679D01*
X109626400Y-87630000D01*
X109601001Y-87502311D01*
X109601154Y-87326943D01*
X109466097Y-87000080D01*
X109216236Y-86749782D01*
X108889609Y-86614154D01*
X108535943Y-86613846D01*
X108209080Y-86748903D01*
X107958782Y-86998764D01*
X107823154Y-87325391D01*
X107822846Y-87679057D01*
X107957903Y-88005920D01*
X108051600Y-88099781D01*
X108051600Y-88478083D01*
X107950154Y-88722391D01*
X107950132Y-88747600D01*
X104720152Y-88747600D01*
X99997776Y-84025224D01*
X99742325Y-83854537D01*
X99441000Y-83794600D01*
X98171000Y-83794600D01*
X97869675Y-83854537D01*
X97614224Y-84025224D01*
X94132400Y-87507048D01*
X94132400Y-82368154D01*
X94536776Y-81963778D01*
X94536780Y-81963772D01*
X97307842Y-79192710D01*
X97536000Y-79238093D01*
X98104285Y-79125054D01*
X98586054Y-78803147D01*
X98806000Y-78473974D01*
X99025946Y-78803147D01*
X99507715Y-79125054D01*
X100076000Y-79238093D01*
X100644285Y-79125054D01*
X101126054Y-78803147D01*
X101397165Y-78397401D01*
X103094255Y-80094491D01*
X103060687Y-80175332D01*
X103060313Y-80604784D01*
X103224311Y-81001689D01*
X103527714Y-81305622D01*
X103924332Y-81470313D01*
X104353784Y-81470687D01*
X104750689Y-81306689D01*
X105054622Y-81003286D01*
X105219313Y-80606668D01*
X105219687Y-80177216D01*
X105055689Y-79780311D01*
X104996850Y-79721369D01*
X104961330Y-79542795D01*
X104768618Y-79254382D01*
X104735676Y-79221440D01*
X106006000Y-79221440D01*
X106241317Y-79177162D01*
X106457441Y-79038090D01*
X106602431Y-78825890D01*
X106624301Y-78717893D01*
X106929076Y-78995645D01*
X107339110Y-79165476D01*
X107569000Y-79044155D01*
X107569000Y-77851000D01*
X107823000Y-77851000D01*
X107823000Y-79044155D01*
X108052890Y-79165476D01*
X108462924Y-78995645D01*
X108891183Y-78605358D01*
X109137486Y-78080892D01*
X111969514Y-78080892D01*
X112215817Y-78605358D01*
X112644076Y-78995645D01*
X113054110Y-79165476D01*
X113284000Y-79044155D01*
X113284000Y-77851000D01*
X112090181Y-77851000D01*
X111969514Y-78080892D01*
X109137486Y-78080892D01*
X109016819Y-77851000D01*
X107823000Y-77851000D01*
X107569000Y-77851000D01*
X107549000Y-77851000D01*
X107549000Y-77597000D01*
X107569000Y-77597000D01*
X107569000Y-77577000D01*
X107823000Y-77577000D01*
X107823000Y-77597000D01*
X109016819Y-77597000D01*
X109137486Y-77367108D01*
X109006879Y-77089000D01*
X112100121Y-77089000D01*
X111969514Y-77367108D01*
G36*
X141351000Y-77089000D02*
X141371000Y-77089000D01*
X141371000Y-77343000D01*
X141351000Y-77343000D01*
X141351000Y-78542250D01*
X141509750Y-78701000D01*
X142200310Y-78701000D01*
X142292000Y-78663021D01*
X142292000Y-81303680D01*
X142165183Y-81033642D01*
X141736924Y-80643355D01*
X141326890Y-80473524D01*
X141097000Y-80594845D01*
X141097000Y-81788000D01*
X141117000Y-81788000D01*
X141117000Y-82042000D01*
X141097000Y-82042000D01*
X141097000Y-83235155D01*
X141326890Y-83356476D01*
X141736924Y-83186645D01*
X142165183Y-82796358D01*
X142292000Y-82526320D01*
X142292000Y-85578851D01*
X142284090Y-85566559D01*
X142071890Y-85421569D01*
X141859000Y-85378458D01*
X141859000Y-85344000D01*
X141791329Y-85003794D01*
X141598618Y-84715382D01*
X139639201Y-82755965D01*
X139707702Y-82653447D01*
X139774817Y-82796358D01*
X140203076Y-83186645D01*
X140613110Y-83356476D01*
X140843000Y-83235155D01*
X140843000Y-82042000D01*
X140823000Y-82042000D01*
X140823000Y-81788000D01*
X140843000Y-81788000D01*
X140843000Y-80594845D01*
X140613110Y-80473524D01*
X140203076Y-80643355D01*
X139774817Y-81033642D01*
X139707702Y-81176553D01*
X139573000Y-80974957D01*
X139573000Y-78402760D01*
X139734054Y-78295147D01*
X139763403Y-78251223D01*
X139835673Y-78425698D01*
X140014301Y-78604327D01*
X140247690Y-78701000D01*
X140938250Y-78701000D01*
X141097000Y-78542250D01*
X141097000Y-77343000D01*
X141077000Y-77343000D01*
X141077000Y-77089000D01*
X141097000Y-77089000D01*
X141097000Y-77069000D01*
X141351000Y-77069000D01*
X141351000Y-77089000D01*
X141351000Y-77089000D01*
G37*
X141351000Y-77089000D02*
X141371000Y-77089000D01*
X141371000Y-77343000D01*
X141351000Y-77343000D01*
X141351000Y-78542250D01*
X141509750Y-78701000D01*
X142200310Y-78701000D01*
X142292000Y-78663021D01*
X142292000Y-81303680D01*
X142165183Y-81033642D01*
X141736924Y-80643355D01*
X141326890Y-80473524D01*
X141097000Y-80594845D01*
X141097000Y-81788000D01*
X141117000Y-81788000D01*
X141117000Y-82042000D01*
X141097000Y-82042000D01*
X141097000Y-83235155D01*
X141326890Y-83356476D01*
X141736924Y-83186645D01*
X142165183Y-82796358D01*
X142292000Y-82526320D01*
X142292000Y-85578851D01*
X142284090Y-85566559D01*
X142071890Y-85421569D01*
X141859000Y-85378458D01*
X141859000Y-85344000D01*
X141791329Y-85003794D01*
X141598618Y-84715382D01*
X139639201Y-82755965D01*
X139707702Y-82653447D01*
X139774817Y-82796358D01*
X140203076Y-83186645D01*
X140613110Y-83356476D01*
X140843000Y-83235155D01*
X140843000Y-82042000D01*
X140823000Y-82042000D01*
X140823000Y-81788000D01*
X140843000Y-81788000D01*
X140843000Y-80594845D01*
X140613110Y-80473524D01*
X140203076Y-80643355D01*
X139774817Y-81033642D01*
X139707702Y-81176553D01*
X139573000Y-80974957D01*
X139573000Y-78402760D01*
X139734054Y-78295147D01*
X139763403Y-78251223D01*
X139835673Y-78425698D01*
X140014301Y-78604327D01*
X140247690Y-78701000D01*
X140938250Y-78701000D01*
X141097000Y-78542250D01*
X141097000Y-77343000D01*
X141077000Y-77343000D01*
X141077000Y-77089000D01*
X141097000Y-77089000D01*
X141097000Y-77069000D01*
X141351000Y-77069000D01*
X141351000Y-77089000D01*
M02*
