M48
;DRILL file {KiCad 4.0.2+dfsg1-stable} date Mon Nov  6 16:18:15 2017
;FORMAT={-:-/ absolute / metric / decimal}
FMAT,2
METRIC,TZ
T1C0.381
T2C0.500
T3C0.550
T4C0.610
T5C0.660
T6C0.711
T7C0.800
T8C1.000
T9C1.001
T10C1.016
T11C1.100
%
G90
G05
M71
T1
X80.264Y-88.9
X80.772Y-86.614
X81.153Y-89.789
X82.042Y-85.217
X87.884Y-86.614
X88.646Y-95.123
X89.408Y-91.821
X91.313Y-105.156
X92.583Y-93.726
X93.345Y-90.424
X103.886Y-95.123
X103.886Y-96.52
X104.267Y-98.171
X105.664Y-93.98
X108.712Y-87.503
X108.839Y-88.9
X108.966Y-98.679
X109.029Y-94.361
X109.474Y-93.599
X109.601Y-96.266
X109.728Y-89.662
X110.49Y-90.551
X110.49Y-99.314
X111.379Y-98.489
X111.887Y-93.599
X112.014Y-80.137
X112.395Y-98.171
X112.776Y-89.154
X112.966Y-96.71
X113.03Y-90.424
X114.49Y-96.012
X114.681Y-95.25
X120.142Y-110.109
X122.301Y-113.03
X123.888Y-104.076
X124.333Y-116.332
X124.777Y-107.124
X125.095Y-104.013
X125.73Y-106.997
X127.825Y-110.299
X129.54Y-92.329
X129.603Y-110.426
X129.879Y-91.652
X131.191Y-101.6
X135.001Y-101.473
T4
X85.852Y-85.471
X85.852Y-87.884
X93.091Y-105.791
X95.186Y-81.661
X96.393Y-109.601
X96.901Y-101.727
X100.203Y-101.727
X104.14Y-80.391
X112.395Y-108.712
X122.491Y-99.631
X123.317Y-102.489
X138.112Y-99.314
T5
X113.665Y-107.95
X133.477Y-110.236
X137.033Y-126.238
X140.97Y-110.236
T6
X101.854Y-108.585
X136.017Y-117.094
T7
X98.933Y-87.503
X98.933Y-92.383
T8
X87.376Y-77.724
X89.916Y-77.724
X92.456Y-77.724
X94.996Y-77.724
X97.536Y-77.724
X100.076Y-77.724
X105.156Y-77.724
X107.696Y-77.724
X109.728Y-105.41
X112.268Y-105.41
X113.411Y-77.724
X113.411Y-82.55
X113.411Y-86.995
X114.808Y-105.41
X115.951Y-77.724
X115.951Y-82.55
X115.951Y-86.995
X117.348Y-105.41
X118.491Y-77.724
X118.491Y-82.55
X118.491Y-86.995
X119.888Y-117.475
X119.888Y-120.015
X119.888Y-122.555
X119.888Y-125.095
X121.031Y-77.724
X121.031Y-82.55
X121.031Y-86.995
X122.428Y-117.475
X122.428Y-120.015
X122.428Y-122.555
X122.428Y-125.095
X126.111Y-80.518
X126.111Y-83.058
X126.111Y-85.598
X126.111Y-88.138
X127.127Y-94.996
X127.127Y-97.536
X128.524Y-77.216
X130.81Y-96.393
X131.064Y-77.216
X133.223Y-92.202
X133.35Y-81.915
X133.35Y-86.868
X133.35Y-96.393
X133.604Y-77.216
X135.763Y-92.202
X135.89Y-81.915
X135.89Y-86.868
X135.89Y-96.393
X136.144Y-77.216
X138.303Y-92.202
X138.43Y-81.915
X138.43Y-86.868
X138.43Y-96.393
X138.684Y-77.216
X140.843Y-92.202
X140.97Y-81.915
X140.97Y-86.868
X140.97Y-96.393
X141.224Y-77.216
T9
X76.136Y-108.95
X76.136Y-126.
X115.633Y-108.902
X115.633Y-126.047
T10
X127.254Y-103.632
X127.254Y-106.172
X129.794Y-103.632
X129.794Y-106.172
X132.334Y-103.632
X132.334Y-106.172
X134.874Y-103.632
X134.874Y-106.172
X137.414Y-103.632
X137.414Y-106.172
T11
X76.327Y-76.962
X76.327Y-81.462
X82.827Y-76.962
X82.827Y-81.462
T2
X75.922Y-86.035G85X76.572Y-86.035
G05
X75.922Y-93.035G85X76.572Y-93.035
G05
T3
X78.947Y-86.885G85X78.947Y-87.185
G05
X78.947Y-91.885G85X78.947Y-92.185
G05
T8
X78.836Y-99.457G85X78.836Y-101.457
G05
X80.836Y-105.157G85X82.836Y-105.157
G05
X84.836Y-99.457G85X84.836Y-101.457
G05
T0
M30
