G04 #@! TF.FileFunction,Copper,L1,Top,Signal*
%FSLAX46Y46*%
G04 Gerber Fmt 4.6, Leading zero omitted, Abs format (unit mm)*
G04 Created by KiCad (PCBNEW 4.0.2+dfsg1-stable) date Mon Nov  6 16:18:01 2017*
%MOMM*%
G01*
G04 APERTURE LIST*
%ADD10C,0.100000*%
%ADD11R,1.998980X1.998980*%
%ADD12R,1.700000X1.700000*%
%ADD13O,1.700000X1.700000*%
%ADD14R,1.750000X0.450000*%
%ADD15R,1.000000X1.250000*%
%ADD16R,1.250000X1.000000*%
%ADD17R,1.727200X1.727200*%
%ADD18O,1.727200X1.727200*%
%ADD19R,0.800000X3.000000*%
%ADD20R,1.300000X0.700000*%
%ADD21R,0.700000X1.300000*%
%ADD22R,3.800000X2.000000*%
%ADD23R,1.500000X2.000000*%
%ADD24R,1.600000X0.550000*%
%ADD25R,0.550000X1.600000*%
%ADD26C,1.500000*%
%ADD27R,1.200000X1.200000*%
%ADD28R,1.100000X1.100000*%
%ADD29R,3.500000X3.500000*%
%ADD30R,1.350000X0.400000*%
%ADD31O,0.950000X1.250000*%
%ADD32O,1.550000X1.000000*%
%ADD33C,2.000000*%
%ADD34C,0.508000*%
%ADD35C,0.889000*%
%ADD36C,0.914400*%
%ADD37C,0.812800*%
%ADD38C,0.406400*%
%ADD39C,0.762000*%
%ADD40C,0.600000*%
%ADD41C,0.609600*%
%ADD42C,0.508000*%
%ADD43C,1.016000*%
%ADD44C,0.304800*%
%ADD45C,0.254000*%
G04 APERTURE END LIST*
D10*
D11*
X76136500Y-108950000D03*
X76136500Y-126000000D03*
X115633500Y-108902500D03*
X115633500Y-126047500D03*
D12*
X127127000Y-94996000D03*
D13*
X127127000Y-97536000D03*
D14*
X90849000Y-93760000D03*
X90849000Y-93110000D03*
X90849000Y-92460000D03*
X90849000Y-91810000D03*
X90849000Y-91160000D03*
X90849000Y-90510000D03*
X90849000Y-89860000D03*
X90849000Y-89210000D03*
X90849000Y-88560000D03*
X90849000Y-87910000D03*
X90849000Y-87260000D03*
X90849000Y-86610000D03*
X90849000Y-85960000D03*
X90849000Y-85310000D03*
X83649000Y-85310000D03*
X83649000Y-85960000D03*
X83649000Y-86610000D03*
X83649000Y-87260000D03*
X83649000Y-87910000D03*
X83649000Y-88560000D03*
X83649000Y-89210000D03*
X83649000Y-89860000D03*
X83649000Y-90510000D03*
X83649000Y-91160000D03*
X83649000Y-91810000D03*
X83649000Y-92460000D03*
X83649000Y-93110000D03*
X83649000Y-93760000D03*
D15*
X85868000Y-81915000D03*
X87868000Y-81915000D03*
D16*
X90297000Y-83042000D03*
X90297000Y-81042000D03*
X103124000Y-90281000D03*
X103124000Y-88281000D03*
D15*
X121777000Y-95631000D03*
X119777000Y-95631000D03*
X119904000Y-97917000D03*
X121904000Y-97917000D03*
X102886000Y-96520000D03*
X104886000Y-96520000D03*
X103013000Y-99822000D03*
X105013000Y-99822000D03*
D17*
X127254000Y-106172000D03*
D18*
X127254000Y-103632000D03*
X129794000Y-106172000D03*
X129794000Y-103632000D03*
X132334000Y-106172000D03*
X132334000Y-103632000D03*
X134874000Y-106172000D03*
X134874000Y-103632000D03*
X137414000Y-106172000D03*
X137414000Y-103632000D03*
D12*
X87376000Y-77724000D03*
D13*
X89916000Y-77724000D03*
X92456000Y-77724000D03*
X94996000Y-77724000D03*
X97536000Y-77724000D03*
X100076000Y-77724000D03*
D12*
X117348000Y-105410000D03*
D13*
X114808000Y-105410000D03*
X112268000Y-105410000D03*
X109728000Y-105410000D03*
D19*
X141097000Y-113157000D03*
X139827000Y-113157000D03*
X138557000Y-113157000D03*
X137287000Y-113157000D03*
X136017000Y-113157000D03*
X134747000Y-113157000D03*
X133477000Y-113157000D03*
X132207000Y-113157000D03*
X130937000Y-113157000D03*
X129667000Y-113157000D03*
X128397000Y-113157000D03*
X127127000Y-113157000D03*
D12*
X126111000Y-80518000D03*
D13*
X126111000Y-83058000D03*
X126111000Y-85598000D03*
X126111000Y-88138000D03*
D12*
X121031000Y-77724000D03*
D13*
X118491000Y-77724000D03*
X115951000Y-77724000D03*
X113411000Y-77724000D03*
D12*
X105156000Y-77724000D03*
D13*
X107696000Y-77724000D03*
D12*
X121031000Y-86995000D03*
D13*
X118491000Y-86995000D03*
X115951000Y-86995000D03*
X113411000Y-86995000D03*
D12*
X119888000Y-117475000D03*
D13*
X122428000Y-117475000D03*
X119888000Y-120015000D03*
X122428000Y-120015000D03*
X119888000Y-122555000D03*
X122428000Y-122555000D03*
X119888000Y-125095000D03*
X122428000Y-125095000D03*
D12*
X121031000Y-82550000D03*
D13*
X118491000Y-82550000D03*
X115951000Y-82550000D03*
X113411000Y-82550000D03*
D12*
X140843000Y-92202000D03*
D13*
X138303000Y-92202000D03*
X135763000Y-92202000D03*
X133223000Y-92202000D03*
D20*
X92329000Y-102174000D03*
X92329000Y-104074000D03*
X103124000Y-93914000D03*
X103124000Y-92014000D03*
D21*
X105095000Y-103632000D03*
X106995000Y-103632000D03*
X105095000Y-106172000D03*
X106995000Y-106172000D03*
X104206000Y-82042000D03*
X106106000Y-82042000D03*
D20*
X123825000Y-93284000D03*
X123825000Y-95184000D03*
D21*
X88077000Y-101854000D03*
X89977000Y-101854000D03*
X89977000Y-99568000D03*
X88077000Y-99568000D03*
D22*
X98298000Y-97688000D03*
D23*
X98298000Y-103988000D03*
X100598000Y-103988000D03*
X95998000Y-103988000D03*
D24*
X107510000Y-93593000D03*
X107510000Y-94393000D03*
X107510000Y-95193000D03*
X107510000Y-95993000D03*
X107510000Y-96793000D03*
X107510000Y-97593000D03*
X107510000Y-98393000D03*
X107510000Y-99193000D03*
D25*
X108960000Y-100643000D03*
X109760000Y-100643000D03*
X110560000Y-100643000D03*
X111360000Y-100643000D03*
X112160000Y-100643000D03*
X112960000Y-100643000D03*
X113760000Y-100643000D03*
X114560000Y-100643000D03*
D24*
X116010000Y-99193000D03*
X116010000Y-98393000D03*
X116010000Y-97593000D03*
X116010000Y-96793000D03*
X116010000Y-95993000D03*
X116010000Y-95193000D03*
X116010000Y-94393000D03*
X116010000Y-93593000D03*
D25*
X114560000Y-92143000D03*
X113760000Y-92143000D03*
X112960000Y-92143000D03*
X112160000Y-92143000D03*
X111360000Y-92143000D03*
X110560000Y-92143000D03*
X109760000Y-92143000D03*
X108960000Y-92143000D03*
D26*
X98933000Y-87503000D03*
X98933000Y-92383000D03*
D27*
X92329000Y-99779000D03*
X92329000Y-97579000D03*
D28*
X118999000Y-111503000D03*
X118999000Y-114303000D03*
D29*
X84836000Y-100457000D03*
X78836000Y-100457000D03*
X81836000Y-105157000D03*
D30*
X78947000Y-88235000D03*
X78947000Y-88885000D03*
X78947000Y-89535000D03*
X78947000Y-90185000D03*
X78947000Y-90835000D03*
D31*
X78947000Y-87035000D03*
X78947000Y-92035000D03*
D32*
X76247000Y-86035000D03*
X76247000Y-93035000D03*
D12*
X133350000Y-81915000D03*
D13*
X135890000Y-81915000D03*
X138430000Y-81915000D03*
X140970000Y-81915000D03*
D12*
X140970000Y-86868000D03*
D13*
X138430000Y-86868000D03*
X135890000Y-86868000D03*
X133350000Y-86868000D03*
D33*
X76327000Y-81462000D03*
X76327000Y-76962000D03*
X82827000Y-81462000D03*
X82827000Y-76962000D03*
D28*
X90173000Y-105156000D03*
X87373000Y-105156000D03*
D12*
X141224000Y-77216000D03*
D13*
X138684000Y-77216000D03*
X136144000Y-77216000D03*
X133604000Y-77216000D03*
X131064000Y-77216000D03*
X128524000Y-77216000D03*
D12*
X140970000Y-96393000D03*
D13*
X138430000Y-96393000D03*
X135890000Y-96393000D03*
X133350000Y-96393000D03*
X130810000Y-96393000D03*
D34*
X88646000Y-95123000D03*
D35*
X85852000Y-87884000D03*
X85852000Y-85471000D03*
X93091000Y-105791000D03*
D36*
X101854000Y-108585000D03*
D35*
X95186500Y-81661000D03*
D34*
X114490500Y-96012000D03*
X112966500Y-96710500D03*
D35*
X138112500Y-99314000D03*
D34*
X103886000Y-96520000D03*
X105664000Y-93980000D03*
D37*
X137033000Y-126238000D03*
X140970000Y-110236000D03*
D35*
X112395000Y-108712000D03*
X96901000Y-101727000D03*
X100203000Y-101727000D03*
D34*
X87884000Y-86614000D03*
X89408000Y-91821000D03*
D35*
X123317000Y-102489000D03*
X122491500Y-99631500D03*
X96393000Y-109601000D03*
D34*
X110490000Y-99314000D03*
X108966000Y-98679000D03*
X109601000Y-96266000D03*
X103886000Y-95123000D03*
X104267000Y-98171000D03*
D37*
X133477000Y-110236000D03*
D34*
X131191000Y-101600000D03*
X135001000Y-101473000D03*
D37*
X113665000Y-107950000D03*
D35*
X104140000Y-80391000D03*
D36*
X136017000Y-117094000D03*
D34*
X110490000Y-90551000D03*
X92583000Y-93726000D03*
X109728000Y-89662000D03*
X93345000Y-90424000D03*
X80772000Y-86614000D03*
X80264000Y-88900000D03*
X82042000Y-85217000D03*
X81153000Y-89789000D03*
X112776000Y-89154000D03*
X113030000Y-90424000D03*
X124333000Y-116332000D03*
X122301000Y-113030000D03*
X129879288Y-91652288D03*
X109474000Y-93599000D03*
X129603500Y-110426500D03*
X125730000Y-106997500D03*
X125095000Y-104013000D03*
X109029500Y-94361000D03*
X129540000Y-92329000D03*
X123888500Y-104076500D03*
X124777500Y-107124500D03*
X127825500Y-110299500D03*
X112014000Y-80137000D03*
X111887000Y-93599000D03*
X108839000Y-88900000D03*
X108712000Y-87503000D03*
X120142000Y-110109000D03*
X112395000Y-98171000D03*
X111379000Y-98488500D03*
X114681000Y-95250000D03*
X91313000Y-105156000D03*
D38*
X91059000Y-102804000D02*
X92329000Y-104074000D01*
X91059000Y-97536000D02*
X91059000Y-102804000D01*
X88646000Y-95123000D02*
X91059000Y-97536000D01*
X91882000Y-104074000D02*
X92329000Y-104074000D01*
X85176000Y-88560000D02*
X83649000Y-88560000D01*
X85868000Y-81915000D02*
X85868000Y-85455000D01*
X85852000Y-87884000D02*
X85176000Y-88560000D01*
X85868000Y-85455000D02*
X85852000Y-85471000D01*
D39*
X92329000Y-104074000D02*
X92329000Y-105029000D01*
X92329000Y-105029000D02*
X93091000Y-105791000D01*
X100598000Y-103988000D02*
X100598000Y-107329000D01*
X100598000Y-107329000D02*
X101854000Y-108585000D01*
D38*
X78947000Y-88235000D02*
X81758000Y-88235000D01*
X82083000Y-88560000D02*
X83649000Y-88560000D01*
X81758000Y-88235000D02*
X82083000Y-88560000D01*
D40*
X118999000Y-111503000D02*
X118999000Y-109855000D01*
X118046500Y-108902500D02*
X115633500Y-108902500D01*
X118999000Y-109855000D02*
X118046500Y-108902500D01*
D39*
X90297000Y-81042000D02*
X94567500Y-81042000D01*
X94567500Y-81042000D02*
X95186500Y-81661000D01*
D38*
X108331000Y-96793000D02*
X108902602Y-96793000D01*
X114509500Y-95993000D02*
X116010000Y-95993000D01*
X114490500Y-96012000D02*
X114509500Y-95993000D01*
X110807500Y-96710500D02*
X112966500Y-96710500D01*
X110534602Y-96983398D02*
X110807500Y-96710500D01*
X109093000Y-96983398D02*
X110534602Y-96983398D01*
X108902602Y-96793000D02*
X109093000Y-96983398D01*
X107510000Y-95193000D02*
X108655000Y-95193000D01*
X108655000Y-95193000D02*
X108839000Y-95377000D01*
D41*
X130810000Y-96393000D02*
X131191000Y-96393000D01*
X131191000Y-96393000D02*
X134112000Y-99314000D01*
X134112000Y-99314000D02*
X138112500Y-99314000D01*
D38*
X107510000Y-95193000D02*
X106651266Y-95193000D01*
X103886000Y-96520000D02*
X102886000Y-96520000D01*
X105664000Y-94205734D02*
X105664000Y-93980000D01*
X106651266Y-95193000D02*
X105664000Y-94205734D01*
X108839000Y-96558000D02*
X108604000Y-96793000D01*
X108839000Y-95377000D02*
X108839000Y-96558000D01*
X108655000Y-95193000D02*
X108839000Y-95377000D01*
X108604000Y-96793000D02*
X108331000Y-96793000D01*
X108331000Y-96793000D02*
X107510000Y-96793000D01*
X116010000Y-95993000D02*
X117621000Y-95993000D01*
X121777000Y-94599000D02*
X121777000Y-95631000D01*
X121666000Y-94488000D02*
X121777000Y-94599000D01*
X119126000Y-94488000D02*
X121666000Y-94488000D01*
X117621000Y-95993000D02*
X119126000Y-94488000D01*
D41*
X141097000Y-113157000D02*
X141097000Y-122682000D01*
X137541000Y-126238000D02*
X137033000Y-126238000D01*
X141097000Y-122682000D02*
X137541000Y-126238000D01*
X130810000Y-96393000D02*
X130810000Y-98171000D01*
X123317000Y-97917000D02*
X121904000Y-97917000D01*
X125476000Y-100076000D02*
X123317000Y-97917000D01*
X128905000Y-100076000D02*
X125476000Y-100076000D01*
X130810000Y-98171000D02*
X128905000Y-100076000D01*
X141097000Y-110363000D02*
X141097000Y-113157000D01*
X140970000Y-110236000D02*
X141097000Y-110363000D01*
D39*
X115633500Y-111950500D02*
X115633500Y-126047500D01*
X112395000Y-108712000D02*
X115633500Y-111950500D01*
D38*
X121777000Y-95631000D02*
X121777000Y-97790000D01*
X121777000Y-97790000D02*
X121904000Y-97917000D01*
X123825000Y-95184000D02*
X122224000Y-95184000D01*
X122224000Y-95184000D02*
X121777000Y-95631000D01*
D41*
X140970000Y-81915000D02*
X140970000Y-82550000D01*
X140970000Y-82550000D02*
X138430000Y-85090000D01*
X138430000Y-85090000D02*
X138430000Y-86868000D01*
X103013000Y-99822000D02*
X102108000Y-99822000D01*
X95998000Y-102630000D02*
X95998000Y-103988000D01*
X96901000Y-101727000D02*
X95998000Y-102630000D01*
X102108000Y-99822000D02*
X100203000Y-101727000D01*
X141224000Y-77216000D02*
X141224000Y-76962000D01*
D42*
X141224000Y-76962000D02*
X140081000Y-75819000D01*
X129921000Y-75819000D02*
X128524000Y-77216000D01*
X140081000Y-75819000D02*
X129921000Y-75819000D01*
X102886000Y-96520000D02*
X102886000Y-99695000D01*
X102886000Y-99695000D02*
X103013000Y-99822000D01*
D41*
X89916000Y-77724000D02*
X89916000Y-80280000D01*
X89916000Y-80280000D02*
X90424000Y-80788000D01*
X88011000Y-80200500D02*
X88011000Y-78359000D01*
X88011000Y-78359000D02*
X87376000Y-77724000D01*
X82827000Y-81462000D02*
X84146000Y-81462000D01*
X88011000Y-80391000D02*
X88011000Y-80200500D01*
X88011000Y-80200500D02*
X88011000Y-81772000D01*
X87757000Y-80137000D02*
X88011000Y-80391000D01*
X85471000Y-80137000D02*
X87757000Y-80137000D01*
X84146000Y-81462000D02*
X85471000Y-80137000D01*
X88011000Y-81772000D02*
X87868000Y-81915000D01*
D38*
X92329000Y-97579000D02*
X92329000Y-97409000D01*
X92329000Y-97409000D02*
X88646000Y-93726000D01*
X88646000Y-93726000D02*
X88646000Y-90551000D01*
X88646000Y-90551000D02*
X89337000Y-89860000D01*
X89337000Y-89860000D02*
X90849000Y-89860000D01*
D43*
X76136500Y-126000000D02*
X76136500Y-113601500D01*
X81836000Y-107902000D02*
X81836000Y-105157000D01*
X76136500Y-113601500D02*
X81836000Y-107902000D01*
D38*
X83649000Y-89210000D02*
X86162000Y-89210000D01*
X86812000Y-89860000D02*
X90849000Y-89860000D01*
X86162000Y-89210000D02*
X86812000Y-89860000D01*
X90424000Y-80788000D02*
X88995000Y-80788000D01*
X88995000Y-80788000D02*
X87868000Y-81915000D01*
X83649000Y-89210000D02*
X82621000Y-89210000D01*
X82296000Y-91810000D02*
X83649000Y-91810000D01*
X82296000Y-89535000D02*
X82296000Y-91810000D01*
X82621000Y-89210000D02*
X82296000Y-89535000D01*
X78947000Y-87035000D02*
X79542000Y-87035000D01*
X82539000Y-87260000D02*
X83649000Y-87260000D01*
X82296000Y-87503000D02*
X82539000Y-87260000D01*
X80010000Y-87503000D02*
X82296000Y-87503000D01*
X79542000Y-87035000D02*
X80010000Y-87503000D01*
X83649000Y-91810000D02*
X80656000Y-91810000D01*
X80431000Y-92035000D02*
X78947000Y-92035000D01*
X80656000Y-91810000D02*
X80431000Y-92035000D01*
X83649000Y-91810000D02*
X82434000Y-91810000D01*
X82554000Y-92460000D02*
X83649000Y-92460000D01*
X82423000Y-92329000D02*
X82554000Y-92460000D01*
X82423000Y-91821000D02*
X82423000Y-92329000D01*
X82434000Y-91810000D02*
X82423000Y-91821000D01*
D41*
X88077000Y-99568000D02*
X88077000Y-97983000D01*
X81884000Y-97409000D02*
X78836000Y-100457000D01*
X87503000Y-97409000D02*
X81884000Y-97409000D01*
X88077000Y-97983000D02*
X87503000Y-97409000D01*
D43*
X87373000Y-105156000D02*
X87373000Y-106042000D01*
X87373000Y-106042000D02*
X88646000Y-107315000D01*
X88646000Y-107315000D02*
X94996000Y-107315000D01*
X94996000Y-107315000D02*
X95998000Y-106313000D01*
X95998000Y-106313000D02*
X95998000Y-103988000D01*
X81836000Y-105157000D02*
X87372000Y-105157000D01*
X87372000Y-105157000D02*
X87373000Y-105156000D01*
D39*
X118999000Y-114303000D02*
X125981000Y-114303000D01*
X125981000Y-114303000D02*
X127127000Y-113157000D01*
X127000000Y-113030000D02*
X127127000Y-113157000D01*
D44*
X78947000Y-90835000D02*
X78947000Y-90185000D01*
X78947000Y-92035000D02*
X78947000Y-90835000D01*
D40*
X119888000Y-117475000D02*
X119888000Y-115192000D01*
X119888000Y-115192000D02*
X118999000Y-114303000D01*
X115633500Y-126047500D02*
X115633500Y-121729500D01*
X115633500Y-121729500D02*
X119888000Y-117475000D01*
D44*
X90849000Y-91810000D02*
X89419000Y-91810000D01*
X87376000Y-86614000D02*
X87376000Y-86610000D01*
X87380000Y-86610000D02*
X87376000Y-86614000D01*
X87880000Y-86610000D02*
X87380000Y-86610000D01*
X87884000Y-86614000D02*
X87880000Y-86610000D01*
X89419000Y-91810000D02*
X89408000Y-91821000D01*
X83649000Y-86610000D02*
X87376000Y-86610000D01*
X87376000Y-86610000D02*
X87888000Y-86610000D01*
X89535000Y-83804000D02*
X90297000Y-83042000D01*
X89535000Y-84963000D02*
X89535000Y-83804000D01*
X87888000Y-86610000D02*
X89535000Y-84963000D01*
D38*
X107510000Y-97593000D02*
X111576000Y-97593000D01*
X113760000Y-98393000D02*
X116010000Y-98393000D01*
X112776000Y-97409000D02*
X113760000Y-98393000D01*
X111760000Y-97409000D02*
X112776000Y-97409000D01*
X111576000Y-97593000D02*
X111760000Y-97409000D01*
D41*
X119904000Y-97917000D02*
X119904000Y-98441000D01*
X119904000Y-98441000D02*
X121094500Y-99631500D01*
X126428500Y-102806500D02*
X127254000Y-103632000D01*
X123634500Y-102806500D02*
X126428500Y-102806500D01*
X123317000Y-102489000D02*
X123634500Y-102806500D01*
X121094500Y-99631500D02*
X122491500Y-99631500D01*
D38*
X119904000Y-97917000D02*
X119253000Y-97917000D01*
X118777000Y-98393000D02*
X116010000Y-98393000D01*
X119253000Y-97917000D02*
X118777000Y-98393000D01*
D44*
X107510000Y-97593000D02*
X106356000Y-97593000D01*
X106445000Y-95993000D02*
X107510000Y-95993000D01*
X106045000Y-96393000D02*
X106445000Y-95993000D01*
X106045000Y-97282000D02*
X106045000Y-96393000D01*
X106356000Y-97593000D02*
X106045000Y-97282000D01*
X107510000Y-95993000D02*
X106661000Y-95993000D01*
X104582000Y-93914000D02*
X103124000Y-93914000D01*
X106661000Y-95993000D02*
X104582000Y-93914000D01*
D41*
X98298000Y-97688000D02*
X98298000Y-97409000D01*
X98298000Y-97409000D02*
X101793000Y-93914000D01*
X101793000Y-93914000D02*
X103124000Y-93914000D01*
D43*
X98298000Y-103988000D02*
X98298000Y-97688000D01*
X98298000Y-103988000D02*
X98298000Y-107696000D01*
X98298000Y-107696000D02*
X96393000Y-109601000D01*
D44*
X111360000Y-92143000D02*
X111360000Y-92983000D01*
X109601000Y-99314000D02*
X110490000Y-99314000D01*
X108966000Y-98679000D02*
X109601000Y-99314000D01*
X109601000Y-94742000D02*
X109601000Y-96266000D01*
X111360000Y-92983000D02*
X109601000Y-94742000D01*
X105283000Y-88900000D02*
X107569000Y-88900000D01*
X111506000Y-90551000D02*
X111506000Y-91997000D01*
X109220000Y-88265000D02*
X111506000Y-90551000D01*
X108204000Y-88265000D02*
X109220000Y-88265000D01*
X107569000Y-88900000D02*
X108204000Y-88265000D01*
X111506000Y-91997000D02*
X111360000Y-92143000D01*
X111252000Y-92035000D02*
X111360000Y-92143000D01*
X82827000Y-76962000D02*
X85217000Y-76962000D01*
X105283000Y-88646000D02*
X105283000Y-88900000D01*
X105283000Y-88900000D02*
X105283000Y-89027000D01*
X103124000Y-86487000D02*
X105283000Y-88646000D01*
X103124000Y-78105000D02*
X103124000Y-86487000D01*
X100965000Y-75946000D02*
X103124000Y-78105000D01*
X86233000Y-75946000D02*
X100965000Y-75946000D01*
X85217000Y-76962000D02*
X86233000Y-75946000D01*
X103124000Y-90281000D02*
X104029000Y-90281000D01*
X104029000Y-90281000D02*
X105283000Y-89027000D01*
X103124000Y-92014000D02*
X103124000Y-90281000D01*
X100076000Y-77724000D02*
X101473000Y-77724000D01*
X102362000Y-87519000D02*
X103124000Y-88281000D01*
X102362000Y-78613000D02*
X102362000Y-87519000D01*
X101473000Y-77724000D02*
X102362000Y-78613000D01*
X90849000Y-93110000D02*
X93453000Y-93110000D01*
X101870000Y-89535000D02*
X103124000Y-88281000D01*
X97028000Y-89535000D02*
X101870000Y-89535000D01*
X93453000Y-93110000D02*
X97028000Y-89535000D01*
D38*
X119777000Y-95631000D02*
X119634000Y-95631000D01*
X119634000Y-95631000D02*
X118472000Y-96793000D01*
X118472000Y-96793000D02*
X116010000Y-96793000D01*
D44*
X103886000Y-95123000D02*
X104886000Y-96123000D01*
X104886000Y-96123000D02*
X104886000Y-96520000D01*
X107510000Y-98393000D02*
X105759000Y-98393000D01*
X104886000Y-97520000D02*
X104886000Y-96520000D01*
X105759000Y-98393000D02*
X104886000Y-97520000D01*
X105013000Y-99822000D02*
X105013000Y-98917000D01*
X105013000Y-98917000D02*
X104267000Y-98171000D01*
X105013000Y-99822000D02*
X105664000Y-99822000D01*
X106293000Y-99193000D02*
X107510000Y-99193000D01*
X105664000Y-99822000D02*
X106293000Y-99193000D01*
D41*
X84836000Y-100457000D02*
X85598000Y-100457000D01*
X85598000Y-100457000D02*
X86995000Y-101854000D01*
X86995000Y-101854000D02*
X88077000Y-101854000D01*
D38*
X113760000Y-100643000D02*
X113760000Y-101593398D01*
X127254000Y-107569000D02*
X127254000Y-106172000D01*
X126682500Y-108140500D02*
X127254000Y-107569000D01*
X123698000Y-108140500D02*
X126682500Y-108140500D01*
X122910602Y-107353102D02*
X123698000Y-108140500D01*
X122910602Y-105194102D02*
X122910602Y-107353102D01*
X119761000Y-102044500D02*
X122910602Y-105194102D01*
X114211102Y-102044500D02*
X119761000Y-102044500D01*
X113760000Y-101593398D02*
X114211102Y-102044500D01*
D41*
X133477000Y-113157000D02*
X133477000Y-110236000D01*
D42*
X133477000Y-113157000D02*
X133477000Y-121412000D01*
X132334000Y-122555000D02*
X122428000Y-122555000D01*
X133477000Y-121412000D02*
X132334000Y-122555000D01*
D38*
X116010000Y-99193000D02*
X117417500Y-99193000D01*
D44*
X133604000Y-104902000D02*
X134874000Y-106172000D01*
X133604000Y-102806500D02*
X133604000Y-104902000D01*
X131635500Y-100838000D02*
X133604000Y-102806500D01*
X124460000Y-100838000D02*
X131635500Y-100838000D01*
X124206000Y-100584000D02*
X124460000Y-100838000D01*
X118808500Y-100584000D02*
X124206000Y-100584000D01*
D38*
X117417500Y-99193000D02*
X118808500Y-100584000D01*
D44*
X134620000Y-106172000D02*
X134874000Y-106172000D01*
D41*
X134874000Y-106172000D02*
X134874000Y-106680000D01*
X134874000Y-106680000D02*
X132207000Y-109347000D01*
X132207000Y-109347000D02*
X132207000Y-113157000D01*
X119888000Y-122555000D02*
X120015000Y-122555000D01*
D44*
X120015000Y-122555000D02*
X121285000Y-121285000D01*
D42*
X132207000Y-120015000D02*
X132207000Y-113157000D01*
X130937000Y-121285000D02*
X132207000Y-120015000D01*
D44*
X121285000Y-121285000D02*
X130937000Y-121285000D01*
D38*
X137414000Y-106172000D02*
X137795000Y-106172000D01*
X137795000Y-106172000D02*
X139954000Y-104013000D01*
X115189000Y-101219000D02*
X114613000Y-100643000D01*
X122047000Y-101219000D02*
X115189000Y-101219000D01*
X122428000Y-101600000D02*
X122047000Y-101219000D01*
X131191000Y-101600000D02*
X122428000Y-101600000D01*
X138811000Y-101473000D02*
X135001000Y-101473000D01*
X139954000Y-102616000D02*
X138811000Y-101473000D01*
X139954000Y-104013000D02*
X139954000Y-102616000D01*
X114613000Y-100643000D02*
X114560000Y-100643000D01*
X134747000Y-113157000D02*
X134747000Y-108839000D01*
X134747000Y-108839000D02*
X137414000Y-106172000D01*
D42*
X134747000Y-113157000D02*
X134747000Y-126111000D01*
X121666000Y-126873000D02*
X119888000Y-125095000D01*
X133985000Y-126873000D02*
X121666000Y-126873000D01*
X134747000Y-126111000D02*
X133985000Y-126873000D01*
D41*
X138430000Y-96393000D02*
X138430000Y-95123000D01*
X142430500Y-88328500D02*
X140970000Y-86868000D01*
X142430500Y-93218000D02*
X142430500Y-88328500D01*
X141668500Y-93980000D02*
X142430500Y-93218000D01*
X139573000Y-93980000D02*
X141668500Y-93980000D01*
X138430000Y-95123000D02*
X139573000Y-93980000D01*
X105156000Y-107061000D02*
X105156000Y-106233000D01*
X105791000Y-107696000D02*
X105156000Y-107061000D01*
X113411000Y-107696000D02*
X105791000Y-107696000D01*
X113665000Y-107950000D02*
X113411000Y-107696000D01*
X105156000Y-106233000D02*
X105095000Y-106172000D01*
X136017000Y-113157000D02*
X136017000Y-110998000D01*
X138430000Y-97282000D02*
X138430000Y-96393000D01*
X141605000Y-100457000D02*
X138430000Y-97282000D01*
X141605000Y-107823000D02*
X141605000Y-100457000D01*
X140462000Y-108966000D02*
X141605000Y-107823000D01*
X138049000Y-108966000D02*
X140462000Y-108966000D01*
X136017000Y-110998000D02*
X138049000Y-108966000D01*
D38*
X105095000Y-103632000D02*
X105095000Y-106172000D01*
D39*
X126111000Y-83058000D02*
X127381000Y-83058000D01*
X128524000Y-93091000D02*
X127127000Y-94996000D01*
X128524000Y-84709000D02*
X128524000Y-93091000D01*
X127381000Y-83058000D02*
X128524000Y-84709000D01*
D41*
X126111000Y-83058000D02*
X123317000Y-83058000D01*
X118491000Y-83693000D02*
X118491000Y-82550000D01*
X119888000Y-85090000D02*
X118491000Y-83693000D01*
X121285000Y-85090000D02*
X119888000Y-85090000D01*
X123317000Y-83058000D02*
X121285000Y-85090000D01*
D42*
X104206000Y-80457000D02*
X104206000Y-82042000D01*
X104140000Y-80391000D02*
X104206000Y-80457000D01*
X92456000Y-77724000D02*
X92456000Y-78105000D01*
D39*
X136017000Y-117094000D02*
X136017000Y-113157000D01*
D44*
X110560000Y-92143000D02*
X110560000Y-90621000D01*
X110560000Y-90621000D02*
X110490000Y-90551000D01*
X90849000Y-93760000D02*
X92549000Y-93760000D01*
X92549000Y-93760000D02*
X92583000Y-93726000D01*
X109760000Y-92143000D02*
X109760000Y-89694000D01*
X109760000Y-89694000D02*
X109728000Y-89662000D01*
X93345000Y-90424000D02*
X92609000Y-91160000D01*
X92609000Y-91160000D02*
X90849000Y-91160000D01*
D38*
X78947000Y-88885000D02*
X80249000Y-88885000D01*
X81426000Y-85960000D02*
X83649000Y-85960000D01*
X80772000Y-86614000D02*
X81426000Y-85960000D01*
X80249000Y-88885000D02*
X80264000Y-88900000D01*
X78947000Y-89535000D02*
X80010000Y-89535000D01*
X82135000Y-85310000D02*
X83649000Y-85310000D01*
X82042000Y-85217000D02*
X82135000Y-85310000D01*
X80264000Y-89789000D02*
X81153000Y-89789000D01*
X80010000Y-89535000D02*
X80264000Y-89789000D01*
X109760000Y-100643000D02*
X109760000Y-103283000D01*
X116078000Y-104140000D02*
X117348000Y-105410000D01*
X110617000Y-104140000D02*
X116078000Y-104140000D01*
X109760000Y-103283000D02*
X110617000Y-104140000D01*
X106995000Y-106172000D02*
X107569000Y-106172000D01*
X107569000Y-106172000D02*
X108204000Y-106807000D01*
X108204000Y-106807000D02*
X115951000Y-106807000D01*
X115951000Y-106807000D02*
X117348000Y-105410000D01*
X109855000Y-100738000D02*
X109760000Y-100643000D01*
X108960000Y-100643000D02*
X108960000Y-101860000D01*
X108960000Y-101860000D02*
X107188000Y-103632000D01*
X107188000Y-103632000D02*
X106995000Y-103632000D01*
X108960000Y-100643000D02*
X108960000Y-104642000D01*
X108960000Y-104642000D02*
X109728000Y-105410000D01*
X112160000Y-92143000D02*
X112160000Y-89770000D01*
X112160000Y-89770000D02*
X112776000Y-89154000D01*
X112960000Y-92143000D02*
X112960000Y-90494000D01*
X112960000Y-90494000D02*
X113030000Y-90424000D01*
D41*
X135890000Y-81915000D02*
X135890000Y-80772000D01*
X133604000Y-78486000D02*
X133604000Y-77216000D01*
X135890000Y-80772000D02*
X133604000Y-78486000D01*
X133350000Y-86868000D02*
X133350000Y-86106000D01*
X133350000Y-86106000D02*
X135890000Y-83566000D01*
X135890000Y-83566000D02*
X135890000Y-81915000D01*
D38*
X112960000Y-100643000D02*
X112960000Y-102165000D01*
X123571000Y-120015000D02*
X122428000Y-120015000D01*
X124333000Y-119253000D02*
X123571000Y-120015000D01*
X124333000Y-116332000D02*
X124333000Y-119253000D01*
X122301000Y-106172000D02*
X122301000Y-113030000D01*
X118872000Y-102743000D02*
X122301000Y-106172000D01*
X113538000Y-102743000D02*
X118872000Y-102743000D01*
X112960000Y-102165000D02*
X113538000Y-102743000D01*
D42*
X122428000Y-120015000D02*
X129794000Y-120015000D01*
D41*
X130937000Y-118872000D02*
X130937000Y-113157000D01*
X129794000Y-120015000D02*
X130937000Y-118872000D01*
D44*
X135890000Y-95123000D02*
X135890000Y-96393000D01*
X134683500Y-93916500D02*
X135890000Y-95123000D01*
X132143500Y-93916500D02*
X134683500Y-93916500D01*
X129879288Y-91652288D02*
X132143500Y-93916500D01*
X107510000Y-93593000D02*
X109468000Y-93593000D01*
X109468000Y-93593000D02*
X109474000Y-93599000D01*
D38*
X129667000Y-110490000D02*
X129667000Y-113157000D01*
X129603500Y-110426500D02*
X129667000Y-110490000D01*
X125730000Y-104648000D02*
X125730000Y-106997500D01*
X125095000Y-104013000D02*
X125730000Y-104648000D01*
D44*
X108997500Y-94393000D02*
X109029500Y-94361000D01*
X107510000Y-94393000D02*
X108997500Y-94393000D01*
X129540000Y-92329000D02*
X133350000Y-96139000D01*
X133350000Y-96139000D02*
X133350000Y-96393000D01*
D38*
X128397000Y-113157000D02*
X128397000Y-110871000D01*
X123888500Y-106235500D02*
X123888500Y-104076500D01*
X124777500Y-107124500D02*
X123888500Y-106235500D01*
X128397000Y-110871000D02*
X127825500Y-110299500D01*
D41*
X126111000Y-80518000D02*
X128016000Y-80518000D01*
X140843000Y-90678000D02*
X140843000Y-92202000D01*
X140081000Y-89916000D02*
X140843000Y-90678000D01*
X133350000Y-89916000D02*
X140081000Y-89916000D01*
X131826000Y-88392000D02*
X133350000Y-89916000D01*
X131826000Y-84328000D02*
X131826000Y-88392000D01*
X128016000Y-80518000D02*
X131826000Y-84328000D01*
X126111000Y-80518000D02*
X123063000Y-80518000D01*
X123063000Y-80518000D02*
X121031000Y-82550000D01*
D38*
X116010000Y-93593000D02*
X117735000Y-93593000D01*
X117735000Y-93593000D02*
X125730000Y-85598000D01*
X125730000Y-85598000D02*
X126111000Y-85598000D01*
X116010000Y-97593000D02*
X114865000Y-97593000D01*
X115951000Y-78994000D02*
X115951000Y-77724000D01*
X115189000Y-79756000D02*
X115951000Y-78994000D01*
X112395000Y-79756000D02*
X115189000Y-79756000D01*
X112014000Y-80137000D02*
X112395000Y-79756000D01*
X111887000Y-94615000D02*
X111887000Y-93599000D01*
X114865000Y-97593000D02*
X111887000Y-94615000D01*
X115951000Y-77724000D02*
X115951000Y-78613000D01*
X131064000Y-78613000D02*
X131064000Y-77216000D01*
X130556000Y-79121000D02*
X131064000Y-78613000D01*
X127762000Y-79121000D02*
X130556000Y-79121000D01*
X126619000Y-77978000D02*
X127762000Y-79121000D01*
X123952000Y-77978000D02*
X126619000Y-77978000D01*
X122174000Y-79756000D02*
X123952000Y-77978000D01*
X117094000Y-79756000D02*
X122174000Y-79756000D01*
X115951000Y-78613000D02*
X117094000Y-79756000D01*
D44*
X106106000Y-82042000D02*
X106106000Y-84643000D01*
X108960000Y-89021000D02*
X108960000Y-92143000D01*
X108839000Y-88900000D02*
X108960000Y-89021000D01*
X108712000Y-87249000D02*
X108712000Y-87503000D01*
X106106000Y-84643000D02*
X108712000Y-87249000D01*
X105156000Y-77724000D02*
X105156000Y-79629000D01*
X106106000Y-80579000D02*
X106106000Y-82042000D01*
X105156000Y-79629000D02*
X106106000Y-80579000D01*
D38*
X115951000Y-86995000D02*
X115951000Y-88900000D01*
X114560000Y-90291000D02*
X114560000Y-92143000D01*
X115951000Y-88900000D02*
X114560000Y-90291000D01*
X110560000Y-100643000D02*
X110560000Y-102965398D01*
X120142000Y-105029000D02*
X120142000Y-110109000D01*
X118491000Y-103378000D02*
X120142000Y-105029000D01*
X110972602Y-103378000D02*
X118491000Y-103378000D01*
X110560000Y-102965398D02*
X110972602Y-103378000D01*
D44*
X115951000Y-82550000D02*
X115951000Y-84328000D01*
X113760000Y-89948000D02*
X113760000Y-92143000D01*
X114681000Y-89027000D02*
X113760000Y-89948000D01*
X114681000Y-85598000D02*
X114681000Y-89027000D01*
X115951000Y-84328000D02*
X114681000Y-85598000D01*
X112160000Y-100643000D02*
X112160000Y-98406000D01*
X112160000Y-98406000D02*
X112395000Y-98171000D01*
X111360000Y-100643000D02*
X111360000Y-98507500D01*
X111360000Y-98507500D02*
X111379000Y-98488500D01*
D38*
X116010000Y-94393000D02*
X117797108Y-94393000D01*
X118906108Y-93284000D02*
X123825000Y-93284000D01*
X117797108Y-94393000D02*
X118906108Y-93284000D01*
X127127000Y-97536000D02*
X126111000Y-97536000D01*
X124780000Y-93284000D02*
X123825000Y-93284000D01*
X125222000Y-93726000D02*
X124780000Y-93284000D01*
X125222000Y-96647000D02*
X125222000Y-93726000D01*
X126111000Y-97536000D02*
X125222000Y-96647000D01*
D44*
X90173000Y-105156000D02*
X91313000Y-105156000D01*
X114738000Y-95193000D02*
X116010000Y-95193000D01*
X114681000Y-95250000D02*
X114738000Y-95193000D01*
D42*
X89977000Y-101854000D02*
X89977000Y-99568000D01*
X90173000Y-105156000D02*
X90173000Y-102050000D01*
X90173000Y-102050000D02*
X89977000Y-101854000D01*
D39*
X92329000Y-99779000D02*
X92329000Y-102174000D01*
D45*
G36*
X142292000Y-126798000D02*
X135317236Y-126798000D01*
X135375618Y-126739618D01*
X135482271Y-126580000D01*
X135568329Y-126451206D01*
X135636000Y-126111000D01*
X135636000Y-118118411D01*
X135798795Y-118186010D01*
X136233299Y-118186389D01*
X136634873Y-118020462D01*
X136942382Y-117713489D01*
X137109010Y-117312205D01*
X137109389Y-116877701D01*
X137033000Y-116692826D01*
X137033000Y-115304440D01*
X137687000Y-115304440D01*
X137922317Y-115260162D01*
X137926155Y-115257693D01*
X138157000Y-115304440D01*
X138957000Y-115304440D01*
X139192317Y-115260162D01*
X139196155Y-115257693D01*
X139427000Y-115304440D01*
X140227000Y-115304440D01*
X140462317Y-115260162D01*
X140474657Y-115252222D01*
X140570690Y-115292000D01*
X140811250Y-115292000D01*
X140970000Y-115133250D01*
X140970000Y-113284000D01*
X141224000Y-113284000D01*
X141224000Y-115133250D01*
X141382750Y-115292000D01*
X141623310Y-115292000D01*
X141856699Y-115195327D01*
X142035327Y-115016698D01*
X142132000Y-114783309D01*
X142132000Y-113442750D01*
X141973250Y-113284000D01*
X141224000Y-113284000D01*
X140970000Y-113284000D01*
X140950000Y-113284000D01*
X140950000Y-113030000D01*
X140970000Y-113030000D01*
X140970000Y-111180750D01*
X141224000Y-111180750D01*
X141224000Y-113030000D01*
X141973250Y-113030000D01*
X142132000Y-112871250D01*
X142132000Y-111530691D01*
X142035327Y-111297302D01*
X141856699Y-111118673D01*
X141623310Y-111022000D01*
X141382750Y-111022000D01*
X141224000Y-111180750D01*
X140970000Y-111180750D01*
X140811250Y-111022000D01*
X140570690Y-111022000D01*
X140478008Y-111060390D01*
X140227000Y-111009560D01*
X139427000Y-111009560D01*
X139191683Y-111053838D01*
X139187845Y-111056307D01*
X138957000Y-111009560D01*
X138157000Y-111009560D01*
X137921683Y-111053838D01*
X137917845Y-111056307D01*
X137687000Y-111009560D01*
X137334518Y-111009560D01*
X138438278Y-109905800D01*
X140462000Y-109905800D01*
X140821646Y-109834262D01*
X141126539Y-109630539D01*
X142269539Y-108487539D01*
X142292000Y-108453924D01*
X142292000Y-126798000D01*
X142292000Y-126798000D01*
G37*
X142292000Y-126798000D02*
X135317236Y-126798000D01*
X135375618Y-126739618D01*
X135482271Y-126580000D01*
X135568329Y-126451206D01*
X135636000Y-126111000D01*
X135636000Y-118118411D01*
X135798795Y-118186010D01*
X136233299Y-118186389D01*
X136634873Y-118020462D01*
X136942382Y-117713489D01*
X137109010Y-117312205D01*
X137109389Y-116877701D01*
X137033000Y-116692826D01*
X137033000Y-115304440D01*
X137687000Y-115304440D01*
X137922317Y-115260162D01*
X137926155Y-115257693D01*
X138157000Y-115304440D01*
X138957000Y-115304440D01*
X139192317Y-115260162D01*
X139196155Y-115257693D01*
X139427000Y-115304440D01*
X140227000Y-115304440D01*
X140462317Y-115260162D01*
X140474657Y-115252222D01*
X140570690Y-115292000D01*
X140811250Y-115292000D01*
X140970000Y-115133250D01*
X140970000Y-113284000D01*
X141224000Y-113284000D01*
X141224000Y-115133250D01*
X141382750Y-115292000D01*
X141623310Y-115292000D01*
X141856699Y-115195327D01*
X142035327Y-115016698D01*
X142132000Y-114783309D01*
X142132000Y-113442750D01*
X141973250Y-113284000D01*
X141224000Y-113284000D01*
X140970000Y-113284000D01*
X140950000Y-113284000D01*
X140950000Y-113030000D01*
X140970000Y-113030000D01*
X140970000Y-111180750D01*
X141224000Y-111180750D01*
X141224000Y-113030000D01*
X141973250Y-113030000D01*
X142132000Y-112871250D01*
X142132000Y-111530691D01*
X142035327Y-111297302D01*
X141856699Y-111118673D01*
X141623310Y-111022000D01*
X141382750Y-111022000D01*
X141224000Y-111180750D01*
X140970000Y-111180750D01*
X140811250Y-111022000D01*
X140570690Y-111022000D01*
X140478008Y-111060390D01*
X140227000Y-111009560D01*
X139427000Y-111009560D01*
X139191683Y-111053838D01*
X139187845Y-111056307D01*
X138957000Y-111009560D01*
X138157000Y-111009560D01*
X137921683Y-111053838D01*
X137917845Y-111056307D01*
X137687000Y-111009560D01*
X137334518Y-111009560D01*
X138438278Y-109905800D01*
X140462000Y-109905800D01*
X140821646Y-109834262D01*
X141126539Y-109630539D01*
X142269539Y-108487539D01*
X142292000Y-108453924D01*
X142292000Y-126798000D01*
G36*
X81441722Y-76034637D02*
X81192284Y-76635352D01*
X81191716Y-77285795D01*
X81440106Y-77886943D01*
X81899637Y-78347278D01*
X82500352Y-78596716D01*
X83150795Y-78597284D01*
X83751943Y-78348894D01*
X84091680Y-78009750D01*
X85891000Y-78009750D01*
X85891000Y-78700309D01*
X85987673Y-78933698D01*
X86166301Y-79112327D01*
X86399690Y-79209000D01*
X87090250Y-79209000D01*
X87249000Y-79050250D01*
X87249000Y-77851000D01*
X87503000Y-77851000D01*
X87503000Y-79050250D01*
X87661750Y-79209000D01*
X88352310Y-79209000D01*
X88585699Y-79112327D01*
X88764327Y-78933698D01*
X88851136Y-78724122D01*
X89149076Y-78995645D01*
X89559110Y-79165476D01*
X89789000Y-79044155D01*
X89789000Y-77851000D01*
X87503000Y-77851000D01*
X87249000Y-77851000D01*
X86049750Y-77851000D01*
X85891000Y-78009750D01*
X84091680Y-78009750D01*
X84212278Y-77889363D01*
X84270396Y-77749400D01*
X85217000Y-77749400D01*
X85518325Y-77689463D01*
X85773776Y-77518776D01*
X85891000Y-77401552D01*
X85891000Y-77438250D01*
X86049750Y-77597000D01*
X87249000Y-77597000D01*
X87249000Y-77577000D01*
X87503000Y-77577000D01*
X87503000Y-77597000D01*
X89789000Y-77597000D01*
X89789000Y-77577000D01*
X90043000Y-77577000D01*
X90043000Y-77597000D01*
X90063000Y-77597000D01*
X90063000Y-77851000D01*
X90043000Y-77851000D01*
X90043000Y-79044155D01*
X90272890Y-79165476D01*
X90682924Y-78995645D01*
X91111183Y-78605358D01*
X91178298Y-78462447D01*
X91405946Y-78803147D01*
X91887715Y-79125054D01*
X92456000Y-79238093D01*
X93024285Y-79125054D01*
X93506054Y-78803147D01*
X93726000Y-78473974D01*
X93945946Y-78803147D01*
X94427715Y-79125054D01*
X94996000Y-79238093D01*
X95564285Y-79125054D01*
X96046054Y-78803147D01*
X96266000Y-78473974D01*
X96485946Y-78803147D01*
X96967715Y-79125054D01*
X97536000Y-79238093D01*
X98104285Y-79125054D01*
X98586054Y-78803147D01*
X98806000Y-78473974D01*
X99025946Y-78803147D01*
X99507715Y-79125054D01*
X100076000Y-79238093D01*
X100644285Y-79125054D01*
X101126054Y-78803147D01*
X101251240Y-78615792D01*
X101574600Y-78939152D01*
X101574600Y-87519000D01*
X101634537Y-87820325D01*
X101805224Y-88075776D01*
X101851560Y-88122112D01*
X101851560Y-88439888D01*
X101543848Y-88747600D01*
X99547661Y-88747600D01*
X99716515Y-88677831D01*
X100106461Y-88288564D01*
X100317759Y-87779702D01*
X100318240Y-87228715D01*
X100107831Y-86719485D01*
X99718564Y-86329539D01*
X99209702Y-86118241D01*
X98658715Y-86117760D01*
X98149485Y-86328169D01*
X97759539Y-86717436D01*
X97548241Y-87226298D01*
X97547760Y-87777285D01*
X97758169Y-88286515D01*
X98147436Y-88676461D01*
X98318758Y-88747600D01*
X97028000Y-88747600D01*
X96726675Y-88807537D01*
X96471224Y-88978224D01*
X93126848Y-92322600D01*
X92371440Y-92322600D01*
X92371440Y-92235000D01*
X92351933Y-92131329D01*
X92371440Y-92035000D01*
X92371440Y-91947400D01*
X92609000Y-91947400D01*
X92910325Y-91887463D01*
X93165776Y-91716776D01*
X93603437Y-91279115D01*
X93847920Y-91178097D01*
X94098218Y-90928236D01*
X94233846Y-90601609D01*
X94234154Y-90247943D01*
X94099097Y-89921080D01*
X93849236Y-89670782D01*
X93522609Y-89535154D01*
X93168943Y-89534846D01*
X92842080Y-89669903D01*
X92591782Y-89919764D01*
X92489597Y-90165851D01*
X92371283Y-90284165D01*
X92358020Y-90213677D01*
X92359000Y-90211310D01*
X92359000Y-90131250D01*
X92338688Y-90110938D01*
X92327162Y-90049683D01*
X92203671Y-89857773D01*
X92320431Y-89686890D01*
X92335558Y-89612192D01*
X92359000Y-89588750D01*
X92359000Y-89508690D01*
X92357333Y-89504665D01*
X92371440Y-89435000D01*
X92371440Y-88985000D01*
X92351933Y-88881329D01*
X92371440Y-88785000D01*
X92371440Y-88335000D01*
X92351933Y-88231329D01*
X92371440Y-88135000D01*
X92371440Y-87685000D01*
X92351933Y-87581329D01*
X92371440Y-87485000D01*
X92371440Y-87035000D01*
X92351933Y-86931329D01*
X92371440Y-86835000D01*
X92371440Y-86385000D01*
X92351933Y-86281329D01*
X92371440Y-86185000D01*
X92371440Y-85735000D01*
X92351933Y-85631329D01*
X92371440Y-85535000D01*
X92371440Y-85085000D01*
X92327162Y-84849683D01*
X92188090Y-84633559D01*
X91975890Y-84488569D01*
X91724000Y-84437560D01*
X90322400Y-84437560D01*
X90322400Y-84189440D01*
X90922000Y-84189440D01*
X91157317Y-84145162D01*
X91373441Y-84006090D01*
X91518431Y-83793890D01*
X91569440Y-83542000D01*
X91569440Y-82542000D01*
X91525162Y-82306683D01*
X91386090Y-82090559D01*
X91317994Y-82044031D01*
X91460327Y-81901698D01*
X91557000Y-81668309D01*
X91557000Y-81327750D01*
X91398250Y-81169000D01*
X90424000Y-81169000D01*
X90424000Y-81189000D01*
X90170000Y-81189000D01*
X90170000Y-81169000D01*
X89195750Y-81169000D01*
X89037000Y-81327750D01*
X89037000Y-81668309D01*
X89133673Y-81901698D01*
X89274910Y-82042936D01*
X89220559Y-82077910D01*
X89075569Y-82290110D01*
X89024560Y-82542000D01*
X89024560Y-83200888D01*
X88978224Y-83247224D01*
X88807537Y-83502675D01*
X88747600Y-83804000D01*
X88747600Y-84636848D01*
X87625563Y-85758885D01*
X87471360Y-85822600D01*
X86874869Y-85822600D01*
X86931313Y-85686668D01*
X86931687Y-85257216D01*
X86767689Y-84860311D01*
X86706200Y-84798715D01*
X86706200Y-83076959D01*
X86819441Y-83004090D01*
X86865969Y-82935994D01*
X87008302Y-83078327D01*
X87241691Y-83175000D01*
X87582250Y-83175000D01*
X87741000Y-83016250D01*
X87741000Y-82042000D01*
X87995000Y-82042000D01*
X87995000Y-83016250D01*
X88153750Y-83175000D01*
X88494309Y-83175000D01*
X88727698Y-83078327D01*
X88906327Y-82899699D01*
X89003000Y-82666310D01*
X89003000Y-82200750D01*
X88844250Y-82042000D01*
X87995000Y-82042000D01*
X87741000Y-82042000D01*
X87721000Y-82042000D01*
X87721000Y-81788000D01*
X87741000Y-81788000D01*
X87741000Y-80813750D01*
X87995000Y-80813750D01*
X87995000Y-81788000D01*
X88844250Y-81788000D01*
X89003000Y-81629250D01*
X89003000Y-81163690D01*
X88906327Y-80930301D01*
X88727698Y-80751673D01*
X88494309Y-80655000D01*
X88153750Y-80655000D01*
X87995000Y-80813750D01*
X87741000Y-80813750D01*
X87582250Y-80655000D01*
X87241691Y-80655000D01*
X87008302Y-80751673D01*
X86867064Y-80892910D01*
X86832090Y-80838559D01*
X86619890Y-80693569D01*
X86368000Y-80642560D01*
X85368000Y-80642560D01*
X85132683Y-80686838D01*
X84916559Y-80825910D01*
X84771569Y-81038110D01*
X84720560Y-81290000D01*
X84720560Y-82540000D01*
X84764838Y-82775317D01*
X84903910Y-82991441D01*
X85029800Y-83077458D01*
X85029800Y-84698378D01*
X84988090Y-84633559D01*
X84775890Y-84488569D01*
X84524000Y-84437560D01*
X82774000Y-84437560D01*
X82592030Y-84471800D01*
X82554240Y-84471800D01*
X82546236Y-84463782D01*
X82219609Y-84328154D01*
X81865943Y-84327846D01*
X81539080Y-84462903D01*
X81288782Y-84712764D01*
X81153154Y-85039391D01*
X81153035Y-85176096D01*
X81105235Y-85185604D01*
X80833303Y-85367303D01*
X80391135Y-85809471D01*
X80269080Y-85859903D01*
X80018782Y-86109764D01*
X79917140Y-86354543D01*
X79906568Y-86323951D01*
X79618821Y-85999448D01*
X79244938Y-85815732D01*
X79074000Y-85942266D01*
X79074000Y-86908000D01*
X79094000Y-86908000D01*
X79094000Y-87162000D01*
X79074000Y-87162000D01*
X79074000Y-87182000D01*
X78820000Y-87182000D01*
X78820000Y-87162000D01*
X77994437Y-87162000D01*
X77845771Y-87336131D01*
X77907560Y-87514926D01*
X77820559Y-87570910D01*
X77675569Y-87783110D01*
X77624560Y-88035000D01*
X77624560Y-88435000D01*
X77648944Y-88564589D01*
X77624560Y-88685000D01*
X77624560Y-89085000D01*
X77648944Y-89214589D01*
X77624560Y-89335000D01*
X77624560Y-89735000D01*
X77644450Y-89840705D01*
X77637000Y-89858690D01*
X77637000Y-89926250D01*
X77666004Y-89955254D01*
X77668838Y-89970317D01*
X77807910Y-90186441D01*
X77816598Y-90192377D01*
X77733673Y-90275301D01*
X77682920Y-90397830D01*
X77637000Y-90443750D01*
X77637000Y-90576250D01*
X77682920Y-90622170D01*
X77733673Y-90744699D01*
X77912302Y-90923327D01*
X77940483Y-90935000D01*
X77795750Y-90935000D01*
X77637000Y-91093750D01*
X77637000Y-91161310D01*
X77733673Y-91394699D01*
X77904090Y-91565115D01*
X77845771Y-91733869D01*
X77994437Y-91908000D01*
X78820000Y-91908000D01*
X78820000Y-90935000D01*
X78810184Y-90935000D01*
X78773445Y-90907805D01*
X78820000Y-90861250D01*
X78820000Y-90688000D01*
X79074000Y-90688000D01*
X79074000Y-90861250D01*
X79120555Y-90907805D01*
X79083816Y-90935000D01*
X79074000Y-90935000D01*
X79074000Y-91908000D01*
X79899563Y-91908000D01*
X80048229Y-91733869D01*
X79989910Y-91565115D01*
X80160327Y-91394699D01*
X80257000Y-91161310D01*
X80257000Y-91093750D01*
X80098250Y-90935000D01*
X79953517Y-90935000D01*
X79981698Y-90923327D01*
X80160327Y-90744699D01*
X80211080Y-90622170D01*
X80215664Y-90617586D01*
X80264000Y-90627200D01*
X80853422Y-90627200D01*
X80975391Y-90677846D01*
X81329057Y-90678154D01*
X81655920Y-90543097D01*
X81906218Y-90293236D01*
X82041846Y-89966609D01*
X82042154Y-89612943D01*
X81941821Y-89370118D01*
X82083000Y-89398200D01*
X82174513Y-89398200D01*
X82162442Y-89457808D01*
X82139000Y-89481250D01*
X82139000Y-89561310D01*
X82140667Y-89565335D01*
X82126560Y-89635000D01*
X82126560Y-90085000D01*
X82146067Y-90188671D01*
X82126560Y-90285000D01*
X82126560Y-90735000D01*
X82146067Y-90838671D01*
X82126560Y-90935000D01*
X82126560Y-91385000D01*
X82139980Y-91456323D01*
X82139000Y-91458690D01*
X82139000Y-91538750D01*
X82159312Y-91559062D01*
X82170838Y-91620317D01*
X82296059Y-91814916D01*
X82235673Y-91875301D01*
X82158403Y-92061847D01*
X82139000Y-92081250D01*
X82139000Y-92188750D01*
X82158403Y-92208153D01*
X82235673Y-92394699D01*
X82297930Y-92456956D01*
X82177569Y-92633110D01*
X82162442Y-92707808D01*
X82139000Y-92731250D01*
X82139000Y-92811310D01*
X82140667Y-92815335D01*
X82126560Y-92885000D01*
X82126560Y-93335000D01*
X82146067Y-93438671D01*
X82126560Y-93535000D01*
X82126560Y-93985000D01*
X82170838Y-94220317D01*
X82309910Y-94436441D01*
X82522110Y-94581431D01*
X82774000Y-94632440D01*
X84524000Y-94632440D01*
X84759317Y-94588162D01*
X84975441Y-94449090D01*
X85120431Y-94236890D01*
X85171440Y-93985000D01*
X85171440Y-93535000D01*
X85151933Y-93431329D01*
X85171440Y-93335000D01*
X85171440Y-92885000D01*
X85158020Y-92813677D01*
X85159000Y-92811310D01*
X85159000Y-92731250D01*
X85138688Y-92710938D01*
X85127162Y-92649683D01*
X85001941Y-92455084D01*
X85062327Y-92394699D01*
X85139597Y-92208153D01*
X85159000Y-92188750D01*
X85159000Y-92081250D01*
X85139597Y-92061847D01*
X85062327Y-91875301D01*
X85000070Y-91813044D01*
X85120431Y-91636890D01*
X85135558Y-91562192D01*
X85159000Y-91538750D01*
X85159000Y-91458690D01*
X85157333Y-91454665D01*
X85171440Y-91385000D01*
X85171440Y-90935000D01*
X85151933Y-90831329D01*
X85171440Y-90735000D01*
X85171440Y-90285000D01*
X85151933Y-90181329D01*
X85171440Y-90085000D01*
X85171440Y-89635000D01*
X85158020Y-89563677D01*
X85159000Y-89561310D01*
X85159000Y-89481250D01*
X85138688Y-89460938D01*
X85127162Y-89399683D01*
X85126208Y-89398200D01*
X85176000Y-89398200D01*
X85496766Y-89334396D01*
X85768697Y-89152697D01*
X85957801Y-88963593D01*
X86065784Y-88963687D01*
X86462689Y-88799689D01*
X86766622Y-88496286D01*
X86931313Y-88099668D01*
X86931687Y-87670216D01*
X86818962Y-87397400D01*
X87355891Y-87397400D01*
X87376000Y-87401400D01*
X87396109Y-87397400D01*
X87452450Y-87397400D01*
X87706391Y-87502846D01*
X88060057Y-87503154D01*
X88386920Y-87368097D01*
X88637218Y-87118236D01*
X88739403Y-86872149D01*
X89342395Y-86269157D01*
X89346067Y-86288671D01*
X89326560Y-86385000D01*
X89326560Y-86835000D01*
X89346067Y-86938671D01*
X89326560Y-87035000D01*
X89326560Y-87485000D01*
X89346067Y-87588671D01*
X89326560Y-87685000D01*
X89326560Y-88135000D01*
X89346067Y-88238671D01*
X89326560Y-88335000D01*
X89326560Y-88785000D01*
X89346067Y-88888671D01*
X89326560Y-88985000D01*
X89326560Y-89435000D01*
X89339980Y-89506323D01*
X89339000Y-89508690D01*
X89339000Y-89588750D01*
X89359312Y-89609062D01*
X89370838Y-89670317D01*
X89494329Y-89862227D01*
X89377569Y-90033110D01*
X89362442Y-90107808D01*
X89339000Y-90131250D01*
X89339000Y-90211310D01*
X89340667Y-90215335D01*
X89326560Y-90285000D01*
X89326560Y-90735000D01*
X89346067Y-90838671D01*
X89327182Y-90931929D01*
X89231943Y-90931846D01*
X88905080Y-91066903D01*
X88654782Y-91316764D01*
X88519154Y-91643391D01*
X88518846Y-91997057D01*
X88653903Y-92323920D01*
X88903764Y-92574218D01*
X89230391Y-92709846D01*
X89331252Y-92709934D01*
X89346067Y-92788671D01*
X89326560Y-92885000D01*
X89326560Y-93335000D01*
X89346067Y-93438671D01*
X89326560Y-93535000D01*
X89326560Y-93985000D01*
X89370838Y-94220317D01*
X89509910Y-94436441D01*
X89722110Y-94581431D01*
X89974000Y-94632440D01*
X91724000Y-94632440D01*
X91959317Y-94588162D01*
X92022663Y-94547400D01*
X92242964Y-94547400D01*
X92405391Y-94614846D01*
X92759057Y-94615154D01*
X93085920Y-94480097D01*
X93336218Y-94230236D01*
X93471846Y-93903609D01*
X93471855Y-93893650D01*
X93754325Y-93837463D01*
X94009776Y-93666776D01*
X95019267Y-92657285D01*
X97547760Y-92657285D01*
X97758169Y-93166515D01*
X98147436Y-93556461D01*
X98656298Y-93767759D01*
X99207285Y-93768240D01*
X99716515Y-93557831D01*
X100106461Y-93168564D01*
X100317759Y-92659702D01*
X100318240Y-92108715D01*
X100107831Y-91599485D01*
X99718564Y-91209539D01*
X99209702Y-90998241D01*
X98658715Y-90997760D01*
X98149485Y-91208169D01*
X97759539Y-91597436D01*
X97548241Y-92106298D01*
X97547760Y-92657285D01*
X95019267Y-92657285D01*
X97354152Y-90322400D01*
X101851560Y-90322400D01*
X101851560Y-90781000D01*
X101895838Y-91016317D01*
X102018139Y-91206379D01*
X101877569Y-91412110D01*
X101826560Y-91664000D01*
X101826560Y-92364000D01*
X101870838Y-92599317D01*
X102009910Y-92815441D01*
X102222110Y-92960431D01*
X102235197Y-92963081D01*
X102217918Y-92974200D01*
X101793000Y-92974200D01*
X101433354Y-93045738D01*
X101128461Y-93249461D01*
X98337362Y-96040560D01*
X96398000Y-96040560D01*
X96162683Y-96084838D01*
X95946559Y-96223910D01*
X95801569Y-96436110D01*
X95750560Y-96688000D01*
X95750560Y-98688000D01*
X95794838Y-98923317D01*
X95933910Y-99139441D01*
X96146110Y-99284431D01*
X96398000Y-99335440D01*
X97155000Y-99335440D01*
X97155000Y-102486304D01*
X97148508Y-102490482D01*
X97107699Y-102449673D01*
X96874310Y-102353000D01*
X96283750Y-102353000D01*
X96125000Y-102511750D01*
X96125000Y-103861000D01*
X96145000Y-103861000D01*
X96145000Y-104115000D01*
X96125000Y-104115000D01*
X96125000Y-105464250D01*
X96283750Y-105623000D01*
X96874310Y-105623000D01*
X97107699Y-105526327D01*
X97149660Y-105484366D01*
X97155000Y-105488015D01*
X97155000Y-107222554D01*
X95584777Y-108792777D01*
X95337006Y-109163593D01*
X95250000Y-109601000D01*
X95337006Y-110038407D01*
X95584777Y-110409223D01*
X95955593Y-110656994D01*
X96393000Y-110744000D01*
X96830407Y-110656994D01*
X97201223Y-110409223D01*
X99106223Y-108504223D01*
X99353994Y-108133407D01*
X99441000Y-107696000D01*
X99441000Y-105489696D01*
X99449477Y-105484241D01*
X99582000Y-105574790D01*
X99582000Y-107329000D01*
X99641359Y-107627420D01*
X99659338Y-107717807D01*
X99879580Y-108047420D01*
X100851848Y-109019688D01*
X100927538Y-109202873D01*
X101234511Y-109510382D01*
X101635795Y-109677010D01*
X102070299Y-109677389D01*
X102471873Y-109511462D01*
X102779382Y-109204489D01*
X102946010Y-108803205D01*
X102946389Y-108368701D01*
X102780462Y-107967127D01*
X102473489Y-107659618D01*
X102288747Y-107582906D01*
X101614000Y-106908160D01*
X101614000Y-105571418D01*
X101799441Y-105452090D01*
X101944431Y-105239890D01*
X101995440Y-104988000D01*
X101995440Y-102988000D01*
X101951162Y-102752683D01*
X101812090Y-102536559D01*
X101599890Y-102391569D01*
X101348000Y-102340560D01*
X99848000Y-102340560D01*
X99612683Y-102384838D01*
X99446523Y-102491759D01*
X99441000Y-102487985D01*
X99441000Y-100107750D01*
X101878000Y-100107750D01*
X101878000Y-100573310D01*
X101974673Y-100806699D01*
X102153302Y-100985327D01*
X102386691Y-101082000D01*
X102727250Y-101082000D01*
X102886000Y-100923250D01*
X102886000Y-99949000D01*
X102036750Y-99949000D01*
X101878000Y-100107750D01*
X99441000Y-100107750D01*
X99441000Y-99335440D01*
X100198000Y-99335440D01*
X100433317Y-99291162D01*
X100649441Y-99152090D01*
X100705059Y-99070690D01*
X101878000Y-99070690D01*
X101878000Y-99536250D01*
X102036750Y-99695000D01*
X102886000Y-99695000D01*
X102886000Y-98720750D01*
X102727250Y-98562000D01*
X102386691Y-98562000D01*
X102153302Y-98658673D01*
X101974673Y-98837301D01*
X101878000Y-99070690D01*
X100705059Y-99070690D01*
X100794431Y-98939890D01*
X100845440Y-98688000D01*
X100845440Y-96805750D01*
X101751000Y-96805750D01*
X101751000Y-97271310D01*
X101847673Y-97504699D01*
X102026302Y-97683327D01*
X102259691Y-97780000D01*
X102600250Y-97780000D01*
X102759000Y-97621250D01*
X102759000Y-96647000D01*
X101909750Y-96647000D01*
X101751000Y-96805750D01*
X100845440Y-96805750D01*
X100845440Y-96688000D01*
X100801162Y-96452683D01*
X100715898Y-96320180D01*
X101267388Y-95768690D01*
X101751000Y-95768690D01*
X101751000Y-96234250D01*
X101909750Y-96393000D01*
X102759000Y-96393000D01*
X102759000Y-95418750D01*
X102600250Y-95260000D01*
X102259691Y-95260000D01*
X102026302Y-95356673D01*
X101847673Y-95535301D01*
X101751000Y-95768690D01*
X101267388Y-95768690D01*
X102182278Y-94853800D01*
X102212405Y-94853800D01*
X102222110Y-94860431D01*
X102474000Y-94911440D01*
X103011252Y-94911440D01*
X102997154Y-94945391D01*
X102996846Y-95299057D01*
X103036565Y-95395185D01*
X103013000Y-95418750D01*
X103013000Y-96393000D01*
X103033000Y-96393000D01*
X103033000Y-96647000D01*
X103013000Y-96647000D01*
X103013000Y-97621250D01*
X103171750Y-97780000D01*
X103466762Y-97780000D01*
X103378154Y-97993391D01*
X103377846Y-98347057D01*
X103466659Y-98562000D01*
X103298750Y-98562000D01*
X103140000Y-98720750D01*
X103140000Y-99695000D01*
X103160000Y-99695000D01*
X103160000Y-99949000D01*
X103140000Y-99949000D01*
X103140000Y-100923250D01*
X103298750Y-101082000D01*
X103639309Y-101082000D01*
X103872698Y-100985327D01*
X104013936Y-100844090D01*
X104048910Y-100898441D01*
X104261110Y-101043431D01*
X104513000Y-101094440D01*
X105513000Y-101094440D01*
X105748317Y-101050162D01*
X105964441Y-100911090D01*
X106109431Y-100698890D01*
X106160440Y-100447000D01*
X106160440Y-100419091D01*
X106220776Y-100378776D01*
X106522152Y-100077400D01*
X106710000Y-100115440D01*
X108037560Y-100115440D01*
X108037560Y-101443000D01*
X108061955Y-101572651D01*
X107300046Y-102334560D01*
X106645000Y-102334560D01*
X106409683Y-102378838D01*
X106193559Y-102517910D01*
X106048569Y-102730110D01*
X106045919Y-102743197D01*
X105909090Y-102530559D01*
X105696890Y-102385569D01*
X105445000Y-102334560D01*
X104745000Y-102334560D01*
X104509683Y-102378838D01*
X104293559Y-102517910D01*
X104148569Y-102730110D01*
X104097560Y-102982000D01*
X104097560Y-104282000D01*
X104141838Y-104517317D01*
X104256800Y-104695973D01*
X104256800Y-105111709D01*
X104148569Y-105270110D01*
X104097560Y-105522000D01*
X104097560Y-106822000D01*
X104141838Y-107057317D01*
X104248411Y-107222936D01*
X104287738Y-107420646D01*
X104491461Y-107725539D01*
X105126461Y-108360539D01*
X105431354Y-108564262D01*
X105791000Y-108635800D01*
X112878126Y-108635800D01*
X113074324Y-108832341D01*
X113456944Y-108991219D01*
X113871238Y-108991580D01*
X113986570Y-108943926D01*
X113986570Y-109901990D01*
X114030848Y-110137307D01*
X114169920Y-110353431D01*
X114382120Y-110498421D01*
X114634010Y-110549430D01*
X116632990Y-110549430D01*
X116868307Y-110505152D01*
X117084431Y-110366080D01*
X117229421Y-110153880D01*
X117280430Y-109901990D01*
X117280430Y-109837500D01*
X117659210Y-109837500D01*
X118064000Y-110242290D01*
X118064000Y-110446156D01*
X117997559Y-110488910D01*
X117852569Y-110701110D01*
X117801560Y-110953000D01*
X117801560Y-112053000D01*
X117845838Y-112288317D01*
X117984910Y-112504441D01*
X118197110Y-112649431D01*
X118449000Y-112700440D01*
X119549000Y-112700440D01*
X119784317Y-112656162D01*
X120000441Y-112517090D01*
X120145431Y-112304890D01*
X120196440Y-112053000D01*
X120196440Y-110998048D01*
X120318057Y-110998154D01*
X120644920Y-110863097D01*
X120895218Y-110613236D01*
X121030846Y-110286609D01*
X121031154Y-109932943D01*
X120980200Y-109809625D01*
X120980200Y-106036594D01*
X121462800Y-106519194D01*
X121462800Y-112730422D01*
X121412154Y-112852391D01*
X121411846Y-113206057D01*
X121546903Y-113532920D01*
X121796764Y-113783218D01*
X122123391Y-113918846D01*
X122477057Y-113919154D01*
X122803920Y-113784097D01*
X123054218Y-113534236D01*
X123092206Y-113442750D01*
X126092000Y-113442750D01*
X126092000Y-114783309D01*
X126188673Y-115016698D01*
X126367301Y-115195327D01*
X126600690Y-115292000D01*
X126841250Y-115292000D01*
X127000000Y-115133250D01*
X127000000Y-113284000D01*
X126250750Y-113284000D01*
X126092000Y-113442750D01*
X123092206Y-113442750D01*
X123189846Y-113207609D01*
X123190154Y-112853943D01*
X123139200Y-112730625D01*
X123139200Y-111530691D01*
X126092000Y-111530691D01*
X126092000Y-112871250D01*
X126250750Y-113030000D01*
X127000000Y-113030000D01*
X127000000Y-111180750D01*
X126841250Y-111022000D01*
X126600690Y-111022000D01*
X126367301Y-111118673D01*
X126188673Y-111297302D01*
X126092000Y-111530691D01*
X123139200Y-111530691D01*
X123139200Y-108755846D01*
X123377234Y-108914896D01*
X123698000Y-108978700D01*
X126682500Y-108978700D01*
X127003266Y-108914896D01*
X127275197Y-108733197D01*
X127846697Y-108161697D01*
X128028396Y-107889766D01*
X128069516Y-107683040D01*
X128117600Y-107683040D01*
X128352917Y-107638762D01*
X128569041Y-107499690D01*
X128714031Y-107287490D01*
X128722864Y-107243869D01*
X128734330Y-107261029D01*
X129220511Y-107585885D01*
X129794000Y-107699959D01*
X130367489Y-107585885D01*
X130853670Y-107261029D01*
X131064000Y-106946248D01*
X131274330Y-107261029D01*
X131760511Y-107585885D01*
X132334000Y-107699959D01*
X132572380Y-107652542D01*
X131542461Y-108682461D01*
X131338738Y-108987354D01*
X131267200Y-109347000D01*
X131267200Y-111009560D01*
X130537000Y-111009560D01*
X130505200Y-111015544D01*
X130505200Y-110490000D01*
X130492501Y-110426158D01*
X130492654Y-110250443D01*
X130357597Y-109923580D01*
X130107736Y-109673282D01*
X129781109Y-109537654D01*
X129427443Y-109537346D01*
X129100580Y-109672403D01*
X128850282Y-109922264D01*
X128786723Y-110075329D01*
X128630029Y-109918635D01*
X128579597Y-109796580D01*
X128329736Y-109546282D01*
X128003109Y-109410654D01*
X127649443Y-109410346D01*
X127322580Y-109545403D01*
X127072282Y-109795264D01*
X126936654Y-110121891D01*
X126936346Y-110475557D01*
X127071403Y-110802420D01*
X127321264Y-111052718D01*
X127364202Y-111070548D01*
X127254000Y-111180750D01*
X127254000Y-113030000D01*
X127274000Y-113030000D01*
X127274000Y-113284000D01*
X127254000Y-113284000D01*
X127254000Y-115133250D01*
X127412750Y-115292000D01*
X127653310Y-115292000D01*
X127745992Y-115253610D01*
X127997000Y-115304440D01*
X128797000Y-115304440D01*
X129032317Y-115260162D01*
X129036155Y-115257693D01*
X129267000Y-115304440D01*
X129997200Y-115304440D01*
X129997200Y-118482722D01*
X129353922Y-119126000D01*
X125171200Y-119126000D01*
X125171200Y-116631578D01*
X125221846Y-116509609D01*
X125222154Y-116155943D01*
X125087097Y-115829080D01*
X124837236Y-115578782D01*
X124510609Y-115443154D01*
X124156943Y-115442846D01*
X123830080Y-115577903D01*
X123579782Y-115827764D01*
X123444154Y-116154391D01*
X123443955Y-116382723D01*
X123025378Y-116103039D01*
X122457093Y-115990000D01*
X122398907Y-115990000D01*
X121830622Y-116103039D01*
X121348853Y-116424946D01*
X121344903Y-116430858D01*
X121276327Y-116265301D01*
X121097698Y-116086673D01*
X120864309Y-115990000D01*
X120173750Y-115990000D01*
X120015000Y-116148750D01*
X120015000Y-117348000D01*
X120035000Y-117348000D01*
X120035000Y-117602000D01*
X120015000Y-117602000D01*
X120015000Y-117622000D01*
X119761000Y-117622000D01*
X119761000Y-117602000D01*
X118561750Y-117602000D01*
X118403000Y-117760750D01*
X118403000Y-118451310D01*
X118499673Y-118684699D01*
X118678302Y-118863327D01*
X118852777Y-118935597D01*
X118808853Y-118964946D01*
X118486946Y-119446715D01*
X118373907Y-120015000D01*
X118486946Y-120583285D01*
X118808853Y-121065054D01*
X119138026Y-121285000D01*
X118808853Y-121504946D01*
X118486946Y-121986715D01*
X118373907Y-122555000D01*
X118486946Y-123123285D01*
X118808853Y-123605054D01*
X119138026Y-123825000D01*
X118808853Y-124044946D01*
X118486946Y-124526715D01*
X118373907Y-125095000D01*
X118486946Y-125663285D01*
X118808853Y-126145054D01*
X119290622Y-126466961D01*
X119858907Y-126580000D01*
X119917093Y-126580000D01*
X120082802Y-126547038D01*
X120333764Y-126798000D01*
X117267990Y-126798000D01*
X117267990Y-126333250D01*
X117109240Y-126174500D01*
X115760500Y-126174500D01*
X115760500Y-126194500D01*
X115506500Y-126194500D01*
X115506500Y-126174500D01*
X114157760Y-126174500D01*
X113999010Y-126333250D01*
X113999010Y-126798000D01*
X77770990Y-126798000D01*
X77770990Y-126285750D01*
X77612240Y-126127000D01*
X76263500Y-126127000D01*
X76263500Y-126147000D01*
X76009500Y-126147000D01*
X76009500Y-126127000D01*
X75989500Y-126127000D01*
X75989500Y-125873000D01*
X76009500Y-125873000D01*
X76009500Y-124524260D01*
X76263500Y-124524260D01*
X76263500Y-125873000D01*
X77612240Y-125873000D01*
X77770990Y-125714250D01*
X77770990Y-124921700D01*
X113999010Y-124921700D01*
X113999010Y-125761750D01*
X114157760Y-125920500D01*
X115506500Y-125920500D01*
X115506500Y-124571760D01*
X115760500Y-124571760D01*
X115760500Y-125920500D01*
X117109240Y-125920500D01*
X117267990Y-125761750D01*
X117267990Y-124921700D01*
X117171317Y-124688311D01*
X116992688Y-124509683D01*
X116759299Y-124413010D01*
X115919250Y-124413010D01*
X115760500Y-124571760D01*
X115506500Y-124571760D01*
X115347750Y-124413010D01*
X114507701Y-124413010D01*
X114274312Y-124509683D01*
X114095683Y-124688311D01*
X113999010Y-124921700D01*
X77770990Y-124921700D01*
X77770990Y-124874200D01*
X77674317Y-124640811D01*
X77495688Y-124462183D01*
X77262299Y-124365510D01*
X76422250Y-124365510D01*
X76263500Y-124524260D01*
X76009500Y-124524260D01*
X75850750Y-124365510D01*
X75386000Y-124365510D01*
X75386000Y-116498690D01*
X118403000Y-116498690D01*
X118403000Y-117189250D01*
X118561750Y-117348000D01*
X119761000Y-117348000D01*
X119761000Y-116148750D01*
X119602250Y-115990000D01*
X118911691Y-115990000D01*
X118678302Y-116086673D01*
X118499673Y-116265301D01*
X118403000Y-116498690D01*
X75386000Y-116498690D01*
X75386000Y-114588750D01*
X117814000Y-114588750D01*
X117814000Y-114979309D01*
X117910673Y-115212698D01*
X118089301Y-115391327D01*
X118322690Y-115488000D01*
X118713250Y-115488000D01*
X118872000Y-115329250D01*
X118872000Y-114430000D01*
X119126000Y-114430000D01*
X119126000Y-115329250D01*
X119284750Y-115488000D01*
X119675310Y-115488000D01*
X119908699Y-115391327D01*
X120087327Y-115212698D01*
X120184000Y-114979309D01*
X120184000Y-114588750D01*
X120025250Y-114430000D01*
X119126000Y-114430000D01*
X118872000Y-114430000D01*
X117972750Y-114430000D01*
X117814000Y-114588750D01*
X75386000Y-114588750D01*
X75386000Y-113626691D01*
X117814000Y-113626691D01*
X117814000Y-114017250D01*
X117972750Y-114176000D01*
X118872000Y-114176000D01*
X118872000Y-113276750D01*
X119126000Y-113276750D01*
X119126000Y-114176000D01*
X120025250Y-114176000D01*
X120184000Y-114017250D01*
X120184000Y-113626691D01*
X120087327Y-113393302D01*
X119908699Y-113214673D01*
X119675310Y-113118000D01*
X119284750Y-113118000D01*
X119126000Y-113276750D01*
X118872000Y-113276750D01*
X118713250Y-113118000D01*
X118322690Y-113118000D01*
X118089301Y-113214673D01*
X117910673Y-113393302D01*
X117814000Y-113626691D01*
X75386000Y-113626691D01*
X75386000Y-110596930D01*
X77135990Y-110596930D01*
X77371307Y-110552652D01*
X77587431Y-110413580D01*
X77732421Y-110201380D01*
X77783430Y-109949490D01*
X77783430Y-107950510D01*
X77739152Y-107715193D01*
X77600080Y-107499069D01*
X77387880Y-107354079D01*
X77135990Y-107303070D01*
X75386000Y-107303070D01*
X75386000Y-105442750D01*
X79451000Y-105442750D01*
X79451000Y-107033310D01*
X79547673Y-107266699D01*
X79726302Y-107445327D01*
X79959691Y-107542000D01*
X81550250Y-107542000D01*
X81709000Y-107383250D01*
X81709000Y-105284000D01*
X81963000Y-105284000D01*
X81963000Y-107383250D01*
X82121750Y-107542000D01*
X83712309Y-107542000D01*
X83945698Y-107445327D01*
X84124327Y-107266699D01*
X84221000Y-107033310D01*
X84221000Y-105442750D01*
X84220000Y-105441750D01*
X86188000Y-105441750D01*
X86188000Y-105832310D01*
X86284673Y-106065699D01*
X86463302Y-106244327D01*
X86696691Y-106341000D01*
X87087250Y-106341000D01*
X87246000Y-106182250D01*
X87246000Y-105283000D01*
X87500000Y-105283000D01*
X87500000Y-106182250D01*
X87658750Y-106341000D01*
X88049309Y-106341000D01*
X88282698Y-106244327D01*
X88461327Y-106065699D01*
X88558000Y-105832310D01*
X88558000Y-105441750D01*
X88399250Y-105283000D01*
X87500000Y-105283000D01*
X87246000Y-105283000D01*
X86346750Y-105283000D01*
X86188000Y-105441750D01*
X84220000Y-105441750D01*
X84062250Y-105284000D01*
X81963000Y-105284000D01*
X81709000Y-105284000D01*
X79609750Y-105284000D01*
X79451000Y-105442750D01*
X75386000Y-105442750D01*
X75386000Y-100742750D01*
X76451000Y-100742750D01*
X76451000Y-102333310D01*
X76547673Y-102566699D01*
X76726302Y-102745327D01*
X76959691Y-102842000D01*
X78550250Y-102842000D01*
X78709000Y-102683250D01*
X78709000Y-100584000D01*
X78963000Y-100584000D01*
X78963000Y-102683250D01*
X79121750Y-102842000D01*
X79790696Y-102842000D01*
X79726302Y-102868673D01*
X79547673Y-103047301D01*
X79451000Y-103280690D01*
X79451000Y-104871250D01*
X79609750Y-105030000D01*
X81709000Y-105030000D01*
X81709000Y-102930750D01*
X81963000Y-102930750D01*
X81963000Y-105030000D01*
X84062250Y-105030000D01*
X84221000Y-104871250D01*
X84221000Y-104479690D01*
X86188000Y-104479690D01*
X86188000Y-104870250D01*
X86346750Y-105029000D01*
X87246000Y-105029000D01*
X87246000Y-104129750D01*
X87500000Y-104129750D01*
X87500000Y-105029000D01*
X88399250Y-105029000D01*
X88558000Y-104870250D01*
X88558000Y-104479690D01*
X88461327Y-104246301D01*
X88282698Y-104067673D01*
X88049309Y-103971000D01*
X87658750Y-103971000D01*
X87500000Y-104129750D01*
X87246000Y-104129750D01*
X87087250Y-103971000D01*
X86696691Y-103971000D01*
X86463302Y-104067673D01*
X86284673Y-104246301D01*
X86188000Y-104479690D01*
X84221000Y-104479690D01*
X84221000Y-103280690D01*
X84124327Y-103047301D01*
X83945698Y-102868673D01*
X83911337Y-102854440D01*
X86586000Y-102854440D01*
X86821317Y-102810162D01*
X86881751Y-102771273D01*
X86995000Y-102793800D01*
X87158897Y-102793800D01*
X87262910Y-102955441D01*
X87475110Y-103100431D01*
X87727000Y-103151440D01*
X88427000Y-103151440D01*
X88662317Y-103107162D01*
X88878441Y-102968090D01*
X89023431Y-102755890D01*
X89026081Y-102742803D01*
X89162910Y-102955441D01*
X89284000Y-103038178D01*
X89284000Y-104069556D01*
X89171559Y-104141910D01*
X89026569Y-104354110D01*
X88975560Y-104606000D01*
X88975560Y-105706000D01*
X89019838Y-105941317D01*
X89158910Y-106157441D01*
X89371110Y-106302431D01*
X89623000Y-106353440D01*
X90723000Y-106353440D01*
X90958317Y-106309162D01*
X91174441Y-106170090D01*
X91259942Y-106044954D01*
X91489057Y-106045154D01*
X91785731Y-105922571D01*
X92112265Y-106249105D01*
X92175311Y-106401689D01*
X92478714Y-106705622D01*
X92875332Y-106870313D01*
X93304784Y-106870687D01*
X93701689Y-106706689D01*
X94005622Y-106403286D01*
X94170313Y-106006668D01*
X94170687Y-105577216D01*
X94006689Y-105180311D01*
X93703286Y-104876378D01*
X93549262Y-104812421D01*
X93509388Y-104772547D01*
X93575431Y-104675890D01*
X93626440Y-104424000D01*
X93626440Y-104273750D01*
X94613000Y-104273750D01*
X94613000Y-105114309D01*
X94709673Y-105347698D01*
X94888301Y-105526327D01*
X95121690Y-105623000D01*
X95712250Y-105623000D01*
X95871000Y-105464250D01*
X95871000Y-104115000D01*
X94771750Y-104115000D01*
X94613000Y-104273750D01*
X93626440Y-104273750D01*
X93626440Y-103724000D01*
X93582162Y-103488683D01*
X93443090Y-103272559D01*
X93230890Y-103127569D01*
X93217803Y-103124919D01*
X93430441Y-102988090D01*
X93516805Y-102861691D01*
X94613000Y-102861691D01*
X94613000Y-103702250D01*
X94771750Y-103861000D01*
X95871000Y-103861000D01*
X95871000Y-102511750D01*
X95712250Y-102353000D01*
X95121690Y-102353000D01*
X94888301Y-102449673D01*
X94709673Y-102628302D01*
X94613000Y-102861691D01*
X93516805Y-102861691D01*
X93575431Y-102775890D01*
X93626440Y-102524000D01*
X93626440Y-101824000D01*
X93582162Y-101588683D01*
X93443090Y-101372559D01*
X93345000Y-101305537D01*
X93345000Y-100865896D01*
X93380441Y-100843090D01*
X93525431Y-100630890D01*
X93576440Y-100379000D01*
X93576440Y-99179000D01*
X93532162Y-98943683D01*
X93393090Y-98727559D01*
X93324994Y-98681031D01*
X93467327Y-98538698D01*
X93564000Y-98305309D01*
X93564000Y-97864750D01*
X93405250Y-97706000D01*
X92456000Y-97706000D01*
X92456000Y-97726000D01*
X92202000Y-97726000D01*
X92202000Y-97706000D01*
X92182000Y-97706000D01*
X92182000Y-97452000D01*
X92202000Y-97452000D01*
X92202000Y-96502750D01*
X92456000Y-96502750D01*
X92456000Y-97452000D01*
X93405250Y-97452000D01*
X93564000Y-97293250D01*
X93564000Y-96852691D01*
X93467327Y-96619302D01*
X93288699Y-96440673D01*
X93055310Y-96344000D01*
X92614750Y-96344000D01*
X92456000Y-96502750D01*
X92202000Y-96502750D01*
X92043250Y-96344000D01*
X91602690Y-96344000D01*
X91369301Y-96440673D01*
X91259184Y-96550790D01*
X89450529Y-94742135D01*
X89400097Y-94620080D01*
X89150236Y-94369782D01*
X88823609Y-94234154D01*
X88469943Y-94233846D01*
X88143080Y-94368903D01*
X87892782Y-94618764D01*
X87757154Y-94945391D01*
X87756846Y-95299057D01*
X87891903Y-95625920D01*
X88141764Y-95876218D01*
X88264994Y-95927388D01*
X90220800Y-97883194D01*
X90220800Y-98270560D01*
X89627000Y-98270560D01*
X89391683Y-98314838D01*
X89175559Y-98453910D01*
X89030569Y-98666110D01*
X89023809Y-98699490D01*
X88965327Y-98558301D01*
X88786698Y-98379673D01*
X88553309Y-98283000D01*
X88362750Y-98283000D01*
X88204000Y-98441750D01*
X88204000Y-99441000D01*
X88224000Y-99441000D01*
X88224000Y-99695000D01*
X88204000Y-99695000D01*
X88204000Y-99715000D01*
X87950000Y-99715000D01*
X87950000Y-99695000D01*
X87930000Y-99695000D01*
X87930000Y-99441000D01*
X87950000Y-99441000D01*
X87950000Y-98441750D01*
X87791250Y-98283000D01*
X87600691Y-98283000D01*
X87367302Y-98379673D01*
X87202802Y-98544172D01*
X87189162Y-98471683D01*
X87050090Y-98255559D01*
X86837890Y-98110569D01*
X86586000Y-98059560D01*
X83086000Y-98059560D01*
X82850683Y-98103838D01*
X82634559Y-98242910D01*
X82489569Y-98455110D01*
X82438560Y-98707000D01*
X82438560Y-102207000D01*
X82482838Y-102442317D01*
X82621910Y-102658441D01*
X82788109Y-102772000D01*
X82121750Y-102772000D01*
X81963000Y-102930750D01*
X81709000Y-102930750D01*
X81550250Y-102772000D01*
X80881304Y-102772000D01*
X80945698Y-102745327D01*
X81124327Y-102566699D01*
X81221000Y-102333310D01*
X81221000Y-100742750D01*
X81062250Y-100584000D01*
X78963000Y-100584000D01*
X78709000Y-100584000D01*
X76609750Y-100584000D01*
X76451000Y-100742750D01*
X75386000Y-100742750D01*
X75386000Y-98580690D01*
X76451000Y-98580690D01*
X76451000Y-100171250D01*
X76609750Y-100330000D01*
X78709000Y-100330000D01*
X78709000Y-98230750D01*
X78963000Y-98230750D01*
X78963000Y-100330000D01*
X81062250Y-100330000D01*
X81221000Y-100171250D01*
X81221000Y-98580690D01*
X81124327Y-98347301D01*
X80945698Y-98168673D01*
X80712309Y-98072000D01*
X79121750Y-98072000D01*
X78963000Y-98230750D01*
X78709000Y-98230750D01*
X78550250Y-98072000D01*
X76959691Y-98072000D01*
X76726302Y-98168673D01*
X76547673Y-98347301D01*
X76451000Y-98580690D01*
X75386000Y-98580690D01*
X75386000Y-94006065D01*
X75420322Y-94035002D01*
X75845000Y-94170000D01*
X76120000Y-94170000D01*
X76120000Y-93162000D01*
X76374000Y-93162000D01*
X76374000Y-94170000D01*
X76649000Y-94170000D01*
X77073678Y-94035002D01*
X77414368Y-93747763D01*
X77616119Y-93336874D01*
X77489954Y-93162000D01*
X76374000Y-93162000D01*
X76120000Y-93162000D01*
X76100000Y-93162000D01*
X76100000Y-92908000D01*
X76120000Y-92908000D01*
X76120000Y-91900000D01*
X76374000Y-91900000D01*
X76374000Y-92908000D01*
X77489954Y-92908000D01*
X77616119Y-92733126D01*
X77421191Y-92336131D01*
X77845771Y-92336131D01*
X77987432Y-92746049D01*
X78275179Y-93070552D01*
X78649062Y-93254268D01*
X78820000Y-93127734D01*
X78820000Y-92162000D01*
X79074000Y-92162000D01*
X79074000Y-93127734D01*
X79244938Y-93254268D01*
X79618821Y-93070552D01*
X79906568Y-92746049D01*
X80048229Y-92336131D01*
X79899563Y-92162000D01*
X79074000Y-92162000D01*
X78820000Y-92162000D01*
X77994437Y-92162000D01*
X77845771Y-92336131D01*
X77421191Y-92336131D01*
X77414368Y-92322237D01*
X77073678Y-92034998D01*
X76649000Y-91900000D01*
X76374000Y-91900000D01*
X76120000Y-91900000D01*
X75845000Y-91900000D01*
X75420322Y-92034998D01*
X75386000Y-92063935D01*
X75386000Y-87006065D01*
X75420322Y-87035002D01*
X75845000Y-87170000D01*
X76120000Y-87170000D01*
X76120000Y-86162000D01*
X76374000Y-86162000D01*
X76374000Y-87170000D01*
X76649000Y-87170000D01*
X77073678Y-87035002D01*
X77414368Y-86747763D01*
X77421190Y-86733869D01*
X77845771Y-86733869D01*
X77994437Y-86908000D01*
X78820000Y-86908000D01*
X78820000Y-85942266D01*
X78649062Y-85815732D01*
X78275179Y-85999448D01*
X77987432Y-86323951D01*
X77845771Y-86733869D01*
X77421190Y-86733869D01*
X77616119Y-86336874D01*
X77489954Y-86162000D01*
X76374000Y-86162000D01*
X76120000Y-86162000D01*
X76100000Y-86162000D01*
X76100000Y-85908000D01*
X76120000Y-85908000D01*
X76120000Y-84900000D01*
X76374000Y-84900000D01*
X76374000Y-85908000D01*
X77489954Y-85908000D01*
X77616119Y-85733126D01*
X77414368Y-85322237D01*
X77073678Y-85034998D01*
X76649000Y-84900000D01*
X76374000Y-84900000D01*
X76120000Y-84900000D01*
X75845000Y-84900000D01*
X75420322Y-85034998D01*
X75386000Y-85063935D01*
X75386000Y-82700885D01*
X75452736Y-82881387D01*
X76062461Y-83107908D01*
X76712460Y-83083856D01*
X77201264Y-82881387D01*
X77299927Y-82614532D01*
X81854073Y-82614532D01*
X81952736Y-82881387D01*
X82562461Y-83107908D01*
X83212460Y-83083856D01*
X83701264Y-82881387D01*
X83799927Y-82614532D01*
X82827000Y-81641605D01*
X81854073Y-82614532D01*
X77299927Y-82614532D01*
X76327000Y-81641605D01*
X76312858Y-81655748D01*
X76133253Y-81476143D01*
X76147395Y-81462000D01*
X76506605Y-81462000D01*
X77479532Y-82434927D01*
X77746387Y-82336264D01*
X77972908Y-81726539D01*
X77953331Y-81197461D01*
X81181092Y-81197461D01*
X81205144Y-81847460D01*
X81407613Y-82336264D01*
X81674468Y-82434927D01*
X82647395Y-81462000D01*
X83006605Y-81462000D01*
X83979532Y-82434927D01*
X84246387Y-82336264D01*
X84472908Y-81726539D01*
X84448856Y-81076540D01*
X84246387Y-80587736D01*
X83979532Y-80489073D01*
X83006605Y-81462000D01*
X82647395Y-81462000D01*
X81674468Y-80489073D01*
X81407613Y-80587736D01*
X81181092Y-81197461D01*
X77953331Y-81197461D01*
X77948856Y-81076540D01*
X77746387Y-80587736D01*
X77479532Y-80489073D01*
X76506605Y-81462000D01*
X76147395Y-81462000D01*
X76133253Y-81447858D01*
X76312858Y-81268253D01*
X76327000Y-81282395D01*
X77299927Y-80309468D01*
X81854073Y-80309468D01*
X82827000Y-81282395D01*
X83693704Y-80415691D01*
X89037000Y-80415691D01*
X89037000Y-80756250D01*
X89195750Y-80915000D01*
X90170000Y-80915000D01*
X90170000Y-80065750D01*
X90424000Y-80065750D01*
X90424000Y-80915000D01*
X91398250Y-80915000D01*
X91557000Y-80756250D01*
X91557000Y-80415691D01*
X91460327Y-80182302D01*
X91281699Y-80003673D01*
X91048310Y-79907000D01*
X90582750Y-79907000D01*
X90424000Y-80065750D01*
X90170000Y-80065750D01*
X90011250Y-79907000D01*
X89545690Y-79907000D01*
X89312301Y-80003673D01*
X89133673Y-80182302D01*
X89037000Y-80415691D01*
X83693704Y-80415691D01*
X83799927Y-80309468D01*
X83701264Y-80042613D01*
X83091539Y-79816092D01*
X82441540Y-79840144D01*
X81952736Y-80042613D01*
X81854073Y-80309468D01*
X77299927Y-80309468D01*
X77201264Y-80042613D01*
X76591539Y-79816092D01*
X75941540Y-79840144D01*
X75452736Y-80042613D01*
X75386000Y-80223115D01*
X75386000Y-78333617D01*
X75399637Y-78347278D01*
X76000352Y-78596716D01*
X76650795Y-78597284D01*
X77251943Y-78348894D01*
X77712278Y-77889363D01*
X77961716Y-77288648D01*
X77962284Y-76638205D01*
X77713894Y-76037057D01*
X77571087Y-75894000D01*
X81582605Y-75894000D01*
X81441722Y-76034637D01*
X81441722Y-76034637D01*
G37*
X81441722Y-76034637D02*
X81192284Y-76635352D01*
X81191716Y-77285795D01*
X81440106Y-77886943D01*
X81899637Y-78347278D01*
X82500352Y-78596716D01*
X83150795Y-78597284D01*
X83751943Y-78348894D01*
X84091680Y-78009750D01*
X85891000Y-78009750D01*
X85891000Y-78700309D01*
X85987673Y-78933698D01*
X86166301Y-79112327D01*
X86399690Y-79209000D01*
X87090250Y-79209000D01*
X87249000Y-79050250D01*
X87249000Y-77851000D01*
X87503000Y-77851000D01*
X87503000Y-79050250D01*
X87661750Y-79209000D01*
X88352310Y-79209000D01*
X88585699Y-79112327D01*
X88764327Y-78933698D01*
X88851136Y-78724122D01*
X89149076Y-78995645D01*
X89559110Y-79165476D01*
X89789000Y-79044155D01*
X89789000Y-77851000D01*
X87503000Y-77851000D01*
X87249000Y-77851000D01*
X86049750Y-77851000D01*
X85891000Y-78009750D01*
X84091680Y-78009750D01*
X84212278Y-77889363D01*
X84270396Y-77749400D01*
X85217000Y-77749400D01*
X85518325Y-77689463D01*
X85773776Y-77518776D01*
X85891000Y-77401552D01*
X85891000Y-77438250D01*
X86049750Y-77597000D01*
X87249000Y-77597000D01*
X87249000Y-77577000D01*
X87503000Y-77577000D01*
X87503000Y-77597000D01*
X89789000Y-77597000D01*
X89789000Y-77577000D01*
X90043000Y-77577000D01*
X90043000Y-77597000D01*
X90063000Y-77597000D01*
X90063000Y-77851000D01*
X90043000Y-77851000D01*
X90043000Y-79044155D01*
X90272890Y-79165476D01*
X90682924Y-78995645D01*
X91111183Y-78605358D01*
X91178298Y-78462447D01*
X91405946Y-78803147D01*
X91887715Y-79125054D01*
X92456000Y-79238093D01*
X93024285Y-79125054D01*
X93506054Y-78803147D01*
X93726000Y-78473974D01*
X93945946Y-78803147D01*
X94427715Y-79125054D01*
X94996000Y-79238093D01*
X95564285Y-79125054D01*
X96046054Y-78803147D01*
X96266000Y-78473974D01*
X96485946Y-78803147D01*
X96967715Y-79125054D01*
X97536000Y-79238093D01*
X98104285Y-79125054D01*
X98586054Y-78803147D01*
X98806000Y-78473974D01*
X99025946Y-78803147D01*
X99507715Y-79125054D01*
X100076000Y-79238093D01*
X100644285Y-79125054D01*
X101126054Y-78803147D01*
X101251240Y-78615792D01*
X101574600Y-78939152D01*
X101574600Y-87519000D01*
X101634537Y-87820325D01*
X101805224Y-88075776D01*
X101851560Y-88122112D01*
X101851560Y-88439888D01*
X101543848Y-88747600D01*
X99547661Y-88747600D01*
X99716515Y-88677831D01*
X100106461Y-88288564D01*
X100317759Y-87779702D01*
X100318240Y-87228715D01*
X100107831Y-86719485D01*
X99718564Y-86329539D01*
X99209702Y-86118241D01*
X98658715Y-86117760D01*
X98149485Y-86328169D01*
X97759539Y-86717436D01*
X97548241Y-87226298D01*
X97547760Y-87777285D01*
X97758169Y-88286515D01*
X98147436Y-88676461D01*
X98318758Y-88747600D01*
X97028000Y-88747600D01*
X96726675Y-88807537D01*
X96471224Y-88978224D01*
X93126848Y-92322600D01*
X92371440Y-92322600D01*
X92371440Y-92235000D01*
X92351933Y-92131329D01*
X92371440Y-92035000D01*
X92371440Y-91947400D01*
X92609000Y-91947400D01*
X92910325Y-91887463D01*
X93165776Y-91716776D01*
X93603437Y-91279115D01*
X93847920Y-91178097D01*
X94098218Y-90928236D01*
X94233846Y-90601609D01*
X94234154Y-90247943D01*
X94099097Y-89921080D01*
X93849236Y-89670782D01*
X93522609Y-89535154D01*
X93168943Y-89534846D01*
X92842080Y-89669903D01*
X92591782Y-89919764D01*
X92489597Y-90165851D01*
X92371283Y-90284165D01*
X92358020Y-90213677D01*
X92359000Y-90211310D01*
X92359000Y-90131250D01*
X92338688Y-90110938D01*
X92327162Y-90049683D01*
X92203671Y-89857773D01*
X92320431Y-89686890D01*
X92335558Y-89612192D01*
X92359000Y-89588750D01*
X92359000Y-89508690D01*
X92357333Y-89504665D01*
X92371440Y-89435000D01*
X92371440Y-88985000D01*
X92351933Y-88881329D01*
X92371440Y-88785000D01*
X92371440Y-88335000D01*
X92351933Y-88231329D01*
X92371440Y-88135000D01*
X92371440Y-87685000D01*
X92351933Y-87581329D01*
X92371440Y-87485000D01*
X92371440Y-87035000D01*
X92351933Y-86931329D01*
X92371440Y-86835000D01*
X92371440Y-86385000D01*
X92351933Y-86281329D01*
X92371440Y-86185000D01*
X92371440Y-85735000D01*
X92351933Y-85631329D01*
X92371440Y-85535000D01*
X92371440Y-85085000D01*
X92327162Y-84849683D01*
X92188090Y-84633559D01*
X91975890Y-84488569D01*
X91724000Y-84437560D01*
X90322400Y-84437560D01*
X90322400Y-84189440D01*
X90922000Y-84189440D01*
X91157317Y-84145162D01*
X91373441Y-84006090D01*
X91518431Y-83793890D01*
X91569440Y-83542000D01*
X91569440Y-82542000D01*
X91525162Y-82306683D01*
X91386090Y-82090559D01*
X91317994Y-82044031D01*
X91460327Y-81901698D01*
X91557000Y-81668309D01*
X91557000Y-81327750D01*
X91398250Y-81169000D01*
X90424000Y-81169000D01*
X90424000Y-81189000D01*
X90170000Y-81189000D01*
X90170000Y-81169000D01*
X89195750Y-81169000D01*
X89037000Y-81327750D01*
X89037000Y-81668309D01*
X89133673Y-81901698D01*
X89274910Y-82042936D01*
X89220559Y-82077910D01*
X89075569Y-82290110D01*
X89024560Y-82542000D01*
X89024560Y-83200888D01*
X88978224Y-83247224D01*
X88807537Y-83502675D01*
X88747600Y-83804000D01*
X88747600Y-84636848D01*
X87625563Y-85758885D01*
X87471360Y-85822600D01*
X86874869Y-85822600D01*
X86931313Y-85686668D01*
X86931687Y-85257216D01*
X86767689Y-84860311D01*
X86706200Y-84798715D01*
X86706200Y-83076959D01*
X86819441Y-83004090D01*
X86865969Y-82935994D01*
X87008302Y-83078327D01*
X87241691Y-83175000D01*
X87582250Y-83175000D01*
X87741000Y-83016250D01*
X87741000Y-82042000D01*
X87995000Y-82042000D01*
X87995000Y-83016250D01*
X88153750Y-83175000D01*
X88494309Y-83175000D01*
X88727698Y-83078327D01*
X88906327Y-82899699D01*
X89003000Y-82666310D01*
X89003000Y-82200750D01*
X88844250Y-82042000D01*
X87995000Y-82042000D01*
X87741000Y-82042000D01*
X87721000Y-82042000D01*
X87721000Y-81788000D01*
X87741000Y-81788000D01*
X87741000Y-80813750D01*
X87995000Y-80813750D01*
X87995000Y-81788000D01*
X88844250Y-81788000D01*
X89003000Y-81629250D01*
X89003000Y-81163690D01*
X88906327Y-80930301D01*
X88727698Y-80751673D01*
X88494309Y-80655000D01*
X88153750Y-80655000D01*
X87995000Y-80813750D01*
X87741000Y-80813750D01*
X87582250Y-80655000D01*
X87241691Y-80655000D01*
X87008302Y-80751673D01*
X86867064Y-80892910D01*
X86832090Y-80838559D01*
X86619890Y-80693569D01*
X86368000Y-80642560D01*
X85368000Y-80642560D01*
X85132683Y-80686838D01*
X84916559Y-80825910D01*
X84771569Y-81038110D01*
X84720560Y-81290000D01*
X84720560Y-82540000D01*
X84764838Y-82775317D01*
X84903910Y-82991441D01*
X85029800Y-83077458D01*
X85029800Y-84698378D01*
X84988090Y-84633559D01*
X84775890Y-84488569D01*
X84524000Y-84437560D01*
X82774000Y-84437560D01*
X82592030Y-84471800D01*
X82554240Y-84471800D01*
X82546236Y-84463782D01*
X82219609Y-84328154D01*
X81865943Y-84327846D01*
X81539080Y-84462903D01*
X81288782Y-84712764D01*
X81153154Y-85039391D01*
X81153035Y-85176096D01*
X81105235Y-85185604D01*
X80833303Y-85367303D01*
X80391135Y-85809471D01*
X80269080Y-85859903D01*
X80018782Y-86109764D01*
X79917140Y-86354543D01*
X79906568Y-86323951D01*
X79618821Y-85999448D01*
X79244938Y-85815732D01*
X79074000Y-85942266D01*
X79074000Y-86908000D01*
X79094000Y-86908000D01*
X79094000Y-87162000D01*
X79074000Y-87162000D01*
X79074000Y-87182000D01*
X78820000Y-87182000D01*
X78820000Y-87162000D01*
X77994437Y-87162000D01*
X77845771Y-87336131D01*
X77907560Y-87514926D01*
X77820559Y-87570910D01*
X77675569Y-87783110D01*
X77624560Y-88035000D01*
X77624560Y-88435000D01*
X77648944Y-88564589D01*
X77624560Y-88685000D01*
X77624560Y-89085000D01*
X77648944Y-89214589D01*
X77624560Y-89335000D01*
X77624560Y-89735000D01*
X77644450Y-89840705D01*
X77637000Y-89858690D01*
X77637000Y-89926250D01*
X77666004Y-89955254D01*
X77668838Y-89970317D01*
X77807910Y-90186441D01*
X77816598Y-90192377D01*
X77733673Y-90275301D01*
X77682920Y-90397830D01*
X77637000Y-90443750D01*
X77637000Y-90576250D01*
X77682920Y-90622170D01*
X77733673Y-90744699D01*
X77912302Y-90923327D01*
X77940483Y-90935000D01*
X77795750Y-90935000D01*
X77637000Y-91093750D01*
X77637000Y-91161310D01*
X77733673Y-91394699D01*
X77904090Y-91565115D01*
X77845771Y-91733869D01*
X77994437Y-91908000D01*
X78820000Y-91908000D01*
X78820000Y-90935000D01*
X78810184Y-90935000D01*
X78773445Y-90907805D01*
X78820000Y-90861250D01*
X78820000Y-90688000D01*
X79074000Y-90688000D01*
X79074000Y-90861250D01*
X79120555Y-90907805D01*
X79083816Y-90935000D01*
X79074000Y-90935000D01*
X79074000Y-91908000D01*
X79899563Y-91908000D01*
X80048229Y-91733869D01*
X79989910Y-91565115D01*
X80160327Y-91394699D01*
X80257000Y-91161310D01*
X80257000Y-91093750D01*
X80098250Y-90935000D01*
X79953517Y-90935000D01*
X79981698Y-90923327D01*
X80160327Y-90744699D01*
X80211080Y-90622170D01*
X80215664Y-90617586D01*
X80264000Y-90627200D01*
X80853422Y-90627200D01*
X80975391Y-90677846D01*
X81329057Y-90678154D01*
X81655920Y-90543097D01*
X81906218Y-90293236D01*
X82041846Y-89966609D01*
X82042154Y-89612943D01*
X81941821Y-89370118D01*
X82083000Y-89398200D01*
X82174513Y-89398200D01*
X82162442Y-89457808D01*
X82139000Y-89481250D01*
X82139000Y-89561310D01*
X82140667Y-89565335D01*
X82126560Y-89635000D01*
X82126560Y-90085000D01*
X82146067Y-90188671D01*
X82126560Y-90285000D01*
X82126560Y-90735000D01*
X82146067Y-90838671D01*
X82126560Y-90935000D01*
X82126560Y-91385000D01*
X82139980Y-91456323D01*
X82139000Y-91458690D01*
X82139000Y-91538750D01*
X82159312Y-91559062D01*
X82170838Y-91620317D01*
X82296059Y-91814916D01*
X82235673Y-91875301D01*
X82158403Y-92061847D01*
X82139000Y-92081250D01*
X82139000Y-92188750D01*
X82158403Y-92208153D01*
X82235673Y-92394699D01*
X82297930Y-92456956D01*
X82177569Y-92633110D01*
X82162442Y-92707808D01*
X82139000Y-92731250D01*
X82139000Y-92811310D01*
X82140667Y-92815335D01*
X82126560Y-92885000D01*
X82126560Y-93335000D01*
X82146067Y-93438671D01*
X82126560Y-93535000D01*
X82126560Y-93985000D01*
X82170838Y-94220317D01*
X82309910Y-94436441D01*
X82522110Y-94581431D01*
X82774000Y-94632440D01*
X84524000Y-94632440D01*
X84759317Y-94588162D01*
X84975441Y-94449090D01*
X85120431Y-94236890D01*
X85171440Y-93985000D01*
X85171440Y-93535000D01*
X85151933Y-93431329D01*
X85171440Y-93335000D01*
X85171440Y-92885000D01*
X85158020Y-92813677D01*
X85159000Y-92811310D01*
X85159000Y-92731250D01*
X85138688Y-92710938D01*
X85127162Y-92649683D01*
X85001941Y-92455084D01*
X85062327Y-92394699D01*
X85139597Y-92208153D01*
X85159000Y-92188750D01*
X85159000Y-92081250D01*
X85139597Y-92061847D01*
X85062327Y-91875301D01*
X85000070Y-91813044D01*
X85120431Y-91636890D01*
X85135558Y-91562192D01*
X85159000Y-91538750D01*
X85159000Y-91458690D01*
X85157333Y-91454665D01*
X85171440Y-91385000D01*
X85171440Y-90935000D01*
X85151933Y-90831329D01*
X85171440Y-90735000D01*
X85171440Y-90285000D01*
X85151933Y-90181329D01*
X85171440Y-90085000D01*
X85171440Y-89635000D01*
X85158020Y-89563677D01*
X85159000Y-89561310D01*
X85159000Y-89481250D01*
X85138688Y-89460938D01*
X85127162Y-89399683D01*
X85126208Y-89398200D01*
X85176000Y-89398200D01*
X85496766Y-89334396D01*
X85768697Y-89152697D01*
X85957801Y-88963593D01*
X86065784Y-88963687D01*
X86462689Y-88799689D01*
X86766622Y-88496286D01*
X86931313Y-88099668D01*
X86931687Y-87670216D01*
X86818962Y-87397400D01*
X87355891Y-87397400D01*
X87376000Y-87401400D01*
X87396109Y-87397400D01*
X87452450Y-87397400D01*
X87706391Y-87502846D01*
X88060057Y-87503154D01*
X88386920Y-87368097D01*
X88637218Y-87118236D01*
X88739403Y-86872149D01*
X89342395Y-86269157D01*
X89346067Y-86288671D01*
X89326560Y-86385000D01*
X89326560Y-86835000D01*
X89346067Y-86938671D01*
X89326560Y-87035000D01*
X89326560Y-87485000D01*
X89346067Y-87588671D01*
X89326560Y-87685000D01*
X89326560Y-88135000D01*
X89346067Y-88238671D01*
X89326560Y-88335000D01*
X89326560Y-88785000D01*
X89346067Y-88888671D01*
X89326560Y-88985000D01*
X89326560Y-89435000D01*
X89339980Y-89506323D01*
X89339000Y-89508690D01*
X89339000Y-89588750D01*
X89359312Y-89609062D01*
X89370838Y-89670317D01*
X89494329Y-89862227D01*
X89377569Y-90033110D01*
X89362442Y-90107808D01*
X89339000Y-90131250D01*
X89339000Y-90211310D01*
X89340667Y-90215335D01*
X89326560Y-90285000D01*
X89326560Y-90735000D01*
X89346067Y-90838671D01*
X89327182Y-90931929D01*
X89231943Y-90931846D01*
X88905080Y-91066903D01*
X88654782Y-91316764D01*
X88519154Y-91643391D01*
X88518846Y-91997057D01*
X88653903Y-92323920D01*
X88903764Y-92574218D01*
X89230391Y-92709846D01*
X89331252Y-92709934D01*
X89346067Y-92788671D01*
X89326560Y-92885000D01*
X89326560Y-93335000D01*
X89346067Y-93438671D01*
X89326560Y-93535000D01*
X89326560Y-93985000D01*
X89370838Y-94220317D01*
X89509910Y-94436441D01*
X89722110Y-94581431D01*
X89974000Y-94632440D01*
X91724000Y-94632440D01*
X91959317Y-94588162D01*
X92022663Y-94547400D01*
X92242964Y-94547400D01*
X92405391Y-94614846D01*
X92759057Y-94615154D01*
X93085920Y-94480097D01*
X93336218Y-94230236D01*
X93471846Y-93903609D01*
X93471855Y-93893650D01*
X93754325Y-93837463D01*
X94009776Y-93666776D01*
X95019267Y-92657285D01*
X97547760Y-92657285D01*
X97758169Y-93166515D01*
X98147436Y-93556461D01*
X98656298Y-93767759D01*
X99207285Y-93768240D01*
X99716515Y-93557831D01*
X100106461Y-93168564D01*
X100317759Y-92659702D01*
X100318240Y-92108715D01*
X100107831Y-91599485D01*
X99718564Y-91209539D01*
X99209702Y-90998241D01*
X98658715Y-90997760D01*
X98149485Y-91208169D01*
X97759539Y-91597436D01*
X97548241Y-92106298D01*
X97547760Y-92657285D01*
X95019267Y-92657285D01*
X97354152Y-90322400D01*
X101851560Y-90322400D01*
X101851560Y-90781000D01*
X101895838Y-91016317D01*
X102018139Y-91206379D01*
X101877569Y-91412110D01*
X101826560Y-91664000D01*
X101826560Y-92364000D01*
X101870838Y-92599317D01*
X102009910Y-92815441D01*
X102222110Y-92960431D01*
X102235197Y-92963081D01*
X102217918Y-92974200D01*
X101793000Y-92974200D01*
X101433354Y-93045738D01*
X101128461Y-93249461D01*
X98337362Y-96040560D01*
X96398000Y-96040560D01*
X96162683Y-96084838D01*
X95946559Y-96223910D01*
X95801569Y-96436110D01*
X95750560Y-96688000D01*
X95750560Y-98688000D01*
X95794838Y-98923317D01*
X95933910Y-99139441D01*
X96146110Y-99284431D01*
X96398000Y-99335440D01*
X97155000Y-99335440D01*
X97155000Y-102486304D01*
X97148508Y-102490482D01*
X97107699Y-102449673D01*
X96874310Y-102353000D01*
X96283750Y-102353000D01*
X96125000Y-102511750D01*
X96125000Y-103861000D01*
X96145000Y-103861000D01*
X96145000Y-104115000D01*
X96125000Y-104115000D01*
X96125000Y-105464250D01*
X96283750Y-105623000D01*
X96874310Y-105623000D01*
X97107699Y-105526327D01*
X97149660Y-105484366D01*
X97155000Y-105488015D01*
X97155000Y-107222554D01*
X95584777Y-108792777D01*
X95337006Y-109163593D01*
X95250000Y-109601000D01*
X95337006Y-110038407D01*
X95584777Y-110409223D01*
X95955593Y-110656994D01*
X96393000Y-110744000D01*
X96830407Y-110656994D01*
X97201223Y-110409223D01*
X99106223Y-108504223D01*
X99353994Y-108133407D01*
X99441000Y-107696000D01*
X99441000Y-105489696D01*
X99449477Y-105484241D01*
X99582000Y-105574790D01*
X99582000Y-107329000D01*
X99641359Y-107627420D01*
X99659338Y-107717807D01*
X99879580Y-108047420D01*
X100851848Y-109019688D01*
X100927538Y-109202873D01*
X101234511Y-109510382D01*
X101635795Y-109677010D01*
X102070299Y-109677389D01*
X102471873Y-109511462D01*
X102779382Y-109204489D01*
X102946010Y-108803205D01*
X102946389Y-108368701D01*
X102780462Y-107967127D01*
X102473489Y-107659618D01*
X102288747Y-107582906D01*
X101614000Y-106908160D01*
X101614000Y-105571418D01*
X101799441Y-105452090D01*
X101944431Y-105239890D01*
X101995440Y-104988000D01*
X101995440Y-102988000D01*
X101951162Y-102752683D01*
X101812090Y-102536559D01*
X101599890Y-102391569D01*
X101348000Y-102340560D01*
X99848000Y-102340560D01*
X99612683Y-102384838D01*
X99446523Y-102491759D01*
X99441000Y-102487985D01*
X99441000Y-100107750D01*
X101878000Y-100107750D01*
X101878000Y-100573310D01*
X101974673Y-100806699D01*
X102153302Y-100985327D01*
X102386691Y-101082000D01*
X102727250Y-101082000D01*
X102886000Y-100923250D01*
X102886000Y-99949000D01*
X102036750Y-99949000D01*
X101878000Y-100107750D01*
X99441000Y-100107750D01*
X99441000Y-99335440D01*
X100198000Y-99335440D01*
X100433317Y-99291162D01*
X100649441Y-99152090D01*
X100705059Y-99070690D01*
X101878000Y-99070690D01*
X101878000Y-99536250D01*
X102036750Y-99695000D01*
X102886000Y-99695000D01*
X102886000Y-98720750D01*
X102727250Y-98562000D01*
X102386691Y-98562000D01*
X102153302Y-98658673D01*
X101974673Y-98837301D01*
X101878000Y-99070690D01*
X100705059Y-99070690D01*
X100794431Y-98939890D01*
X100845440Y-98688000D01*
X100845440Y-96805750D01*
X101751000Y-96805750D01*
X101751000Y-97271310D01*
X101847673Y-97504699D01*
X102026302Y-97683327D01*
X102259691Y-97780000D01*
X102600250Y-97780000D01*
X102759000Y-97621250D01*
X102759000Y-96647000D01*
X101909750Y-96647000D01*
X101751000Y-96805750D01*
X100845440Y-96805750D01*
X100845440Y-96688000D01*
X100801162Y-96452683D01*
X100715898Y-96320180D01*
X101267388Y-95768690D01*
X101751000Y-95768690D01*
X101751000Y-96234250D01*
X101909750Y-96393000D01*
X102759000Y-96393000D01*
X102759000Y-95418750D01*
X102600250Y-95260000D01*
X102259691Y-95260000D01*
X102026302Y-95356673D01*
X101847673Y-95535301D01*
X101751000Y-95768690D01*
X101267388Y-95768690D01*
X102182278Y-94853800D01*
X102212405Y-94853800D01*
X102222110Y-94860431D01*
X102474000Y-94911440D01*
X103011252Y-94911440D01*
X102997154Y-94945391D01*
X102996846Y-95299057D01*
X103036565Y-95395185D01*
X103013000Y-95418750D01*
X103013000Y-96393000D01*
X103033000Y-96393000D01*
X103033000Y-96647000D01*
X103013000Y-96647000D01*
X103013000Y-97621250D01*
X103171750Y-97780000D01*
X103466762Y-97780000D01*
X103378154Y-97993391D01*
X103377846Y-98347057D01*
X103466659Y-98562000D01*
X103298750Y-98562000D01*
X103140000Y-98720750D01*
X103140000Y-99695000D01*
X103160000Y-99695000D01*
X103160000Y-99949000D01*
X103140000Y-99949000D01*
X103140000Y-100923250D01*
X103298750Y-101082000D01*
X103639309Y-101082000D01*
X103872698Y-100985327D01*
X104013936Y-100844090D01*
X104048910Y-100898441D01*
X104261110Y-101043431D01*
X104513000Y-101094440D01*
X105513000Y-101094440D01*
X105748317Y-101050162D01*
X105964441Y-100911090D01*
X106109431Y-100698890D01*
X106160440Y-100447000D01*
X106160440Y-100419091D01*
X106220776Y-100378776D01*
X106522152Y-100077400D01*
X106710000Y-100115440D01*
X108037560Y-100115440D01*
X108037560Y-101443000D01*
X108061955Y-101572651D01*
X107300046Y-102334560D01*
X106645000Y-102334560D01*
X106409683Y-102378838D01*
X106193559Y-102517910D01*
X106048569Y-102730110D01*
X106045919Y-102743197D01*
X105909090Y-102530559D01*
X105696890Y-102385569D01*
X105445000Y-102334560D01*
X104745000Y-102334560D01*
X104509683Y-102378838D01*
X104293559Y-102517910D01*
X104148569Y-102730110D01*
X104097560Y-102982000D01*
X104097560Y-104282000D01*
X104141838Y-104517317D01*
X104256800Y-104695973D01*
X104256800Y-105111709D01*
X104148569Y-105270110D01*
X104097560Y-105522000D01*
X104097560Y-106822000D01*
X104141838Y-107057317D01*
X104248411Y-107222936D01*
X104287738Y-107420646D01*
X104491461Y-107725539D01*
X105126461Y-108360539D01*
X105431354Y-108564262D01*
X105791000Y-108635800D01*
X112878126Y-108635800D01*
X113074324Y-108832341D01*
X113456944Y-108991219D01*
X113871238Y-108991580D01*
X113986570Y-108943926D01*
X113986570Y-109901990D01*
X114030848Y-110137307D01*
X114169920Y-110353431D01*
X114382120Y-110498421D01*
X114634010Y-110549430D01*
X116632990Y-110549430D01*
X116868307Y-110505152D01*
X117084431Y-110366080D01*
X117229421Y-110153880D01*
X117280430Y-109901990D01*
X117280430Y-109837500D01*
X117659210Y-109837500D01*
X118064000Y-110242290D01*
X118064000Y-110446156D01*
X117997559Y-110488910D01*
X117852569Y-110701110D01*
X117801560Y-110953000D01*
X117801560Y-112053000D01*
X117845838Y-112288317D01*
X117984910Y-112504441D01*
X118197110Y-112649431D01*
X118449000Y-112700440D01*
X119549000Y-112700440D01*
X119784317Y-112656162D01*
X120000441Y-112517090D01*
X120145431Y-112304890D01*
X120196440Y-112053000D01*
X120196440Y-110998048D01*
X120318057Y-110998154D01*
X120644920Y-110863097D01*
X120895218Y-110613236D01*
X121030846Y-110286609D01*
X121031154Y-109932943D01*
X120980200Y-109809625D01*
X120980200Y-106036594D01*
X121462800Y-106519194D01*
X121462800Y-112730422D01*
X121412154Y-112852391D01*
X121411846Y-113206057D01*
X121546903Y-113532920D01*
X121796764Y-113783218D01*
X122123391Y-113918846D01*
X122477057Y-113919154D01*
X122803920Y-113784097D01*
X123054218Y-113534236D01*
X123092206Y-113442750D01*
X126092000Y-113442750D01*
X126092000Y-114783309D01*
X126188673Y-115016698D01*
X126367301Y-115195327D01*
X126600690Y-115292000D01*
X126841250Y-115292000D01*
X127000000Y-115133250D01*
X127000000Y-113284000D01*
X126250750Y-113284000D01*
X126092000Y-113442750D01*
X123092206Y-113442750D01*
X123189846Y-113207609D01*
X123190154Y-112853943D01*
X123139200Y-112730625D01*
X123139200Y-111530691D01*
X126092000Y-111530691D01*
X126092000Y-112871250D01*
X126250750Y-113030000D01*
X127000000Y-113030000D01*
X127000000Y-111180750D01*
X126841250Y-111022000D01*
X126600690Y-111022000D01*
X126367301Y-111118673D01*
X126188673Y-111297302D01*
X126092000Y-111530691D01*
X123139200Y-111530691D01*
X123139200Y-108755846D01*
X123377234Y-108914896D01*
X123698000Y-108978700D01*
X126682500Y-108978700D01*
X127003266Y-108914896D01*
X127275197Y-108733197D01*
X127846697Y-108161697D01*
X128028396Y-107889766D01*
X128069516Y-107683040D01*
X128117600Y-107683040D01*
X128352917Y-107638762D01*
X128569041Y-107499690D01*
X128714031Y-107287490D01*
X128722864Y-107243869D01*
X128734330Y-107261029D01*
X129220511Y-107585885D01*
X129794000Y-107699959D01*
X130367489Y-107585885D01*
X130853670Y-107261029D01*
X131064000Y-106946248D01*
X131274330Y-107261029D01*
X131760511Y-107585885D01*
X132334000Y-107699959D01*
X132572380Y-107652542D01*
X131542461Y-108682461D01*
X131338738Y-108987354D01*
X131267200Y-109347000D01*
X131267200Y-111009560D01*
X130537000Y-111009560D01*
X130505200Y-111015544D01*
X130505200Y-110490000D01*
X130492501Y-110426158D01*
X130492654Y-110250443D01*
X130357597Y-109923580D01*
X130107736Y-109673282D01*
X129781109Y-109537654D01*
X129427443Y-109537346D01*
X129100580Y-109672403D01*
X128850282Y-109922264D01*
X128786723Y-110075329D01*
X128630029Y-109918635D01*
X128579597Y-109796580D01*
X128329736Y-109546282D01*
X128003109Y-109410654D01*
X127649443Y-109410346D01*
X127322580Y-109545403D01*
X127072282Y-109795264D01*
X126936654Y-110121891D01*
X126936346Y-110475557D01*
X127071403Y-110802420D01*
X127321264Y-111052718D01*
X127364202Y-111070548D01*
X127254000Y-111180750D01*
X127254000Y-113030000D01*
X127274000Y-113030000D01*
X127274000Y-113284000D01*
X127254000Y-113284000D01*
X127254000Y-115133250D01*
X127412750Y-115292000D01*
X127653310Y-115292000D01*
X127745992Y-115253610D01*
X127997000Y-115304440D01*
X128797000Y-115304440D01*
X129032317Y-115260162D01*
X129036155Y-115257693D01*
X129267000Y-115304440D01*
X129997200Y-115304440D01*
X129997200Y-118482722D01*
X129353922Y-119126000D01*
X125171200Y-119126000D01*
X125171200Y-116631578D01*
X125221846Y-116509609D01*
X125222154Y-116155943D01*
X125087097Y-115829080D01*
X124837236Y-115578782D01*
X124510609Y-115443154D01*
X124156943Y-115442846D01*
X123830080Y-115577903D01*
X123579782Y-115827764D01*
X123444154Y-116154391D01*
X123443955Y-116382723D01*
X123025378Y-116103039D01*
X122457093Y-115990000D01*
X122398907Y-115990000D01*
X121830622Y-116103039D01*
X121348853Y-116424946D01*
X121344903Y-116430858D01*
X121276327Y-116265301D01*
X121097698Y-116086673D01*
X120864309Y-115990000D01*
X120173750Y-115990000D01*
X120015000Y-116148750D01*
X120015000Y-117348000D01*
X120035000Y-117348000D01*
X120035000Y-117602000D01*
X120015000Y-117602000D01*
X120015000Y-117622000D01*
X119761000Y-117622000D01*
X119761000Y-117602000D01*
X118561750Y-117602000D01*
X118403000Y-117760750D01*
X118403000Y-118451310D01*
X118499673Y-118684699D01*
X118678302Y-118863327D01*
X118852777Y-118935597D01*
X118808853Y-118964946D01*
X118486946Y-119446715D01*
X118373907Y-120015000D01*
X118486946Y-120583285D01*
X118808853Y-121065054D01*
X119138026Y-121285000D01*
X118808853Y-121504946D01*
X118486946Y-121986715D01*
X118373907Y-122555000D01*
X118486946Y-123123285D01*
X118808853Y-123605054D01*
X119138026Y-123825000D01*
X118808853Y-124044946D01*
X118486946Y-124526715D01*
X118373907Y-125095000D01*
X118486946Y-125663285D01*
X118808853Y-126145054D01*
X119290622Y-126466961D01*
X119858907Y-126580000D01*
X119917093Y-126580000D01*
X120082802Y-126547038D01*
X120333764Y-126798000D01*
X117267990Y-126798000D01*
X117267990Y-126333250D01*
X117109240Y-126174500D01*
X115760500Y-126174500D01*
X115760500Y-126194500D01*
X115506500Y-126194500D01*
X115506500Y-126174500D01*
X114157760Y-126174500D01*
X113999010Y-126333250D01*
X113999010Y-126798000D01*
X77770990Y-126798000D01*
X77770990Y-126285750D01*
X77612240Y-126127000D01*
X76263500Y-126127000D01*
X76263500Y-126147000D01*
X76009500Y-126147000D01*
X76009500Y-126127000D01*
X75989500Y-126127000D01*
X75989500Y-125873000D01*
X76009500Y-125873000D01*
X76009500Y-124524260D01*
X76263500Y-124524260D01*
X76263500Y-125873000D01*
X77612240Y-125873000D01*
X77770990Y-125714250D01*
X77770990Y-124921700D01*
X113999010Y-124921700D01*
X113999010Y-125761750D01*
X114157760Y-125920500D01*
X115506500Y-125920500D01*
X115506500Y-124571760D01*
X115760500Y-124571760D01*
X115760500Y-125920500D01*
X117109240Y-125920500D01*
X117267990Y-125761750D01*
X117267990Y-124921700D01*
X117171317Y-124688311D01*
X116992688Y-124509683D01*
X116759299Y-124413010D01*
X115919250Y-124413010D01*
X115760500Y-124571760D01*
X115506500Y-124571760D01*
X115347750Y-124413010D01*
X114507701Y-124413010D01*
X114274312Y-124509683D01*
X114095683Y-124688311D01*
X113999010Y-124921700D01*
X77770990Y-124921700D01*
X77770990Y-124874200D01*
X77674317Y-124640811D01*
X77495688Y-124462183D01*
X77262299Y-124365510D01*
X76422250Y-124365510D01*
X76263500Y-124524260D01*
X76009500Y-124524260D01*
X75850750Y-124365510D01*
X75386000Y-124365510D01*
X75386000Y-116498690D01*
X118403000Y-116498690D01*
X118403000Y-117189250D01*
X118561750Y-117348000D01*
X119761000Y-117348000D01*
X119761000Y-116148750D01*
X119602250Y-115990000D01*
X118911691Y-115990000D01*
X118678302Y-116086673D01*
X118499673Y-116265301D01*
X118403000Y-116498690D01*
X75386000Y-116498690D01*
X75386000Y-114588750D01*
X117814000Y-114588750D01*
X117814000Y-114979309D01*
X117910673Y-115212698D01*
X118089301Y-115391327D01*
X118322690Y-115488000D01*
X118713250Y-115488000D01*
X118872000Y-115329250D01*
X118872000Y-114430000D01*
X119126000Y-114430000D01*
X119126000Y-115329250D01*
X119284750Y-115488000D01*
X119675310Y-115488000D01*
X119908699Y-115391327D01*
X120087327Y-115212698D01*
X120184000Y-114979309D01*
X120184000Y-114588750D01*
X120025250Y-114430000D01*
X119126000Y-114430000D01*
X118872000Y-114430000D01*
X117972750Y-114430000D01*
X117814000Y-114588750D01*
X75386000Y-114588750D01*
X75386000Y-113626691D01*
X117814000Y-113626691D01*
X117814000Y-114017250D01*
X117972750Y-114176000D01*
X118872000Y-114176000D01*
X118872000Y-113276750D01*
X119126000Y-113276750D01*
X119126000Y-114176000D01*
X120025250Y-114176000D01*
X120184000Y-114017250D01*
X120184000Y-113626691D01*
X120087327Y-113393302D01*
X119908699Y-113214673D01*
X119675310Y-113118000D01*
X119284750Y-113118000D01*
X119126000Y-113276750D01*
X118872000Y-113276750D01*
X118713250Y-113118000D01*
X118322690Y-113118000D01*
X118089301Y-113214673D01*
X117910673Y-113393302D01*
X117814000Y-113626691D01*
X75386000Y-113626691D01*
X75386000Y-110596930D01*
X77135990Y-110596930D01*
X77371307Y-110552652D01*
X77587431Y-110413580D01*
X77732421Y-110201380D01*
X77783430Y-109949490D01*
X77783430Y-107950510D01*
X77739152Y-107715193D01*
X77600080Y-107499069D01*
X77387880Y-107354079D01*
X77135990Y-107303070D01*
X75386000Y-107303070D01*
X75386000Y-105442750D01*
X79451000Y-105442750D01*
X79451000Y-107033310D01*
X79547673Y-107266699D01*
X79726302Y-107445327D01*
X79959691Y-107542000D01*
X81550250Y-107542000D01*
X81709000Y-107383250D01*
X81709000Y-105284000D01*
X81963000Y-105284000D01*
X81963000Y-107383250D01*
X82121750Y-107542000D01*
X83712309Y-107542000D01*
X83945698Y-107445327D01*
X84124327Y-107266699D01*
X84221000Y-107033310D01*
X84221000Y-105442750D01*
X84220000Y-105441750D01*
X86188000Y-105441750D01*
X86188000Y-105832310D01*
X86284673Y-106065699D01*
X86463302Y-106244327D01*
X86696691Y-106341000D01*
X87087250Y-106341000D01*
X87246000Y-106182250D01*
X87246000Y-105283000D01*
X87500000Y-105283000D01*
X87500000Y-106182250D01*
X87658750Y-106341000D01*
X88049309Y-106341000D01*
X88282698Y-106244327D01*
X88461327Y-106065699D01*
X88558000Y-105832310D01*
X88558000Y-105441750D01*
X88399250Y-105283000D01*
X87500000Y-105283000D01*
X87246000Y-105283000D01*
X86346750Y-105283000D01*
X86188000Y-105441750D01*
X84220000Y-105441750D01*
X84062250Y-105284000D01*
X81963000Y-105284000D01*
X81709000Y-105284000D01*
X79609750Y-105284000D01*
X79451000Y-105442750D01*
X75386000Y-105442750D01*
X75386000Y-100742750D01*
X76451000Y-100742750D01*
X76451000Y-102333310D01*
X76547673Y-102566699D01*
X76726302Y-102745327D01*
X76959691Y-102842000D01*
X78550250Y-102842000D01*
X78709000Y-102683250D01*
X78709000Y-100584000D01*
X78963000Y-100584000D01*
X78963000Y-102683250D01*
X79121750Y-102842000D01*
X79790696Y-102842000D01*
X79726302Y-102868673D01*
X79547673Y-103047301D01*
X79451000Y-103280690D01*
X79451000Y-104871250D01*
X79609750Y-105030000D01*
X81709000Y-105030000D01*
X81709000Y-102930750D01*
X81963000Y-102930750D01*
X81963000Y-105030000D01*
X84062250Y-105030000D01*
X84221000Y-104871250D01*
X84221000Y-104479690D01*
X86188000Y-104479690D01*
X86188000Y-104870250D01*
X86346750Y-105029000D01*
X87246000Y-105029000D01*
X87246000Y-104129750D01*
X87500000Y-104129750D01*
X87500000Y-105029000D01*
X88399250Y-105029000D01*
X88558000Y-104870250D01*
X88558000Y-104479690D01*
X88461327Y-104246301D01*
X88282698Y-104067673D01*
X88049309Y-103971000D01*
X87658750Y-103971000D01*
X87500000Y-104129750D01*
X87246000Y-104129750D01*
X87087250Y-103971000D01*
X86696691Y-103971000D01*
X86463302Y-104067673D01*
X86284673Y-104246301D01*
X86188000Y-104479690D01*
X84221000Y-104479690D01*
X84221000Y-103280690D01*
X84124327Y-103047301D01*
X83945698Y-102868673D01*
X83911337Y-102854440D01*
X86586000Y-102854440D01*
X86821317Y-102810162D01*
X86881751Y-102771273D01*
X86995000Y-102793800D01*
X87158897Y-102793800D01*
X87262910Y-102955441D01*
X87475110Y-103100431D01*
X87727000Y-103151440D01*
X88427000Y-103151440D01*
X88662317Y-103107162D01*
X88878441Y-102968090D01*
X89023431Y-102755890D01*
X89026081Y-102742803D01*
X89162910Y-102955441D01*
X89284000Y-103038178D01*
X89284000Y-104069556D01*
X89171559Y-104141910D01*
X89026569Y-104354110D01*
X88975560Y-104606000D01*
X88975560Y-105706000D01*
X89019838Y-105941317D01*
X89158910Y-106157441D01*
X89371110Y-106302431D01*
X89623000Y-106353440D01*
X90723000Y-106353440D01*
X90958317Y-106309162D01*
X91174441Y-106170090D01*
X91259942Y-106044954D01*
X91489057Y-106045154D01*
X91785731Y-105922571D01*
X92112265Y-106249105D01*
X92175311Y-106401689D01*
X92478714Y-106705622D01*
X92875332Y-106870313D01*
X93304784Y-106870687D01*
X93701689Y-106706689D01*
X94005622Y-106403286D01*
X94170313Y-106006668D01*
X94170687Y-105577216D01*
X94006689Y-105180311D01*
X93703286Y-104876378D01*
X93549262Y-104812421D01*
X93509388Y-104772547D01*
X93575431Y-104675890D01*
X93626440Y-104424000D01*
X93626440Y-104273750D01*
X94613000Y-104273750D01*
X94613000Y-105114309D01*
X94709673Y-105347698D01*
X94888301Y-105526327D01*
X95121690Y-105623000D01*
X95712250Y-105623000D01*
X95871000Y-105464250D01*
X95871000Y-104115000D01*
X94771750Y-104115000D01*
X94613000Y-104273750D01*
X93626440Y-104273750D01*
X93626440Y-103724000D01*
X93582162Y-103488683D01*
X93443090Y-103272559D01*
X93230890Y-103127569D01*
X93217803Y-103124919D01*
X93430441Y-102988090D01*
X93516805Y-102861691D01*
X94613000Y-102861691D01*
X94613000Y-103702250D01*
X94771750Y-103861000D01*
X95871000Y-103861000D01*
X95871000Y-102511750D01*
X95712250Y-102353000D01*
X95121690Y-102353000D01*
X94888301Y-102449673D01*
X94709673Y-102628302D01*
X94613000Y-102861691D01*
X93516805Y-102861691D01*
X93575431Y-102775890D01*
X93626440Y-102524000D01*
X93626440Y-101824000D01*
X93582162Y-101588683D01*
X93443090Y-101372559D01*
X93345000Y-101305537D01*
X93345000Y-100865896D01*
X93380441Y-100843090D01*
X93525431Y-100630890D01*
X93576440Y-100379000D01*
X93576440Y-99179000D01*
X93532162Y-98943683D01*
X93393090Y-98727559D01*
X93324994Y-98681031D01*
X93467327Y-98538698D01*
X93564000Y-98305309D01*
X93564000Y-97864750D01*
X93405250Y-97706000D01*
X92456000Y-97706000D01*
X92456000Y-97726000D01*
X92202000Y-97726000D01*
X92202000Y-97706000D01*
X92182000Y-97706000D01*
X92182000Y-97452000D01*
X92202000Y-97452000D01*
X92202000Y-96502750D01*
X92456000Y-96502750D01*
X92456000Y-97452000D01*
X93405250Y-97452000D01*
X93564000Y-97293250D01*
X93564000Y-96852691D01*
X93467327Y-96619302D01*
X93288699Y-96440673D01*
X93055310Y-96344000D01*
X92614750Y-96344000D01*
X92456000Y-96502750D01*
X92202000Y-96502750D01*
X92043250Y-96344000D01*
X91602690Y-96344000D01*
X91369301Y-96440673D01*
X91259184Y-96550790D01*
X89450529Y-94742135D01*
X89400097Y-94620080D01*
X89150236Y-94369782D01*
X88823609Y-94234154D01*
X88469943Y-94233846D01*
X88143080Y-94368903D01*
X87892782Y-94618764D01*
X87757154Y-94945391D01*
X87756846Y-95299057D01*
X87891903Y-95625920D01*
X88141764Y-95876218D01*
X88264994Y-95927388D01*
X90220800Y-97883194D01*
X90220800Y-98270560D01*
X89627000Y-98270560D01*
X89391683Y-98314838D01*
X89175559Y-98453910D01*
X89030569Y-98666110D01*
X89023809Y-98699490D01*
X88965327Y-98558301D01*
X88786698Y-98379673D01*
X88553309Y-98283000D01*
X88362750Y-98283000D01*
X88204000Y-98441750D01*
X88204000Y-99441000D01*
X88224000Y-99441000D01*
X88224000Y-99695000D01*
X88204000Y-99695000D01*
X88204000Y-99715000D01*
X87950000Y-99715000D01*
X87950000Y-99695000D01*
X87930000Y-99695000D01*
X87930000Y-99441000D01*
X87950000Y-99441000D01*
X87950000Y-98441750D01*
X87791250Y-98283000D01*
X87600691Y-98283000D01*
X87367302Y-98379673D01*
X87202802Y-98544172D01*
X87189162Y-98471683D01*
X87050090Y-98255559D01*
X86837890Y-98110569D01*
X86586000Y-98059560D01*
X83086000Y-98059560D01*
X82850683Y-98103838D01*
X82634559Y-98242910D01*
X82489569Y-98455110D01*
X82438560Y-98707000D01*
X82438560Y-102207000D01*
X82482838Y-102442317D01*
X82621910Y-102658441D01*
X82788109Y-102772000D01*
X82121750Y-102772000D01*
X81963000Y-102930750D01*
X81709000Y-102930750D01*
X81550250Y-102772000D01*
X80881304Y-102772000D01*
X80945698Y-102745327D01*
X81124327Y-102566699D01*
X81221000Y-102333310D01*
X81221000Y-100742750D01*
X81062250Y-100584000D01*
X78963000Y-100584000D01*
X78709000Y-100584000D01*
X76609750Y-100584000D01*
X76451000Y-100742750D01*
X75386000Y-100742750D01*
X75386000Y-98580690D01*
X76451000Y-98580690D01*
X76451000Y-100171250D01*
X76609750Y-100330000D01*
X78709000Y-100330000D01*
X78709000Y-98230750D01*
X78963000Y-98230750D01*
X78963000Y-100330000D01*
X81062250Y-100330000D01*
X81221000Y-100171250D01*
X81221000Y-98580690D01*
X81124327Y-98347301D01*
X80945698Y-98168673D01*
X80712309Y-98072000D01*
X79121750Y-98072000D01*
X78963000Y-98230750D01*
X78709000Y-98230750D01*
X78550250Y-98072000D01*
X76959691Y-98072000D01*
X76726302Y-98168673D01*
X76547673Y-98347301D01*
X76451000Y-98580690D01*
X75386000Y-98580690D01*
X75386000Y-94006065D01*
X75420322Y-94035002D01*
X75845000Y-94170000D01*
X76120000Y-94170000D01*
X76120000Y-93162000D01*
X76374000Y-93162000D01*
X76374000Y-94170000D01*
X76649000Y-94170000D01*
X77073678Y-94035002D01*
X77414368Y-93747763D01*
X77616119Y-93336874D01*
X77489954Y-93162000D01*
X76374000Y-93162000D01*
X76120000Y-93162000D01*
X76100000Y-93162000D01*
X76100000Y-92908000D01*
X76120000Y-92908000D01*
X76120000Y-91900000D01*
X76374000Y-91900000D01*
X76374000Y-92908000D01*
X77489954Y-92908000D01*
X77616119Y-92733126D01*
X77421191Y-92336131D01*
X77845771Y-92336131D01*
X77987432Y-92746049D01*
X78275179Y-93070552D01*
X78649062Y-93254268D01*
X78820000Y-93127734D01*
X78820000Y-92162000D01*
X79074000Y-92162000D01*
X79074000Y-93127734D01*
X79244938Y-93254268D01*
X79618821Y-93070552D01*
X79906568Y-92746049D01*
X80048229Y-92336131D01*
X79899563Y-92162000D01*
X79074000Y-92162000D01*
X78820000Y-92162000D01*
X77994437Y-92162000D01*
X77845771Y-92336131D01*
X77421191Y-92336131D01*
X77414368Y-92322237D01*
X77073678Y-92034998D01*
X76649000Y-91900000D01*
X76374000Y-91900000D01*
X76120000Y-91900000D01*
X75845000Y-91900000D01*
X75420322Y-92034998D01*
X75386000Y-92063935D01*
X75386000Y-87006065D01*
X75420322Y-87035002D01*
X75845000Y-87170000D01*
X76120000Y-87170000D01*
X76120000Y-86162000D01*
X76374000Y-86162000D01*
X76374000Y-87170000D01*
X76649000Y-87170000D01*
X77073678Y-87035002D01*
X77414368Y-86747763D01*
X77421190Y-86733869D01*
X77845771Y-86733869D01*
X77994437Y-86908000D01*
X78820000Y-86908000D01*
X78820000Y-85942266D01*
X78649062Y-85815732D01*
X78275179Y-85999448D01*
X77987432Y-86323951D01*
X77845771Y-86733869D01*
X77421190Y-86733869D01*
X77616119Y-86336874D01*
X77489954Y-86162000D01*
X76374000Y-86162000D01*
X76120000Y-86162000D01*
X76100000Y-86162000D01*
X76100000Y-85908000D01*
X76120000Y-85908000D01*
X76120000Y-84900000D01*
X76374000Y-84900000D01*
X76374000Y-85908000D01*
X77489954Y-85908000D01*
X77616119Y-85733126D01*
X77414368Y-85322237D01*
X77073678Y-85034998D01*
X76649000Y-84900000D01*
X76374000Y-84900000D01*
X76120000Y-84900000D01*
X75845000Y-84900000D01*
X75420322Y-85034998D01*
X75386000Y-85063935D01*
X75386000Y-82700885D01*
X75452736Y-82881387D01*
X76062461Y-83107908D01*
X76712460Y-83083856D01*
X77201264Y-82881387D01*
X77299927Y-82614532D01*
X81854073Y-82614532D01*
X81952736Y-82881387D01*
X82562461Y-83107908D01*
X83212460Y-83083856D01*
X83701264Y-82881387D01*
X83799927Y-82614532D01*
X82827000Y-81641605D01*
X81854073Y-82614532D01*
X77299927Y-82614532D01*
X76327000Y-81641605D01*
X76312858Y-81655748D01*
X76133253Y-81476143D01*
X76147395Y-81462000D01*
X76506605Y-81462000D01*
X77479532Y-82434927D01*
X77746387Y-82336264D01*
X77972908Y-81726539D01*
X77953331Y-81197461D01*
X81181092Y-81197461D01*
X81205144Y-81847460D01*
X81407613Y-82336264D01*
X81674468Y-82434927D01*
X82647395Y-81462000D01*
X83006605Y-81462000D01*
X83979532Y-82434927D01*
X84246387Y-82336264D01*
X84472908Y-81726539D01*
X84448856Y-81076540D01*
X84246387Y-80587736D01*
X83979532Y-80489073D01*
X83006605Y-81462000D01*
X82647395Y-81462000D01*
X81674468Y-80489073D01*
X81407613Y-80587736D01*
X81181092Y-81197461D01*
X77953331Y-81197461D01*
X77948856Y-81076540D01*
X77746387Y-80587736D01*
X77479532Y-80489073D01*
X76506605Y-81462000D01*
X76147395Y-81462000D01*
X76133253Y-81447858D01*
X76312858Y-81268253D01*
X76327000Y-81282395D01*
X77299927Y-80309468D01*
X81854073Y-80309468D01*
X82827000Y-81282395D01*
X83693704Y-80415691D01*
X89037000Y-80415691D01*
X89037000Y-80756250D01*
X89195750Y-80915000D01*
X90170000Y-80915000D01*
X90170000Y-80065750D01*
X90424000Y-80065750D01*
X90424000Y-80915000D01*
X91398250Y-80915000D01*
X91557000Y-80756250D01*
X91557000Y-80415691D01*
X91460327Y-80182302D01*
X91281699Y-80003673D01*
X91048310Y-79907000D01*
X90582750Y-79907000D01*
X90424000Y-80065750D01*
X90170000Y-80065750D01*
X90011250Y-79907000D01*
X89545690Y-79907000D01*
X89312301Y-80003673D01*
X89133673Y-80182302D01*
X89037000Y-80415691D01*
X83693704Y-80415691D01*
X83799927Y-80309468D01*
X83701264Y-80042613D01*
X83091539Y-79816092D01*
X82441540Y-79840144D01*
X81952736Y-80042613D01*
X81854073Y-80309468D01*
X77299927Y-80309468D01*
X77201264Y-80042613D01*
X76591539Y-79816092D01*
X75941540Y-79840144D01*
X75452736Y-80042613D01*
X75386000Y-80223115D01*
X75386000Y-78333617D01*
X75399637Y-78347278D01*
X76000352Y-78596716D01*
X76650795Y-78597284D01*
X77251943Y-78348894D01*
X77712278Y-77889363D01*
X77961716Y-77288648D01*
X77962284Y-76638205D01*
X77713894Y-76037057D01*
X77571087Y-75894000D01*
X81582605Y-75894000D01*
X81441722Y-76034637D01*
G36*
X112395000Y-105283000D02*
X112415000Y-105283000D01*
X112415000Y-105537000D01*
X112395000Y-105537000D01*
X112395000Y-105557000D01*
X112141000Y-105557000D01*
X112141000Y-105537000D01*
X112121000Y-105537000D01*
X112121000Y-105283000D01*
X112141000Y-105283000D01*
X112141000Y-105263000D01*
X112395000Y-105263000D01*
X112395000Y-105283000D01*
X112395000Y-105283000D01*
G37*
X112395000Y-105283000D02*
X112415000Y-105283000D01*
X112415000Y-105537000D01*
X112395000Y-105537000D01*
X112395000Y-105557000D01*
X112141000Y-105557000D01*
X112141000Y-105537000D01*
X112121000Y-105537000D01*
X112121000Y-105283000D01*
X112141000Y-105283000D01*
X112141000Y-105263000D01*
X112395000Y-105263000D01*
X112395000Y-105283000D01*
G36*
X139115800Y-102963194D02*
X139115800Y-103665806D01*
X138842173Y-103939433D01*
X138748469Y-103759000D01*
X137541000Y-103759000D01*
X137541000Y-103779000D01*
X137287000Y-103779000D01*
X137287000Y-103759000D01*
X135001000Y-103759000D01*
X135001000Y-103779000D01*
X134747000Y-103779000D01*
X134747000Y-103759000D01*
X134727000Y-103759000D01*
X134727000Y-103505000D01*
X134747000Y-103505000D01*
X134747000Y-103485000D01*
X135001000Y-103485000D01*
X135001000Y-103505000D01*
X137287000Y-103505000D01*
X137287000Y-103485000D01*
X137541000Y-103485000D01*
X137541000Y-103505000D01*
X138748469Y-103505000D01*
X138868968Y-103272973D01*
X138620821Y-102743510D01*
X138188947Y-102349312D01*
X138096931Y-102311200D01*
X138463806Y-102311200D01*
X139115800Y-102963194D01*
X139115800Y-102963194D01*
G37*
X139115800Y-102963194D02*
X139115800Y-103665806D01*
X138842173Y-103939433D01*
X138748469Y-103759000D01*
X137541000Y-103759000D01*
X137541000Y-103779000D01*
X137287000Y-103779000D01*
X137287000Y-103759000D01*
X135001000Y-103759000D01*
X135001000Y-103779000D01*
X134747000Y-103779000D01*
X134747000Y-103759000D01*
X134727000Y-103759000D01*
X134727000Y-103505000D01*
X134747000Y-103505000D01*
X134747000Y-103485000D01*
X135001000Y-103485000D01*
X135001000Y-103505000D01*
X137287000Y-103505000D01*
X137287000Y-103485000D01*
X137541000Y-103485000D01*
X137541000Y-103505000D01*
X138748469Y-103505000D01*
X138868968Y-103272973D01*
X138620821Y-102743510D01*
X138188947Y-102349312D01*
X138096931Y-102311200D01*
X138463806Y-102311200D01*
X139115800Y-102963194D01*
G36*
X129921000Y-103505000D02*
X132207000Y-103505000D01*
X132207000Y-103485000D01*
X132461000Y-103485000D01*
X132461000Y-103505000D01*
X132481000Y-103505000D01*
X132481000Y-103759000D01*
X132461000Y-103759000D01*
X132461000Y-103779000D01*
X132207000Y-103779000D01*
X132207000Y-103759000D01*
X129921000Y-103759000D01*
X129921000Y-103779000D01*
X129667000Y-103779000D01*
X129667000Y-103759000D01*
X129647000Y-103759000D01*
X129647000Y-103505000D01*
X129667000Y-103505000D01*
X129667000Y-103485000D01*
X129921000Y-103485000D01*
X129921000Y-103505000D01*
X129921000Y-103505000D01*
G37*
X129921000Y-103505000D02*
X132207000Y-103505000D01*
X132207000Y-103485000D01*
X132461000Y-103485000D01*
X132461000Y-103505000D01*
X132481000Y-103505000D01*
X132481000Y-103759000D01*
X132461000Y-103759000D01*
X132461000Y-103779000D01*
X132207000Y-103779000D01*
X132207000Y-103759000D01*
X129921000Y-103759000D01*
X129921000Y-103779000D01*
X129667000Y-103779000D01*
X129667000Y-103759000D01*
X129647000Y-103759000D01*
X129647000Y-103505000D01*
X129667000Y-103505000D01*
X129667000Y-103485000D01*
X129921000Y-103485000D01*
X129921000Y-103505000D01*
G36*
X131089705Y-94992257D02*
X130937000Y-95072845D01*
X130937000Y-96266000D01*
X130957000Y-96266000D01*
X130957000Y-96520000D01*
X130937000Y-96520000D01*
X130937000Y-97713155D01*
X131166890Y-97834476D01*
X131576924Y-97664645D01*
X132005183Y-97274358D01*
X132072298Y-97131447D01*
X132299946Y-97472147D01*
X132781715Y-97794054D01*
X133350000Y-97907093D01*
X133918285Y-97794054D01*
X134400054Y-97472147D01*
X134620000Y-97142974D01*
X134839946Y-97472147D01*
X135321715Y-97794054D01*
X135890000Y-97907093D01*
X136458285Y-97794054D01*
X136940054Y-97472147D01*
X137160000Y-97142974D01*
X137379946Y-97472147D01*
X137550720Y-97586254D01*
X137561738Y-97641646D01*
X137765461Y-97946539D01*
X140665200Y-100846278D01*
X140665200Y-102200655D01*
X140546697Y-102023303D01*
X139403697Y-100880303D01*
X139131766Y-100698604D01*
X138811000Y-100634800D01*
X135300578Y-100634800D01*
X135178609Y-100584154D01*
X134824943Y-100583846D01*
X134498080Y-100718903D01*
X134247782Y-100968764D01*
X134112154Y-101295391D01*
X134111846Y-101649057D01*
X134246903Y-101975920D01*
X134467360Y-102196763D01*
X134199515Y-102307702D01*
X134160776Y-102249724D01*
X132192276Y-100281224D01*
X131936825Y-100110537D01*
X131635500Y-100050600D01*
X124786152Y-100050600D01*
X124762776Y-100027224D01*
X124507325Y-99856537D01*
X124206000Y-99796600D01*
X123570857Y-99796600D01*
X123571187Y-99417716D01*
X123407189Y-99020811D01*
X123103786Y-98716878D01*
X123031343Y-98686797D01*
X123039000Y-98668310D01*
X123039000Y-98202750D01*
X122880250Y-98044000D01*
X122031000Y-98044000D01*
X122031000Y-98064000D01*
X121777000Y-98064000D01*
X121777000Y-98044000D01*
X121757000Y-98044000D01*
X121757000Y-97790000D01*
X121777000Y-97790000D01*
X121777000Y-96815750D01*
X121650000Y-96688750D01*
X121650000Y-95758000D01*
X121630000Y-95758000D01*
X121630000Y-95504000D01*
X121650000Y-95504000D01*
X121650000Y-94529750D01*
X121491250Y-94371000D01*
X121150691Y-94371000D01*
X120917302Y-94467673D01*
X120776064Y-94608910D01*
X120741090Y-94554559D01*
X120528890Y-94409569D01*
X120277000Y-94358560D01*
X119277000Y-94358560D01*
X119041683Y-94402838D01*
X118848091Y-94527411D01*
X119253302Y-94122200D01*
X122764709Y-94122200D01*
X122923110Y-94230431D01*
X122956490Y-94237191D01*
X122815301Y-94295673D01*
X122640000Y-94470975D01*
X122636698Y-94467673D01*
X122403309Y-94371000D01*
X122062750Y-94371000D01*
X121904000Y-94529750D01*
X121904000Y-95504000D01*
X121924000Y-95504000D01*
X121924000Y-95758000D01*
X121904000Y-95758000D01*
X121904000Y-96732250D01*
X122031000Y-96859250D01*
X122031000Y-97790000D01*
X122880250Y-97790000D01*
X123039000Y-97631250D01*
X123039000Y-97165690D01*
X122942327Y-96932301D01*
X122763698Y-96753673D01*
X122702642Y-96728383D01*
X122815327Y-96615699D01*
X122912000Y-96382310D01*
X122912000Y-96112381D01*
X123048690Y-96169000D01*
X123539250Y-96169000D01*
X123698000Y-96010250D01*
X123698000Y-95311000D01*
X123678000Y-95311000D01*
X123678000Y-95057000D01*
X123698000Y-95057000D01*
X123698000Y-95037000D01*
X123952000Y-95037000D01*
X123952000Y-95057000D01*
X123972000Y-95057000D01*
X123972000Y-95311000D01*
X123952000Y-95311000D01*
X123952000Y-96010250D01*
X124110750Y-96169000D01*
X124383800Y-96169000D01*
X124383800Y-96647000D01*
X124447604Y-96967766D01*
X124629303Y-97239697D01*
X125518303Y-98128697D01*
X125790235Y-98310396D01*
X125874920Y-98327241D01*
X126047853Y-98586054D01*
X126529622Y-98907961D01*
X127097907Y-99021000D01*
X127156093Y-99021000D01*
X127724378Y-98907961D01*
X128206147Y-98586054D01*
X128528054Y-98104285D01*
X128641093Y-97536000D01*
X128528054Y-96967715D01*
X128382510Y-96749892D01*
X129368514Y-96749892D01*
X129614817Y-97274358D01*
X130043076Y-97664645D01*
X130453110Y-97834476D01*
X130683000Y-97713155D01*
X130683000Y-96520000D01*
X129489181Y-96520000D01*
X129368514Y-96749892D01*
X128382510Y-96749892D01*
X128206147Y-96485946D01*
X128164548Y-96458150D01*
X128212317Y-96449162D01*
X128428441Y-96310090D01*
X128573431Y-96097890D01*
X128585942Y-96036108D01*
X129368514Y-96036108D01*
X129489181Y-96266000D01*
X130683000Y-96266000D01*
X130683000Y-95072845D01*
X130453110Y-94951524D01*
X130043076Y-95121355D01*
X129614817Y-95511642D01*
X129368514Y-96036108D01*
X128585942Y-96036108D01*
X128624440Y-95846000D01*
X128624440Y-94672099D01*
X129343308Y-93691825D01*
X129394879Y-93581249D01*
X129462662Y-93479806D01*
X129477885Y-93403275D01*
X129485149Y-93387701D01*
X131089705Y-94992257D01*
X131089705Y-94992257D01*
G37*
X131089705Y-94992257D02*
X130937000Y-95072845D01*
X130937000Y-96266000D01*
X130957000Y-96266000D01*
X130957000Y-96520000D01*
X130937000Y-96520000D01*
X130937000Y-97713155D01*
X131166890Y-97834476D01*
X131576924Y-97664645D01*
X132005183Y-97274358D01*
X132072298Y-97131447D01*
X132299946Y-97472147D01*
X132781715Y-97794054D01*
X133350000Y-97907093D01*
X133918285Y-97794054D01*
X134400054Y-97472147D01*
X134620000Y-97142974D01*
X134839946Y-97472147D01*
X135321715Y-97794054D01*
X135890000Y-97907093D01*
X136458285Y-97794054D01*
X136940054Y-97472147D01*
X137160000Y-97142974D01*
X137379946Y-97472147D01*
X137550720Y-97586254D01*
X137561738Y-97641646D01*
X137765461Y-97946539D01*
X140665200Y-100846278D01*
X140665200Y-102200655D01*
X140546697Y-102023303D01*
X139403697Y-100880303D01*
X139131766Y-100698604D01*
X138811000Y-100634800D01*
X135300578Y-100634800D01*
X135178609Y-100584154D01*
X134824943Y-100583846D01*
X134498080Y-100718903D01*
X134247782Y-100968764D01*
X134112154Y-101295391D01*
X134111846Y-101649057D01*
X134246903Y-101975920D01*
X134467360Y-102196763D01*
X134199515Y-102307702D01*
X134160776Y-102249724D01*
X132192276Y-100281224D01*
X131936825Y-100110537D01*
X131635500Y-100050600D01*
X124786152Y-100050600D01*
X124762776Y-100027224D01*
X124507325Y-99856537D01*
X124206000Y-99796600D01*
X123570857Y-99796600D01*
X123571187Y-99417716D01*
X123407189Y-99020811D01*
X123103786Y-98716878D01*
X123031343Y-98686797D01*
X123039000Y-98668310D01*
X123039000Y-98202750D01*
X122880250Y-98044000D01*
X122031000Y-98044000D01*
X122031000Y-98064000D01*
X121777000Y-98064000D01*
X121777000Y-98044000D01*
X121757000Y-98044000D01*
X121757000Y-97790000D01*
X121777000Y-97790000D01*
X121777000Y-96815750D01*
X121650000Y-96688750D01*
X121650000Y-95758000D01*
X121630000Y-95758000D01*
X121630000Y-95504000D01*
X121650000Y-95504000D01*
X121650000Y-94529750D01*
X121491250Y-94371000D01*
X121150691Y-94371000D01*
X120917302Y-94467673D01*
X120776064Y-94608910D01*
X120741090Y-94554559D01*
X120528890Y-94409569D01*
X120277000Y-94358560D01*
X119277000Y-94358560D01*
X119041683Y-94402838D01*
X118848091Y-94527411D01*
X119253302Y-94122200D01*
X122764709Y-94122200D01*
X122923110Y-94230431D01*
X122956490Y-94237191D01*
X122815301Y-94295673D01*
X122640000Y-94470975D01*
X122636698Y-94467673D01*
X122403309Y-94371000D01*
X122062750Y-94371000D01*
X121904000Y-94529750D01*
X121904000Y-95504000D01*
X121924000Y-95504000D01*
X121924000Y-95758000D01*
X121904000Y-95758000D01*
X121904000Y-96732250D01*
X122031000Y-96859250D01*
X122031000Y-97790000D01*
X122880250Y-97790000D01*
X123039000Y-97631250D01*
X123039000Y-97165690D01*
X122942327Y-96932301D01*
X122763698Y-96753673D01*
X122702642Y-96728383D01*
X122815327Y-96615699D01*
X122912000Y-96382310D01*
X122912000Y-96112381D01*
X123048690Y-96169000D01*
X123539250Y-96169000D01*
X123698000Y-96010250D01*
X123698000Y-95311000D01*
X123678000Y-95311000D01*
X123678000Y-95057000D01*
X123698000Y-95057000D01*
X123698000Y-95037000D01*
X123952000Y-95037000D01*
X123952000Y-95057000D01*
X123972000Y-95057000D01*
X123972000Y-95311000D01*
X123952000Y-95311000D01*
X123952000Y-96010250D01*
X124110750Y-96169000D01*
X124383800Y-96169000D01*
X124383800Y-96647000D01*
X124447604Y-96967766D01*
X124629303Y-97239697D01*
X125518303Y-98128697D01*
X125790235Y-98310396D01*
X125874920Y-98327241D01*
X126047853Y-98586054D01*
X126529622Y-98907961D01*
X127097907Y-99021000D01*
X127156093Y-99021000D01*
X127724378Y-98907961D01*
X128206147Y-98586054D01*
X128528054Y-98104285D01*
X128641093Y-97536000D01*
X128528054Y-96967715D01*
X128382510Y-96749892D01*
X129368514Y-96749892D01*
X129614817Y-97274358D01*
X130043076Y-97664645D01*
X130453110Y-97834476D01*
X130683000Y-97713155D01*
X130683000Y-96520000D01*
X129489181Y-96520000D01*
X129368514Y-96749892D01*
X128382510Y-96749892D01*
X128206147Y-96485946D01*
X128164548Y-96458150D01*
X128212317Y-96449162D01*
X128428441Y-96310090D01*
X128573431Y-96097890D01*
X128585942Y-96036108D01*
X129368514Y-96036108D01*
X129489181Y-96266000D01*
X130683000Y-96266000D01*
X130683000Y-95072845D01*
X130453110Y-94951524D01*
X130043076Y-95121355D01*
X129614817Y-95511642D01*
X129368514Y-96036108D01*
X128585942Y-96036108D01*
X128624440Y-95846000D01*
X128624440Y-94672099D01*
X129343308Y-93691825D01*
X129394879Y-93581249D01*
X129462662Y-93479806D01*
X129477885Y-93403275D01*
X129485149Y-93387701D01*
X131089705Y-94992257D01*
G36*
X111048800Y-94615000D02*
X111112604Y-94935766D01*
X111294303Y-95207697D01*
X112657406Y-96570800D01*
X111760000Y-96570800D01*
X111439234Y-96634604D01*
X111259348Y-96754800D01*
X110360628Y-96754800D01*
X110489846Y-96443609D01*
X110490154Y-96089943D01*
X110388400Y-95843679D01*
X110388400Y-95068152D01*
X111048800Y-94407752D01*
X111048800Y-94615000D01*
X111048800Y-94615000D01*
G37*
X111048800Y-94615000D02*
X111112604Y-94935766D01*
X111294303Y-95207697D01*
X112657406Y-96570800D01*
X111760000Y-96570800D01*
X111439234Y-96634604D01*
X111259348Y-96754800D01*
X110360628Y-96754800D01*
X110489846Y-96443609D01*
X110490154Y-96089943D01*
X110388400Y-95843679D01*
X110388400Y-95068152D01*
X111048800Y-94407752D01*
X111048800Y-94615000D01*
G36*
X138430000Y-92075000D02*
X138450000Y-92075000D01*
X138450000Y-92329000D01*
X138430000Y-92329000D01*
X138430000Y-93522155D01*
X138607889Y-93616033D01*
X137765461Y-94458461D01*
X137561738Y-94763354D01*
X137490200Y-95123000D01*
X137490200Y-95240184D01*
X137379946Y-95313853D01*
X137160000Y-95643026D01*
X136940054Y-95313853D01*
X136677400Y-95138354D01*
X136677400Y-95123000D01*
X136617463Y-94821675D01*
X136446776Y-94566224D01*
X135555339Y-93674787D01*
X135763000Y-93716093D01*
X136331285Y-93603054D01*
X136813054Y-93281147D01*
X137040702Y-92940447D01*
X137107817Y-93083358D01*
X137536076Y-93473645D01*
X137946110Y-93643476D01*
X138176000Y-93522155D01*
X138176000Y-92329000D01*
X138156000Y-92329000D01*
X138156000Y-92075000D01*
X138176000Y-92075000D01*
X138176000Y-92055000D01*
X138430000Y-92055000D01*
X138430000Y-92075000D01*
X138430000Y-92075000D01*
G37*
X138430000Y-92075000D02*
X138450000Y-92075000D01*
X138450000Y-92329000D01*
X138430000Y-92329000D01*
X138430000Y-93522155D01*
X138607889Y-93616033D01*
X137765461Y-94458461D01*
X137561738Y-94763354D01*
X137490200Y-95123000D01*
X137490200Y-95240184D01*
X137379946Y-95313853D01*
X137160000Y-95643026D01*
X136940054Y-95313853D01*
X136677400Y-95138354D01*
X136677400Y-95123000D01*
X136617463Y-94821675D01*
X136446776Y-94566224D01*
X135555339Y-93674787D01*
X135763000Y-93716093D01*
X136331285Y-93603054D01*
X136813054Y-93281147D01*
X137040702Y-92940447D01*
X137107817Y-93083358D01*
X137536076Y-93473645D01*
X137946110Y-93643476D01*
X138176000Y-93522155D01*
X138176000Y-92329000D01*
X138156000Y-92329000D01*
X138156000Y-92075000D01*
X138176000Y-92075000D01*
X138176000Y-92055000D01*
X138430000Y-92055000D01*
X138430000Y-92075000D01*
G36*
X124790845Y-88011000D02*
X125984000Y-88011000D01*
X125984000Y-87991000D01*
X126238000Y-87991000D01*
X126238000Y-88011000D01*
X126258000Y-88011000D01*
X126258000Y-88265000D01*
X126238000Y-88265000D01*
X126238000Y-89458819D01*
X126467892Y-89579486D01*
X126992358Y-89333183D01*
X127382645Y-88904924D01*
X127508000Y-88602271D01*
X127508000Y-92758392D01*
X126965210Y-93498560D01*
X126277000Y-93498560D01*
X126041683Y-93542838D01*
X126025800Y-93553059D01*
X125996396Y-93405235D01*
X125814697Y-93133303D01*
X125372697Y-92691303D01*
X125100766Y-92509604D01*
X124928531Y-92475345D01*
X124726890Y-92337569D01*
X124475000Y-92286560D01*
X123175000Y-92286560D01*
X122939683Y-92330838D01*
X122761027Y-92445800D01*
X120067594Y-92445800D01*
X124018504Y-88494890D01*
X124669524Y-88494890D01*
X124839355Y-88904924D01*
X125229642Y-89333183D01*
X125754108Y-89579486D01*
X125984000Y-89458819D01*
X125984000Y-88265000D01*
X124790845Y-88265000D01*
X124669524Y-88494890D01*
X124018504Y-88494890D01*
X124691204Y-87822190D01*
X124790845Y-88011000D01*
X124790845Y-88011000D01*
G37*
X124790845Y-88011000D02*
X125984000Y-88011000D01*
X125984000Y-87991000D01*
X126238000Y-87991000D01*
X126238000Y-88011000D01*
X126258000Y-88011000D01*
X126258000Y-88265000D01*
X126238000Y-88265000D01*
X126238000Y-89458819D01*
X126467892Y-89579486D01*
X126992358Y-89333183D01*
X127382645Y-88904924D01*
X127508000Y-88602271D01*
X127508000Y-92758392D01*
X126965210Y-93498560D01*
X126277000Y-93498560D01*
X126041683Y-93542838D01*
X126025800Y-93553059D01*
X125996396Y-93405235D01*
X125814697Y-93133303D01*
X125372697Y-92691303D01*
X125100766Y-92509604D01*
X124928531Y-92475345D01*
X124726890Y-92337569D01*
X124475000Y-92286560D01*
X123175000Y-92286560D01*
X122939683Y-92330838D01*
X122761027Y-92445800D01*
X120067594Y-92445800D01*
X124018504Y-88494890D01*
X124669524Y-88494890D01*
X124839355Y-88904924D01*
X125229642Y-89333183D01*
X125754108Y-89579486D01*
X125984000Y-89458819D01*
X125984000Y-88265000D01*
X124790845Y-88265000D01*
X124669524Y-88494890D01*
X124018504Y-88494890D01*
X124691204Y-87822190D01*
X124790845Y-88011000D01*
G36*
X141351000Y-77089000D02*
X141371000Y-77089000D01*
X141371000Y-77343000D01*
X141351000Y-77343000D01*
X141351000Y-78542250D01*
X141509750Y-78701000D01*
X142200310Y-78701000D01*
X142292000Y-78663021D01*
X142292000Y-81303680D01*
X142165183Y-81033642D01*
X141736924Y-80643355D01*
X141326890Y-80473524D01*
X141097000Y-80594845D01*
X141097000Y-81788000D01*
X141117000Y-81788000D01*
X141117000Y-82042000D01*
X141097000Y-82042000D01*
X141097000Y-83235155D01*
X141326890Y-83356476D01*
X141736924Y-83186645D01*
X142165183Y-82796358D01*
X142292000Y-82526320D01*
X142292000Y-85578851D01*
X142284090Y-85566559D01*
X142071890Y-85421569D01*
X141820000Y-85370560D01*
X140120000Y-85370560D01*
X139884683Y-85414838D01*
X139668559Y-85553910D01*
X139523569Y-85766110D01*
X139501699Y-85874107D01*
X139196924Y-85596355D01*
X138786890Y-85426524D01*
X138557000Y-85547845D01*
X138557000Y-86741000D01*
X138577000Y-86741000D01*
X138577000Y-86995000D01*
X138557000Y-86995000D01*
X138557000Y-88188155D01*
X138786890Y-88309476D01*
X139196924Y-88139645D01*
X139499937Y-87863499D01*
X139516838Y-87953317D01*
X139655910Y-88169441D01*
X139868110Y-88314431D01*
X140120000Y-88365440D01*
X141138362Y-88365440D01*
X141490700Y-88717778D01*
X141490700Y-89996622D01*
X140745539Y-89251461D01*
X140440646Y-89047738D01*
X140081000Y-88976200D01*
X133739278Y-88976200D01*
X133094311Y-88331233D01*
X133350000Y-88382093D01*
X133918285Y-88269054D01*
X134400054Y-87947147D01*
X134620000Y-87617974D01*
X134839946Y-87947147D01*
X135321715Y-88269054D01*
X135890000Y-88382093D01*
X136458285Y-88269054D01*
X136940054Y-87947147D01*
X137167702Y-87606447D01*
X137234817Y-87749358D01*
X137663076Y-88139645D01*
X138073110Y-88309476D01*
X138303000Y-88188155D01*
X138303000Y-86995000D01*
X138283000Y-86995000D01*
X138283000Y-86741000D01*
X138303000Y-86741000D01*
X138303000Y-85547845D01*
X138073110Y-85426524D01*
X137663076Y-85596355D01*
X137234817Y-85986642D01*
X137167702Y-86129553D01*
X136940054Y-85788853D01*
X136458285Y-85466946D01*
X135890000Y-85353907D01*
X135321715Y-85466946D01*
X135310917Y-85474161D01*
X136554539Y-84230539D01*
X136758262Y-83925646D01*
X136829800Y-83566000D01*
X136829800Y-83067816D01*
X136940054Y-82994147D01*
X137160000Y-82664974D01*
X137379946Y-82994147D01*
X137861715Y-83316054D01*
X138430000Y-83429093D01*
X138998285Y-83316054D01*
X139480054Y-82994147D01*
X139707702Y-82653447D01*
X139774817Y-82796358D01*
X140203076Y-83186645D01*
X140613110Y-83356476D01*
X140843000Y-83235155D01*
X140843000Y-82042000D01*
X140823000Y-82042000D01*
X140823000Y-81788000D01*
X140843000Y-81788000D01*
X140843000Y-80594845D01*
X140613110Y-80473524D01*
X140203076Y-80643355D01*
X139774817Y-81033642D01*
X139707702Y-81176553D01*
X139480054Y-80835853D01*
X138998285Y-80513946D01*
X138430000Y-80400907D01*
X137861715Y-80513946D01*
X137379946Y-80835853D01*
X137160000Y-81165026D01*
X136940054Y-80835853D01*
X136827548Y-80760679D01*
X136758262Y-80412354D01*
X136554539Y-80107461D01*
X134689370Y-78242292D01*
X134874000Y-77965974D01*
X135093946Y-78295147D01*
X135575715Y-78617054D01*
X136144000Y-78730093D01*
X136712285Y-78617054D01*
X137194054Y-78295147D01*
X137414000Y-77965974D01*
X137633946Y-78295147D01*
X138115715Y-78617054D01*
X138684000Y-78730093D01*
X139252285Y-78617054D01*
X139734054Y-78295147D01*
X139763403Y-78251223D01*
X139835673Y-78425698D01*
X140014301Y-78604327D01*
X140247690Y-78701000D01*
X140938250Y-78701000D01*
X141097000Y-78542250D01*
X141097000Y-77343000D01*
X141077000Y-77343000D01*
X141077000Y-77089000D01*
X141097000Y-77089000D01*
X141097000Y-77069000D01*
X141351000Y-77069000D01*
X141351000Y-77089000D01*
X141351000Y-77089000D01*
G37*
X141351000Y-77089000D02*
X141371000Y-77089000D01*
X141371000Y-77343000D01*
X141351000Y-77343000D01*
X141351000Y-78542250D01*
X141509750Y-78701000D01*
X142200310Y-78701000D01*
X142292000Y-78663021D01*
X142292000Y-81303680D01*
X142165183Y-81033642D01*
X141736924Y-80643355D01*
X141326890Y-80473524D01*
X141097000Y-80594845D01*
X141097000Y-81788000D01*
X141117000Y-81788000D01*
X141117000Y-82042000D01*
X141097000Y-82042000D01*
X141097000Y-83235155D01*
X141326890Y-83356476D01*
X141736924Y-83186645D01*
X142165183Y-82796358D01*
X142292000Y-82526320D01*
X142292000Y-85578851D01*
X142284090Y-85566559D01*
X142071890Y-85421569D01*
X141820000Y-85370560D01*
X140120000Y-85370560D01*
X139884683Y-85414838D01*
X139668559Y-85553910D01*
X139523569Y-85766110D01*
X139501699Y-85874107D01*
X139196924Y-85596355D01*
X138786890Y-85426524D01*
X138557000Y-85547845D01*
X138557000Y-86741000D01*
X138577000Y-86741000D01*
X138577000Y-86995000D01*
X138557000Y-86995000D01*
X138557000Y-88188155D01*
X138786890Y-88309476D01*
X139196924Y-88139645D01*
X139499937Y-87863499D01*
X139516838Y-87953317D01*
X139655910Y-88169441D01*
X139868110Y-88314431D01*
X140120000Y-88365440D01*
X141138362Y-88365440D01*
X141490700Y-88717778D01*
X141490700Y-89996622D01*
X140745539Y-89251461D01*
X140440646Y-89047738D01*
X140081000Y-88976200D01*
X133739278Y-88976200D01*
X133094311Y-88331233D01*
X133350000Y-88382093D01*
X133918285Y-88269054D01*
X134400054Y-87947147D01*
X134620000Y-87617974D01*
X134839946Y-87947147D01*
X135321715Y-88269054D01*
X135890000Y-88382093D01*
X136458285Y-88269054D01*
X136940054Y-87947147D01*
X137167702Y-87606447D01*
X137234817Y-87749358D01*
X137663076Y-88139645D01*
X138073110Y-88309476D01*
X138303000Y-88188155D01*
X138303000Y-86995000D01*
X138283000Y-86995000D01*
X138283000Y-86741000D01*
X138303000Y-86741000D01*
X138303000Y-85547845D01*
X138073110Y-85426524D01*
X137663076Y-85596355D01*
X137234817Y-85986642D01*
X137167702Y-86129553D01*
X136940054Y-85788853D01*
X136458285Y-85466946D01*
X135890000Y-85353907D01*
X135321715Y-85466946D01*
X135310917Y-85474161D01*
X136554539Y-84230539D01*
X136758262Y-83925646D01*
X136829800Y-83566000D01*
X136829800Y-83067816D01*
X136940054Y-82994147D01*
X137160000Y-82664974D01*
X137379946Y-82994147D01*
X137861715Y-83316054D01*
X138430000Y-83429093D01*
X138998285Y-83316054D01*
X139480054Y-82994147D01*
X139707702Y-82653447D01*
X139774817Y-82796358D01*
X140203076Y-83186645D01*
X140613110Y-83356476D01*
X140843000Y-83235155D01*
X140843000Y-82042000D01*
X140823000Y-82042000D01*
X140823000Y-81788000D01*
X140843000Y-81788000D01*
X140843000Y-80594845D01*
X140613110Y-80473524D01*
X140203076Y-80643355D01*
X139774817Y-81033642D01*
X139707702Y-81176553D01*
X139480054Y-80835853D01*
X138998285Y-80513946D01*
X138430000Y-80400907D01*
X137861715Y-80513946D01*
X137379946Y-80835853D01*
X137160000Y-81165026D01*
X136940054Y-80835853D01*
X136827548Y-80760679D01*
X136758262Y-80412354D01*
X136554539Y-80107461D01*
X134689370Y-78242292D01*
X134874000Y-77965974D01*
X135093946Y-78295147D01*
X135575715Y-78617054D01*
X136144000Y-78730093D01*
X136712285Y-78617054D01*
X137194054Y-78295147D01*
X137414000Y-77965974D01*
X137633946Y-78295147D01*
X138115715Y-78617054D01*
X138684000Y-78730093D01*
X139252285Y-78617054D01*
X139734054Y-78295147D01*
X139763403Y-78251223D01*
X139835673Y-78425698D01*
X140014301Y-78604327D01*
X140247690Y-78701000D01*
X140938250Y-78701000D01*
X141097000Y-78542250D01*
X141097000Y-77343000D01*
X141077000Y-77343000D01*
X141077000Y-77089000D01*
X141097000Y-77089000D01*
X141097000Y-77069000D01*
X141351000Y-77069000D01*
X141351000Y-77089000D01*
G36*
X127757076Y-75944355D02*
X127328817Y-76334642D01*
X127082514Y-76859108D01*
X127203181Y-77089000D01*
X128397000Y-77089000D01*
X128397000Y-77069000D01*
X128651000Y-77069000D01*
X128651000Y-77089000D01*
X128671000Y-77089000D01*
X128671000Y-77343000D01*
X128651000Y-77343000D01*
X128651000Y-77363000D01*
X128397000Y-77363000D01*
X128397000Y-77343000D01*
X127203181Y-77343000D01*
X127188953Y-77370106D01*
X126939766Y-77203604D01*
X126619000Y-77139800D01*
X123952000Y-77139800D01*
X123631235Y-77203604D01*
X123359303Y-77385303D01*
X122528440Y-78216166D01*
X122528440Y-76874000D01*
X122484162Y-76638683D01*
X122345090Y-76422559D01*
X122132890Y-76277569D01*
X121881000Y-76226560D01*
X120181000Y-76226560D01*
X119945683Y-76270838D01*
X119729559Y-76409910D01*
X119584569Y-76622110D01*
X119570914Y-76689541D01*
X119541054Y-76644853D01*
X119059285Y-76322946D01*
X118491000Y-76209907D01*
X117922715Y-76322946D01*
X117440946Y-76644853D01*
X117221000Y-76974026D01*
X117001054Y-76644853D01*
X116519285Y-76322946D01*
X115951000Y-76209907D01*
X115382715Y-76322946D01*
X114900946Y-76644853D01*
X114673298Y-76985553D01*
X114606183Y-76842642D01*
X114177924Y-76452355D01*
X113767890Y-76282524D01*
X113538000Y-76403845D01*
X113538000Y-77597000D01*
X113558000Y-77597000D01*
X113558000Y-77851000D01*
X113538000Y-77851000D01*
X113538000Y-77871000D01*
X113284000Y-77871000D01*
X113284000Y-77851000D01*
X112090181Y-77851000D01*
X111969514Y-78080892D01*
X112215817Y-78605358D01*
X112558657Y-78917800D01*
X112395000Y-78917800D01*
X112074234Y-78981604D01*
X111802303Y-79163303D01*
X111633135Y-79332471D01*
X111511080Y-79382903D01*
X111260782Y-79632764D01*
X111125154Y-79959391D01*
X111124846Y-80313057D01*
X111259903Y-80639920D01*
X111509764Y-80890218D01*
X111836391Y-81025846D01*
X112190057Y-81026154D01*
X112516920Y-80891097D01*
X112767218Y-80641236D01*
X112786749Y-80594200D01*
X115189000Y-80594200D01*
X115509766Y-80530396D01*
X115781697Y-80348697D01*
X116141500Y-79988894D01*
X116501303Y-80348697D01*
X116773234Y-80530396D01*
X117094000Y-80594200D01*
X121657722Y-80594200D01*
X121199362Y-81052560D01*
X120181000Y-81052560D01*
X119945683Y-81096838D01*
X119729559Y-81235910D01*
X119584569Y-81448110D01*
X119570914Y-81515541D01*
X119541054Y-81470853D01*
X119059285Y-81148946D01*
X118491000Y-81035907D01*
X117922715Y-81148946D01*
X117440946Y-81470853D01*
X117221000Y-81800026D01*
X117001054Y-81470853D01*
X116519285Y-81148946D01*
X115951000Y-81035907D01*
X115382715Y-81148946D01*
X114900946Y-81470853D01*
X114673298Y-81811553D01*
X114606183Y-81668642D01*
X114177924Y-81278355D01*
X113767890Y-81108524D01*
X113538000Y-81229845D01*
X113538000Y-82423000D01*
X113558000Y-82423000D01*
X113558000Y-82677000D01*
X113538000Y-82677000D01*
X113538000Y-83870155D01*
X113767890Y-83991476D01*
X114177924Y-83821645D01*
X114606183Y-83431358D01*
X114673298Y-83288447D01*
X114900946Y-83629147D01*
X115163600Y-83804646D01*
X115163600Y-84001848D01*
X114124224Y-85041224D01*
X113953537Y-85296675D01*
X113893600Y-85598000D01*
X113893600Y-85605592D01*
X113767890Y-85553524D01*
X113538000Y-85674845D01*
X113538000Y-86868000D01*
X113558000Y-86868000D01*
X113558000Y-87122000D01*
X113538000Y-87122000D01*
X113538000Y-88315155D01*
X113767890Y-88436476D01*
X113893600Y-88384408D01*
X113893600Y-88700848D01*
X113650930Y-88943518D01*
X113530097Y-88651080D01*
X113280236Y-88400782D01*
X113191537Y-88363951D01*
X113284000Y-88315155D01*
X113284000Y-87122000D01*
X112090181Y-87122000D01*
X111969514Y-87351892D01*
X112215817Y-87876358D01*
X112642142Y-88264883D01*
X112599943Y-88264846D01*
X112273080Y-88399903D01*
X112022782Y-88649764D01*
X111971612Y-88772994D01*
X111567303Y-89177303D01*
X111438549Y-89369997D01*
X109776776Y-87708224D01*
X109600924Y-87590724D01*
X109601154Y-87326943D01*
X109466097Y-87000080D01*
X109445853Y-86979801D01*
X109439463Y-86947675D01*
X109268776Y-86692224D01*
X109214660Y-86638108D01*
X111969514Y-86638108D01*
X112090181Y-86868000D01*
X113284000Y-86868000D01*
X113284000Y-85674845D01*
X113054110Y-85553524D01*
X112644076Y-85723355D01*
X112215817Y-86113642D01*
X111969514Y-86638108D01*
X109214660Y-86638108D01*
X106893400Y-84316848D01*
X106893400Y-83165125D01*
X106907441Y-83156090D01*
X107052431Y-82943890D01*
X107059923Y-82906892D01*
X111969514Y-82906892D01*
X112215817Y-83431358D01*
X112644076Y-83821645D01*
X113054110Y-83991476D01*
X113284000Y-83870155D01*
X113284000Y-82677000D01*
X112090181Y-82677000D01*
X111969514Y-82906892D01*
X107059923Y-82906892D01*
X107103440Y-82692000D01*
X107103440Y-82193108D01*
X111969514Y-82193108D01*
X112090181Y-82423000D01*
X113284000Y-82423000D01*
X113284000Y-81229845D01*
X113054110Y-81108524D01*
X112644076Y-81278355D01*
X112215817Y-81668642D01*
X111969514Y-82193108D01*
X107103440Y-82193108D01*
X107103440Y-81392000D01*
X107059162Y-81156683D01*
X106920090Y-80940559D01*
X106893400Y-80922323D01*
X106893400Y-80579000D01*
X106833463Y-80277675D01*
X106662776Y-80022224D01*
X105943400Y-79302848D01*
X105943400Y-79221440D01*
X106006000Y-79221440D01*
X106241317Y-79177162D01*
X106457441Y-79038090D01*
X106602431Y-78825890D01*
X106624301Y-78717893D01*
X106929076Y-78995645D01*
X107339110Y-79165476D01*
X107569000Y-79044155D01*
X107569000Y-77851000D01*
X107823000Y-77851000D01*
X107823000Y-79044155D01*
X108052890Y-79165476D01*
X108462924Y-78995645D01*
X108891183Y-78605358D01*
X109137486Y-78080892D01*
X109016819Y-77851000D01*
X107823000Y-77851000D01*
X107569000Y-77851000D01*
X107549000Y-77851000D01*
X107549000Y-77597000D01*
X107569000Y-77597000D01*
X107569000Y-76403845D01*
X107823000Y-76403845D01*
X107823000Y-77597000D01*
X109016819Y-77597000D01*
X109137486Y-77367108D01*
X111969514Y-77367108D01*
X112090181Y-77597000D01*
X113284000Y-77597000D01*
X113284000Y-76403845D01*
X113054110Y-76282524D01*
X112644076Y-76452355D01*
X112215817Y-76842642D01*
X111969514Y-77367108D01*
X109137486Y-77367108D01*
X108891183Y-76842642D01*
X108462924Y-76452355D01*
X108052890Y-76282524D01*
X107823000Y-76403845D01*
X107569000Y-76403845D01*
X107339110Y-76282524D01*
X106929076Y-76452355D01*
X106626063Y-76728501D01*
X106609162Y-76638683D01*
X106470090Y-76422559D01*
X106257890Y-76277569D01*
X106006000Y-76226560D01*
X104306000Y-76226560D01*
X104070683Y-76270838D01*
X103854559Y-76409910D01*
X103709569Y-76622110D01*
X103658560Y-76874000D01*
X103658560Y-77526008D01*
X102026552Y-75894000D01*
X127878651Y-75894000D01*
X127757076Y-75944355D01*
X127757076Y-75944355D01*
G37*
X127757076Y-75944355D02*
X127328817Y-76334642D01*
X127082514Y-76859108D01*
X127203181Y-77089000D01*
X128397000Y-77089000D01*
X128397000Y-77069000D01*
X128651000Y-77069000D01*
X128651000Y-77089000D01*
X128671000Y-77089000D01*
X128671000Y-77343000D01*
X128651000Y-77343000D01*
X128651000Y-77363000D01*
X128397000Y-77363000D01*
X128397000Y-77343000D01*
X127203181Y-77343000D01*
X127188953Y-77370106D01*
X126939766Y-77203604D01*
X126619000Y-77139800D01*
X123952000Y-77139800D01*
X123631235Y-77203604D01*
X123359303Y-77385303D01*
X122528440Y-78216166D01*
X122528440Y-76874000D01*
X122484162Y-76638683D01*
X122345090Y-76422559D01*
X122132890Y-76277569D01*
X121881000Y-76226560D01*
X120181000Y-76226560D01*
X119945683Y-76270838D01*
X119729559Y-76409910D01*
X119584569Y-76622110D01*
X119570914Y-76689541D01*
X119541054Y-76644853D01*
X119059285Y-76322946D01*
X118491000Y-76209907D01*
X117922715Y-76322946D01*
X117440946Y-76644853D01*
X117221000Y-76974026D01*
X117001054Y-76644853D01*
X116519285Y-76322946D01*
X115951000Y-76209907D01*
X115382715Y-76322946D01*
X114900946Y-76644853D01*
X114673298Y-76985553D01*
X114606183Y-76842642D01*
X114177924Y-76452355D01*
X113767890Y-76282524D01*
X113538000Y-76403845D01*
X113538000Y-77597000D01*
X113558000Y-77597000D01*
X113558000Y-77851000D01*
X113538000Y-77851000D01*
X113538000Y-77871000D01*
X113284000Y-77871000D01*
X113284000Y-77851000D01*
X112090181Y-77851000D01*
X111969514Y-78080892D01*
X112215817Y-78605358D01*
X112558657Y-78917800D01*
X112395000Y-78917800D01*
X112074234Y-78981604D01*
X111802303Y-79163303D01*
X111633135Y-79332471D01*
X111511080Y-79382903D01*
X111260782Y-79632764D01*
X111125154Y-79959391D01*
X111124846Y-80313057D01*
X111259903Y-80639920D01*
X111509764Y-80890218D01*
X111836391Y-81025846D01*
X112190057Y-81026154D01*
X112516920Y-80891097D01*
X112767218Y-80641236D01*
X112786749Y-80594200D01*
X115189000Y-80594200D01*
X115509766Y-80530396D01*
X115781697Y-80348697D01*
X116141500Y-79988894D01*
X116501303Y-80348697D01*
X116773234Y-80530396D01*
X117094000Y-80594200D01*
X121657722Y-80594200D01*
X121199362Y-81052560D01*
X120181000Y-81052560D01*
X119945683Y-81096838D01*
X119729559Y-81235910D01*
X119584569Y-81448110D01*
X119570914Y-81515541D01*
X119541054Y-81470853D01*
X119059285Y-81148946D01*
X118491000Y-81035907D01*
X117922715Y-81148946D01*
X117440946Y-81470853D01*
X117221000Y-81800026D01*
X117001054Y-81470853D01*
X116519285Y-81148946D01*
X115951000Y-81035907D01*
X115382715Y-81148946D01*
X114900946Y-81470853D01*
X114673298Y-81811553D01*
X114606183Y-81668642D01*
X114177924Y-81278355D01*
X113767890Y-81108524D01*
X113538000Y-81229845D01*
X113538000Y-82423000D01*
X113558000Y-82423000D01*
X113558000Y-82677000D01*
X113538000Y-82677000D01*
X113538000Y-83870155D01*
X113767890Y-83991476D01*
X114177924Y-83821645D01*
X114606183Y-83431358D01*
X114673298Y-83288447D01*
X114900946Y-83629147D01*
X115163600Y-83804646D01*
X115163600Y-84001848D01*
X114124224Y-85041224D01*
X113953537Y-85296675D01*
X113893600Y-85598000D01*
X113893600Y-85605592D01*
X113767890Y-85553524D01*
X113538000Y-85674845D01*
X113538000Y-86868000D01*
X113558000Y-86868000D01*
X113558000Y-87122000D01*
X113538000Y-87122000D01*
X113538000Y-88315155D01*
X113767890Y-88436476D01*
X113893600Y-88384408D01*
X113893600Y-88700848D01*
X113650930Y-88943518D01*
X113530097Y-88651080D01*
X113280236Y-88400782D01*
X113191537Y-88363951D01*
X113284000Y-88315155D01*
X113284000Y-87122000D01*
X112090181Y-87122000D01*
X111969514Y-87351892D01*
X112215817Y-87876358D01*
X112642142Y-88264883D01*
X112599943Y-88264846D01*
X112273080Y-88399903D01*
X112022782Y-88649764D01*
X111971612Y-88772994D01*
X111567303Y-89177303D01*
X111438549Y-89369997D01*
X109776776Y-87708224D01*
X109600924Y-87590724D01*
X109601154Y-87326943D01*
X109466097Y-87000080D01*
X109445853Y-86979801D01*
X109439463Y-86947675D01*
X109268776Y-86692224D01*
X109214660Y-86638108D01*
X111969514Y-86638108D01*
X112090181Y-86868000D01*
X113284000Y-86868000D01*
X113284000Y-85674845D01*
X113054110Y-85553524D01*
X112644076Y-85723355D01*
X112215817Y-86113642D01*
X111969514Y-86638108D01*
X109214660Y-86638108D01*
X106893400Y-84316848D01*
X106893400Y-83165125D01*
X106907441Y-83156090D01*
X107052431Y-82943890D01*
X107059923Y-82906892D01*
X111969514Y-82906892D01*
X112215817Y-83431358D01*
X112644076Y-83821645D01*
X113054110Y-83991476D01*
X113284000Y-83870155D01*
X113284000Y-82677000D01*
X112090181Y-82677000D01*
X111969514Y-82906892D01*
X107059923Y-82906892D01*
X107103440Y-82692000D01*
X107103440Y-82193108D01*
X111969514Y-82193108D01*
X112090181Y-82423000D01*
X113284000Y-82423000D01*
X113284000Y-81229845D01*
X113054110Y-81108524D01*
X112644076Y-81278355D01*
X112215817Y-81668642D01*
X111969514Y-82193108D01*
X107103440Y-82193108D01*
X107103440Y-81392000D01*
X107059162Y-81156683D01*
X106920090Y-80940559D01*
X106893400Y-80922323D01*
X106893400Y-80579000D01*
X106833463Y-80277675D01*
X106662776Y-80022224D01*
X105943400Y-79302848D01*
X105943400Y-79221440D01*
X106006000Y-79221440D01*
X106241317Y-79177162D01*
X106457441Y-79038090D01*
X106602431Y-78825890D01*
X106624301Y-78717893D01*
X106929076Y-78995645D01*
X107339110Y-79165476D01*
X107569000Y-79044155D01*
X107569000Y-77851000D01*
X107823000Y-77851000D01*
X107823000Y-79044155D01*
X108052890Y-79165476D01*
X108462924Y-78995645D01*
X108891183Y-78605358D01*
X109137486Y-78080892D01*
X109016819Y-77851000D01*
X107823000Y-77851000D01*
X107569000Y-77851000D01*
X107549000Y-77851000D01*
X107549000Y-77597000D01*
X107569000Y-77597000D01*
X107569000Y-76403845D01*
X107823000Y-76403845D01*
X107823000Y-77597000D01*
X109016819Y-77597000D01*
X109137486Y-77367108D01*
X111969514Y-77367108D01*
X112090181Y-77597000D01*
X113284000Y-77597000D01*
X113284000Y-76403845D01*
X113054110Y-76282524D01*
X112644076Y-76452355D01*
X112215817Y-76842642D01*
X111969514Y-77367108D01*
X109137486Y-77367108D01*
X108891183Y-76842642D01*
X108462924Y-76452355D01*
X108052890Y-76282524D01*
X107823000Y-76403845D01*
X107569000Y-76403845D01*
X107339110Y-76282524D01*
X106929076Y-76452355D01*
X106626063Y-76728501D01*
X106609162Y-76638683D01*
X106470090Y-76422559D01*
X106257890Y-76277569D01*
X106006000Y-76226560D01*
X104306000Y-76226560D01*
X104070683Y-76270838D01*
X103854559Y-76409910D01*
X103709569Y-76622110D01*
X103658560Y-76874000D01*
X103658560Y-77526008D01*
X102026552Y-75894000D01*
X127878651Y-75894000D01*
X127757076Y-75944355D01*
M02*
