G04 #@! TF.FileFunction,Other,User*
%FSLAX46Y46*%
G04 Gerber Fmt 4.6, Leading zero omitted, Abs format (unit mm)*
G04 Created by KiCad (PCBNEW 4.0.2+dfsg1-stable) date Mon Nov  6 16:18:01 2017*
%MOMM*%
G01*
G04 APERTURE LIST*
%ADD10C,0.100000*%
%ADD11C,0.050000*%
G04 APERTURE END LIST*
D10*
D11*
X125327000Y-93196000D02*
X125327000Y-99346000D01*
X125327000Y-99346000D02*
X128927000Y-99346000D01*
X128927000Y-99346000D02*
X128927000Y-93196000D01*
X128927000Y-93196000D02*
X125327000Y-93196000D01*
X91999000Y-95035000D02*
X91999000Y-84035000D01*
X82499000Y-95035000D02*
X82499000Y-84035000D01*
X91999000Y-95035000D02*
X82499000Y-95035000D01*
X91999000Y-84035000D02*
X82499000Y-84035000D01*
X85118000Y-81035000D02*
X88618000Y-81035000D01*
X85118000Y-81035000D02*
X85118000Y-82785000D01*
X88618000Y-82785000D02*
X88618000Y-81035000D01*
X88618000Y-82785000D02*
X85118000Y-82785000D01*
X89417000Y-83792000D02*
X89417000Y-80292000D01*
X89417000Y-83792000D02*
X91167000Y-83792000D01*
X91167000Y-80292000D02*
X89417000Y-80292000D01*
X91167000Y-80292000D02*
X91167000Y-83792000D01*
X102244000Y-91031000D02*
X102244000Y-87531000D01*
X102244000Y-91031000D02*
X103994000Y-91031000D01*
X103994000Y-87531000D02*
X102244000Y-87531000D01*
X103994000Y-87531000D02*
X103994000Y-91031000D01*
X122527000Y-96511000D02*
X119027000Y-96511000D01*
X122527000Y-96511000D02*
X122527000Y-94761000D01*
X119027000Y-94761000D02*
X119027000Y-96511000D01*
X119027000Y-94761000D02*
X122527000Y-94761000D01*
X119154000Y-97037000D02*
X122654000Y-97037000D01*
X119154000Y-97037000D02*
X119154000Y-98787000D01*
X122654000Y-98787000D02*
X122654000Y-97037000D01*
X122654000Y-98787000D02*
X119154000Y-98787000D01*
X102136000Y-95640000D02*
X105636000Y-95640000D01*
X102136000Y-95640000D02*
X102136000Y-97390000D01*
X105636000Y-97390000D02*
X105636000Y-95640000D01*
X105636000Y-97390000D02*
X102136000Y-97390000D01*
X102263000Y-98942000D02*
X105763000Y-98942000D01*
X102263000Y-98942000D02*
X102263000Y-100692000D01*
X105763000Y-100692000D02*
X105763000Y-98942000D01*
X105763000Y-100692000D02*
X102263000Y-100692000D01*
X121404000Y-99972000D02*
X143014000Y-99972000D01*
X143014000Y-99972000D02*
X143014000Y-110082000D01*
X143014000Y-110082000D02*
X121404000Y-110082000D01*
X121404000Y-110082000D02*
X121404000Y-99972000D01*
X85576000Y-79524000D02*
X101876000Y-79524000D01*
X101876000Y-79524000D02*
X101876000Y-75924000D01*
X101876000Y-75924000D02*
X85576000Y-75924000D01*
X85576000Y-75924000D02*
X85576000Y-79524000D01*
X119148000Y-103610000D02*
X107948000Y-103610000D01*
X107948000Y-103610000D02*
X107948000Y-107210000D01*
X107948000Y-107210000D02*
X119148000Y-107210000D01*
X119148000Y-107210000D02*
X119148000Y-103610000D01*
X124311000Y-78718000D02*
X124311000Y-89918000D01*
X124311000Y-89918000D02*
X127911000Y-89918000D01*
X127911000Y-89918000D02*
X127911000Y-78718000D01*
X127911000Y-78718000D02*
X124311000Y-78718000D01*
X122831000Y-75924000D02*
X111631000Y-75924000D01*
X111631000Y-75924000D02*
X111631000Y-79524000D01*
X111631000Y-79524000D02*
X122831000Y-79524000D01*
X122831000Y-79524000D02*
X122831000Y-75924000D01*
X103356000Y-79524000D02*
X109506000Y-79524000D01*
X109506000Y-79524000D02*
X109506000Y-75924000D01*
X109506000Y-75924000D02*
X103356000Y-75924000D01*
X103356000Y-75924000D02*
X103356000Y-79524000D01*
X122831000Y-85195000D02*
X111631000Y-85195000D01*
X111631000Y-85195000D02*
X111631000Y-88795000D01*
X111631000Y-88795000D02*
X122831000Y-88795000D01*
X122831000Y-88795000D02*
X122831000Y-85195000D01*
X118088000Y-115675000D02*
X118088000Y-126875000D01*
X118088000Y-126875000D02*
X124238000Y-126875000D01*
X124238000Y-126875000D02*
X124238000Y-115675000D01*
X124238000Y-115675000D02*
X118088000Y-115675000D01*
X122831000Y-80750000D02*
X111631000Y-80750000D01*
X111631000Y-80750000D02*
X111631000Y-84350000D01*
X111631000Y-84350000D02*
X122831000Y-84350000D01*
X122831000Y-84350000D02*
X122831000Y-80750000D01*
X142643000Y-90402000D02*
X131443000Y-90402000D01*
X131443000Y-90402000D02*
X131443000Y-94002000D01*
X131443000Y-94002000D02*
X142643000Y-94002000D01*
X142643000Y-94002000D02*
X142643000Y-90402000D01*
X93229000Y-101574000D02*
X93229000Y-104674000D01*
X93229000Y-101574000D02*
X91429000Y-101574000D01*
X91429000Y-104674000D02*
X93229000Y-104674000D01*
X91429000Y-104674000D02*
X91429000Y-101574000D01*
X102224000Y-94514000D02*
X102224000Y-91414000D01*
X102224000Y-94514000D02*
X104024000Y-94514000D01*
X104024000Y-91414000D02*
X102224000Y-91414000D01*
X104024000Y-91414000D02*
X104024000Y-94514000D01*
X104495000Y-102732000D02*
X107595000Y-102732000D01*
X104495000Y-102732000D02*
X104495000Y-104532000D01*
X107595000Y-104532000D02*
X107595000Y-102732000D01*
X107595000Y-104532000D02*
X104495000Y-104532000D01*
X104495000Y-105272000D02*
X107595000Y-105272000D01*
X104495000Y-105272000D02*
X104495000Y-107072000D01*
X107595000Y-107072000D02*
X107595000Y-105272000D01*
X107595000Y-107072000D02*
X104495000Y-107072000D01*
X103606000Y-81142000D02*
X106706000Y-81142000D01*
X103606000Y-81142000D02*
X103606000Y-82942000D01*
X106706000Y-82942000D02*
X106706000Y-81142000D01*
X106706000Y-82942000D02*
X103606000Y-82942000D01*
X124725000Y-92684000D02*
X124725000Y-95784000D01*
X124725000Y-92684000D02*
X122925000Y-92684000D01*
X122925000Y-95784000D02*
X124725000Y-95784000D01*
X122925000Y-95784000D02*
X122925000Y-92684000D01*
X87477000Y-100954000D02*
X90577000Y-100954000D01*
X87477000Y-100954000D02*
X87477000Y-102754000D01*
X90577000Y-102754000D02*
X90577000Y-100954000D01*
X90577000Y-102754000D02*
X87477000Y-102754000D01*
X90577000Y-100468000D02*
X87477000Y-100468000D01*
X90577000Y-100468000D02*
X90577000Y-98668000D01*
X87477000Y-98668000D02*
X87477000Y-100468000D01*
X87477000Y-98668000D02*
X90577000Y-98668000D01*
X94698000Y-96438000D02*
X94698000Y-105238000D01*
X101898000Y-96438000D02*
X94698000Y-96438000D01*
X101898000Y-105238000D02*
X101898000Y-96438000D01*
X94698000Y-105238000D02*
X101898000Y-105238000D01*
X106460000Y-91093000D02*
X106460000Y-101693000D01*
X117060000Y-91093000D02*
X117060000Y-101693000D01*
X106460000Y-91093000D02*
X117060000Y-91093000D01*
X106460000Y-101693000D02*
X117060000Y-101693000D01*
X101733000Y-84003000D02*
X96133000Y-84003000D01*
X96133000Y-84003000D02*
X96133000Y-95903000D01*
X96133000Y-95903000D02*
X101733000Y-95903000D01*
X101733000Y-95903000D02*
X101733000Y-84003000D01*
X93179000Y-100629000D02*
X91479000Y-100629000D01*
X91479000Y-100629000D02*
X91479000Y-96729000D01*
X91479000Y-96729000D02*
X93179000Y-96729000D01*
X93179000Y-96729000D02*
X93179000Y-100629000D01*
X120149000Y-110703000D02*
X120149000Y-115103000D01*
X120149000Y-115103000D02*
X117849000Y-115103000D01*
X117849000Y-115103000D02*
X117849000Y-110703000D01*
X120149000Y-110703000D02*
X117849000Y-110703000D01*
X85836000Y-95957000D02*
X85836000Y-95707000D01*
X85836000Y-95707000D02*
X70836000Y-95707000D01*
X85836000Y-95957000D02*
X85836000Y-98457000D01*
X85836000Y-98457000D02*
X86836000Y-98457000D01*
X86836000Y-98457000D02*
X86836000Y-102457000D01*
X86836000Y-102457000D02*
X85836000Y-102457000D01*
X85836000Y-102457000D02*
X85836000Y-105207000D01*
X85836000Y-105207000D02*
X83836000Y-105207000D01*
X83836000Y-105207000D02*
X83836000Y-107207000D01*
X83836000Y-107207000D02*
X79836000Y-107207000D01*
X79836000Y-107207000D02*
X79836000Y-105207000D01*
X79836000Y-105207000D02*
X70836000Y-105207000D01*
X70836000Y-105207000D02*
X70836000Y-95707000D01*
X80187000Y-84935000D02*
X80187000Y-94135000D01*
X80187000Y-94135000D02*
X73337000Y-94135000D01*
X73337000Y-94135000D02*
X73337000Y-84935000D01*
X73337000Y-84935000D02*
X80187000Y-84935000D01*
X131550000Y-83715000D02*
X142750000Y-83715000D01*
X142750000Y-83715000D02*
X142750000Y-80115000D01*
X142750000Y-80115000D02*
X131550000Y-80115000D01*
X131550000Y-80115000D02*
X131550000Y-83715000D01*
X142770000Y-85068000D02*
X131570000Y-85068000D01*
X131570000Y-85068000D02*
X131570000Y-88668000D01*
X131570000Y-88668000D02*
X142770000Y-88668000D01*
X142770000Y-88668000D02*
X142770000Y-85068000D01*
X84077000Y-82962000D02*
X84327000Y-82962000D01*
X84327000Y-82962000D02*
X84327000Y-82712000D01*
X84077000Y-75462000D02*
X84327000Y-75462000D01*
X84327000Y-75462000D02*
X84327000Y-75712000D01*
X74827000Y-75712000D02*
X74827000Y-75462000D01*
X74827000Y-75462000D02*
X75077000Y-75462000D01*
X74827000Y-82712000D02*
X74827000Y-82962000D01*
X74827000Y-82962000D02*
X75077000Y-82962000D01*
X75077000Y-75462000D02*
X84077000Y-75462000D01*
X74827000Y-82712000D02*
X74827000Y-75712000D01*
X84077000Y-82962000D02*
X75077000Y-82962000D01*
X84327000Y-75712000D02*
X84327000Y-82712000D01*
X90973000Y-106306000D02*
X86573000Y-106306000D01*
X86573000Y-106306000D02*
X86573000Y-104006000D01*
X86573000Y-104006000D02*
X90973000Y-104006000D01*
X90973000Y-106306000D02*
X90973000Y-104006000D01*
X143024000Y-75416000D02*
X126724000Y-75416000D01*
X126724000Y-75416000D02*
X126724000Y-79016000D01*
X126724000Y-79016000D02*
X143024000Y-79016000D01*
X143024000Y-79016000D02*
X143024000Y-75416000D01*
X142770000Y-94593000D02*
X129020000Y-94593000D01*
X129020000Y-94593000D02*
X129020000Y-98193000D01*
X129020000Y-98193000D02*
X142770000Y-98193000D01*
X142770000Y-98193000D02*
X142770000Y-94593000D01*
M02*
